<?xml version="1.0" encoding="UTF-8"?><svg xmlns="http://www.w3.org/2000/svg" xmlns:xlink="http://www.w3.org/1999/xlink" fill-opacity="1" color-rendering="auto" color-interpolation="auto" text-rendering="auto" stroke="black" stroke-linecap="square" width="279" stroke-miterlimit="10" shape-rendering="auto" stroke-opacity="1" fill="black" stroke-dasharray="none" font-weight="normal" stroke-width="1" height="587" font-family="'Dialog'" font-style="normal" stroke-linejoin="miter" font-size="12px" stroke-dashoffset="0" image-rendering="auto">
  <!--Generated by ySVG 2.6-->
  <defs id="genericDefs"/>
  <g>
    <defs id="defs1">
      <linearGradient x1="-10" gradientUnits="userSpaceOnUse" x2="70" y1="115" y2="165" id="linearGradient1" spreadMethod="reflect">
        <stop stop-opacity="1" stop-color="rgb(232,238,247)" offset="0%"/>
        <stop stop-opacity="1" stop-color="rgb(183,201,227)" offset="100%"/>
      </linearGradient>
      <linearGradient x1="-15" gradientUnits="userSpaceOnUse" x2="75" y1="190" y2="230" id="linearGradient2" spreadMethod="reflect">
        <stop stop-opacity="1" stop-color="rgb(232,238,247)" offset="0%"/>
        <stop stop-opacity="1" stop-color="rgb(183,201,227)" offset="100%"/>
      </linearGradient>
      <linearGradient x1="-50" gradientUnits="userSpaceOnUse" x2="110" y1="253.2" y2="333.2" id="linearGradient3" spreadMethod="reflect">
        <stop stop-opacity="1" stop-color="rgb(232,238,247)" offset="0%"/>
        <stop stop-opacity="1" stop-color="rgb(183,201,227)" offset="100%"/>
      </linearGradient>
      <linearGradient x1="-10" gradientUnits="userSpaceOnUse" x2="70" y1="-20" y2="20" id="linearGradient4" spreadMethod="reflect">
        <stop stop-opacity="1" stop-color="rgb(232,238,247)" offset="0%"/>
        <stop stop-opacity="1" stop-color="rgb(183,201,227)" offset="100%"/>
      </linearGradient>
      <linearGradient x1="-10" gradientUnits="userSpaceOnUse" x2="70" y1="496.4" y2="536.4" id="linearGradient5" spreadMethod="reflect">
        <stop stop-opacity="1" stop-color="rgb(232,238,247)" offset="0%"/>
        <stop stop-opacity="1" stop-color="rgb(183,201,227)" offset="100%"/>
      </linearGradient>
      <linearGradient x1="-10" gradientUnits="userSpaceOnUse" x2="70" y1="50" y2="90" id="linearGradient6" spreadMethod="reflect">
        <stop stop-opacity="1" stop-color="rgb(232,238,247)" offset="0%"/>
        <stop stop-opacity="1" stop-color="rgb(183,201,227)" offset="100%"/>
      </linearGradient>
      <linearGradient x1="-60" gradientUnits="userSpaceOnUse" x2="120" y1="356.4" y2="396.4" id="linearGradient7" spreadMethod="reflect">
        <stop stop-opacity="1" stop-color="rgb(232,238,247)" offset="0%"/>
        <stop stop-opacity="1" stop-color="rgb(183,201,227)" offset="100%"/>
      </linearGradient>
      <linearGradient x1="-10" gradientUnits="userSpaceOnUse" x2="70" y1="426.4" y2="466.4" id="linearGradient8" spreadMethod="reflect">
        <stop stop-opacity="1" stop-color="rgb(232,238,247)" offset="0%"/>
        <stop stop-opacity="1" stop-color="rgb(183,201,227)" offset="100%"/>
      </linearGradient>
      <clipPath clipPathUnits="userSpaceOnUse" id="clipPath1">
        <path d="M0 0 L279 0 L279 587 L0 587 L0 0 Z"/>
      </clipPath>
      <clipPath clipPathUnits="userSpaceOnUse" id="clipPath2">
        <path d="M-128 -35 L151 -35 L151 552 L-128 552 L-128 -35 Z"/>
      </clipPath>
    </defs>
    <g fill="url(#linearGradient1)" text-rendering="geometricPrecision" shape-rendering="geometricPrecision" transform="matrix(1,0,0,1,128,35)" stroke="url(#linearGradient1)">
      <path d="M2.75 115 L70 115 L57.25 165 L-10 165 Z" stroke="none" clip-path="url(#clipPath2)"/>
    </g>
    <g text-rendering="geometricPrecision" stroke-miterlimit="1.45" stroke-width="2" shape-rendering="geometricPrecision" transform="matrix(1,0,0,1,128,35)" stroke-linecap="butt">
      <path fill="none" d="M2.75 115 L70 115 L57.25 165 L-10 165 Z" clip-path="url(#clipPath2)"/>
      <text x="14.5049" y="130.0127" clip-path="url(#clipPath2)" font-family="sans-serif" stroke="none" font-weight="bold" stroke-width="1" xml:space="preserve">Ввод</text>
      <text x="13.333" y="144.7139" clip-path="url(#clipPath2)" font-family="sans-serif" stroke="none" font-weight="bold" stroke-width="1" xml:space="preserve">hours</text>
      <text x="6.9961" y="159.415" clip-path="url(#clipPath2)" font-family="sans-serif" stroke="none" font-weight="bold" stroke-width="1" xml:space="preserve">minutes</text>
    </g>
    <g fill="url(#linearGradient2)" text-rendering="geometricPrecision" shape-rendering="geometricPrecision" transform="matrix(1,0,0,1,128,35)" stroke="url(#linearGradient2)">
      <path d="M30 190 L75 210 L30 230 L-15 210 Z" stroke="none" clip-path="url(#clipPath2)"/>
    </g>
    <g text-rendering="geometricPrecision" stroke-miterlimit="1.45" stroke-width="2" shape-rendering="geometricPrecision" transform="matrix(1,0,0,1,128,35)" stroke-linecap="butt">
      <path fill="none" d="M30 190 L75 210 L30 230 L-15 210 Z" clip-path="url(#clipPath2)"/>
      <text x="-2.3438" y="214.7139" clip-path="url(#clipPath2)" font-family="sans-serif" stroke="none" font-weight="bold" stroke-width="1" xml:space="preserve">hours == -1</text>
    </g>
    <g fill="url(#linearGradient3)" text-rendering="geometricPrecision" shape-rendering="geometricPrecision" transform="matrix(1,0,0,1,128,35)" stroke="url(#linearGradient3)">
      <path d="M30 253.2 L110 293.2 L30 333.2 L-50 293.2 Z" stroke="none" clip-path="url(#clipPath2)"/>
    </g>
    <g text-rendering="geometricPrecision" stroke-miterlimit="1.45" stroke-width="2" shape-rendering="geometricPrecision" transform="matrix(1,0,0,1,128,35)" stroke-linecap="butt">
      <path fill="none" d="M30 253.2 L110 293.2 L30 333.2 L-50 293.2 Z" clip-path="url(#clipPath2)"/>
      <text x="-13.8574" y="290.5633" clip-path="url(#clipPath2)" font-family="sans-serif" stroke="none" font-weight="bold" stroke-width="1" xml:space="preserve">0 &lt;= hours &lt; 24</text>
      <text x="-20.1943" y="305.2645" clip-path="url(#clipPath2)" font-family="sans-serif" stroke="none" font-weight="bold" stroke-width="1" xml:space="preserve">0 &lt;= minutes &lt; 60</text>
    </g>
    <g fill="url(#linearGradient4)" text-rendering="geometricPrecision" shape-rendering="geometricPrecision" transform="matrix(1,0,0,1,128,35)" stroke="url(#linearGradient4)">
      <rect x="-10" y="-20" clip-path="url(#clipPath2)" width="80" rx="20" ry="20" height="40" stroke="none"/>
    </g>
    <g text-rendering="geometricPrecision" stroke-miterlimit="1.45" stroke-width="2" shape-rendering="geometricPrecision" transform="matrix(1,0,0,1,128,35)" stroke-linecap="butt">
      <rect x="-10" y="-20" clip-path="url(#clipPath2)" fill="none" width="80" rx="20" ry="20" height="40"/>
      <text x="8.0332" y="4.7139" clip-path="url(#clipPath2)" font-family="sans-serif" stroke="none" font-weight="bold" stroke-width="1" xml:space="preserve">Начало</text>
    </g>
    <g fill="url(#linearGradient5)" text-rendering="geometricPrecision" shape-rendering="geometricPrecision" transform="matrix(1,0,0,1,128,35)" stroke="url(#linearGradient5)">
      <rect x="-10" y="496.4" clip-path="url(#clipPath2)" width="80" rx="20" ry="20" height="40" stroke="none"/>
    </g>
    <g text-rendering="geometricPrecision" stroke-miterlimit="1.45" stroke-width="2" shape-rendering="geometricPrecision" transform="matrix(1,0,0,1,128,35)" stroke-linecap="butt">
      <rect x="-10" y="496.4" clip-path="url(#clipPath2)" fill="none" width="80" rx="20" ry="20" height="40"/>
      <text x="12.0234" y="521.1139" clip-path="url(#clipPath2)" font-family="sans-serif" stroke="none" font-weight="bold" stroke-width="1" xml:space="preserve">Конец</text>
    </g>
    <g fill="url(#linearGradient6)" text-rendering="geometricPrecision" shape-rendering="geometricPrecision" transform="matrix(1,0,0,1,128,35)" stroke="url(#linearGradient6)">
      <path d="M0 50 L60 50 L70 60 L70 90 L-10 90 L-10 60 Z" stroke="none" clip-path="url(#clipPath2)"/>
    </g>
    <g text-rendering="geometricPrecision" stroke-miterlimit="1.45" stroke-width="2" shape-rendering="geometricPrecision" transform="matrix(1,0,0,1,128,35)" stroke-linecap="butt">
      <path fill="none" d="M0 50 L60 50 L70 60 L70 90 L-10 90 L-10 60 Z" clip-path="url(#clipPath2)"/>
      <text x="-7.0225" y="67.3633" clip-path="url(#clipPath2)" font-family="sans-serif" stroke="none" font-weight="bold" stroke-width="1" xml:space="preserve">Eternal cycle</text>
      <text x="0.3281" y="82.0645" clip-path="url(#clipPath2)" font-family="sans-serif" stroke="none" font-weight="bold" stroke-width="1" xml:space="preserve">while True</text>
    </g>
    <g fill="url(#linearGradient7)" text-rendering="geometricPrecision" shape-rendering="geometricPrecision" transform="matrix(1,0,0,1,128,35)" stroke="url(#linearGradient7)">
      <rect x="-60" width="180" height="40" y="356.4" clip-path="url(#clipPath2)" stroke="none"/>
    </g>
    <g text-rendering="geometricPrecision" stroke-miterlimit="1.45" stroke-width="2" shape-rendering="geometricPrecision" transform="matrix(1,0,0,1,128,35)" stroke-linecap="butt">
      <rect fill="none" x="-60" width="180" height="40" y="356.4" clip-path="url(#clipPath2)"/>
      <path fill="none" d="M-50 356.4 L-50 396.4 M110 356.4 L110 396.4 M-50 356.4 Z" clip-path="url(#clipPath2)"/>
      <text x="-44.6631" y="381.1139" clip-path="url(#clipPath2)" font-family="sans-serif" stroke="none" font-weight="bold" stroke-width="1" xml:space="preserve">print_info(hours, minutes)</text>
    </g>
    <g fill="url(#linearGradient8)" text-rendering="geometricPrecision" shape-rendering="geometricPrecision" transform="matrix(1,0,0,1,128,35)" stroke="url(#linearGradient8)">
      <path d="M-10 426.4 L70 426.4 L70 456.4 L60 466.4 L0 466.4 L-10 456.4 Z" stroke="none" clip-path="url(#clipPath2)"/>
    </g>
    <g text-rendering="geometricPrecision" stroke-miterlimit="1.45" stroke-width="2" shape-rendering="geometricPrecision" transform="matrix(1,0,0,1,128,35)" stroke-linecap="butt">
      <path fill="none" d="M-10 426.4 L70 426.4 L70 456.4 L60 466.4 L0 466.4 L-10 456.4 Z" clip-path="url(#clipPath2)"/>
      <text x="-7.0225" y="451.1139" clip-path="url(#clipPath2)" font-family="sans-serif" stroke="none" font-weight="bold" stroke-width="1" xml:space="preserve">Eternal cycle</text>
    </g>
    <g text-rendering="geometricPrecision" stroke-miterlimit="1.45" shape-rendering="geometricPrecision" transform="matrix(1,0,0,1,128,35)" stroke-linecap="butt">
      <path fill="none" d="M30 164.9854 L30 189.9984" clip-path="url(#clipPath2)"/>
    </g>
    <g text-rendering="geometricPrecision" stroke-miterlimit="1.45" shape-rendering="geometricPrecision" transform="matrix(1,0,0,1,128,35)" stroke-linecap="butt">
      <path fill="none" d="M30 230.0098 L30 245.1682" clip-path="url(#clipPath2)"/>
      <path d="M30 253.1682 L35 241.1682 L30 244.1682 L25 241.1682 Z" clip-path="url(#clipPath2)" stroke="none"/>
      <text x="42.0116" y="244.4339" clip-path="url(#clipPath2)" font-family="sans-serif" stroke="none" font-weight="bold" xml:space="preserve">Нет</text>
      <path fill="none" d="M109.9992 293.2 L135.6 293.2 L135.6 140 L71.6445 140" clip-path="url(#clipPath2)"/>
      <path d="M63.6445 140 L75.6445 145 L72.6445 140 L75.6445 135 Z" clip-path="url(#clipPath2)" stroke="none"/>
      <text x="110.3832" y="221.3139" clip-path="url(#clipPath2)" font-family="sans-serif" stroke="none" font-weight="bold" xml:space="preserve">Нет</text>
      <path fill="none" d="M-15.0096 210 L-112.3625 210 L-112.3625 481.4 L30 481.4 L30 488.4049" clip-path="url(#clipPath2)"/>
      <path d="M30 496.4049 L35 484.4049 L30 487.4049 L25 484.4049 Z" clip-path="url(#clipPath2)" stroke="none"/>
      <text x="-62.9738" y="200.5014" clip-path="url(#clipPath2)" font-family="sans-serif" stroke="none" font-weight="bold" xml:space="preserve">Да</text>
      <path fill="none" d="M30 19.9951 L30 50.0273" clip-path="url(#clipPath2)"/>
      <path fill="none" d="M30 89.9707 L30 114.9853" clip-path="url(#clipPath2)"/>
      <path fill="none" d="M30 333.2213 L30 348.4173" clip-path="url(#clipPath2)"/>
      <path d="M30 356.4173 L35 344.4173 L30 347.4173 L25 344.4173 Z" clip-path="url(#clipPath2)" stroke="none"/>
      <text x="38.0087" y="344.4339" clip-path="url(#clipPath2)" font-family="sans-serif" stroke="none" font-weight="bold" xml:space="preserve">Да</text>
      <path fill="none" d="M30 396.3951 L30 426.4273" clip-path="url(#clipPath2)"/>
    </g>
  </g>
</svg>
