<?xml version="1.0" encoding="UTF-8"?><svg xmlns="http://www.w3.org/2000/svg" xmlns:xlink="http://www.w3.org/1999/xlink" fill-opacity="1" color-rendering="auto" color-interpolation="auto" text-rendering="auto" stroke="black" stroke-linecap="square" width="492" stroke-miterlimit="10" shape-rendering="auto" stroke-opacity="1" fill="black" stroke-dasharray="none" font-weight="normal" stroke-width="1" height="522" font-family="'Dialog'" font-style="normal" stroke-linejoin="miter" font-size="12px" stroke-dashoffset="0" image-rendering="auto">
  <!--Generated by ySVG 2.6-->
  <defs id="genericDefs"/>
  <g>
    <defs id="defs1">
      <linearGradient x1="200" gradientUnits="userSpaceOnUse" x2="280" y1="160" y2="200" id="linearGradient1" spreadMethod="reflect">
        <stop stop-opacity="1" stop-color="rgb(232,238,247)" offset="0%"/>
        <stop stop-opacity="1" stop-color="rgb(183,201,227)" offset="100%"/>
      </linearGradient>
      <linearGradient x1="175" gradientUnits="userSpaceOnUse" x2="305" y1="230" y2="270" id="linearGradient2" spreadMethod="reflect">
        <stop stop-opacity="1" stop-color="rgb(232,238,247)" offset="0%"/>
        <stop stop-opacity="1" stop-color="rgb(183,201,227)" offset="100%"/>
      </linearGradient>
      <linearGradient x1="180" gradientUnits="userSpaceOnUse" x2="300" y1="300" y2="360" id="linearGradient3" spreadMethod="reflect">
        <stop stop-opacity="1" stop-color="rgb(232,238,247)" offset="0%"/>
        <stop stop-opacity="1" stop-color="rgb(183,201,227)" offset="100%"/>
      </linearGradient>
      <linearGradient x1="330" gradientUnits="userSpaceOnUse" x2="510" y1="160" y2="257.8125" id="linearGradient4" spreadMethod="reflect">
        <stop stop-opacity="1" stop-color="rgb(232,238,247)" offset="0%"/>
        <stop stop-opacity="1" stop-color="rgb(183,201,227)" offset="100%"/>
      </linearGradient>
      <linearGradient x1="300" gradientUnits="userSpaceOnUse" x2="397.5" y1="535" y2="575" id="linearGradient5" spreadMethod="reflect">
        <stop stop-opacity="1" stop-color="rgb(232,238,247)" offset="0%"/>
        <stop stop-opacity="1" stop-color="rgb(183,201,227)" offset="100%"/>
      </linearGradient>
      <linearGradient x1="191.25" gradientUnits="userSpaceOnUse" x2="288.75" y1="388.9286" y2="441.0714" id="linearGradient6" spreadMethod="reflect">
        <stop stop-opacity="1" stop-color="rgb(232,238,247)" offset="0%"/>
        <stop stop-opacity="1" stop-color="rgb(183,201,227)" offset="100%"/>
      </linearGradient>
      <linearGradient x1="180" gradientUnits="userSpaceOnUse" x2="300" y1="465" y2="535" id="linearGradient7" spreadMethod="reflect">
        <stop stop-opacity="1" stop-color="rgb(232,238,247)" offset="0%"/>
        <stop stop-opacity="1" stop-color="rgb(183,201,227)" offset="100%"/>
      </linearGradient>
      <linearGradient x1="68.75" gradientUnits="userSpaceOnUse" x2="166.25" y1="433.0357" y2="473.0357" id="linearGradient8" spreadMethod="reflect">
        <stop stop-opacity="1" stop-color="rgb(232,238,247)" offset="0%"/>
        <stop stop-opacity="1" stop-color="rgb(183,201,227)" offset="100%"/>
      </linearGradient>
      <linearGradient x1="68.75" gradientUnits="userSpaceOnUse" x2="166.25" y1="525.4531" y2="565.4531" id="linearGradient9" spreadMethod="reflect">
        <stop stop-opacity="1" stop-color="rgb(232,238,247)" offset="0%"/>
        <stop stop-opacity="1" stop-color="rgb(183,201,227)" offset="100%"/>
      </linearGradient>
      <linearGradient x1="200" gradientUnits="userSpaceOnUse" x2="280" y1="611.8862" y2="651.8862" id="linearGradient10" spreadMethod="reflect">
        <stop stop-opacity="1" stop-color="rgb(232,238,247)" offset="0%"/>
        <stop stop-opacity="1" stop-color="rgb(183,201,227)" offset="100%"/>
      </linearGradient>
      <clipPath clipPathUnits="userSpaceOnUse" id="clipPath1">
        <path d="M0 0 L492 0 L492 522 L0 522 L0 0 Z"/>
      </clipPath>
      <clipPath clipPathUnits="userSpaceOnUse" id="clipPath2">
        <path d="M33 145 L525 145 L525 667 L33 667 L33 145 Z"/>
      </clipPath>
    </defs>
    <g fill="url(#linearGradient1)" text-rendering="geometricPrecision" shape-rendering="geometricPrecision" transform="matrix(1,0,0,1,-33,-145)" stroke="url(#linearGradient1)">
      <rect x="200" y="160" clip-path="url(#clipPath2)" width="80" rx="20" ry="20" height="40" stroke="none"/>
    </g>
    <g text-rendering="geometricPrecision" stroke-miterlimit="1.45" stroke-width="2" shape-rendering="geometricPrecision" transform="matrix(1,0,0,1,-33,-145)" stroke-linecap="butt">
      <rect x="200" y="160" clip-path="url(#clipPath2)" fill="none" width="80" rx="20" ry="20" height="40"/>
      <text x="218.0332" y="184.7139" clip-path="url(#clipPath2)" font-family="sans-serif" stroke="none" font-weight="bold" stroke-width="1" xml:space="preserve">Начало</text>
    </g>
    <g fill="url(#linearGradient2)" text-rendering="geometricPrecision" shape-rendering="geometricPrecision" transform="matrix(1,0,0,1,-33,-145)" stroke="url(#linearGradient2)">
      <path d="M185.2 230 L305 230 L294.8 270 L175 270 Z" stroke="none" clip-path="url(#clipPath2)"/>
    </g>
    <g text-rendering="geometricPrecision" stroke-miterlimit="1.45" stroke-width="2" shape-rendering="geometricPrecision" transform="matrix(1,0,0,1,-33,-145)" stroke-linecap="butt">
      <path fill="none" d="M185.2 230 L305 230 L294.8 270 L175 270 Z" clip-path="url(#clipPath2)"/>
      <text x="231" y="247.3633" clip-path="url(#clipPath2)" font-family="sans-serif" stroke="none" font-weight="bold" stroke-width="1" xml:space="preserve">mn</text>
      <text x="188.1504" y="262.0645" clip-path="url(#clipPath2)" font-family="sans-serif" stroke="none" font-weight="bold" stroke-width="1" xml:space="preserve">padezh = mn % 10</text>
    </g>
    <g fill="url(#linearGradient3)" text-rendering="geometricPrecision" shape-rendering="geometricPrecision" transform="matrix(1,0,0,1,-33,-145)" stroke="url(#linearGradient3)">
      <path d="M240 300 L300 330 L240 360 L180 330 Z" stroke="none" clip-path="url(#clipPath2)"/>
    </g>
    <g text-rendering="geometricPrecision" stroke-miterlimit="1.45" stroke-width="2" shape-rendering="geometricPrecision" transform="matrix(1,0,0,1,-33,-145)" stroke-linecap="butt">
      <path fill="none" d="M240 300 L300 330 L240 360 L180 330 Z" clip-path="url(#clipPath2)"/>
      <text x="196.9688" y="334.7139" clip-path="url(#clipPath2)" font-family="sans-serif" stroke="none" font-weight="bold" stroke-width="1" xml:space="preserve">11 &lt;= mn &lt;= 16</text>
    </g>
    <g fill="url(#linearGradient4)" text-rendering="geometricPrecision" shape-rendering="geometricPrecision" transform="matrix(1,0,0,1,-33,-145)" stroke="url(#linearGradient4)">
      <rect x="330" width="180" height="97.8125" y="160" clip-path="url(#clipPath2)" stroke="none"/>
    </g>
    <g text-rendering="geometricPrecision" stroke-miterlimit="1.45" shape-rendering="geometricPrecision" transform="matrix(1,0,0,1,-33,-145)" stroke-linecap="butt">
      <path fill="none" d="M352.5 160 L330 160 L330 257.8125 L352.5 257.8125" clip-path="url(#clipPath2)"/>
      <text x="336" xml:space="preserve" y="175.6699" clip-path="url(#clipPath2)" font-family="sans-serif" stroke="none">Функция padez_minutes(mn)</text>
      <text x="336" xml:space="preserve" y="190.3711" clip-path="url(#clipPath2)" font-family="sans-serif" stroke="none">Принимает на вход</text>
      <text x="336" xml:space="preserve" y="205.0723" clip-path="url(#clipPath2)" font-family="sans-serif" stroke="none">количество минут в формате</text>
      <text x="336" xml:space="preserve" y="219.7734" clip-path="url(#clipPath2)" font-family="sans-serif" stroke="none">целого числа</text>
      <text x="336" xml:space="preserve" y="234.4746" clip-path="url(#clipPath2)" font-family="sans-serif" stroke="none">Выводит на экран</text>
      <text x="336" xml:space="preserve" y="249.1758" clip-path="url(#clipPath2)" font-family="sans-serif" stroke="none">информацию о минутах</text>
    </g>
    <g fill="url(#linearGradient5)" text-rendering="geometricPrecision" shape-rendering="geometricPrecision" transform="matrix(1,0,0,1,-33,-145)" stroke="url(#linearGradient5)">
      <path d="M300 535 L397.5 535 L397.5 570 Q373.125 560 348.75 570 Q324.375 580 300 570 Z" stroke="none" clip-path="url(#clipPath2)"/>
    </g>
    <g text-rendering="geometricPrecision" stroke-miterlimit="1.45" stroke-width="2" shape-rendering="geometricPrecision" transform="matrix(1,0,0,1,-33,-145)" stroke-linecap="butt">
      <path fill="none" d="M300 535 L397.5 535 L397.5 570 Q373.125 560 348.75 570 Q324.375 580 300 570 Z" clip-path="url(#clipPath2)"/>
      <text x="309.3662" y="559.7139" clip-path="url(#clipPath2)" font-family="sans-serif" stroke="none" font-weight="bold" stroke-width="1" xml:space="preserve">mn, " минут "</text>
    </g>
    <g fill="url(#linearGradient6)" text-rendering="geometricPrecision" shape-rendering="geometricPrecision" transform="matrix(1,0,0,1,-33,-145)" stroke="url(#linearGradient6)">
      <path d="M240 388.9286 L288.75 415 L240 441.0714 L191.25 415 Z" stroke="none" clip-path="url(#clipPath2)"/>
    </g>
    <g text-rendering="geometricPrecision" stroke-miterlimit="1.45" stroke-width="2" shape-rendering="geometricPrecision" transform="matrix(1,0,0,1,-33,-145)" stroke-linecap="butt">
      <path fill="none" d="M240 388.9286 L288.75 415 L240 441.0714 L191.25 415 Z" clip-path="url(#clipPath2)"/>
      <text x="205.6523" y="419.7139" clip-path="url(#clipPath2)" font-family="sans-serif" stroke="none" font-weight="bold" stroke-width="1" xml:space="preserve">padezh == 1</text>
    </g>
    <g fill="url(#linearGradient7)" text-rendering="geometricPrecision" shape-rendering="geometricPrecision" transform="matrix(1,0,0,1,-33,-145)" stroke="url(#linearGradient7)">
      <path d="M240 465 L300 500 L240 535 L180 500 Z" stroke="none" clip-path="url(#clipPath2)"/>
    </g>
    <g text-rendering="geometricPrecision" stroke-miterlimit="1.45" stroke-width="2" shape-rendering="geometricPrecision" transform="matrix(1,0,0,1,-33,-145)" stroke-linecap="butt">
      <path fill="none" d="M240 465 L300 500 L240 535 L180 500 Z" clip-path="url(#clipPath2)"/>
      <text x="191.9736" y="504.7139" clip-path="url(#clipPath2)" font-family="sans-serif" stroke="none" font-weight="bold" stroke-width="1" xml:space="preserve">2 &lt;= padezh &lt;= 4</text>
    </g>
    <g fill="url(#linearGradient8)" text-rendering="geometricPrecision" shape-rendering="geometricPrecision" transform="matrix(1,0,0,1,-33,-145)" stroke="url(#linearGradient8)">
      <path d="M68.75 433.0357 L166.25 433.0357 L166.25 468.0357 Q141.875 458.0357 117.5 468.0357 Q93.125 478.0357 68.75 468.0357 Z" stroke="none" clip-path="url(#clipPath2)"/>
    </g>
    <g text-rendering="geometricPrecision" stroke-miterlimit="1.45" stroke-width="2" shape-rendering="geometricPrecision" transform="matrix(1,0,0,1,-33,-145)" stroke-linecap="butt">
      <path fill="none" d="M68.75 433.0357 L166.25 433.0357 L166.25 468.0357 Q141.875 458.0357 117.5 468.0357 Q93.125 478.0357 68.75 468.0357 Z" clip-path="url(#clipPath2)"/>
      <text x="74.7793" y="457.7496" clip-path="url(#clipPath2)" font-family="sans-serif" stroke="none" font-weight="bold" stroke-width="1" xml:space="preserve">mn, " минута "</text>
    </g>
    <g fill="url(#linearGradient9)" text-rendering="geometricPrecision" shape-rendering="geometricPrecision" transform="matrix(1,0,0,1,-33,-145)" stroke="url(#linearGradient9)">
      <path d="M68.75 525.4531 L166.25 525.4531 L166.25 560.4531 Q141.875 550.4531 117.5 560.4531 Q93.125 570.4531 68.75 560.4531 Z" stroke="none" clip-path="url(#clipPath2)"/>
    </g>
    <g text-rendering="geometricPrecision" stroke-miterlimit="1.45" stroke-width="2" shape-rendering="geometricPrecision" transform="matrix(1,0,0,1,-33,-145)" stroke-linecap="butt">
      <path fill="none" d="M68.75 525.4531 L166.25 525.4531 L166.25 560.4531 Q141.875 550.4531 117.5 560.4531 Q93.125 570.4531 68.75 560.4531 Z" clip-path="url(#clipPath2)"/>
      <text x="72.9922" y="550.167" clip-path="url(#clipPath2)" font-family="sans-serif" stroke="none" font-weight="bold" stroke-width="1" xml:space="preserve">mn, " минуты "</text>
    </g>
    <g fill="url(#linearGradient10)" text-rendering="geometricPrecision" shape-rendering="geometricPrecision" transform="matrix(1,0,0,1,-33,-145)" stroke="url(#linearGradient10)">
      <rect x="200" y="611.8862" clip-path="url(#clipPath2)" width="80" rx="20" ry="20" height="40" stroke="none"/>
    </g>
    <g text-rendering="geometricPrecision" stroke-miterlimit="1.45" stroke-width="2" shape-rendering="geometricPrecision" transform="matrix(1,0,0,1,-33,-145)" stroke-linecap="butt">
      <rect x="200" y="611.8862" clip-path="url(#clipPath2)" fill="none" width="80" rx="20" ry="20" height="40"/>
      <text x="222.0234" y="636.6" clip-path="url(#clipPath2)" font-family="sans-serif" stroke="none" font-weight="bold" stroke-width="1" xml:space="preserve">Конец</text>
    </g>
    <g text-rendering="geometricPrecision" stroke-miterlimit="1.45" shape-rendering="geometricPrecision" transform="matrix(1,0,0,1,-33,-145)" stroke-linecap="butt">
      <path fill="none" d="M240 199.9951 L240 230.0273" clip-path="url(#clipPath2)"/>
    </g>
    <g text-rendering="geometricPrecision" stroke-miterlimit="1.45" shape-rendering="geometricPrecision" transform="matrix(1,0,0,1,-33,-145)" stroke-linecap="butt">
      <path fill="none" d="M240 269.9609 L240 290 L240 290 L240 300.0391" clip-path="url(#clipPath2)"/>
      <path fill="none" stroke-dasharray="6,2" d="M279.9902 180 L300 180 L300 208.9062 L329.9707 208.9062" clip-path="url(#clipPath2)"/>
      <path fill="none" d="M299.9771 330 L348.75 330 L348.75 526.9774" clip-path="url(#clipPath2)"/>
      <path d="M348.75 534.9774 L353.75 522.9774 L348.75 525.9774 L343.75 522.9774 Z" clip-path="url(#clipPath2)" stroke="none"/>
      <text x="314.5315" y="319.9817" clip-path="url(#clipPath2)" font-family="sans-serif" stroke="none" font-weight="bold" xml:space="preserve">Да</text>
      <path fill="none" d="M240 360.0073 L240 372.5 L240 372.5 L240 380.894" clip-path="url(#clipPath2)"/>
      <path d="M240 388.894 L245 376.894 L240 379.894 L235 376.894 Z" clip-path="url(#clipPath2)" stroke="none"/>
      <text x="204.8678" y="375.2198" clip-path="url(#clipPath2)" font-family="sans-serif" stroke="none" font-weight="bold" xml:space="preserve">Нет</text>
      <path fill="none" d="M240 441.106 L240 457.0029" clip-path="url(#clipPath2)"/>
      <path d="M240 465.0029 L245 453.0029 L240 456.0029 L235 453.0029 Z" clip-path="url(#clipPath2)" stroke="none"/>
      <text x="209.8678" y="454.5055" clip-path="url(#clipPath2)" font-family="sans-serif" stroke="none" font-weight="bold" xml:space="preserve">Нет</text>
      <path fill="none" d="M299.9771 500 L348.75 500 L348.75 526.9927" clip-path="url(#clipPath2)"/>
      <path d="M348.75 534.9927 L353.75 522.9927 L348.75 525.9927 L343.75 522.9927 Z" clip-path="url(#clipPath2)" stroke="none"/>
      <text x="310.3916" y="495.2139" clip-path="url(#clipPath2)" font-family="sans-serif" stroke="none" font-weight="bold" xml:space="preserve">Нет</text>
      <path fill="none" d="M191.2213 415 L117.5 415 L117.5 425.015" clip-path="url(#clipPath2)"/>
      <path d="M117.5 433.015 L122.5 421.015 L117.5 424.015 L112.5 421.015 Z" clip-path="url(#clipPath2)" stroke="none"/>
      <text x="155.3887" y="406.2139" clip-path="url(#clipPath2)" font-family="sans-serif" stroke="none" font-weight="bold" xml:space="preserve">Да</text>
      <path fill="none" d="M179.9762 500 L117.5 500 L117.5 517.4342" clip-path="url(#clipPath2)"/>
      <path d="M117.5 525.4342 L122.5 513.4342 L117.5 516.4342 L112.5 513.4342 Z" clip-path="url(#clipPath2)" stroke="none"/>
      <text x="154.3887" y="491.2139" clip-path="url(#clipPath2)" font-family="sans-serif" stroke="none" font-weight="bold" xml:space="preserve">Да</text>
      <path fill="none" d="M117.5 560.4141 L117.5 585.4531 L240 585.4531 L240 611.8891" clip-path="url(#clipPath2)"/>
      <path fill="none" d="M348.75 570.0184 L348.75 585.4531 L240 585.4531 L240 611.8891" clip-path="url(#clipPath2)"/>
      <path fill="none" d="M117.5 468.0188 L117.5 480 L48.75 480 L48.75 585.4531 L240 585.4531 L240 611.869" clip-path="url(#clipPath2)"/>
    </g>
  </g>
</svg>
