<?xml version="1.0" encoding="UTF-8"?><svg xmlns="http://www.w3.org/2000/svg" xmlns:xlink="http://www.w3.org/1999/xlink" fill-opacity="1" color-rendering="auto" color-interpolation="auto" text-rendering="auto" stroke="black" stroke-linecap="square" width="450" stroke-miterlimit="10" shape-rendering="auto" stroke-opacity="1" fill="black" stroke-dasharray="none" font-weight="normal" stroke-width="1" height="520" font-family="'Dialog'" font-style="normal" stroke-linejoin="miter" font-size="12px" stroke-dashoffset="0" image-rendering="auto">
  <!--Generated by ySVG 2.6-->
  <defs id="genericDefs"/>
  <g>
    <defs id="defs1">
      <linearGradient x1="140" gradientUnits="userSpaceOnUse" x2="220" y1="130" y2="170" id="linearGradient1" spreadMethod="reflect">
        <stop stop-opacity="1" stop-color="rgb(232,238,247)" offset="0%"/>
        <stop stop-opacity="1" stop-color="rgb(183,201,227)" offset="100%"/>
      </linearGradient>
      <linearGradient x1="140" gradientUnits="userSpaceOnUse" x2="220" y1="200" y2="240" id="linearGradient2" spreadMethod="reflect">
        <stop stop-opacity="1" stop-color="rgb(232,238,247)" offset="0%"/>
        <stop stop-opacity="1" stop-color="rgb(183,201,227)" offset="100%"/>
      </linearGradient>
      <linearGradient x1="140" gradientUnits="userSpaceOnUse" x2="220" y1="270" y2="310" id="linearGradient3" spreadMethod="reflect">
        <stop stop-opacity="1" stop-color="rgb(232,238,247)" offset="0%"/>
        <stop stop-opacity="1" stop-color="rgb(183,201,227)" offset="100%"/>
      </linearGradient>
      <linearGradient x1="230" gradientUnits="userSpaceOnUse" x2="310" y1="310" y2="350" id="linearGradient4" spreadMethod="reflect">
        <stop stop-opacity="1" stop-color="rgb(232,238,247)" offset="0%"/>
        <stop stop-opacity="1" stop-color="rgb(183,201,227)" offset="100%"/>
      </linearGradient>
      <linearGradient x1="140" gradientUnits="userSpaceOnUse" x2="220" y1="370" y2="410" id="linearGradient5" spreadMethod="reflect">
        <stop stop-opacity="1" stop-color="rgb(232,238,247)" offset="0%"/>
        <stop stop-opacity="1" stop-color="rgb(183,201,227)" offset="100%"/>
      </linearGradient>
      <linearGradient x1="130" gradientUnits="userSpaceOnUse" x2="230" y1="435" y2="485" id="linearGradient6" spreadMethod="reflect">
        <stop stop-opacity="1" stop-color="rgb(232,238,247)" offset="0%"/>
        <stop stop-opacity="1" stop-color="rgb(183,201,227)" offset="100%"/>
      </linearGradient>
      <linearGradient x1="30" gradientUnits="userSpaceOnUse" x2="110" y1="402.5" y2="442.5" id="linearGradient7" spreadMethod="reflect">
        <stop stop-opacity="1" stop-color="rgb(232,238,247)" offset="0%"/>
        <stop stop-opacity="1" stop-color="rgb(183,201,227)" offset="100%"/>
      </linearGradient>
      <linearGradient x1="30" gradientUnits="userSpaceOnUse" x2="110" y1="510" y2="550" id="linearGradient8" spreadMethod="reflect">
        <stop stop-opacity="1" stop-color="rgb(232,238,247)" offset="0%"/>
        <stop stop-opacity="1" stop-color="rgb(183,201,227)" offset="100%"/>
      </linearGradient>
      <linearGradient x1="140" gradientUnits="userSpaceOnUse" x2="220" y1="510" y2="550" id="linearGradient9" spreadMethod="reflect">
        <stop stop-opacity="1" stop-color="rgb(232,238,247)" offset="0%"/>
        <stop stop-opacity="1" stop-color="rgb(183,201,227)" offset="100%"/>
      </linearGradient>
      <linearGradient x1="140" gradientUnits="userSpaceOnUse" x2="220" y1="580" y2="620" id="linearGradient10" spreadMethod="reflect">
        <stop stop-opacity="1" stop-color="rgb(232,238,247)" offset="0%"/>
        <stop stop-opacity="1" stop-color="rgb(183,201,227)" offset="100%"/>
      </linearGradient>
      <linearGradient x1="250" gradientUnits="userSpaceOnUse" x2="430" y1="142.1875" y2="240" id="linearGradient11" spreadMethod="reflect">
        <stop stop-opacity="1" stop-color="rgb(232,238,247)" offset="0%"/>
        <stop stop-opacity="1" stop-color="rgb(183,201,227)" offset="100%"/>
      </linearGradient>
      <clipPath clipPathUnits="userSpaceOnUse" id="clipPath1">
        <path d="M0 0 L450 0 L450 520 L0 520 L0 0 Z"/>
      </clipPath>
      <clipPath clipPathUnits="userSpaceOnUse" id="clipPath2">
        <path d="M-5 115 L445 115 L445 635 L-5 635 L-5 115 Z"/>
      </clipPath>
    </defs>
    <g fill="url(#linearGradient1)" text-rendering="geometricPrecision" shape-rendering="geometricPrecision" transform="matrix(1,0,0,1,5,-115)" stroke="url(#linearGradient1)">
      <rect x="140" y="130" clip-path="url(#clipPath2)" width="80" rx="20" ry="20" height="40" stroke="none"/>
    </g>
    <g text-rendering="geometricPrecision" stroke-miterlimit="1.45" stroke-width="2" shape-rendering="geometricPrecision" transform="matrix(1,0,0,1,5,-115)" stroke-linecap="butt">
      <rect x="140" y="130" clip-path="url(#clipPath2)" fill="none" width="80" rx="20" ry="20" height="40"/>
      <text x="158.0332" y="154.7139" clip-path="url(#clipPath2)" font-family="sans-serif" stroke="none" font-weight="bold" stroke-width="1" xml:space="preserve">Начало</text>
    </g>
    <g fill="url(#linearGradient2)" text-rendering="geometricPrecision" shape-rendering="geometricPrecision" transform="matrix(1,0,0,1,5,-115)" stroke="url(#linearGradient2)">
      <path d="M150.2 200 L220 200 L209.8 240 L140 240 Z" stroke="none" clip-path="url(#clipPath2)"/>
    </g>
    <g text-rendering="geometricPrecision" stroke-miterlimit="1.45" stroke-width="2" shape-rendering="geometricPrecision" transform="matrix(1,0,0,1,5,-115)" stroke-linecap="butt">
      <path fill="none" d="M150.2 200 L220 200 L209.8 240 L140 240 Z" clip-path="url(#clipPath2)"/>
      <text x="174" y="224.7139" clip-path="url(#clipPath2)" font-family="sans-serif" stroke="none" font-weight="bold" stroke-width="1" xml:space="preserve">hr</text>
    </g>
    <g fill="url(#linearGradient3)" text-rendering="geometricPrecision" shape-rendering="geometricPrecision" transform="matrix(1,0,0,1,5,-115)" stroke="url(#linearGradient3)">
      <path d="M180 270 L220 290 L180 310 L140 290 Z" stroke="none" clip-path="url(#clipPath2)"/>
    </g>
    <g text-rendering="geometricPrecision" stroke-miterlimit="1.45" stroke-width="2" shape-rendering="geometricPrecision" transform="matrix(1,0,0,1,5,-115)" stroke-linecap="butt">
      <path fill="none" d="M180 270 L220 290 L180 310 L140 290 Z" clip-path="url(#clipPath2)"/>
      <text x="160.4883" y="294.7139" clip-path="url(#clipPath2)" font-family="sans-serif" stroke="none" font-weight="bold" stroke-width="1" xml:space="preserve">hr &gt; 12</text>
    </g>
    <g fill="url(#linearGradient4)" text-rendering="geometricPrecision" shape-rendering="geometricPrecision" transform="matrix(1,0,0,1,5,-115)" stroke="url(#linearGradient4)">
      <path d="M230 310 L310 310 L310 350 L230 350 Z" stroke="none" clip-path="url(#clipPath2)"/>
    </g>
    <g text-rendering="geometricPrecision" stroke-miterlimit="1.45" stroke-width="2" shape-rendering="geometricPrecision" transform="matrix(1,0,0,1,5,-115)" stroke-linecap="butt">
      <path fill="none" d="M230 310 L310 310 L310 350 L230 350 Z" clip-path="url(#clipPath2)"/>
      <text x="235.8193" y="334.7139" clip-path="url(#clipPath2)" font-family="sans-serif" stroke="none" font-weight="bold" stroke-width="1" xml:space="preserve">hr = hr % 12</text>
    </g>
    <g fill="url(#linearGradient5)" text-rendering="geometricPrecision" shape-rendering="geometricPrecision" transform="matrix(1,0,0,1,5,-115)" stroke="url(#linearGradient5)">
      <path d="M180 370 L220 390 L180 410 L140 390 Z" stroke="none" clip-path="url(#clipPath2)"/>
    </g>
    <g text-rendering="geometricPrecision" stroke-miterlimit="1.45" stroke-width="2" shape-rendering="geometricPrecision" transform="matrix(1,0,0,1,5,-115)" stroke-linecap="butt">
      <path fill="none" d="M180 370 L220 390 L180 410 L140 390 Z" clip-path="url(#clipPath2)"/>
      <text x="160.3213" y="394.7139" clip-path="url(#clipPath2)" font-family="sans-serif" stroke="none" font-weight="bold" stroke-width="1" xml:space="preserve">hr == 1</text>
    </g>
    <g fill="url(#linearGradient6)" text-rendering="geometricPrecision" shape-rendering="geometricPrecision" transform="matrix(1,0,0,1,5,-115)" stroke="url(#linearGradient6)">
      <path d="M180 435 L230 460 L180 485 L130 460 Z" stroke="none" clip-path="url(#clipPath2)"/>
    </g>
    <g text-rendering="geometricPrecision" stroke-miterlimit="1.45" stroke-width="2" shape-rendering="geometricPrecision" transform="matrix(1,0,0,1,5,-115)" stroke-linecap="butt">
      <path fill="none" d="M180 435 L230 460 L180 485 L130 460 Z" clip-path="url(#clipPath2)"/>
      <text x="146.6426" y="464.7139" clip-path="url(#clipPath2)" font-family="sans-serif" stroke="none" font-weight="bold" stroke-width="1" xml:space="preserve">2 &lt;= hr &lt;= 4</text>
    </g>
    <g fill="url(#linearGradient7)" text-rendering="geometricPrecision" shape-rendering="geometricPrecision" transform="matrix(1,0,0,1,5,-115)" stroke="url(#linearGradient7)">
      <path d="M30 402.5 L110 402.5 L110 437.5 Q90 427.5 70 437.5 Q50 447.5 30 437.5 Z" stroke="none" clip-path="url(#clipPath2)"/>
    </g>
    <g text-rendering="geometricPrecision" stroke-miterlimit="1.45" stroke-width="2" shape-rendering="geometricPrecision" transform="matrix(1,0,0,1,5,-115)" stroke-linecap="butt">
      <path fill="none" d="M30 402.5 L110 402.5 L110 437.5 Q90 427.5 70 437.5 Q50 447.5 30 437.5 Z" clip-path="url(#clipPath2)"/>
      <text x="39.8184" y="427.2139" clip-path="url(#clipPath2)" font-family="sans-serif" stroke="none" font-weight="bold" stroke-width="1" xml:space="preserve">hr , " час "</text>
    </g>
    <g fill="url(#linearGradient8)" text-rendering="geometricPrecision" shape-rendering="geometricPrecision" transform="matrix(1,0,0,1,5,-115)" stroke="url(#linearGradient8)">
      <path d="M30 510 L110 510 L110 545 Q90 535 70 545 Q50 555 30 545 Z" stroke="none" clip-path="url(#clipPath2)"/>
    </g>
    <g text-rendering="geometricPrecision" stroke-miterlimit="1.45" stroke-width="2" shape-rendering="geometricPrecision" transform="matrix(1,0,0,1,5,-115)" stroke-linecap="butt">
      <path fill="none" d="M30 510 L110 510 L110 545 Q90 535 70 545 Q50 555 30 545 Z" clip-path="url(#clipPath2)"/>
      <text x="36.4814" y="534.7139" clip-path="url(#clipPath2)" font-family="sans-serif" stroke="none" font-weight="bold" stroke-width="1" xml:space="preserve">hr , " часа "</text>
    </g>
    <g fill="url(#linearGradient9)" text-rendering="geometricPrecision" shape-rendering="geometricPrecision" transform="matrix(1,0,0,1,5,-115)" stroke="url(#linearGradient9)">
      <path d="M140 510 L220 510 L220 545 Q200 535 180 545 Q160 555 140 545 Z" stroke="none" clip-path="url(#clipPath2)"/>
    </g>
    <g text-rendering="geometricPrecision" stroke-miterlimit="1.45" stroke-width="2" shape-rendering="geometricPrecision" transform="matrix(1,0,0,1,5,-115)" stroke-linecap="butt">
      <path fill="none" d="M140 510 L220 510 L220 545 Q200 535 180 545 Q160 555 140 545 Z" clip-path="url(#clipPath2)"/>
      <text x="142.4648" y="534.7139" clip-path="url(#clipPath2)" font-family="sans-serif" stroke="none" font-weight="bold" stroke-width="1" xml:space="preserve">hr , " часов "</text>
    </g>
    <g fill="url(#linearGradient10)" text-rendering="geometricPrecision" shape-rendering="geometricPrecision" transform="matrix(1,0,0,1,5,-115)" stroke="url(#linearGradient10)">
      <rect x="140" y="580" clip-path="url(#clipPath2)" width="80" rx="20" ry="20" height="40" stroke="none"/>
    </g>
    <g text-rendering="geometricPrecision" stroke-miterlimit="1.45" stroke-width="2" shape-rendering="geometricPrecision" transform="matrix(1,0,0,1,5,-115)" stroke-linecap="butt">
      <rect x="140" y="580" clip-path="url(#clipPath2)" fill="none" width="80" rx="20" ry="20" height="40"/>
      <text x="162.0234" y="604.7139" clip-path="url(#clipPath2)" font-family="sans-serif" stroke="none" font-weight="bold" stroke-width="1" xml:space="preserve">Конец</text>
    </g>
    <g fill="url(#linearGradient11)" text-rendering="geometricPrecision" shape-rendering="geometricPrecision" transform="matrix(1,0,0,1,5,-115)" stroke="url(#linearGradient11)">
      <rect x="250" width="180" height="97.8125" y="142.1875" clip-path="url(#clipPath2)" stroke="none"/>
    </g>
    <g text-rendering="geometricPrecision" stroke-miterlimit="1.45" shape-rendering="geometricPrecision" transform="matrix(1,0,0,1,5,-115)" stroke-linecap="butt">
      <path fill="none" d="M272.5 142.1875 L250 142.1875 L250 240 L272.5 240" clip-path="url(#clipPath2)"/>
      <text x="256" xml:space="preserve" y="157.8574" clip-path="url(#clipPath2)" font-family="sans-serif" stroke="none">Функция padez_hours(hr)</text>
      <text x="256" xml:space="preserve" y="172.5586" clip-path="url(#clipPath2)" font-family="sans-serif" stroke="none">Принимает на вход</text>
      <text x="256" xml:space="preserve" y="187.2598" clip-path="url(#clipPath2)" font-family="sans-serif" stroke="none">количество часов в формате</text>
      <text x="256" xml:space="preserve" y="201.9609" clip-path="url(#clipPath2)" font-family="sans-serif" stroke="none">целого числа</text>
      <text x="256" xml:space="preserve" y="216.6621" clip-path="url(#clipPath2)" font-family="sans-serif" stroke="none">Выводит на экран</text>
      <text x="256" xml:space="preserve" y="231.3633" clip-path="url(#clipPath2)" font-family="sans-serif" stroke="none">информацию о часах</text>
    </g>
    <g text-rendering="geometricPrecision" stroke-miterlimit="1.45" shape-rendering="geometricPrecision" transform="matrix(1,0,0,1,5,-115)" stroke-linecap="butt">
      <path fill="none" d="M180 169.9951 L180 200.0273" clip-path="url(#clipPath2)"/>
    </g>
    <g text-rendering="geometricPrecision" stroke-miterlimit="1.45" shape-rendering="geometricPrecision" transform="matrix(1,0,0,1,5,-115)" stroke-linecap="butt">
      <path fill="none" d="M180 239.9951 L180 270.0273" clip-path="url(#clipPath2)"/>
      <path fill="none" d="M220.0342 290 L270 290 L270 301.9609" clip-path="url(#clipPath2)"/>
      <path d="M270 309.9609 L275 297.9609 L270 300.9609 L265 297.9609 Z" clip-path="url(#clipPath2)" stroke="none"/>
      <text x="238.7262" y="282.3889" clip-path="url(#clipPath2)" font-family="sans-serif" stroke="none" font-weight="bold" xml:space="preserve">Да</text>
      <path fill="none" d="M270 349.9609 L270 350 L270 350 L270 349.9609" clip-path="url(#clipPath2)"/>
      <path fill="none" d="M180 309.9707 L180 362.0317" clip-path="url(#clipPath2)"/>
      <path d="M180 370.0317 L185 358.0317 L180 361.0317 L175 358.0317 Z" clip-path="url(#clipPath2)" stroke="none"/>
      <text x="147.9166" y="340.8264" clip-path="url(#clipPath2)" font-family="sans-serif" stroke="none" font-weight="bold" xml:space="preserve">Нет</text>
      <path fill="none" d="M270 349.9609 L270 370 L180 370 L180 370.0254" clip-path="url(#clipPath2)"/>
      <path fill="none" d="M180 409.9951 L180 425 L180 425 L180 427.0146" clip-path="url(#clipPath2)"/>
      <path d="M180 435.0146 L185 423.0146 L180 426.0146 L175 423.0146 Z" clip-path="url(#clipPath2)" stroke="none"/>
      <text x="190.7291" y="425.8264" clip-path="url(#clipPath2)" font-family="sans-serif" stroke="none" font-weight="bold" xml:space="preserve">Нет</text>
      <path fill="none" d="M140.0122 390 L70 390 L70 394.4731" clip-path="url(#clipPath2)"/>
      <path d="M70 402.4731 L75 390.4731 L70 393.4731 L65 390.4731 Z" clip-path="url(#clipPath2)" stroke="none"/>
      <text x="105.3887" y="380.2139" clip-path="url(#clipPath2)" font-family="sans-serif" stroke="none" font-weight="bold" xml:space="preserve">Да</text>
      <path fill="none" d="M130.022 460 L70 460 L70 502.0049" clip-path="url(#clipPath2)"/>
      <path d="M70 510.0049 L75 498.0049 L70 501.0049 L65 498.0049 Z" clip-path="url(#clipPath2)" stroke="none"/>
      <text x="102.3887" y="454.2139" clip-path="url(#clipPath2)" font-family="sans-serif" stroke="none" font-weight="bold" xml:space="preserve">Да</text>
      <path fill="none" d="M180 484.9854 L180 501.9984" clip-path="url(#clipPath2)"/>
      <path d="M180 509.9984 L185 497.9984 L180 500.9984 L175 497.9984 Z" clip-path="url(#clipPath2)" stroke="none"/>
      <text x="194.7916" y="494.5764" clip-path="url(#clipPath2)" font-family="sans-serif" stroke="none" font-weight="bold" xml:space="preserve">Нет</text>
      <path fill="none" d="M180 545.0049 L180 579.9944" clip-path="url(#clipPath2)"/>
      <path fill="none" d="M70 545.0415 L70 580.5 L155.5347 580.5" clip-path="url(#clipPath2)"/>
      <path fill="none" d="M70 437.4814 L70 451.5 L10 451.5 L10 580.5 L155.5542 580.5" clip-path="url(#clipPath2)"/>
      <path fill="none" stroke-dasharray="6,2" d="M219.9902 150 L240 150 L240 191.0938 L250.0098 191.0938" clip-path="url(#clipPath2)"/>
    </g>
  </g>
</svg>
