<?xml version="1.0" encoding="UTF-8"?><svg xmlns="http://www.w3.org/2000/svg" xmlns:xlink="http://www.w3.org/1999/xlink" fill-opacity="1" color-rendering="auto" color-interpolation="auto" text-rendering="auto" stroke="black" stroke-linecap="square" width="471" stroke-miterlimit="10" shape-rendering="auto" stroke-opacity="1" fill="black" stroke-dasharray="none" font-weight="normal" stroke-width="1" height="620" font-family="'Dialog'" font-style="normal" stroke-linejoin="miter" font-size="12px" stroke-dashoffset="0" image-rendering="auto">
  <!--Generated by ySVG 2.6-->
  <defs id="genericDefs"/>
  <g>
    <defs id="defs1">
      <linearGradient x1="110" gradientUnits="userSpaceOnUse" x2="190" y1="130" y2="170" id="linearGradient1" spreadMethod="reflect">
        <stop stop-opacity="1" stop-color="rgb(232,238,247)" offset="0%"/>
        <stop stop-opacity="1" stop-color="rgb(183,201,227)" offset="100%"/>
      </linearGradient>
      <linearGradient x1="110" gradientUnits="userSpaceOnUse" x2="190" y1="270" y2="310" id="linearGradient2" spreadMethod="reflect">
        <stop stop-opacity="1" stop-color="rgb(232,238,247)" offset="0%"/>
        <stop stop-opacity="1" stop-color="rgb(183,201,227)" offset="100%"/>
      </linearGradient>
      <linearGradient x1="110" gradientUnits="userSpaceOnUse" x2="190" y1="200" y2="240" id="linearGradient3" spreadMethod="reflect">
        <stop stop-opacity="1" stop-color="rgb(232,238,247)" offset="0%"/>
        <stop stop-opacity="1" stop-color="rgb(183,201,227)" offset="100%"/>
      </linearGradient>
      <linearGradient x1="110" gradientUnits="userSpaceOnUse" x2="190" y1="680" y2="720" id="linearGradient4" spreadMethod="reflect">
        <stop stop-opacity="1" stop-color="rgb(232,238,247)" offset="0%"/>
        <stop stop-opacity="1" stop-color="rgb(183,201,227)" offset="100%"/>
      </linearGradient>
      <linearGradient x1="110" gradientUnits="userSpaceOnUse" x2="190" y1="340" y2="380" id="linearGradient5" spreadMethod="reflect">
        <stop stop-opacity="1" stop-color="rgb(232,238,247)" offset="0%"/>
        <stop stop-opacity="1" stop-color="rgb(183,201,227)" offset="100%"/>
      </linearGradient>
      <linearGradient x1="240" gradientUnits="userSpaceOnUse" x2="360" y1="340" y2="380" id="linearGradient6" spreadMethod="reflect">
        <stop stop-opacity="1" stop-color="rgb(232,238,247)" offset="0%"/>
        <stop stop-opacity="1" stop-color="rgb(183,201,227)" offset="100%"/>
      </linearGradient>
      <linearGradient x1="235" gradientUnits="userSpaceOnUse" x2="365" y1="417.3125" y2="457.3125" id="linearGradient7" spreadMethod="reflect">
        <stop stop-opacity="1" stop-color="rgb(232,238,247)" offset="0%"/>
        <stop stop-opacity="1" stop-color="rgb(183,201,227)" offset="100%"/>
      </linearGradient>
      <linearGradient x1="240" gradientUnits="userSpaceOnUse" x2="360" y1="494.625" y2="534.625" id="linearGradient8" spreadMethod="reflect">
        <stop stop-opacity="1" stop-color="rgb(232,238,247)" offset="0%"/>
        <stop stop-opacity="1" stop-color="rgb(183,201,227)" offset="100%"/>
      </linearGradient>
      <linearGradient x1="110" gradientUnits="userSpaceOnUse" x2="190" y1="410" y2="450" id="linearGradient9" spreadMethod="reflect">
        <stop stop-opacity="1" stop-color="rgb(232,238,247)" offset="0%"/>
        <stop stop-opacity="1" stop-color="rgb(183,201,227)" offset="100%"/>
      </linearGradient>
      <linearGradient x1="-20" gradientUnits="userSpaceOnUse" x2="60" y1="375" y2="415" id="linearGradient10" spreadMethod="reflect">
        <stop stop-opacity="1" stop-color="rgb(232,238,247)" offset="0%"/>
        <stop stop-opacity="1" stop-color="rgb(183,201,227)" offset="100%"/>
      </linearGradient>
      <linearGradient x1="-10" gradientUnits="userSpaceOnUse" x2="70" y1="451" y2="491" id="linearGradient11" spreadMethod="reflect">
        <stop stop-opacity="1" stop-color="rgb(232,238,247)" offset="0%"/>
        <stop stop-opacity="1" stop-color="rgb(183,201,227)" offset="100%"/>
      </linearGradient>
      <linearGradient x1="90" gradientUnits="userSpaceOnUse" x2="210" y1="480" y2="520" id="linearGradient12" spreadMethod="reflect">
        <stop stop-opacity="1" stop-color="rgb(232,238,247)" offset="0%"/>
        <stop stop-opacity="1" stop-color="rgb(183,201,227)" offset="100%"/>
      </linearGradient>
      <linearGradient x1="90" gradientUnits="userSpaceOnUse" x2="210" y1="550" y2="590" id="linearGradient13" spreadMethod="reflect">
        <stop stop-opacity="1" stop-color="rgb(232,238,247)" offset="0%"/>
        <stop stop-opacity="1" stop-color="rgb(183,201,227)" offset="100%"/>
      </linearGradient>
      <linearGradient x1="110" gradientUnits="userSpaceOnUse" x2="190" y1="620" y2="660" id="linearGradient14" spreadMethod="reflect">
        <stop stop-opacity="1" stop-color="rgb(232,238,247)" offset="0%"/>
        <stop stop-opacity="1" stop-color="rgb(183,201,227)" offset="100%"/>
      </linearGradient>
      <linearGradient x1="230" gradientUnits="userSpaceOnUse" x2="410" y1="130" y2="261.25" id="linearGradient15" spreadMethod="reflect">
        <stop stop-opacity="1" stop-color="rgb(232,238,247)" offset="0%"/>
        <stop stop-opacity="1" stop-color="rgb(183,201,227)" offset="100%"/>
      </linearGradient>
      <clipPath clipPathUnits="userSpaceOnUse" id="clipPath1">
        <path d="M0 0 L471 0 L471 620 L0 620 L0 0 Z"/>
      </clipPath>
      <clipPath clipPathUnits="userSpaceOnUse" id="clipPath2">
        <path d="M-46 115 L425 115 L425 735 L-46 735 L-46 115 Z"/>
      </clipPath>
    </defs>
    <g fill="url(#linearGradient1)" text-rendering="geometricPrecision" shape-rendering="geometricPrecision" transform="matrix(1,0,0,1,46,-115)" stroke="url(#linearGradient1)">
      <rect x="110" y="130" clip-path="url(#clipPath2)" width="80" rx="20" ry="20" height="40" stroke="none"/>
    </g>
    <g text-rendering="geometricPrecision" stroke-miterlimit="1.45" stroke-width="2" shape-rendering="geometricPrecision" transform="matrix(1,0,0,1,46,-115)" stroke-linecap="butt">
      <rect x="110" y="130" clip-path="url(#clipPath2)" fill="none" width="80" rx="20" ry="20" height="40"/>
      <text x="128.0332" y="154.7139" clip-path="url(#clipPath2)" font-family="sans-serif" stroke="none" font-weight="bold" stroke-width="1" xml:space="preserve">Начало</text>
    </g>
    <g fill="url(#linearGradient2)" text-rendering="geometricPrecision" shape-rendering="geometricPrecision" transform="matrix(1,0,0,1,46,-115)" stroke="url(#linearGradient2)">
      <path d="M150 270 L190 290 L150 310 L110 290 Z" stroke="none" clip-path="url(#clipPath2)"/>
    </g>
    <g text-rendering="geometricPrecision" stroke-miterlimit="1.45" stroke-width="2" shape-rendering="geometricPrecision" transform="matrix(1,0,0,1,46,-115)" stroke-linecap="butt">
      <path fill="none" d="M150 270 L190 290 L150 310 L110 290 Z" clip-path="url(#clipPath2)"/>
      <text x="130.9863" y="294.7139" clip-path="url(#clipPath2)" font-family="sans-serif" stroke="none" font-weight="bold" stroke-width="1" xml:space="preserve">m == 0</text>
    </g>
    <g fill="url(#linearGradient3)" text-rendering="geometricPrecision" shape-rendering="geometricPrecision" transform="matrix(1,0,0,1,46,-115)" stroke="url(#linearGradient3)">
      <path d="M120.2 200 L190 200 L179.8 240 L110 240 Z" stroke="none" clip-path="url(#clipPath2)"/>
    </g>
    <g text-rendering="geometricPrecision" stroke-miterlimit="1.45" stroke-width="2" shape-rendering="geometricPrecision" transform="matrix(1,0,0,1,46,-115)" stroke-linecap="butt">
      <path fill="none" d="M120.2 200 L190 200 L179.8 240 L110 240 Z" clip-path="url(#clipPath2)"/>
      <text x="137.666" y="224.7139" clip-path="url(#clipPath2)" font-family="sans-serif" stroke="none" font-weight="bold" stroke-width="1" xml:space="preserve">h, m</text>
    </g>
    <g fill="url(#linearGradient4)" text-rendering="geometricPrecision" shape-rendering="geometricPrecision" transform="matrix(1,0,0,1,46,-115)" stroke="url(#linearGradient4)">
      <rect x="110" y="680" clip-path="url(#clipPath2)" width="80" rx="20" ry="20" height="40" stroke="none"/>
    </g>
    <g text-rendering="geometricPrecision" stroke-miterlimit="1.45" stroke-width="2" shape-rendering="geometricPrecision" transform="matrix(1,0,0,1,46,-115)" stroke-linecap="butt">
      <rect x="110" y="680" clip-path="url(#clipPath2)" fill="none" width="80" rx="20" ry="20" height="40"/>
      <text x="132.0234" y="704.7139" clip-path="url(#clipPath2)" font-family="sans-serif" stroke="none" font-weight="bold" stroke-width="1" xml:space="preserve">Конец</text>
    </g>
    <g fill="url(#linearGradient5)" text-rendering="geometricPrecision" shape-rendering="geometricPrecision" transform="matrix(1,0,0,1,46,-115)" stroke="url(#linearGradient5)">
      <path d="M150 340 L190 360 L150 380 L110 360 Z" stroke="none" clip-path="url(#clipPath2)"/>
    </g>
    <g text-rendering="geometricPrecision" stroke-miterlimit="1.45" stroke-width="2" shape-rendering="geometricPrecision" transform="matrix(1,0,0,1,46,-115)" stroke-linecap="butt">
      <path fill="none" d="M150 340 L190 360 L150 380 L110 360 Z" clip-path="url(#clipPath2)"/>
      <text x="132.6562" y="364.7139" clip-path="url(#clipPath2)" font-family="sans-serif" stroke="none" font-weight="bold" stroke-width="1" xml:space="preserve">h == 0</text>
    </g>
    <g fill="url(#linearGradient6)" text-rendering="geometricPrecision" shape-rendering="geometricPrecision" transform="matrix(1,0,0,1,46,-115)" stroke="url(#linearGradient6)">
      <rect x="240" width="120" height="40" y="340" clip-path="url(#clipPath2)" stroke="none"/>
    </g>
    <g text-rendering="geometricPrecision" stroke-miterlimit="1.45" stroke-width="2" shape-rendering="geometricPrecision" transform="matrix(1,0,0,1,46,-115)" stroke-linecap="butt">
      <rect fill="none" x="240" width="120" height="40" y="340" clip-path="url(#clipPath2)"/>
      <path fill="none" d="M250 340 L250 380 M350 340 L350 380 M250 340 Z" clip-path="url(#clipPath2)"/>
      <text x="255.3311" y="364.7139" clip-path="url(#clipPath2)" font-family="sans-serif" stroke="none" font-weight="bold" stroke-width="1" xml:space="preserve">padez_hours(h)</text>
    </g>
    <g fill="url(#linearGradient7)" text-rendering="geometricPrecision" shape-rendering="geometricPrecision" transform="matrix(1,0,0,1,46,-115)" stroke="url(#linearGradient7)">
      <rect x="235" width="130" height="40" y="417.3125" clip-path="url(#clipPath2)" stroke="none"/>
    </g>
    <g text-rendering="geometricPrecision" stroke-miterlimit="1.45" stroke-width="2" shape-rendering="geometricPrecision" transform="matrix(1,0,0,1,46,-115)" stroke-linecap="butt">
      <rect fill="none" x="235" width="130" height="40" y="417.3125" clip-path="url(#clipPath2)"/>
      <path fill="none" d="M245 417.3125 L245 457.3125 M355 417.3125 L355 457.3125 M245 417.3125 Z" clip-path="url(#clipPath2)"/>
      <text x="247.3242" y="442.0264" clip-path="url(#clipPath2)" font-family="sans-serif" stroke="none" font-weight="bold" stroke-width="1" xml:space="preserve">padez_minutes(m)</text>
    </g>
    <g fill="url(#linearGradient8)" text-rendering="geometricPrecision" shape-rendering="geometricPrecision" transform="matrix(1,0,0,1,46,-115)" stroke="url(#linearGradient8)">
      <rect x="240" width="120" height="40" y="494.625" clip-path="url(#clipPath2)" stroke="none"/>
    </g>
    <g text-rendering="geometricPrecision" stroke-miterlimit="1.45" stroke-width="2" shape-rendering="geometricPrecision" transform="matrix(1,0,0,1,46,-115)" stroke-linecap="butt">
      <rect fill="none" x="240" width="120" height="40" y="494.625" clip-path="url(#clipPath2)"/>
      <path fill="none" d="M250 494.625 L250 534.625 M350 494.625 L350 534.625 M250 494.625 Z" clip-path="url(#clipPath2)"/>
      <text x="257.3262" y="519.3389" clip-path="url(#clipPath2)" font-family="sans-serif" stroke="none" font-weight="bold" stroke-width="1" xml:space="preserve">time_of_day(h)</text>
    </g>
    <g fill="url(#linearGradient9)" text-rendering="geometricPrecision" shape-rendering="geometricPrecision" transform="matrix(1,0,0,1,46,-115)" stroke="url(#linearGradient9)">
      <path d="M150 410 L190 430 L150 450 L110 430 Z" stroke="none" clip-path="url(#clipPath2)"/>
    </g>
    <g text-rendering="geometricPrecision" stroke-miterlimit="1.45" stroke-width="2" shape-rendering="geometricPrecision" transform="matrix(1,0,0,1,46,-115)" stroke-linecap="butt">
      <path fill="none" d="M150 410 L190 430 L150 450 L110 430 Z" clip-path="url(#clipPath2)"/>
      <text x="129.3193" y="434.7139" clip-path="url(#clipPath2)" font-family="sans-serif" stroke="none" font-weight="bold" stroke-width="1" xml:space="preserve">h == 12</text>
    </g>
    <g fill="url(#linearGradient10)" text-rendering="geometricPrecision" shape-rendering="geometricPrecision" transform="matrix(1,0,0,1,46,-115)" stroke="url(#linearGradient10)">
      <path d="M-20 375 L60 375 L60 410 Q40 400 20 410 Q0 420 -20 410 Z" stroke="none" clip-path="url(#clipPath2)"/>
    </g>
    <g text-rendering="geometricPrecision" stroke-miterlimit="1.45" stroke-width="2" shape-rendering="geometricPrecision" transform="matrix(1,0,0,1,46,-115)" stroke-linecap="butt">
      <path fill="none" d="M-20 375 L60 375 L60 410 Q40 400 20 410 Q0 420 -20 410 Z" clip-path="url(#clipPath2)"/>
      <text x="-6.25" y="399.7139" clip-path="url(#clipPath2)" font-family="sans-serif" stroke="none" font-weight="bold" stroke-width="1" xml:space="preserve">Полночь</text>
    </g>
    <g fill="url(#linearGradient11)" text-rendering="geometricPrecision" shape-rendering="geometricPrecision" transform="matrix(1,0,0,1,46,-115)" stroke="url(#linearGradient11)">
      <path d="M-10 451 L70 451 L70 486 Q50 476 30 486 Q10 496 -10 486 Z" stroke="none" clip-path="url(#clipPath2)"/>
    </g>
    <g text-rendering="geometricPrecision" stroke-miterlimit="1.45" stroke-width="2" shape-rendering="geometricPrecision" transform="matrix(1,0,0,1,46,-115)" stroke-linecap="butt">
      <path fill="none" d="M-10 451 L70 451 L70 486 Q50 476 30 486 Q10 496 -10 486 Z" clip-path="url(#clipPath2)"/>
      <text x="3.7529" y="475.7139" clip-path="url(#clipPath2)" font-family="sans-serif" stroke="none" font-weight="bold" stroke-width="1" xml:space="preserve">Полдень</text>
    </g>
    <g fill="url(#linearGradient12)" text-rendering="geometricPrecision" shape-rendering="geometricPrecision" transform="matrix(1,0,0,1,46,-115)" stroke="url(#linearGradient12)">
      <rect x="90" width="120" height="40" y="480" clip-path="url(#clipPath2)" stroke="none"/>
    </g>
    <g text-rendering="geometricPrecision" stroke-miterlimit="1.45" stroke-width="2" shape-rendering="geometricPrecision" transform="matrix(1,0,0,1,46,-115)" stroke-linecap="butt">
      <rect fill="none" x="90" width="120" height="40" y="480" clip-path="url(#clipPath2)"/>
      <path fill="none" d="M100 480 L100 520 M200 480 L200 520 M100 480 Z" clip-path="url(#clipPath2)"/>
      <text x="105.3311" y="504.7139" clip-path="url(#clipPath2)" font-family="sans-serif" stroke="none" font-weight="bold" stroke-width="1" xml:space="preserve">padez_hours(h)</text>
    </g>
    <g fill="url(#linearGradient13)" text-rendering="geometricPrecision" shape-rendering="geometricPrecision" transform="matrix(1,0,0,1,46,-115)" stroke="url(#linearGradient13)">
      <rect x="90" width="120" height="40" y="550" clip-path="url(#clipPath2)" stroke="none"/>
    </g>
    <g text-rendering="geometricPrecision" stroke-miterlimit="1.45" stroke-width="2" shape-rendering="geometricPrecision" transform="matrix(1,0,0,1,46,-115)" stroke-linecap="butt">
      <rect fill="none" x="90" width="120" height="40" y="550" clip-path="url(#clipPath2)"/>
      <path fill="none" d="M100 550 L100 590 M200 550 L200 590 M100 550 Z" clip-path="url(#clipPath2)"/>
      <text x="107.3262" y="574.7139" clip-path="url(#clipPath2)" font-family="sans-serif" stroke="none" font-weight="bold" stroke-width="1" xml:space="preserve">time_of_day(h)</text>
    </g>
    <g fill="url(#linearGradient14)" text-rendering="geometricPrecision" shape-rendering="geometricPrecision" transform="matrix(1,0,0,1,46,-115)" stroke="url(#linearGradient14)">
      <path d="M110 620 L190 620 L190 655 Q170 645 150 655 Q130 665 110 655 Z" stroke="none" clip-path="url(#clipPath2)"/>
    </g>
    <g text-rendering="geometricPrecision" stroke-miterlimit="1.45" stroke-width="2" shape-rendering="geometricPrecision" transform="matrix(1,0,0,1,46,-115)" stroke-linecap="butt">
      <path fill="none" d="M110 620 L190 620 L190 655 Q170 645 150 655 Q130 665 110 655 Z" clip-path="url(#clipPath2)"/>
      <text x="131.6924" y="644.7139" clip-path="url(#clipPath2)" font-family="sans-serif" stroke="none" font-weight="bold" stroke-width="1" xml:space="preserve">ровно</text>
    </g>
    <g fill="url(#linearGradient15)" text-rendering="geometricPrecision" shape-rendering="geometricPrecision" transform="matrix(1,0,0,1,46,-115)" stroke="url(#linearGradient15)">
      <rect x="230" width="180" height="131.25" y="130" clip-path="url(#clipPath2)" stroke="none"/>
    </g>
    <g text-rendering="geometricPrecision" stroke-miterlimit="1.45" shape-rendering="geometricPrecision" transform="matrix(1,0,0,1,46,-115)" stroke-linecap="butt">
      <path fill="none" d="M252.5 130 L230 130 L230 261.25 L252.5 261.25" clip-path="url(#clipPath2)"/>
      <text x="239.5742" xml:space="preserve" y="156.2354" clip-path="url(#clipPath2)" font-family="sans-serif" stroke="none">Функция print_info(h, m)</text>
      <text x="239.5742" xml:space="preserve" y="170.9365" clip-path="url(#clipPath2)" font-family="sans-serif" stroke="none">Принимает на вход </text>
      <text x="239.5742" xml:space="preserve" y="185.6377" clip-path="url(#clipPath2)" font-family="sans-serif" stroke="none">количество часов и </text>
      <text x="239.5742" xml:space="preserve" y="200.3389" clip-path="url(#clipPath2)" font-family="sans-serif" stroke="none">минут в формате </text>
      <text x="239.5742" xml:space="preserve" y="215.04" clip-path="url(#clipPath2)" font-family="sans-serif" stroke="none">целых чисел.</text>
      <text x="239.5742" xml:space="preserve" y="229.7412" clip-path="url(#clipPath2)" font-family="sans-serif" stroke="none">Выводит всю информацию</text>
      <text x="239.5742" xml:space="preserve" y="244.4424" clip-path="url(#clipPath2)" font-family="sans-serif" stroke="none">о текущем времени на экран</text>
    </g>
    <g text-rendering="geometricPrecision" stroke-miterlimit="1.45" shape-rendering="geometricPrecision" transform="matrix(1,0,0,1,46,-115)" stroke-linecap="butt">
      <path fill="none" d="M150 169.9951 L150 200.0273" clip-path="url(#clipPath2)"/>
    </g>
    <g text-rendering="geometricPrecision" stroke-miterlimit="1.45" shape-rendering="geometricPrecision" transform="matrix(1,0,0,1,46,-115)" stroke-linecap="butt">
      <path fill="none" d="M150 239.9951 L150 270.0273" clip-path="url(#clipPath2)"/>
      <path fill="none" d="M150 309.9951 L150 332.0273" clip-path="url(#clipPath2)"/>
      <path d="M150 340.0273 L155 328.0273 L150 331.0273 L145 328.0273 Z" clip-path="url(#clipPath2)" stroke="none"/>
      <text x="165.8845" y="326.7764" clip-path="url(#clipPath2)" font-family="sans-serif" stroke="none" font-weight="bold" xml:space="preserve">Да</text>
      <path fill="none" d="M190.0269 290 L300 290 L300 332.0049" clip-path="url(#clipPath2)"/>
      <path d="M300 340.0049 L305 328.0049 L300 331.0049 L295 328.0049 Z" clip-path="url(#clipPath2)" stroke="none"/>
      <text x="238.9541" y="283.3633" clip-path="url(#clipPath2)" font-family="sans-serif" stroke="none" font-weight="bold" xml:space="preserve">Нет</text>
      <path fill="none" d="M300 379.9699 L300 417.293" clip-path="url(#clipPath2)"/>
      <path fill="none" d="M300 457.2824 L300 494.6055" clip-path="url(#clipPath2)"/>
      <path fill="none" d="M300 534.6105 L300 680 L170.0317 680" clip-path="url(#clipPath2)"/>
      <path fill="none" d="M150 379.9951 L150 402.0273" clip-path="url(#clipPath2)"/>
      <path d="M150 410.0273 L155 398.0273 L150 401.0273 L145 398.0273 Z" clip-path="url(#clipPath2)" stroke="none"/>
      <text x="160.3874" y="398.0264" clip-path="url(#clipPath2)" font-family="sans-serif" stroke="none" font-weight="bold" xml:space="preserve">Нет</text>
      <path fill="none" d="M109.978 360 L20 360 L20 367.0049" clip-path="url(#clipPath2)"/>
      <path d="M20 375.0049 L25 363.0049 L20 366.0049 L15 363.0049 Z" clip-path="url(#clipPath2)" stroke="none"/>
      <text x="64.5762" y="350.2139" clip-path="url(#clipPath2)" font-family="sans-serif" stroke="none" font-weight="bold" xml:space="preserve">Да</text>
      <path fill="none" d="M20 410.0015 L20 423.5 L-31 423.5 L-31 680 L129.9822 680" clip-path="url(#clipPath2)"/>
      <path fill="none" d="M110.0098 430 L30 430 L30 443.0205" clip-path="url(#clipPath2)"/>
      <path d="M30 451.0205 L35 439.0205 L30 442.0205 L25 439.0205 Z" clip-path="url(#clipPath2)" stroke="none"/>
      <text x="66.5762" y="421.2139" clip-path="url(#clipPath2)" font-family="sans-serif" stroke="none" font-weight="bold" xml:space="preserve">Да</text>
      <path fill="none" d="M30 485.976 L30 680 L129.9902 680" clip-path="url(#clipPath2)"/>
      <path fill="none" d="M150 449.9951 L150 472.0273" clip-path="url(#clipPath2)"/>
      <path d="M150 480.0273 L155 468.0273 L150 471.0273 L145 468.0273 Z" clip-path="url(#clipPath2)" stroke="none"/>
      <text x="162.8874" y="465.5264" clip-path="url(#clipPath2)" font-family="sans-serif" stroke="none" font-weight="bold" xml:space="preserve">Нет</text>
      <path fill="none" d="M150 519.9951 L150 550.0273" clip-path="url(#clipPath2)"/>
      <path fill="none" d="M150 589.9951 L150 620.0273" clip-path="url(#clipPath2)"/>
      <path fill="none" d="M150 654.9707 L150 679.9919" clip-path="url(#clipPath2)"/>
      <path fill="none" stroke-dasharray="6,2" d="M189.9902 150 L210 150 L210 195.625 L230.0073 195.625" clip-path="url(#clipPath2)"/>
    </g>
  </g>
</svg>
