<?xml version="1.0" encoding="UTF-8"?><svg xmlns="http://www.w3.org/2000/svg" xmlns:xlink="http://www.w3.org/1999/xlink" fill-opacity="1" color-rendering="auto" color-interpolation="auto" text-rendering="auto" stroke="black" stroke-linecap="square" width="477" stroke-miterlimit="10" shape-rendering="auto" stroke-opacity="1" fill="black" stroke-dasharray="none" font-weight="normal" stroke-width="1" height="485" font-family="'Dialog'" font-style="normal" stroke-linejoin="miter" font-size="12px" stroke-dashoffset="0" image-rendering="auto">
  <!--Generated by ySVG 2.6-->
  <defs id="genericDefs"/>
  <g>
    <defs id="defs1">
      <linearGradient x1="110" gradientUnits="userSpaceOnUse" x2="190" y1="130" y2="170" id="linearGradient1" spreadMethod="reflect">
        <stop stop-opacity="1" stop-color="rgb(232,238,247)" offset="0%"/>
        <stop stop-opacity="1" stop-color="rgb(183,201,227)" offset="100%"/>
      </linearGradient>
      <linearGradient x1="110" gradientUnits="userSpaceOnUse" x2="190" y1="200" y2="240" id="linearGradient2" spreadMethod="reflect">
        <stop stop-opacity="1" stop-color="rgb(232,238,247)" offset="0%"/>
        <stop stop-opacity="1" stop-color="rgb(183,201,227)" offset="100%"/>
      </linearGradient>
      <linearGradient x1="105" gradientUnits="userSpaceOnUse" x2="195" y1="265" y2="315" id="linearGradient3" spreadMethod="reflect">
        <stop stop-opacity="1" stop-color="rgb(232,238,247)" offset="0%"/>
        <stop stop-opacity="1" stop-color="rgb(183,201,227)" offset="100%"/>
      </linearGradient>
      <linearGradient x1="0" gradientUnits="userSpaceOnUse" x2="80" y1="305" y2="345" id="linearGradient4" spreadMethod="reflect">
        <stop stop-opacity="1" stop-color="rgb(232,238,247)" offset="0%"/>
        <stop stop-opacity="1" stop-color="rgb(183,201,227)" offset="100%"/>
      </linearGradient>
      <linearGradient x1="100" gradientUnits="userSpaceOnUse" x2="200" y1="335" y2="385" id="linearGradient5" spreadMethod="reflect">
        <stop stop-opacity="1" stop-color="rgb(232,238,247)" offset="0%"/>
        <stop stop-opacity="1" stop-color="rgb(183,201,227)" offset="100%"/>
      </linearGradient>
      <linearGradient x1="0" gradientUnits="userSpaceOnUse" x2="80" y1="375" y2="415" id="linearGradient6" spreadMethod="reflect">
        <stop stop-opacity="1" stop-color="rgb(232,238,247)" offset="0%"/>
        <stop stop-opacity="1" stop-color="rgb(183,201,227)" offset="100%"/>
      </linearGradient>
      <linearGradient x1="100" gradientUnits="userSpaceOnUse" x2="200" y1="405" y2="455" id="linearGradient7" spreadMethod="reflect">
        <stop stop-opacity="1" stop-color="rgb(232,238,247)" offset="0%"/>
        <stop stop-opacity="1" stop-color="rgb(183,201,227)" offset="100%"/>
      </linearGradient>
      <linearGradient x1="0" gradientUnits="userSpaceOnUse" x2="80" y1="447.5" y2="487.5" id="linearGradient8" spreadMethod="reflect">
        <stop stop-opacity="1" stop-color="rgb(232,238,247)" offset="0%"/>
        <stop stop-opacity="1" stop-color="rgb(183,201,227)" offset="100%"/>
      </linearGradient>
      <linearGradient x1="110" gradientUnits="userSpaceOnUse" x2="190" y1="480" y2="520" id="linearGradient9" spreadMethod="reflect">
        <stop stop-opacity="1" stop-color="rgb(232,238,247)" offset="0%"/>
        <stop stop-opacity="1" stop-color="rgb(183,201,227)" offset="100%"/>
      </linearGradient>
      <linearGradient x1="110" gradientUnits="userSpaceOnUse" x2="190" y1="545" y2="585" id="linearGradient10" spreadMethod="reflect">
        <stop stop-opacity="1" stop-color="rgb(232,238,247)" offset="0%"/>
        <stop stop-opacity="1" stop-color="rgb(183,201,227)" offset="100%"/>
      </linearGradient>
      <linearGradient x1="230" gradientUnits="userSpaceOnUse" x2="407" y1="130" y2="227" id="linearGradient11" spreadMethod="reflect">
        <stop stop-opacity="1" stop-color="rgb(232,238,247)" offset="0%"/>
        <stop stop-opacity="1" stop-color="rgb(183,201,227)" offset="100%"/>
      </linearGradient>
      <clipPath clipPathUnits="userSpaceOnUse" id="clipPath1">
        <path d="M0 0 L477 0 L477 485 L0 485 L0 0 Z"/>
      </clipPath>
      <clipPath clipPathUnits="userSpaceOnUse" id="clipPath2">
        <path d="M-55 115 L422 115 L422 600 L-55 600 L-55 115 Z"/>
      </clipPath>
    </defs>
    <g fill="url(#linearGradient1)" text-rendering="geometricPrecision" shape-rendering="geometricPrecision" transform="matrix(1,0,0,1,55,-115)" stroke="url(#linearGradient1)">
      <rect x="110" y="130" clip-path="url(#clipPath2)" width="80" rx="20" ry="20" height="40" stroke="none"/>
    </g>
    <g text-rendering="geometricPrecision" stroke-miterlimit="1.45" stroke-width="2" shape-rendering="geometricPrecision" transform="matrix(1,0,0,1,55,-115)" stroke-linecap="butt">
      <rect x="110" y="130" clip-path="url(#clipPath2)" fill="none" width="80" rx="20" ry="20" height="40"/>
      <text x="128.0332" y="154.7139" clip-path="url(#clipPath2)" font-family="sans-serif" stroke="none" font-weight="bold" stroke-width="1" xml:space="preserve">Начало</text>
    </g>
    <g fill="url(#linearGradient2)" text-rendering="geometricPrecision" shape-rendering="geometricPrecision" transform="matrix(1,0,0,1,55,-115)" stroke="url(#linearGradient2)">
      <path d="M120.2 200 L190 200 L179.8 240 L110 240 Z" stroke="none" clip-path="url(#clipPath2)"/>
    </g>
    <g text-rendering="geometricPrecision" stroke-miterlimit="1.45" stroke-width="2" shape-rendering="geometricPrecision" transform="matrix(1,0,0,1,55,-115)" stroke-linecap="butt">
      <path fill="none" d="M120.2 200 L190 200 L179.8 240 L110 240 Z" clip-path="url(#clipPath2)"/>
      <text x="140.6631" y="224.7139" clip-path="url(#clipPath2)" font-family="sans-serif" stroke="none" font-weight="bold" stroke-width="1" xml:space="preserve">hrs</text>
    </g>
    <g fill="url(#linearGradient3)" text-rendering="geometricPrecision" shape-rendering="geometricPrecision" transform="matrix(1,0,0,1,55,-115)" stroke="url(#linearGradient3)">
      <path d="M150 265 L195 290 L150 315 L105 290 Z" stroke="none" clip-path="url(#clipPath2)"/>
    </g>
    <g text-rendering="geometricPrecision" stroke-miterlimit="1.45" stroke-width="2" shape-rendering="geometricPrecision" transform="matrix(1,0,0,1,55,-115)" stroke-linecap="butt">
      <path fill="none" d="M150 265 L195 290 L150 315 L105 290 Z" clip-path="url(#clipPath2)"/>
      <text x="116.8096" y="294.7139" clip-path="url(#clipPath2)" font-family="sans-serif" stroke="none" font-weight="bold" stroke-width="1" xml:space="preserve">0 &lt;= hrs &lt; 5</text>
    </g>
    <g fill="url(#linearGradient4)" text-rendering="geometricPrecision" shape-rendering="geometricPrecision" transform="matrix(1,0,0,1,55,-115)" stroke="url(#linearGradient4)">
      <path d="M0 305 L80 305 L80 340 Q60 330 40 340 Q20 350 0 340 Z" stroke="none" clip-path="url(#clipPath2)"/>
    </g>
    <g text-rendering="geometricPrecision" stroke-miterlimit="1.45" stroke-width="2" shape-rendering="geometricPrecision" transform="matrix(1,0,0,1,55,-115)" stroke-linecap="butt">
      <path fill="none" d="M0 305 L80 305 L80 340 Q60 330 40 340 Q20 350 0 340 Z" clip-path="url(#clipPath2)"/>
      <text x="19.8496" y="329.7139" clip-path="url(#clipPath2)" font-family="sans-serif" stroke="none" font-weight="bold" stroke-width="1" xml:space="preserve">"ночи"</text>
    </g>
    <g fill="url(#linearGradient5)" text-rendering="geometricPrecision" shape-rendering="geometricPrecision" transform="matrix(1,0,0,1,55,-115)" stroke="url(#linearGradient5)">
      <path d="M150 335 L200 360 L150 385 L100 360 Z" stroke="none" clip-path="url(#clipPath2)"/>
    </g>
    <g text-rendering="geometricPrecision" stroke-miterlimit="1.45" stroke-width="2" shape-rendering="geometricPrecision" transform="matrix(1,0,0,1,55,-115)" stroke-linecap="butt">
      <path fill="none" d="M150 335 L200 360 L150 385 L100 360 Z" clip-path="url(#clipPath2)"/>
      <text x="113.4727" y="364.7139" clip-path="url(#clipPath2)" font-family="sans-serif" stroke="none" font-weight="bold" stroke-width="1" xml:space="preserve">5 &lt;= hrs &lt; 12</text>
    </g>
    <g fill="url(#linearGradient6)" text-rendering="geometricPrecision" shape-rendering="geometricPrecision" transform="matrix(1,0,0,1,55,-115)" stroke="url(#linearGradient6)">
      <path d="M0 375 L80 375 L80 410 Q60 400 40 410 Q20 420 0 410 Z" stroke="none" clip-path="url(#clipPath2)"/>
    </g>
    <g text-rendering="geometricPrecision" stroke-miterlimit="1.45" stroke-width="2" shape-rendering="geometricPrecision" transform="matrix(1,0,0,1,55,-115)" stroke-linecap="butt">
      <path fill="none" d="M0 375 L80 375 L80 410 Q60 400 40 410 Q20 420 0 410 Z" clip-path="url(#clipPath2)"/>
      <text x="21.0332" y="399.7139" clip-path="url(#clipPath2)" font-family="sans-serif" stroke="none" font-weight="bold" stroke-width="1" xml:space="preserve">"утра"</text>
    </g>
    <g fill="url(#linearGradient7)" text-rendering="geometricPrecision" shape-rendering="geometricPrecision" transform="matrix(1,0,0,1,55,-115)" stroke="url(#linearGradient7)">
      <path d="M150 405 L200 430 L150 455 L100 430 Z" stroke="none" clip-path="url(#clipPath2)"/>
    </g>
    <g text-rendering="geometricPrecision" stroke-miterlimit="1.45" stroke-width="2" shape-rendering="geometricPrecision" transform="matrix(1,0,0,1,55,-115)" stroke-linecap="butt">
      <path fill="none" d="M150 405 L200 430 L150 455 L100 430 Z" clip-path="url(#clipPath2)"/>
      <text x="110.1357" y="434.7139" clip-path="url(#clipPath2)" font-family="sans-serif" stroke="none" font-weight="bold" stroke-width="1" xml:space="preserve">12 &lt;= hrs &lt; 18</text>
    </g>
    <g fill="url(#linearGradient8)" text-rendering="geometricPrecision" shape-rendering="geometricPrecision" transform="matrix(1,0,0,1,55,-115)" stroke="url(#linearGradient8)">
      <path d="M0 447.5 L80 447.5 L80 482.5 Q60 472.5 40 482.5 Q20 492.5 0 482.5 Z" stroke="none" clip-path="url(#clipPath2)"/>
    </g>
    <g text-rendering="geometricPrecision" stroke-miterlimit="1.45" stroke-width="2" shape-rendering="geometricPrecision" transform="matrix(1,0,0,1,55,-115)" stroke-linecap="butt">
      <path fill="none" d="M0 447.5 L80 447.5 L80 482.5 Q60 472.5 40 482.5 Q20 492.5 0 482.5 Z" clip-path="url(#clipPath2)"/>
      <text x="23.377" y="472.2139" clip-path="url(#clipPath2)" font-family="sans-serif" stroke="none" font-weight="bold" stroke-width="1" xml:space="preserve">"дня"</text>
    </g>
    <g fill="url(#linearGradient9)" text-rendering="geometricPrecision" shape-rendering="geometricPrecision" transform="matrix(1,0,0,1,55,-115)" stroke="url(#linearGradient9)">
      <path d="M110 480 L190 480 L190 515 Q170 505 150 515 Q130 525 110 515 Z" stroke="none" clip-path="url(#clipPath2)"/>
    </g>
    <g text-rendering="geometricPrecision" stroke-miterlimit="1.45" stroke-width="2" shape-rendering="geometricPrecision" transform="matrix(1,0,0,1,55,-115)" stroke-linecap="butt">
      <path fill="none" d="M110 480 L190 480 L190 515 Q170 505 150 515 Q130 525 110 515 Z" clip-path="url(#clipPath2)"/>
      <text x="123.4629" y="504.7139" clip-path="url(#clipPath2)" font-family="sans-serif" stroke="none" font-weight="bold" stroke-width="1" xml:space="preserve">"вечера"</text>
    </g>
    <g fill="url(#linearGradient10)" text-rendering="geometricPrecision" shape-rendering="geometricPrecision" transform="matrix(1,0,0,1,55,-115)" stroke="url(#linearGradient10)">
      <rect x="110" y="545" clip-path="url(#clipPath2)" width="80" rx="20" ry="20" height="40" stroke="none"/>
    </g>
    <g text-rendering="geometricPrecision" stroke-miterlimit="1.45" stroke-width="2" shape-rendering="geometricPrecision" transform="matrix(1,0,0,1,55,-115)" stroke-linecap="butt">
      <rect x="110" y="545" clip-path="url(#clipPath2)" fill="none" width="80" rx="20" ry="20" height="40"/>
      <text x="132.0234" y="569.7139" clip-path="url(#clipPath2)" font-family="sans-serif" stroke="none" font-weight="bold" stroke-width="1" xml:space="preserve">Конец</text>
    </g>
    <g fill="url(#linearGradient11)" text-rendering="geometricPrecision" shape-rendering="geometricPrecision" transform="matrix(1,0,0,1,55,-115)" stroke="url(#linearGradient11)">
      <rect x="230" width="177" height="97" y="130" clip-path="url(#clipPath2)" stroke="none"/>
    </g>
    <g text-rendering="geometricPrecision" stroke-miterlimit="1.45" shape-rendering="geometricPrecision" transform="matrix(1,0,0,1,55,-115)" stroke-linecap="butt">
      <path fill="none" d="M252.125 130 L230 130 L230 227 L252.125 227" clip-path="url(#clipPath2)"/>
      <text x="235.9502" xml:space="preserve" y="146.4609" clip-path="url(#clipPath2)" font-family="sans-serif" stroke="none">Функция time_of_day(hrs)</text>
      <text x="235.9502" xml:space="preserve" y="161.1621" clip-path="url(#clipPath2)" font-family="sans-serif" stroke="none">Принимает на вход </text>
      <text x="235.9502" xml:space="preserve" y="175.8633" clip-path="url(#clipPath2)" font-family="sans-serif" stroke="none">количество часов в формате </text>
      <text x="235.9502" xml:space="preserve" y="190.5645" clip-path="url(#clipPath2)" font-family="sans-serif" stroke="none">целого числа</text>
      <text x="235.9502" xml:space="preserve" y="205.2656" clip-path="url(#clipPath2)" font-family="sans-serif" stroke="none">Выводит на экран время дня</text>
      <text x="235.9502" xml:space="preserve" y="219.9668" clip-path="url(#clipPath2)" font-family="sans-serif" stroke="none">(ночь, утро, день, вечер) </text>
    </g>
    <g text-rendering="geometricPrecision" stroke-miterlimit="1.45" shape-rendering="geometricPrecision" transform="matrix(1,0,0,1,55,-115)" stroke-linecap="butt">
      <path fill="none" d="M150 169.9951 L150 200.0273" clip-path="url(#clipPath2)"/>
    </g>
    <g text-rendering="geometricPrecision" stroke-miterlimit="1.45" shape-rendering="geometricPrecision" transform="matrix(1,0,0,1,55,-115)" stroke-linecap="butt">
      <path fill="none" d="M150 239.9951 L150 265.0464" clip-path="url(#clipPath2)"/>
      <path fill="none" d="M105.0171 290 L40 290 L40 297.0049" clip-path="url(#clipPath2)"/>
      <path d="M40 305.0049 L45 293.0049 L40 296.0049 L35 293.0049 Z" clip-path="url(#clipPath2)" stroke="none"/>
      <text x="71.8887" y="281.2139" clip-path="url(#clipPath2)" font-family="sans-serif" stroke="none" font-weight="bold" xml:space="preserve">Да</text>
      <path fill="none" d="M150 314.9854 L150 326.987" clip-path="url(#clipPath2)"/>
      <path d="M150 334.987 L155 322.987 L150 325.987 L145 322.987 Z" clip-path="url(#clipPath2)" stroke="none"/>
      <text x="157.7041" y="327.7764" clip-path="url(#clipPath2)" font-family="sans-serif" stroke="none" font-weight="bold" xml:space="preserve">Нет</text>
      <path fill="none" d="M100.022 360 L40 360 L40 367.0049" clip-path="url(#clipPath2)"/>
      <path d="M40 375.0049 L45 363.0049 L40 366.0049 L35 363.0049 Z" clip-path="url(#clipPath2)" stroke="none"/>
      <text x="72.8887" y="352.2139" clip-path="url(#clipPath2)" font-family="sans-serif" stroke="none" font-weight="bold" xml:space="preserve">Да</text>
      <path fill="none" d="M150 384.9854 L150 396.987" clip-path="url(#clipPath2)"/>
      <path d="M150 404.987 L155 392.987 L150 395.987 L145 392.987 Z" clip-path="url(#clipPath2)" stroke="none"/>
      <text x="159.7041" y="398.7764" clip-path="url(#clipPath2)" font-family="sans-serif" stroke="none" font-weight="bold" xml:space="preserve">Нет</text>
      <path fill="none" d="M100.022 430 L40 430 L40 439.4683" clip-path="url(#clipPath2)"/>
      <path d="M40 447.4683 L45 435.4683 L40 438.4683 L35 435.4683 Z" clip-path="url(#clipPath2)" stroke="none"/>
      <text x="73.8887" y="422.2139" clip-path="url(#clipPath2)" font-family="sans-serif" stroke="none" font-weight="bold" xml:space="preserve">Да</text>
      <path fill="none" d="M150 454.9854 L150 471.9984" clip-path="url(#clipPath2)"/>
      <path d="M150 479.9984 L155 467.9984 L150 470.9984 L145 467.9984 Z" clip-path="url(#clipPath2)" stroke="none"/>
      <text x="160.7041" y="467.7764" clip-path="url(#clipPath2)" font-family="sans-serif" stroke="none" font-weight="bold" xml:space="preserve">Нет</text>
      <path fill="none" d="M150 515.0122 L150 545.0342" clip-path="url(#clipPath2)"/>
      <path fill="none" d="M40 482.4747 L40 544.75 L150 544.75 L150 545.0098" clip-path="url(#clipPath2)"/>
      <path fill="none" d="M40 410.0122 L40 422.5 L-20 422.5 L-20 544.75 L153 544.75 L153 544.9917" clip-path="url(#clipPath2)"/>
      <path fill="none" d="M40 339.9707 L40 355 L-40 355 L-40 544.75 L150 544.75 L150 544.999" clip-path="url(#clipPath2)"/>
      <path fill="none" stroke-dasharray="6,2" d="M189.9902 150 L210 150 L210 178.5 L229.9994 178.5" clip-path="url(#clipPath2)"/>
    </g>
  </g>
</svg>
