<?xml version="1.0" encoding="UTF-8"?><svg xmlns="http://www.w3.org/2000/svg" xmlns:xlink="http://www.w3.org/1999/xlink" fill-opacity="1" color-rendering="auto" color-interpolation="auto" text-rendering="auto" stroke="black" stroke-linecap="square" width="520" stroke-miterlimit="10" shape-rendering="auto" stroke-opacity="1" fill="black" stroke-dasharray="none" font-weight="normal" stroke-width="1" height="322" font-family="'Dialog'" font-style="normal" stroke-linejoin="miter" font-size="12px" stroke-dashoffset="0" image-rendering="auto">
  <!--Generated by ySVG 2.6-->
  <defs id="genericDefs"/>
  <g>
    <defs id="defs1">
      <linearGradient x1="680" gradientUnits="userSpaceOnUse" x2="760" y1="160" y2="200" id="linearGradient1" spreadMethod="reflect">
        <stop stop-opacity="1" stop-color="rgb(232,238,247)" offset="0%"/>
        <stop stop-opacity="1" stop-color="rgb(183,201,227)" offset="100%"/>
      </linearGradient>
      <linearGradient x1="650" gradientUnits="userSpaceOnUse" x2="790" y1="230" y2="292" id="linearGradient2" spreadMethod="reflect">
        <stop stop-opacity="1" stop-color="rgb(232,238,247)" offset="0%"/>
        <stop stop-opacity="1" stop-color="rgb(183,201,227)" offset="100%"/>
      </linearGradient>
      <linearGradient x1="644" gradientUnits="userSpaceOnUse" x2="796" y1="322" y2="362" id="linearGradient3" spreadMethod="reflect">
        <stop stop-opacity="1" stop-color="rgb(232,238,247)" offset="0%"/>
        <stop stop-opacity="1" stop-color="rgb(183,201,227)" offset="100%"/>
      </linearGradient>
      <linearGradient x1="826" gradientUnits="userSpaceOnUse" x2="906" y1="400" y2="440" id="linearGradient4" spreadMethod="reflect">
        <stop stop-opacity="1" stop-color="rgb(232,238,247)" offset="0%"/>
        <stop stop-opacity="1" stop-color="rgb(183,201,227)" offset="100%"/>
      </linearGradient>
      <linearGradient x1="832" gradientUnits="userSpaceOnUse" x2="1088" y1="162.5" y2="267.5" id="linearGradient5" spreadMethod="reflect">
        <stop stop-opacity="1" stop-color="rgb(232,238,247)" offset="0%"/>
        <stop stop-opacity="1" stop-color="rgb(183,201,227)" offset="100%"/>
      </linearGradient>
      <linearGradient x1="650" gradientUnits="userSpaceOnUse" x2="790" y1="392" y2="432" id="linearGradient6" spreadMethod="reflect">
        <stop stop-opacity="1" stop-color="rgb(232,238,247)" offset="0%"/>
        <stop stop-opacity="1" stop-color="rgb(183,201,227)" offset="100%"/>
      </linearGradient>
      <clipPath clipPathUnits="userSpaceOnUse" id="clipPath1">
        <path d="M0 0 L520 0 L520 322 L0 322 L0 0 Z"/>
      </clipPath>
      <clipPath clipPathUnits="userSpaceOnUse" id="clipPath2">
        <path d="M583 145 L1103 145 L1103 467 L583 467 L583 145 Z"/>
      </clipPath>
    </defs>
    <g fill="url(#linearGradient1)" text-rendering="geometricPrecision" shape-rendering="geometricPrecision" transform="matrix(1,0,0,1,-583,-145)" stroke="url(#linearGradient1)">
      <rect x="680" y="160" clip-path="url(#clipPath2)" width="80" rx="20" ry="20" height="40" stroke="none"/>
    </g>
    <g text-rendering="geometricPrecision" stroke-miterlimit="1.45" stroke-width="2" shape-rendering="geometricPrecision" transform="matrix(1,0,0,1,-583,-145)" stroke-linecap="butt">
      <rect x="680" y="160" clip-path="url(#clipPath2)" fill="none" width="80" rx="20" ry="20" height="40"/>
      <text x="698.0332" y="184.7139" clip-path="url(#clipPath2)" font-family="sans-serif" stroke="none" font-weight="bold" stroke-width="1" xml:space="preserve">Начало</text>
    </g>
    <g fill="url(#linearGradient2)" text-rendering="geometricPrecision" shape-rendering="geometricPrecision" transform="matrix(1,0,0,1,-583,-145)" stroke="url(#linearGradient2)">
      <path d="M665.81 230 L790 230 L774.19 292 L650 292 Z" stroke="none" clip-path="url(#clipPath2)"/>
    </g>
    <g text-rendering="geometricPrecision" stroke-miterlimit="1.45" stroke-width="2" shape-rendering="geometricPrecision" transform="matrix(1,0,0,1,-583,-145)" stroke-linecap="butt">
      <path fill="none" d="M665.81 230 L790 230 L774.19 292 L650 292 Z" clip-path="url(#clipPath2)"/>
      <text x="665.9854" y="251.0127" clip-path="url(#clipPath2)" font-family="sans-serif" stroke="none" font-weight="bold" stroke-width="1" xml:space="preserve">arr_to_be_copied[]</text>
      <text x="660.9785" y="265.7139" clip-path="url(#clipPath2)" font-family="sans-serif" stroke="none" font-weight="bold" stroke-width="1" xml:space="preserve">arr_where_to_copy[]</text>
      <text x="697.3154" y="280.415" clip-path="url(#clipPath2)" font-family="sans-serif" stroke="none" font-weight="bold" stroke-width="1" xml:space="preserve">arr_size</text>
    </g>
    <g fill="url(#linearGradient3)" text-rendering="geometricPrecision" shape-rendering="geometricPrecision" transform="matrix(1,0,0,1,-583,-145)" stroke="url(#linearGradient3)">
      <path d="M654 322 L786 322 L796 342 L786 362 L654 362 L644 342 Z" stroke="none" clip-path="url(#clipPath2)"/>
    </g>
    <g text-rendering="geometricPrecision" stroke-miterlimit="1.45" stroke-width="2" shape-rendering="geometricPrecision" transform="matrix(1,0,0,1,-583,-145)" stroke-linecap="butt">
      <path fill="none" d="M654 322 L786 322 L796 342 L786 362 L654 362 L644 342 Z" clip-path="url(#clipPath2)"/>
      <text x="652.2949" y="346.7139" clip-path="url(#clipPath2)" font-family="sans-serif" stroke="none" font-weight="bold" stroke-width="1" xml:space="preserve">i = 0; i &lt; arr_size - 1; i++</text>
    </g>
    <g fill="url(#linearGradient4)" text-rendering="geometricPrecision" shape-rendering="geometricPrecision" transform="matrix(1,0,0,1,-583,-145)" stroke="url(#linearGradient4)">
      <rect x="826" y="400" clip-path="url(#clipPath2)" width="80" rx="20" ry="20" height="40" stroke="none"/>
    </g>
    <g text-rendering="geometricPrecision" stroke-miterlimit="1.45" stroke-width="2" shape-rendering="geometricPrecision" transform="matrix(1,0,0,1,-583,-145)" stroke-linecap="butt">
      <rect x="826" y="400" clip-path="url(#clipPath2)" fill="none" width="80" rx="20" ry="20" height="40"/>
      <text x="848.0234" y="424.7139" clip-path="url(#clipPath2)" font-family="sans-serif" stroke="none" font-weight="bold" stroke-width="1" xml:space="preserve">Конец</text>
    </g>
    <g fill="url(#linearGradient5)" text-rendering="geometricPrecision" shape-rendering="geometricPrecision" transform="matrix(1,0,0,1,-583,-145)" stroke="url(#linearGradient5)">
      <rect x="832" width="256" height="105" y="162.5" clip-path="url(#clipPath2)" stroke="none"/>
    </g>
    <g text-rendering="geometricPrecision" stroke-miterlimit="1.45" shape-rendering="geometricPrecision" transform="matrix(1,0,0,1,-583,-145)" stroke-linecap="butt">
      <path fill="none" d="M864 162.5 L832 162.5 L832 267.5 L864 267.5" clip-path="url(#clipPath2)"/>
      <text x="841.7432" xml:space="preserve" y="182.9609" clip-path="url(#clipPath2)" font-family="sans-serif" stroke="none">Функция copy_array(int arr_to_be_copied[], </text>
      <text x="842.9385" xml:space="preserve" y="197.6621" clip-path="url(#clipPath2)" font-family="sans-serif" stroke="none">int arr_where_to_copy[], unsigned arr_size).</text>
      <text x="846.4131" xml:space="preserve" y="212.3633" clip-path="url(#clipPath2)" font-family="sans-serif" stroke="none">Принимает на вход указатель на начало</text>
      <text x="857.1562" xml:space="preserve" y="227.0645" clip-path="url(#clipPath2)" font-family="sans-serif" stroke="none">массива, который надо скопировать,</text>
      <text x="855.8613" xml:space="preserve" y="241.7656" clip-path="url(#clipPath2)" font-family="sans-serif" stroke="none">указатель на массив, в который надо</text>
      <text x="858.3252" xml:space="preserve" y="256.4668" clip-path="url(#clipPath2)" font-family="sans-serif" stroke="none">скопировать и длину этих массивов.</text>
    </g>
    <g fill="url(#linearGradient6)" text-rendering="geometricPrecision" shape-rendering="geometricPrecision" transform="matrix(1,0,0,1,-583,-145)" stroke="url(#linearGradient6)">
      <path d="M650 392 L790 392 L790 432 L650 432 Z" stroke="none" clip-path="url(#clipPath2)"/>
    </g>
    <g text-rendering="geometricPrecision" stroke-miterlimit="1.45" stroke-width="2" shape-rendering="geometricPrecision" transform="matrix(1,0,0,1,-583,-145)" stroke-linecap="butt">
      <path fill="none" d="M650 392 L790 392 L790 432 L650 432 Z" clip-path="url(#clipPath2)"/>
      <text x="654.1406" y="409.3633" clip-path="url(#clipPath2)" font-family="sans-serif" stroke="none" font-weight="bold" stroke-width="1" xml:space="preserve">arr_where_to_copy[i] =</text>
      <text x="662.3203" y="424.0645" clip-path="url(#clipPath2)" font-family="sans-serif" stroke="none" font-weight="bold" stroke-width="1" xml:space="preserve">arr_to_be_copied[i];</text>
    </g>
    <g text-rendering="geometricPrecision" stroke-miterlimit="1.45" shape-rendering="geometricPrecision" transform="matrix(1,0,0,1,-583,-145)" stroke-linecap="butt">
      <path fill="none" d="M720 199.9731 L720 229.98" clip-path="url(#clipPath2)"/>
    </g>
    <g text-rendering="geometricPrecision" stroke-miterlimit="1.45" shape-rendering="geometricPrecision" transform="matrix(1,0,0,1,-583,-145)" stroke-linecap="butt">
      <path fill="none" d="M720 291.9683 L720 322.0166" clip-path="url(#clipPath2)"/>
      <path fill="none" d="M796.0298 342 L866 342 L866 392.0049" clip-path="url(#clipPath2)"/>
      <path d="M866 400.0049 L871 388.0049 L866 391.0049 L861 388.0049 Z" clip-path="url(#clipPath2)" stroke="none"/>
      <path fill="none" stroke-dasharray="6,2" d="M759.9872 180 L793.9781 180 L793.9781 215 L832.0383 215" clip-path="url(#clipPath2)"/>
      <path fill="none" d="M720 361.9951 L720 392.0273" clip-path="url(#clipPath2)"/>
      <path fill="none" d="M720 431.9609 L720 452 L598.76 452 L598.76 342 L636.0178 342" clip-path="url(#clipPath2)"/>
      <path d="M644.0178 342 L632.0178 337 L635.0178 342 L632.0178 347 Z" clip-path="url(#clipPath2)" stroke="none"/>
    </g>
  </g>
</svg>
