<?xml version="1.0" encoding="UTF-8"?><svg xmlns="http://www.w3.org/2000/svg" xmlns:xlink="http://www.w3.org/1999/xlink" fill-opacity="1" color-rendering="auto" color-interpolation="auto" text-rendering="auto" stroke="black" stroke-linecap="square" width="953" stroke-miterlimit="10" shape-rendering="auto" stroke-opacity="1" fill="black" stroke-dasharray="none" font-weight="normal" stroke-width="1" height="947" font-family="'Dialog'" font-style="normal" stroke-linejoin="miter" font-size="12px" stroke-dashoffset="0" image-rendering="auto">
  <!--Generated by ySVG 2.6-->
  <defs id="genericDefs"/>
  <g>
    <defs id="defs1">
      <linearGradient x1="554.3167" gradientUnits="userSpaceOnUse" x2="634.3167" y1="144" y2="184" id="linearGradient1" spreadMethod="reflect">
        <stop stop-opacity="1" stop-color="rgb(232,238,247)" offset="0%"/>
        <stop stop-opacity="1" stop-color="rgb(183,201,227)" offset="100%"/>
      </linearGradient>
      <linearGradient x1="542.3167" gradientUnits="userSpaceOnUse" x2="646.3167" y1="205.7" y2="254.02" id="linearGradient2" spreadMethod="reflect">
        <stop stop-opacity="1" stop-color="rgb(232,238,247)" offset="0%"/>
        <stop stop-opacity="1" stop-color="rgb(183,201,227)" offset="100%"/>
      </linearGradient>
      <linearGradient x1="548.3167" gradientUnits="userSpaceOnUse" x2="640.3167" y1="362.34" y2="410.66" id="linearGradient3" spreadMethod="reflect">
        <stop stop-opacity="1" stop-color="rgb(232,238,247)" offset="0%"/>
        <stop stop-opacity="1" stop-color="rgb(183,201,227)" offset="100%"/>
      </linearGradient>
      <linearGradient x1="554.3167" gradientUnits="userSpaceOnUse" x2="634.3167" y1="554.9277" y2="594.9277" id="linearGradient4" spreadMethod="reflect">
        <stop stop-opacity="1" stop-color="rgb(232,238,247)" offset="0%"/>
        <stop stop-opacity="1" stop-color="rgb(183,201,227)" offset="100%"/>
      </linearGradient>
      <linearGradient x1="702.9279" gradientUnits="userSpaceOnUse" x2="1085.6613" y1="222.1094" y2="322.1094" id="linearGradient5" spreadMethod="reflect">
        <stop stop-opacity="1" stop-color="rgb(232,238,247)" offset="0%"/>
        <stop stop-opacity="1" stop-color="rgb(183,201,227)" offset="100%"/>
      </linearGradient>
      <linearGradient x1="284" gradientUnits="userSpaceOnUse" x2="436" y1="406.5" y2="446.5" id="linearGradient6" spreadMethod="reflect">
        <stop stop-opacity="1" stop-color="rgb(232,238,247)" offset="0%"/>
        <stop stop-opacity="1" stop-color="rgb(183,201,227)" offset="100%"/>
      </linearGradient>
      <linearGradient x1="284" gradientUnits="userSpaceOnUse" x2="436" y1="532.68" y2="572.68" id="linearGradient7" spreadMethod="reflect">
        <stop stop-opacity="1" stop-color="rgb(232,238,247)" offset="0%"/>
        <stop stop-opacity="1" stop-color="rgb(183,201,227)" offset="100%"/>
      </linearGradient>
      <linearGradient x1="298.0495" gradientUnits="userSpaceOnUse" x2="421.9505" y1="587.113" y2="641" id="linearGradient8" spreadMethod="reflect">
        <stop stop-opacity="1" stop-color="rgb(232,238,247)" offset="0%"/>
        <stop stop-opacity="1" stop-color="rgb(183,201,227)" offset="100%"/>
      </linearGradient>
      <linearGradient x1="194.1017" gradientUnits="userSpaceOnUse" x2="346.1017" y1="793.68" y2="884.88" id="linearGradient9" spreadMethod="reflect">
        <stop stop-opacity="1" stop-color="rgb(232,238,247)" offset="0%"/>
        <stop stop-opacity="1" stop-color="rgb(183,201,227)" offset="100%"/>
      </linearGradient>
      <linearGradient x1="542.2167" gradientUnits="userSpaceOnUse" x2="646.4167" y1="292.34" y2="332.34" id="linearGradient10" spreadMethod="reflect">
        <stop stop-opacity="1" stop-color="rgb(232,238,247)" offset="0%"/>
        <stop stop-opacity="1" stop-color="rgb(183,201,227)" offset="100%"/>
      </linearGradient>
      <linearGradient x1="314" gradientUnits="userSpaceOnUse" x2="406" y1="466.34" y2="506.34" id="linearGradient11" spreadMethod="reflect">
        <stop stop-opacity="1" stop-color="rgb(232,238,247)" offset="0%"/>
        <stop stop-opacity="1" stop-color="rgb(183,201,227)" offset="100%"/>
      </linearGradient>
      <linearGradient x1="179.7931" gradientUnits="userSpaceOnUse" x2="360.4102" y1="914.88" y2="954.88" id="linearGradient12" spreadMethod="reflect">
        <stop stop-opacity="1" stop-color="rgb(232,238,247)" offset="0%"/>
        <stop stop-opacity="1" stop-color="rgb(183,201,227)" offset="100%"/>
      </linearGradient>
      <linearGradient x1="230.1017" gradientUnits="userSpaceOnUse" x2="310.1017" y1="984.88" y2="1024.88" id="linearGradient13" spreadMethod="reflect">
        <stop stop-opacity="1" stop-color="rgb(232,238,247)" offset="0%"/>
        <stop stop-opacity="1" stop-color="rgb(183,201,227)" offset="100%"/>
      </linearGradient>
      <linearGradient x1="314" gradientUnits="userSpaceOnUse" x2="406" y1="663.18" y2="703.18" id="linearGradient14" spreadMethod="reflect">
        <stop stop-opacity="1" stop-color="rgb(232,238,247)" offset="0%"/>
        <stop stop-opacity="1" stop-color="rgb(183,201,227)" offset="100%"/>
      </linearGradient>
      <linearGradient x1="309.0247" gradientUnits="userSpaceOnUse" x2="410.9753" y1="728.43" y2="768.43" id="linearGradient15" spreadMethod="reflect">
        <stop stop-opacity="1" stop-color="rgb(232,238,247)" offset="0%"/>
        <stop stop-opacity="1" stop-color="rgb(183,201,227)" offset="100%"/>
      </linearGradient>
      <linearGradient x1="702.9279" gradientUnits="userSpaceOnUse" x2="854.9279" y1="406.5" y2="446.5" id="linearGradient16" spreadMethod="reflect">
        <stop stop-opacity="1" stop-color="rgb(232,238,247)" offset="0%"/>
        <stop stop-opacity="1" stop-color="rgb(183,201,227)" offset="100%"/>
      </linearGradient>
      <linearGradient x1="702.9279" gradientUnits="userSpaceOnUse" x2="854.9279" y1="539.18" y2="579.18" id="linearGradient17" spreadMethod="reflect">
        <stop stop-opacity="1" stop-color="rgb(232,238,247)" offset="0%"/>
        <stop stop-opacity="1" stop-color="rgb(183,201,227)" offset="100%"/>
      </linearGradient>
      <linearGradient x1="716.9774" gradientUnits="userSpaceOnUse" x2="840.8784" y1="593.613" y2="647.5" id="linearGradient18" spreadMethod="reflect">
        <stop stop-opacity="1" stop-color="rgb(232,238,247)" offset="0%"/>
        <stop stop-opacity="1" stop-color="rgb(183,201,227)" offset="100%"/>
      </linearGradient>
      <linearGradient x1="613.0295" gradientUnits="userSpaceOnUse" x2="765.0295" y1="804.93" y2="896.13" id="linearGradient19" spreadMethod="reflect">
        <stop stop-opacity="1" stop-color="rgb(232,238,247)" offset="0%"/>
        <stop stop-opacity="1" stop-color="rgb(183,201,227)" offset="100%"/>
      </linearGradient>
      <linearGradient x1="732.9279" gradientUnits="userSpaceOnUse" x2="824.9279" y1="472.84" y2="512.84" id="linearGradient20" spreadMethod="reflect">
        <stop stop-opacity="1" stop-color="rgb(232,238,247)" offset="0%"/>
        <stop stop-opacity="1" stop-color="rgb(183,201,227)" offset="100%"/>
      </linearGradient>
      <linearGradient x1="598.721" gradientUnits="userSpaceOnUse" x2="779.3381" y1="926.13" y2="966.13" id="linearGradient21" spreadMethod="reflect">
        <stop stop-opacity="1" stop-color="rgb(232,238,247)" offset="0%"/>
        <stop stop-opacity="1" stop-color="rgb(183,201,227)" offset="100%"/>
      </linearGradient>
      <linearGradient x1="649.0295" gradientUnits="userSpaceOnUse" x2="729.0295" y1="996.13" y2="1036.13" id="linearGradient22" spreadMethod="reflect">
        <stop stop-opacity="1" stop-color="rgb(232,238,247)" offset="0%"/>
        <stop stop-opacity="1" stop-color="rgb(183,201,227)" offset="100%"/>
      </linearGradient>
      <linearGradient x1="732.9279" gradientUnits="userSpaceOnUse" x2="824.9279" y1="669.68" y2="709.68" id="linearGradient23" spreadMethod="reflect">
        <stop stop-opacity="1" stop-color="rgb(232,238,247)" offset="0%"/>
        <stop stop-opacity="1" stop-color="rgb(183,201,227)" offset="100%"/>
      </linearGradient>
      <linearGradient x1="727.9526" gradientUnits="userSpaceOnUse" x2="829.9031" y1="734.93" y2="774.93" id="linearGradient24" spreadMethod="reflect">
        <stop stop-opacity="1" stop-color="rgb(232,238,247)" offset="0%"/>
        <stop stop-opacity="1" stop-color="rgb(183,201,227)" offset="100%"/>
      </linearGradient>
      <clipPath clipPathUnits="userSpaceOnUse" id="clipPath1">
        <path d="M0 0 L953 0 L953 947 L0 947 L0 0 Z"/>
      </clipPath>
      <clipPath clipPathUnits="userSpaceOnUse" id="clipPath2">
        <path d="M148 129 L1101 129 L1101 1076 L148 1076 L148 129 Z"/>
      </clipPath>
    </defs>
    <g fill="url(#linearGradient1)" text-rendering="geometricPrecision" shape-rendering="geometricPrecision" transform="matrix(1,0,0,1,-148,-129)" stroke="url(#linearGradient1)">
      <rect x="554.3167" y="144" clip-path="url(#clipPath2)" width="80" rx="20" ry="20" height="40" stroke="none"/>
    </g>
    <g text-rendering="geometricPrecision" stroke-miterlimit="1.45" stroke-width="2" shape-rendering="geometricPrecision" transform="matrix(1,0,0,1,-148,-129)" stroke-linecap="butt">
      <rect x="554.3167" y="144" clip-path="url(#clipPath2)" fill="none" width="80" rx="20" ry="20" height="40"/>
      <text x="572.3499" y="168.7139" clip-path="url(#clipPath2)" font-family="sans-serif" stroke="none" font-weight="bold" stroke-width="1" xml:space="preserve">Начало</text>
    </g>
    <g fill="url(#linearGradient2)" text-rendering="geometricPrecision" shape-rendering="geometricPrecision" transform="matrix(1,0,0,1,-148,-129)" stroke="url(#linearGradient2)">
      <path d="M554.6382 205.7 L646.3167 205.7 L633.9951 254.02 L542.3167 254.02 Z" stroke="none" clip-path="url(#clipPath2)"/>
    </g>
    <g text-rendering="geometricPrecision" stroke-miterlimit="1.45" stroke-width="2" shape-rendering="geometricPrecision" transform="matrix(1,0,0,1,-148,-129)" stroke-linecap="butt">
      <path fill="none" d="M554.6382 205.7 L646.3167 205.7 L633.9951 254.02 L542.3167 254.02 Z" clip-path="url(#clipPath2)"/>
      <text x="582.3137" y="219.8727" clip-path="url(#clipPath2)" font-family="sans-serif" stroke="none" font-weight="bold" stroke-width="1" xml:space="preserve">arr[]</text>
      <text x="571.6321" y="234.5739" clip-path="url(#clipPath2)" font-family="sans-serif" stroke="none" font-weight="bold" stroke-width="1" xml:space="preserve">arr_size</text>
      <text x="558.6331" y="249.275" clip-path="url(#clipPath2)" font-family="sans-serif" stroke="none" font-weight="bold" stroke-width="1" xml:space="preserve">bool reverse</text>
    </g>
    <g fill="url(#linearGradient3)" text-rendering="geometricPrecision" shape-rendering="geometricPrecision" transform="matrix(1,0,0,1,-148,-129)" stroke="url(#linearGradient3)">
      <path d="M594.3167 362.34 L640.3167 386.5 L594.3167 410.66 L548.3167 386.5 Z" stroke="none" clip-path="url(#clipPath2)"/>
    </g>
    <g text-rendering="geometricPrecision" stroke-miterlimit="1.45" stroke-width="2" shape-rendering="geometricPrecision" transform="matrix(1,0,0,1,-148,-129)" stroke-linecap="butt">
      <path fill="none" d="M594.3167 362.34 L640.3167 386.5 L594.3167 410.66 L548.3167 386.5 Z" clip-path="url(#clipPath2)"/>
      <text x="563.634" y="391.2139" clip-path="url(#clipPath2)" font-family="sans-serif" stroke="none" font-weight="bold" stroke-width="1" xml:space="preserve">if (reverse)</text>
    </g>
    <g fill="url(#linearGradient4)" text-rendering="geometricPrecision" shape-rendering="geometricPrecision" transform="matrix(1,0,0,1,-148,-129)" stroke="url(#linearGradient4)">
      <rect x="554.3167" y="554.9277" clip-path="url(#clipPath2)" width="80" rx="20" ry="20" height="40" stroke="none"/>
    </g>
    <g text-rendering="geometricPrecision" stroke-miterlimit="1.45" stroke-width="2" shape-rendering="geometricPrecision" transform="matrix(1,0,0,1,-148,-129)" stroke-linecap="butt">
      <rect x="554.3167" y="554.9277" clip-path="url(#clipPath2)" fill="none" width="80" rx="20" ry="20" height="40"/>
      <text x="576.3401" y="579.6415" clip-path="url(#clipPath2)" font-family="sans-serif" stroke="none" font-weight="bold" stroke-width="1" xml:space="preserve">Конец</text>
    </g>
    <g fill="url(#linearGradient5)" text-rendering="geometricPrecision" shape-rendering="geometricPrecision" transform="matrix(1,0,0,1,-148,-129)" stroke="url(#linearGradient5)">
      <rect x="702.9279" width="382.7333" height="100" y="222.1094" clip-path="url(#clipPath2)" stroke="none"/>
    </g>
    <g text-rendering="geometricPrecision" stroke-miterlimit="1.45" shape-rendering="geometricPrecision" transform="matrix(1,0,0,1,-148,-129)" stroke-linecap="butt">
      <path fill="none" d="M750.7695 222.1094 L702.9279 222.1094 L702.9279 322.1094 L750.7695 322.1094" clip-path="url(#clipPath2)"/>
      <text x="708.0162" xml:space="preserve" y="254.7715" clip-path="url(#clipPath2)" font-family="sans-serif" stroke="none">Функция void selection_sort(int arr[], unsigned arr_size, bool reverse).</text>
      <text x="752.3688" xml:space="preserve" y="269.4727" clip-path="url(#clipPath2)" font-family="sans-serif" stroke="none">Принимает на вход указатель на начало массива, </text>
      <text x="794.7584" xml:space="preserve" y="284.1739" clip-path="url(#clipPath2)" font-family="sans-serif" stroke="none">длину массива и булевый аргумент</text>
      <text x="772.0094" xml:space="preserve" y="298.875" clip-path="url(#clipPath2)" font-family="sans-serif" stroke="none">reverse, отвечаюий за порядок сортировки. </text>
    </g>
    <g fill="url(#linearGradient6)" text-rendering="geometricPrecision" shape-rendering="geometricPrecision" transform="matrix(1,0,0,1,-148,-129)" stroke="url(#linearGradient6)">
      <path d="M294 406.5 L426 406.5 L436 426.5 L426 446.5 L294 446.5 L284 426.5 Z" stroke="none" clip-path="url(#clipPath2)"/>
    </g>
    <g text-rendering="geometricPrecision" stroke-miterlimit="1.45" stroke-width="2" shape-rendering="geometricPrecision" transform="matrix(1,0,0,1,-148,-129)" stroke-linecap="butt">
      <path fill="none" d="M294 406.5 L426 406.5 L436 426.5 L426 446.5 L294 446.5 L284 426.5 Z" clip-path="url(#clipPath2)"/>
      <text x="292.2949" y="431.2139" clip-path="url(#clipPath2)" font-family="sans-serif" stroke="none" font-weight="bold" stroke-width="1" xml:space="preserve">i = 0; i &lt; arr_size - 1; i++</text>
    </g>
    <g fill="url(#linearGradient7)" text-rendering="geometricPrecision" shape-rendering="geometricPrecision" transform="matrix(1,0,0,1,-148,-129)" stroke="url(#linearGradient7)">
      <path d="M294 532.68 L426 532.68 L436 552.68 L426 572.68 L294 572.68 L284 552.68 Z" stroke="none" clip-path="url(#clipPath2)"/>
    </g>
    <g text-rendering="geometricPrecision" stroke-miterlimit="1.45" stroke-width="2" shape-rendering="geometricPrecision" transform="matrix(1,0,0,1,-148,-129)" stroke-linecap="butt">
      <path fill="none" d="M294 532.68 L426 532.68 L436 552.68 L426 572.68 L294 572.68 L284 552.68 Z" clip-path="url(#clipPath2)"/>
      <text x="292.459" y="557.3939" clip-path="url(#clipPath2)" font-family="sans-serif" stroke="none" font-weight="bold" stroke-width="1" xml:space="preserve">j = i + 1; j &lt; arr_size; j++</text>
    </g>
    <g fill="url(#linearGradient8)" text-rendering="geometricPrecision" shape-rendering="geometricPrecision" transform="matrix(1,0,0,1,-148,-129)" stroke="url(#linearGradient8)">
      <path d="M360 587.113 L421.9505 614.0565 L360 641 L298.0495 614.0565 Z" stroke="none" clip-path="url(#clipPath2)"/>
    </g>
    <g text-rendering="geometricPrecision" stroke-miterlimit="1.45" stroke-width="2" shape-rendering="geometricPrecision" transform="matrix(1,0,0,1,-148,-129)" stroke-linecap="butt">
      <path fill="none" d="M360 587.113 L421.9505 614.0565 L360 641 L298.0495 614.0565 Z" clip-path="url(#clipPath2)"/>
    </g>
    <g font-size="10px" stroke-linecap="butt" transform="matrix(1,0,0,1,-148,-129)" text-rendering="geometricPrecision" font-family="sans-serif" shape-rendering="geometricPrecision" font-weight="bold" stroke-miterlimit="1.45">
      <text x="339.9902" xml:space="preserve" y="611.8593" clip-path="url(#clipPath2)" stroke="none">arr[j] &gt;= </text>
      <text x="324.1504" xml:space="preserve" y="624.1102" clip-path="url(#clipPath2)" stroke="none">arr[max_index]</text>
    </g>
    <g fill="url(#linearGradient9)" text-rendering="geometricPrecision" shape-rendering="geometricPrecision" transform="matrix(1,0,0,1,-148,-129)" stroke="url(#linearGradient9)">
      <path d="M270.1017 793.68 L346.1017 839.28 L270.1017 884.88 L194.1017 839.28 Z" stroke="none" clip-path="url(#clipPath2)"/>
    </g>
    <g text-rendering="geometricPrecision" stroke-miterlimit="1.45" stroke-width="2" shape-rendering="geometricPrecision" transform="matrix(1,0,0,1,-148,-129)" stroke-linecap="butt">
      <path fill="none" d="M270.1017 793.68 L346.1017 839.28 L270.1017 884.88 L194.1017 839.28 Z" clip-path="url(#clipPath2)"/>
    </g>
    <g font-size="10px" stroke-linecap="butt" transform="matrix(1,0,0,1,-148,-129)" text-rendering="geometricPrecision" font-family="sans-serif" shape-rendering="geometricPrecision" font-weight="bold" stroke-miterlimit="1.45">
      <text x="233.2926" xml:space="preserve" y="837.0828" clip-path="url(#clipPath2)" stroke="none">(i != index) and </text>
      <text x="212.1671" xml:space="preserve" y="849.3337" clip-path="url(#clipPath2)" stroke="none">(arr[i] != arr[max_index])</text>
    </g>
    <g fill="url(#linearGradient10)" text-rendering="geometricPrecision" shape-rendering="geometricPrecision" transform="matrix(1,0,0,1,-148,-129)" stroke="url(#linearGradient10)">
      <path d="M542.2167 292.34 L646.4167 292.34 L646.4167 332.34 L542.2167 332.34 Z" stroke="none" clip-path="url(#clipPath2)"/>
    </g>
    <g text-rendering="geometricPrecision" stroke-miterlimit="1.45" stroke-width="2" shape-rendering="geometricPrecision" transform="matrix(1,0,0,1,-148,-129)" stroke-linecap="butt">
      <path fill="none" d="M542.2167 292.34 L646.4167 292.34 L646.4167 332.34 L542.2167 332.34 Z" clip-path="url(#clipPath2)"/>
      <text x="561.4661" y="309.7033" clip-path="url(#clipPath2)" font-family="sans-serif" stroke="none" font-weight="bold" stroke-width="1" xml:space="preserve">*swaps = 0;</text>
      <text x="542.4641" y="324.4044" clip-path="url(#clipPath2)" font-family="sans-serif" stroke="none" font-weight="bold" stroke-width="1" xml:space="preserve">*comparisons = 0;</text>
    </g>
    <g fill="url(#linearGradient11)" text-rendering="geometricPrecision" shape-rendering="geometricPrecision" transform="matrix(1,0,0,1,-148,-129)" stroke="url(#linearGradient11)">
      <path d="M314 466.34 L406 466.34 L406 506.34 L314 506.34 Z" stroke="none" clip-path="url(#clipPath2)"/>
    </g>
    <g text-rendering="geometricPrecision" stroke-miterlimit="1.45" stroke-width="2" shape-rendering="geometricPrecision" transform="matrix(1,0,0,1,-148,-129)" stroke-linecap="butt">
      <path fill="none" d="M314 466.34 L406 466.34 L406 506.34 L314 506.34 Z" clip-path="url(#clipPath2)"/>
      <text x="320.4785" y="491.0539" clip-path="url(#clipPath2)" font-family="sans-serif" stroke="none" font-weight="bold" stroke-width="1" xml:space="preserve">max_index = i</text>
    </g>
    <g fill="url(#linearGradient12)" text-rendering="geometricPrecision" shape-rendering="geometricPrecision" transform="matrix(1,0,0,1,-148,-129)" stroke="url(#linearGradient12)">
      <rect x="179.7931" width="180.6171" height="40" y="914.88" clip-path="url(#clipPath2)" stroke="none"/>
    </g>
    <g text-rendering="geometricPrecision" stroke-miterlimit="1.45" stroke-width="2" shape-rendering="geometricPrecision" transform="matrix(1,0,0,1,-148,-129)" stroke-linecap="butt">
      <rect fill="none" x="179.7931" width="180.6171" height="40" y="914.88" clip-path="url(#clipPath2)"/>
      <path fill="none" d="M189.7931 914.88 L189.7931 954.88 M350.4102 914.88 L350.4102 954.88 M189.7931 914.88 Z" clip-path="url(#clipPath2)"/>
      <text x="191.0763" y="939.5939" clip-path="url(#clipPath2)" font-family="sans-serif" stroke="none" font-weight="bold" stroke-width="1" xml:space="preserve">swap(arr[i], arr[max_index])</text>
    </g>
    <g fill="url(#linearGradient13)" text-rendering="geometricPrecision" shape-rendering="geometricPrecision" transform="matrix(1,0,0,1,-148,-129)" stroke="url(#linearGradient13)">
      <path d="M230.1017 984.88 L310.1017 984.88 L310.1017 1024.88 L230.1017 1024.88 Z" stroke="none" clip-path="url(#clipPath2)"/>
    </g>
    <g text-rendering="geometricPrecision" stroke-miterlimit="1.45" stroke-width="2" shape-rendering="geometricPrecision" transform="matrix(1,0,0,1,-148,-129)" stroke-linecap="butt">
      <path fill="none" d="M230.1017 984.88 L310.1017 984.88 L310.1017 1024.88 L230.1017 1024.88 Z" clip-path="url(#clipPath2)"/>
      <text x="238.42" y="1009.5939" clip-path="url(#clipPath2)" font-family="sans-serif" stroke="none" font-weight="bold" stroke-width="1" xml:space="preserve">(*swaps)++</text>
    </g>
    <g fill="url(#linearGradient14)" text-rendering="geometricPrecision" shape-rendering="geometricPrecision" transform="matrix(1,0,0,1,-148,-129)" stroke="url(#linearGradient14)">
      <path d="M314 663.18 L406 663.18 L406 703.18 L314 703.18 Z" stroke="none" clip-path="url(#clipPath2)"/>
    </g>
    <g text-rendering="geometricPrecision" stroke-miterlimit="1.45" stroke-width="2" shape-rendering="geometricPrecision" transform="matrix(1,0,0,1,-148,-129)" stroke-linecap="butt">
      <path fill="none" d="M314 663.18 L406 663.18 L406 703.18 L314 703.18 Z" clip-path="url(#clipPath2)"/>
      <text x="320.4785" y="687.8939" clip-path="url(#clipPath2)" font-family="sans-serif" stroke="none" font-weight="bold" stroke-width="1" xml:space="preserve">max_index = j</text>
    </g>
    <g fill="url(#linearGradient15)" text-rendering="geometricPrecision" shape-rendering="geometricPrecision" transform="matrix(1,0,0,1,-148,-129)" stroke="url(#linearGradient15)">
      <path d="M309.0247 728.43 L410.9753 728.43 L410.9753 768.43 L309.0247 768.43 Z" stroke="none" clip-path="url(#clipPath2)"/>
    </g>
    <g text-rendering="geometricPrecision" stroke-miterlimit="1.45" stroke-width="2" shape-rendering="geometricPrecision" transform="matrix(1,0,0,1,-148,-129)" stroke-linecap="butt">
      <path fill="none" d="M309.0247 728.43 L410.9753 728.43 L410.9753 768.43 L309.0247 768.43 Z" clip-path="url(#clipPath2)"/>
      <text x="309.3164" y="753.1439" clip-path="url(#clipPath2)" font-family="sans-serif" stroke="none" font-weight="bold" stroke-width="1" xml:space="preserve">(*comparisons)++</text>
    </g>
    <g fill="url(#linearGradient16)" text-rendering="geometricPrecision" shape-rendering="geometricPrecision" transform="matrix(1,0,0,1,-148,-129)" stroke="url(#linearGradient16)">
      <path d="M712.9279 406.5 L844.9279 406.5 L854.9279 426.5 L844.9279 446.5 L712.9279 446.5 L702.9279 426.5 Z" stroke="none" clip-path="url(#clipPath2)"/>
    </g>
    <g text-rendering="geometricPrecision" stroke-miterlimit="1.45" stroke-width="2" shape-rendering="geometricPrecision" transform="matrix(1,0,0,1,-148,-129)" stroke-linecap="butt">
      <path fill="none" d="M712.9279 406.5 L844.9279 406.5 L854.9279 426.5 L844.9279 446.5 L712.9279 446.5 L702.9279 426.5 Z" clip-path="url(#clipPath2)"/>
      <text x="711.2228" y="431.2139" clip-path="url(#clipPath2)" font-family="sans-serif" stroke="none" font-weight="bold" stroke-width="1" xml:space="preserve">i = 0; i &lt; arr_size - 1; i++</text>
    </g>
    <g fill="url(#linearGradient17)" text-rendering="geometricPrecision" shape-rendering="geometricPrecision" transform="matrix(1,0,0,1,-148,-129)" stroke="url(#linearGradient17)">
      <path d="M712.9279 539.18 L844.9279 539.18 L854.9279 559.18 L844.9279 579.18 L712.9279 579.18 L702.9279 559.18 Z" stroke="none" clip-path="url(#clipPath2)"/>
    </g>
    <g text-rendering="geometricPrecision" stroke-miterlimit="1.45" stroke-width="2" shape-rendering="geometricPrecision" transform="matrix(1,0,0,1,-148,-129)" stroke-linecap="butt">
      <path fill="none" d="M712.9279 539.18 L844.9279 539.18 L854.9279 559.18 L844.9279 579.18 L712.9279 579.18 L702.9279 559.18 Z" clip-path="url(#clipPath2)"/>
      <text x="711.3868" y="563.8939" clip-path="url(#clipPath2)" font-family="sans-serif" stroke="none" font-weight="bold" stroke-width="1" xml:space="preserve">j = i + 1; j &lt; arr_size; j++</text>
    </g>
    <g fill="url(#linearGradient18)" text-rendering="geometricPrecision" shape-rendering="geometricPrecision" transform="matrix(1,0,0,1,-148,-129)" stroke="url(#linearGradient18)">
      <path d="M778.9279 593.613 L840.8784 620.5565 L778.9279 647.5 L716.9774 620.5565 Z" stroke="none" clip-path="url(#clipPath2)"/>
    </g>
    <g text-rendering="geometricPrecision" stroke-miterlimit="1.45" stroke-width="2" shape-rendering="geometricPrecision" transform="matrix(1,0,0,1,-148,-129)" stroke-linecap="butt">
      <path fill="none" d="M778.9279 593.613 L840.8784 620.5565 L778.9279 647.5 L716.9774 620.5565 Z" clip-path="url(#clipPath2)"/>
    </g>
    <g font-size="10px" stroke-linecap="butt" transform="matrix(1,0,0,1,-148,-129)" text-rendering="geometricPrecision" font-family="sans-serif" shape-rendering="geometricPrecision" font-weight="bold" stroke-miterlimit="1.45">
      <text x="758.9181" xml:space="preserve" y="618.3593" clip-path="url(#clipPath2)" stroke="none">arr[j] &lt;= </text>
      <text x="743.0782" xml:space="preserve" y="630.6102" clip-path="url(#clipPath2)" stroke="none">arr[max_index]</text>
    </g>
    <g fill="url(#linearGradient19)" text-rendering="geometricPrecision" shape-rendering="geometricPrecision" transform="matrix(1,0,0,1,-148,-129)" stroke="url(#linearGradient19)">
      <path d="M689.0295 804.93 L765.0295 850.53 L689.0295 896.13 L613.0295 850.53 Z" stroke="none" clip-path="url(#clipPath2)"/>
    </g>
    <g text-rendering="geometricPrecision" stroke-miterlimit="1.45" stroke-width="2" shape-rendering="geometricPrecision" transform="matrix(1,0,0,1,-148,-129)" stroke-linecap="butt">
      <path fill="none" d="M689.0295 804.93 L765.0295 850.53 L689.0295 896.13 L613.0295 850.53 Z" clip-path="url(#clipPath2)"/>
    </g>
    <g font-size="10px" stroke-linecap="butt" transform="matrix(1,0,0,1,-148,-129)" text-rendering="geometricPrecision" font-family="sans-serif" shape-rendering="geometricPrecision" font-weight="bold" stroke-miterlimit="1.45">
      <text x="652.2205" xml:space="preserve" y="848.3328" clip-path="url(#clipPath2)" stroke="none">(i != index) and </text>
      <text x="631.095" xml:space="preserve" y="860.5837" clip-path="url(#clipPath2)" stroke="none">(arr[i] != arr[max_index])</text>
    </g>
    <g fill="url(#linearGradient20)" text-rendering="geometricPrecision" shape-rendering="geometricPrecision" transform="matrix(1,0,0,1,-148,-129)" stroke="url(#linearGradient20)">
      <path d="M732.9279 472.84 L824.9279 472.84 L824.9279 512.84 L732.9279 512.84 Z" stroke="none" clip-path="url(#clipPath2)"/>
    </g>
    <g text-rendering="geometricPrecision" stroke-miterlimit="1.45" stroke-width="2" shape-rendering="geometricPrecision" transform="matrix(1,0,0,1,-148,-129)" stroke-linecap="butt">
      <path fill="none" d="M732.9279 472.84 L824.9279 472.84 L824.9279 512.84 L732.9279 512.84 Z" clip-path="url(#clipPath2)"/>
      <text x="740.7482" y="497.5539" clip-path="url(#clipPath2)" font-family="sans-serif" stroke="none" font-weight="bold" stroke-width="1" xml:space="preserve">min_index = i</text>
    </g>
    <g fill="url(#linearGradient21)" text-rendering="geometricPrecision" shape-rendering="geometricPrecision" transform="matrix(1,0,0,1,-148,-129)" stroke="url(#linearGradient21)">
      <rect x="598.721" width="180.6171" height="40" y="926.13" clip-path="url(#clipPath2)" stroke="none"/>
    </g>
    <g text-rendering="geometricPrecision" stroke-miterlimit="1.45" stroke-width="2" shape-rendering="geometricPrecision" transform="matrix(1,0,0,1,-148,-129)" stroke-linecap="butt">
      <rect fill="none" x="598.721" width="180.6171" height="40" y="926.13" clip-path="url(#clipPath2)"/>
      <path fill="none" d="M608.721 926.13 L608.721 966.13 M769.3381 926.13 L769.3381 966.13 M608.721 926.13 Z" clip-path="url(#clipPath2)"/>
      <text x="611.3459" y="950.8439" clip-path="url(#clipPath2)" font-family="sans-serif" stroke="none" font-weight="bold" stroke-width="1" xml:space="preserve">swap(arr[i], arr[min_index])</text>
    </g>
    <g fill="url(#linearGradient22)" text-rendering="geometricPrecision" shape-rendering="geometricPrecision" transform="matrix(1,0,0,1,-148,-129)" stroke="url(#linearGradient22)">
      <path d="M649.0295 996.13 L729.0295 996.13 L729.0295 1036.13 L649.0295 1036.13 Z" stroke="none" clip-path="url(#clipPath2)"/>
    </g>
    <g text-rendering="geometricPrecision" stroke-miterlimit="1.45" stroke-width="2" shape-rendering="geometricPrecision" transform="matrix(1,0,0,1,-148,-129)" stroke-linecap="butt">
      <path fill="none" d="M649.0295 996.13 L729.0295 996.13 L729.0295 1036.13 L649.0295 1036.13 Z" clip-path="url(#clipPath2)"/>
      <text x="657.3479" y="1020.8439" clip-path="url(#clipPath2)" font-family="sans-serif" stroke="none" font-weight="bold" stroke-width="1" xml:space="preserve">(*swaps)++</text>
    </g>
    <g fill="url(#linearGradient23)" text-rendering="geometricPrecision" shape-rendering="geometricPrecision" transform="matrix(1,0,0,1,-148,-129)" stroke="url(#linearGradient23)">
      <path d="M732.9279 669.68 L824.9279 669.68 L824.9279 709.68 L732.9279 709.68 Z" stroke="none" clip-path="url(#clipPath2)"/>
    </g>
    <g text-rendering="geometricPrecision" stroke-miterlimit="1.45" stroke-width="2" shape-rendering="geometricPrecision" transform="matrix(1,0,0,1,-148,-129)" stroke-linecap="butt">
      <path fill="none" d="M732.9279 669.68 L824.9279 669.68 L824.9279 709.68 L732.9279 709.68 Z" clip-path="url(#clipPath2)"/>
      <text x="740.7482" y="694.3939" clip-path="url(#clipPath2)" font-family="sans-serif" stroke="none" font-weight="bold" stroke-width="1" xml:space="preserve">min_index = j</text>
    </g>
    <g fill="url(#linearGradient24)" text-rendering="geometricPrecision" shape-rendering="geometricPrecision" transform="matrix(1,0,0,1,-148,-129)" stroke="url(#linearGradient24)">
      <path d="M727.9526 734.93 L829.9031 734.93 L829.9031 774.93 L727.9526 774.93 Z" stroke="none" clip-path="url(#clipPath2)"/>
    </g>
    <g text-rendering="geometricPrecision" stroke-miterlimit="1.45" stroke-width="2" shape-rendering="geometricPrecision" transform="matrix(1,0,0,1,-148,-129)" stroke-linecap="butt">
      <path fill="none" d="M727.9526 734.93 L829.9031 734.93 L829.9031 774.93 L727.9526 774.93 Z" clip-path="url(#clipPath2)"/>
      <text x="728.2443" y="759.6439" clip-path="url(#clipPath2)" font-family="sans-serif" stroke="none" font-weight="bold" stroke-width="1" xml:space="preserve">(*comparisons)++</text>
    </g>
    <g text-rendering="geometricPrecision" stroke-miterlimit="1.45" shape-rendering="geometricPrecision" transform="matrix(1,0,0,1,-148,-129)" stroke-linecap="butt">
      <path fill="none" d="M594.3167 183.9702 L594.3167 205.7051" clip-path="url(#clipPath2)"/>
    </g>
    <g text-rendering="geometricPrecision" stroke-miterlimit="1.45" stroke-dasharray="6,2" shape-rendering="geometricPrecision" transform="matrix(1,0,0,1,-148,-129)" stroke-linecap="butt">
      <path fill="none" d="M634.3362 164 L678.8987 164 L678.8987 272.1094 L702.9047 272.1094" clip-path="url(#clipPath2)"/>
      <path fill="none" stroke-dasharray="none" d="M548.2943 386.5 L360 386.5 L360 398.4827" clip-path="url(#clipPath2)"/>
      <path stroke-dasharray="none" d="M360 406.4827 L365 394.4827 L360 397.4827 L355 394.4827 Z" clip-path="url(#clipPath2)" stroke="none"/>
      <text x="478.5705" y="378.1156" clip-path="url(#clipPath2)" font-family="sans-serif" stroke-dasharray="none" stroke="none" font-weight="bold" xml:space="preserve">Да</text>
      <path fill="none" stroke-dasharray="none" d="M435.9985 426.5 L594.3167 426.5 L594.3167 546.961" clip-path="url(#clipPath2)"/>
      <path stroke-dasharray="none" d="M594.3167 554.961 L599.3167 542.961 L594.3167 545.961 L589.3167 542.961 Z" clip-path="url(#clipPath2)" stroke="none"/>
      <path fill="none" stroke-dasharray="none" d="M360 572.6693 L360 587.0983" clip-path="url(#clipPath2)"/>
      <path fill="none" stroke-dasharray="none" d="M284.0166 552.68 L270.1017 552.68 L270.1017 785.6941" clip-path="url(#clipPath2)"/>
      <path stroke-dasharray="none" d="M270.1017 793.6941 L275.1017 781.6941 L270.1017 784.6941 L265.1017 781.6941 Z" clip-path="url(#clipPath2)" stroke="none"/>
      <path fill="none" stroke-dasharray="none" d="M346.0839 839.28 L404.7719 839.28 L404.7719 1054.4404 L163.1665 1054.4404 L163.1665 426.5 L276.0313 426.5" clip-path="url(#clipPath2)"/>
      <path stroke-dasharray="none" d="M284.0313 426.5 L272.0313 421.5 L275.0313 426.5 L272.0313 431.5 Z" clip-path="url(#clipPath2)" stroke="none"/>
      <text x="360.6861" y="835.1885" clip-path="url(#clipPath2)" font-family="sans-serif" stroke-dasharray="none" stroke="none" font-weight="bold" xml:space="preserve">Нет</text>
      <path fill="none" stroke-dasharray="none" d="M594.3167 253.9838 L594.3167 292.3655" clip-path="url(#clipPath2)"/>
      <path fill="none" stroke-dasharray="none" d="M594.3167 332.3232 L594.3167 362.3188" clip-path="url(#clipPath2)"/>
      <path fill="none" stroke-dasharray="none" d="M360 446.5148 L360 466.3108" clip-path="url(#clipPath2)"/>
      <path fill="none" stroke-dasharray="none" d="M360 506.3262 L360 532.7171" clip-path="url(#clipPath2)"/>
      <path fill="none" stroke-dasharray="none" d="M270.1017 884.886 L270.1017 887.08 L270.1017 887.08 L270.1017 906.8544" clip-path="url(#clipPath2)"/>
      <path stroke-dasharray="none" d="M270.1017 914.8544 L275.1017 902.8544 L270.1017 905.8544 L265.1017 902.8544 Z" clip-path="url(#clipPath2)" stroke="none"/>
      <text x="280.5757" y="902.1915" clip-path="url(#clipPath2)" font-family="sans-serif" stroke-dasharray="none" stroke="none" font-weight="bold" xml:space="preserve">Да</text>
      <path fill="none" stroke-dasharray="none" d="M270.1017 954.8751 L270.1017 984.9073" clip-path="url(#clipPath2)"/>
      <path fill="none" stroke-dasharray="none" d="M270.1017 1024.8687 L270.1017 1054.4404 L163.1665 1054.4404 L163.1665 426.5 L275.9692 426.5" clip-path="url(#clipPath2)"/>
      <path stroke-dasharray="none" d="M283.9692 426.5 L271.9692 421.5 L274.9692 426.5 L271.9692 431.5 Z" clip-path="url(#clipPath2)" stroke="none"/>
      <path fill="none" stroke-dasharray="none" d="M360 641.0241 L360 655.2136" clip-path="url(#clipPath2)"/>
      <path stroke-dasharray="none" d="M360 663.2136 L365 651.2136 L360 654.2136 L355 651.2136 Z" clip-path="url(#clipPath2)" stroke="none"/>
      <text x="370.5376" y="652.8091" clip-path="url(#clipPath2)" font-family="sans-serif" stroke-dasharray="none" stroke="none" font-weight="bold" xml:space="preserve">Да</text>
      <path fill="none" stroke-dasharray="none" d="M360 703.1564 L360 728.4017" clip-path="url(#clipPath2)"/>
      <path fill="none" stroke-dasharray="none" d="M421.9831 614.0565 L441.9505 614.0565 L441.9505 717.34 L360 717.34 L360 720.4557" clip-path="url(#clipPath2)"/>
      <path stroke-dasharray="none" d="M360 728.4557 L365 716.4557 L360 719.4557 L355 716.4557 Z" clip-path="url(#clipPath2)" stroke="none"/>
      <text x="447.0693" y="666.7267" clip-path="url(#clipPath2)" font-family="sans-serif" stroke-dasharray="none" stroke="none" font-weight="bold" xml:space="preserve">Нет</text>
      <path fill="none" stroke-dasharray="none" d="M360 768.3909 L360 788.43 L478.554 788.43 L478.554 552.68 L443.9776 552.68" clip-path="url(#clipPath2)"/>
      <path stroke-dasharray="none" d="M435.9776 552.68 L447.9776 557.68 L444.9776 552.68 L447.9776 547.68 Z" clip-path="url(#clipPath2)" stroke="none"/>
      <path fill="none" stroke-dasharray="none" d="M640.3342 386.5 L778.9279 386.5 L778.9279 398.4609" clip-path="url(#clipPath2)"/>
      <path stroke-dasharray="none" d="M778.9279 406.4609 L783.9279 394.4609 L778.9279 397.4609 L773.9279 394.4609 Z" clip-path="url(#clipPath2)" stroke="none"/>
      <text x="742.2214" y="379.2761" clip-path="url(#clipPath2)" font-family="sans-serif" stroke-dasharray="none" stroke="none" font-weight="bold" xml:space="preserve">Нет</text>
      <path fill="none" stroke-dasharray="none" d="M702.8929 426.5 L594.3167 426.5 L594.3167 546.961" clip-path="url(#clipPath2)"/>
      <path stroke-dasharray="none" d="M594.3167 554.961 L599.3167 542.961 L594.3167 545.961 L589.3167 542.961 Z" clip-path="url(#clipPath2)" stroke="none"/>
      <path fill="none" stroke-dasharray="none" d="M778.9279 579.1693 L778.9279 593.5983" clip-path="url(#clipPath2)"/>
      <path fill="none" stroke-dasharray="none" d="M702.9445 559.18 L689.0295 559.18 L689.0295 796.8998" clip-path="url(#clipPath2)"/>
      <path stroke-dasharray="none" d="M689.0295 804.8998 L694.0295 792.8998 L689.0295 795.8998 L684.0295 792.8998 Z" clip-path="url(#clipPath2)" stroke="none"/>
      <path fill="none" stroke-dasharray="none" d="M613.056 850.53 L568.0859 850.53 L568.0859 1060.9404 L940.877 1060.9404 L940.877 426.5 L862.9584 426.5" clip-path="url(#clipPath2)"/>
      <path stroke-dasharray="none" d="M854.9584 426.5 L866.9584 431.5 L863.9584 426.5 L866.9584 421.5 Z" clip-path="url(#clipPath2)" stroke="none"/>
      <text x="581.0876" y="836.5052" clip-path="url(#clipPath2)" font-family="sans-serif" stroke-dasharray="none" stroke="none" font-weight="bold" xml:space="preserve">Нет</text>
      <path fill="none" stroke-dasharray="none" d="M778.9279 446.4862 L778.9279 472.8771" clip-path="url(#clipPath2)"/>
      <path fill="none" stroke-dasharray="none" d="M778.9279 512.8262 L778.9279 539.2171" clip-path="url(#clipPath2)"/>
      <path fill="none" stroke-dasharray="none" d="M689.0295 896.136 L689.0295 918.1617" clip-path="url(#clipPath2)"/>
      <path stroke-dasharray="none" d="M689.0295 926.1617 L694.0295 914.1617 L689.0295 917.1617 L684.0295 914.1617 Z" clip-path="url(#clipPath2)" stroke="none"/>
      <text x="699.5035" y="913.4415" clip-path="url(#clipPath2)" font-family="sans-serif" stroke-dasharray="none" stroke="none" font-weight="bold" xml:space="preserve">Да</text>
      <path fill="none" stroke-dasharray="none" d="M689.0295 966.1251 L689.0295 996.1573" clip-path="url(#clipPath2)"/>
      <path fill="none" stroke-dasharray="none" d="M689.0295 1036.1284 L689.0295 1060.9404 L940.877 1060.9404 L940.877 426.5 L862.9601 426.5" clip-path="url(#clipPath2)"/>
      <path stroke-dasharray="none" d="M854.9601 426.5 L866.9601 431.5 L863.9601 426.5 L866.9601 421.5 Z" clip-path="url(#clipPath2)" stroke="none"/>
      <path fill="none" stroke-dasharray="none" d="M778.9279 647.5241 L778.9279 661.7136" clip-path="url(#clipPath2)"/>
      <path stroke-dasharray="none" d="M778.9279 669.7136 L783.9279 657.7136 L778.9279 660.7136 L773.9279 657.7136 Z" clip-path="url(#clipPath2)" stroke="none"/>
      <text x="789.4655" y="659.3091" clip-path="url(#clipPath2)" font-family="sans-serif" stroke-dasharray="none" stroke="none" font-weight="bold" xml:space="preserve">Да</text>
      <path fill="none" stroke-dasharray="none" d="M778.9279 709.6564 L778.9279 734.9017" clip-path="url(#clipPath2)"/>
      <path fill="none" stroke-dasharray="none" d="M840.9109 620.5565 L860.8784 620.5565 L860.8784 723.84 L778.9279 723.84 L778.9279 726.9557" clip-path="url(#clipPath2)"/>
      <path stroke-dasharray="none" d="M778.9279 734.9557 L783.9279 722.9557 L778.9279 725.9557 L773.9279 722.9557 Z" clip-path="url(#clipPath2)" stroke="none"/>
      <text x="865.9971" y="673.2267" clip-path="url(#clipPath2)" font-family="sans-serif" stroke-dasharray="none" stroke="none" font-weight="bold" xml:space="preserve">Нет</text>
      <path fill="none" stroke-dasharray="none" d="M778.9279 774.8909 L778.9279 794.93 L897.4818 794.93 L897.4818 559.18 L862.9055 559.18" clip-path="url(#clipPath2)"/>
      <path stroke-dasharray="none" d="M854.9055 559.18 L866.9055 564.18 L863.9055 559.18 L866.9055 554.18 Z" clip-path="url(#clipPath2)" stroke="none"/>
    </g>
  </g>
</svg>
