<?xml version="1.0" encoding="UTF-8"?><svg xmlns="http://www.w3.org/2000/svg" xmlns:xlink="http://www.w3.org/1999/xlink" fill-opacity="1" color-rendering="auto" color-interpolation="auto" text-rendering="auto" stroke="black" stroke-linecap="square" width="843" stroke-miterlimit="10" shape-rendering="auto" stroke-opacity="1" fill="black" stroke-dasharray="none" font-weight="normal" stroke-width="1" height="938" font-family="'Dialog'" font-style="normal" stroke-linejoin="miter" font-size="12px" stroke-dashoffset="0" image-rendering="auto">
  <!--Generated by ySVG 2.6-->
  <defs id="genericDefs"/>
  <g>
    <defs id="defs1">
      <linearGradient x1="500" gradientUnits="userSpaceOnUse" x2="580" y1="118.25" y2="158.25" id="linearGradient1" spreadMethod="reflect">
        <stop stop-opacity="1" stop-color="rgb(232,238,247)" offset="0%"/>
        <stop stop-opacity="1" stop-color="rgb(183,201,227)" offset="100%"/>
      </linearGradient>
      <linearGradient x1="488" gradientUnits="userSpaceOnUse" x2="592" y1="188.25" y2="236.57" id="linearGradient2" spreadMethod="reflect">
        <stop stop-opacity="1" stop-color="rgb(232,238,247)" offset="0%"/>
        <stop stop-opacity="1" stop-color="rgb(183,201,227)" offset="100%"/>
      </linearGradient>
      <linearGradient x1="500" gradientUnits="userSpaceOnUse" x2="580" y1="344.89" y2="384.89" id="linearGradient3" spreadMethod="reflect">
        <stop stop-opacity="1" stop-color="rgb(232,238,247)" offset="0%"/>
        <stop stop-opacity="1" stop-color="rgb(183,201,227)" offset="100%"/>
      </linearGradient>
      <linearGradient x1="500" gradientUnits="userSpaceOnUse" x2="580" y1="985.5596" y2="1025.5596" id="linearGradient4" spreadMethod="reflect">
        <stop stop-opacity="1" stop-color="rgb(232,238,247)" offset="0%"/>
        <stop stop-opacity="1" stop-color="rgb(183,201,227)" offset="100%"/>
      </linearGradient>
      <linearGradient x1="630.8" gradientUnits="userSpaceOnUse" x2="999.8666" y1="190" y2="290" id="linearGradient5" spreadMethod="reflect">
        <stop stop-opacity="1" stop-color="rgb(232,238,247)" offset="0%"/>
        <stop stop-opacity="1" stop-color="rgb(183,201,227)" offset="100%"/>
      </linearGradient>
      <linearGradient x1="745.3193" gradientUnits="userSpaceOnUse" x2="879.7192" y1="933.5482" y2="980.6573" id="linearGradient6" spreadMethod="reflect">
        <stop stop-opacity="1" stop-color="rgb(232,238,247)" offset="0%"/>
        <stop stop-opacity="1" stop-color="rgb(183,201,227)" offset="100%"/>
      </linearGradient>
      <linearGradient x1="288.1071" gradientUnits="userSpaceOnUse" x2="448.1071" y1="400" y2="440" id="linearGradient7" spreadMethod="reflect">
        <stop stop-opacity="1" stop-color="rgb(232,238,247)" offset="0%"/>
        <stop stop-opacity="1" stop-color="rgb(183,201,227)" offset="100%"/>
      </linearGradient>
      <linearGradient x1="288.1071" gradientUnits="userSpaceOnUse" x2="448.1071" y1="540" y2="580" id="linearGradient8" spreadMethod="reflect">
        <stop stop-opacity="1" stop-color="rgb(232,238,247)" offset="0%"/>
        <stop stop-opacity="1" stop-color="rgb(183,201,227)" offset="100%"/>
      </linearGradient>
      <linearGradient x1="310.9071" gradientUnits="userSpaceOnUse" x2="425.3071" y1="602.8" y2="658.32" id="linearGradient9" spreadMethod="reflect">
        <stop stop-opacity="1" stop-color="rgb(232,238,247)" offset="0%"/>
        <stop stop-opacity="1" stop-color="rgb(183,201,227)" offset="100%"/>
      </linearGradient>
      <linearGradient x1="215.2841" gradientUnits="userSpaceOnUse" x2="349.6841" y1="933.5482" y2="980.6573" id="linearGradient10" spreadMethod="reflect">
        <stop stop-opacity="1" stop-color="rgb(232,238,247)" offset="0%"/>
        <stop stop-opacity="1" stop-color="rgb(183,201,227)" offset="100%"/>
      </linearGradient>
      <linearGradient x1="488" gradientUnits="userSpaceOnUse" x2="592" y1="274.89" y2="314.89" id="linearGradient11" spreadMethod="reflect">
        <stop stop-opacity="1" stop-color="rgb(232,238,247)" offset="0%"/>
        <stop stop-opacity="1" stop-color="rgb(183,201,227)" offset="100%"/>
      </linearGradient>
      <linearGradient x1="312.5071" gradientUnits="userSpaceOnUse" x2="423.7072" y1="470" y2="510" id="linearGradient12" spreadMethod="reflect">
        <stop stop-opacity="1" stop-color="rgb(232,238,247)" offset="0%"/>
        <stop stop-opacity="1" stop-color="rgb(183,201,227)" offset="100%"/>
      </linearGradient>
      <linearGradient x1="305.4064" gradientUnits="userSpaceOnUse" x2="430.8079" y1="758.32" y2="798.32" id="linearGradient13" spreadMethod="reflect">
        <stop stop-opacity="1" stop-color="rgb(232,238,247)" offset="0%"/>
        <stop stop-opacity="1" stop-color="rgb(183,201,227)" offset="100%"/>
      </linearGradient>
      <linearGradient x1="306.304" gradientUnits="userSpaceOnUse" x2="429.9102" y1="828.32" y2="868.32" id="linearGradient14" spreadMethod="reflect">
        <stop stop-opacity="1" stop-color="rgb(232,238,247)" offset="0%"/>
        <stop stop-opacity="1" stop-color="rgb(183,201,227)" offset="100%"/>
      </linearGradient>
      <linearGradient x1="300.3071" gradientUnits="userSpaceOnUse" x2="435.9071" y1="688.32" y2="728.32" id="linearGradient15" spreadMethod="reflect">
        <stop stop-opacity="1" stop-color="rgb(232,238,247)" offset="0%"/>
        <stop stop-opacity="1" stop-color="rgb(183,201,227)" offset="100%"/>
      </linearGradient>
      <linearGradient x1="610" gradientUnits="userSpaceOnUse" x2="770" y1="400" y2="440" id="linearGradient16" spreadMethod="reflect">
        <stop stop-opacity="1" stop-color="rgb(232,238,247)" offset="0%"/>
        <stop stop-opacity="1" stop-color="rgb(183,201,227)" offset="100%"/>
      </linearGradient>
      <linearGradient x1="610" gradientUnits="userSpaceOnUse" x2="770" y1="540" y2="580" id="linearGradient17" spreadMethod="reflect">
        <stop stop-opacity="1" stop-color="rgb(232,238,247)" offset="0%"/>
        <stop stop-opacity="1" stop-color="rgb(183,201,227)" offset="100%"/>
      </linearGradient>
      <linearGradient x1="632.8" gradientUnits="userSpaceOnUse" x2="747.2" y1="602.8" y2="658.32" id="linearGradient18" spreadMethod="reflect">
        <stop stop-opacity="1" stop-color="rgb(232,238,247)" offset="0%"/>
        <stop stop-opacity="1" stop-color="rgb(183,201,227)" offset="100%"/>
      </linearGradient>
      <linearGradient x1="634.4" gradientUnits="userSpaceOnUse" x2="745.6" y1="470" y2="510" id="linearGradient19" spreadMethod="reflect">
        <stop stop-opacity="1" stop-color="rgb(232,238,247)" offset="0%"/>
        <stop stop-opacity="1" stop-color="rgb(183,201,227)" offset="100%"/>
      </linearGradient>
      <linearGradient x1="627.2993" gradientUnits="userSpaceOnUse" x2="752.7007" y1="758.32" y2="798.32" id="linearGradient20" spreadMethod="reflect">
        <stop stop-opacity="1" stop-color="rgb(232,238,247)" offset="0%"/>
        <stop stop-opacity="1" stop-color="rgb(183,201,227)" offset="100%"/>
      </linearGradient>
      <linearGradient x1="628.1969" gradientUnits="userSpaceOnUse" x2="751.8031" y1="828.32" y2="868.32" id="linearGradient21" spreadMethod="reflect">
        <stop stop-opacity="1" stop-color="rgb(232,238,247)" offset="0%"/>
        <stop stop-opacity="1" stop-color="rgb(183,201,227)" offset="100%"/>
      </linearGradient>
      <linearGradient x1="622.2" gradientUnits="userSpaceOnUse" x2="757.8" y1="688.32" y2="728.32" id="linearGradient22" spreadMethod="reflect">
        <stop stop-opacity="1" stop-color="rgb(232,238,247)" offset="0%"/>
        <stop stop-opacity="1" stop-color="rgb(183,201,227)" offset="100%"/>
      </linearGradient>
      <clipPath clipPathUnits="userSpaceOnUse" id="clipPath1">
        <path d="M0 0 L843 0 L843 938 L0 938 L0 0 Z"/>
      </clipPath>
      <clipPath clipPathUnits="userSpaceOnUse" id="clipPath2">
        <path d="M172 103 L1015 103 L1015 1041 L172 1041 L172 103 Z"/>
      </clipPath>
    </defs>
    <g fill="url(#linearGradient1)" text-rendering="geometricPrecision" shape-rendering="geometricPrecision" transform="matrix(1,0,0,1,-172,-103)" stroke="url(#linearGradient1)">
      <rect x="500" y="118.25" clip-path="url(#clipPath2)" width="80" rx="20" ry="20" height="40" stroke="none"/>
    </g>
    <g text-rendering="geometricPrecision" stroke-miterlimit="1.45" stroke-width="2" shape-rendering="geometricPrecision" transform="matrix(1,0,0,1,-172,-103)" stroke-linecap="butt">
      <rect x="500" y="118.25" clip-path="url(#clipPath2)" fill="none" width="80" rx="20" ry="20" height="40"/>
      <text x="518.0332" y="142.9639" clip-path="url(#clipPath2)" font-family="sans-serif" stroke="none" font-weight="bold" stroke-width="1" xml:space="preserve">Начало</text>
    </g>
    <g fill="url(#linearGradient2)" text-rendering="geometricPrecision" shape-rendering="geometricPrecision" transform="matrix(1,0,0,1,-172,-103)" stroke="url(#linearGradient2)">
      <path d="M500.3216 188.25 L592 188.25 L579.6784 236.57 L488 236.57 Z" stroke="none" clip-path="url(#clipPath2)"/>
    </g>
    <g text-rendering="geometricPrecision" stroke-miterlimit="1.45" stroke-width="2" shape-rendering="geometricPrecision" transform="matrix(1,0,0,1,-172,-103)" stroke-linecap="butt">
      <path fill="none" d="M500.3216 188.25 L592 188.25 L579.6784 236.57 L488 236.57 Z" clip-path="url(#clipPath2)"/>
      <text x="527.9971" y="202.4227" clip-path="url(#clipPath2)" font-family="sans-serif" stroke="none" font-weight="bold" stroke-width="1" xml:space="preserve">arr[]</text>
      <text x="517.3154" y="217.1239" clip-path="url(#clipPath2)" font-family="sans-serif" stroke="none" font-weight="bold" stroke-width="1" xml:space="preserve">arr_size</text>
      <text x="504.3164" y="231.825" clip-path="url(#clipPath2)" font-family="sans-serif" stroke="none" font-weight="bold" stroke-width="1" xml:space="preserve">bool reverse</text>
    </g>
    <g fill="url(#linearGradient3)" text-rendering="geometricPrecision" shape-rendering="geometricPrecision" transform="matrix(1,0,0,1,-172,-103)" stroke="url(#linearGradient3)">
      <path d="M540 344.89 L580 364.89 L540 384.89 L500 364.89 Z" stroke="none" clip-path="url(#clipPath2)"/>
    </g>
    <g text-rendering="geometricPrecision" stroke-miterlimit="1.45" stroke-width="2" shape-rendering="geometricPrecision" transform="matrix(1,0,0,1,-172,-103)" stroke-linecap="butt">
      <path fill="none" d="M540 344.89 L580 364.89 L540 384.89 L500 364.89 Z" clip-path="url(#clipPath2)"/>
      <text x="518.6455" y="369.6039" clip-path="url(#clipPath2)" font-family="sans-serif" stroke="none" font-weight="bold" stroke-width="1" xml:space="preserve">reverse</text>
    </g>
    <g fill="url(#linearGradient4)" text-rendering="geometricPrecision" shape-rendering="geometricPrecision" transform="matrix(1,0,0,1,-172,-103)" stroke="url(#linearGradient4)">
      <rect x="500" y="985.5596" clip-path="url(#clipPath2)" width="80" rx="20" ry="20" height="40" stroke="none"/>
    </g>
    <g text-rendering="geometricPrecision" stroke-miterlimit="1.45" stroke-width="2" shape-rendering="geometricPrecision" transform="matrix(1,0,0,1,-172,-103)" stroke-linecap="butt">
      <rect x="500" y="985.5596" clip-path="url(#clipPath2)" fill="none" width="80" rx="20" ry="20" height="40"/>
      <text x="522.0234" y="1010.2735" clip-path="url(#clipPath2)" font-family="sans-serif" stroke="none" font-weight="bold" stroke-width="1" xml:space="preserve">Конец</text>
    </g>
    <g fill="url(#linearGradient5)" text-rendering="geometricPrecision" shape-rendering="geometricPrecision" transform="matrix(1,0,0,1,-172,-103)" stroke="url(#linearGradient5)">
      <rect x="630.8" width="369.0667" height="100" y="190" clip-path="url(#clipPath2)" stroke="none"/>
    </g>
    <g text-rendering="geometricPrecision" stroke-miterlimit="1.45" shape-rendering="geometricPrecision" transform="matrix(1,0,0,1,-172,-103)" stroke-linecap="butt">
      <path fill="none" d="M676.9333 190 L630.8 190 L630.8 290 L676.9333 290" clip-path="url(#clipPath2)"/>
      <text x="634.7181" xml:space="preserve" y="222.6621" clip-path="url(#clipPath2)" font-family="sans-serif" stroke="none">Функция void bubble_sort(int arr[], unsigned arr_size, bool reverse).</text>
      <text x="673.4075" xml:space="preserve" y="237.3633" clip-path="url(#clipPath2)" font-family="sans-serif" stroke="none">Принимает на вход указатель на начало массива, </text>
      <text x="715.7972" xml:space="preserve" y="252.0645" clip-path="url(#clipPath2)" font-family="sans-serif" stroke="none">длину массива и булевый аргумент</text>
      <text x="693.0482" xml:space="preserve" y="266.7656" clip-path="url(#clipPath2)" font-family="sans-serif" stroke="none">reverse, отвечаюий за порядок сортировки. </text>
    </g>
    <g fill="url(#linearGradient6)" text-rendering="geometricPrecision" shape-rendering="geometricPrecision" transform="matrix(1,0,0,1,-172,-103)" stroke="url(#linearGradient6)">
      <path d="M812.5193 933.5482 L879.7192 957.1028 L812.5193 980.6573 L745.3193 957.1028 Z" stroke="none" clip-path="url(#clipPath2)"/>
    </g>
    <g text-rendering="geometricPrecision" stroke-miterlimit="1.45" stroke-width="2" shape-rendering="geometricPrecision" transform="matrix(1,0,0,1,-172,-103)" stroke-linecap="butt">
      <path fill="none" d="M812.5193 933.5482 L879.7192 957.1028 L812.5193 980.6573 L745.3193 957.1028 Z" clip-path="url(#clipPath2)"/>
      <text x="770.1677" y="954.4661" clip-path="url(#clipPath2)" font-family="sans-serif" stroke="none" font-weight="bold" stroke-width="1" xml:space="preserve">current_swaps</text>
      <text x="800.5076" y="969.1672" clip-path="url(#clipPath2)" font-family="sans-serif" stroke="none" font-weight="bold" stroke-width="1" xml:space="preserve">== 0</text>
    </g>
    <g fill="url(#linearGradient7)" text-rendering="geometricPrecision" shape-rendering="geometricPrecision" transform="matrix(1,0,0,1,-172,-103)" stroke="url(#linearGradient7)">
      <path d="M298.1071 400 L438.1071 400 L448.1071 420 L438.1071 440 L298.1071 440 L288.1071 420 Z" stroke="none" clip-path="url(#clipPath2)"/>
    </g>
    <g text-rendering="geometricPrecision" stroke-miterlimit="1.45" stroke-width="2" shape-rendering="geometricPrecision" transform="matrix(1,0,0,1,-172,-103)" stroke-linecap="butt">
      <path fill="none" d="M298.1071 400 L438.1071 400 L448.1071 420 L438.1071 440 L298.1071 440 L288.1071 420 Z" clip-path="url(#clipPath2)"/>
      <text x="300.4021" y="424.7139" clip-path="url(#clipPath2)" font-family="sans-serif" stroke="none" font-weight="bold" stroke-width="1" xml:space="preserve">i = 0; i &lt; arr_size - 1; i++</text>
    </g>
    <g fill="url(#linearGradient8)" text-rendering="geometricPrecision" shape-rendering="geometricPrecision" transform="matrix(1,0,0,1,-172,-103)" stroke="url(#linearGradient8)">
      <path d="M298.1071 540 L438.1071 540 L448.1071 560 L438.1071 580 L298.1071 580 L288.1071 560 Z" stroke="none" clip-path="url(#clipPath2)"/>
    </g>
    <g text-rendering="geometricPrecision" stroke-miterlimit="1.45" stroke-width="2" shape-rendering="geometricPrecision" transform="matrix(1,0,0,1,-172,-103)" stroke-linecap="butt">
      <path fill="none" d="M298.1071 540 L438.1071 540 L448.1071 560 L438.1071 580 L298.1071 580 L288.1071 560 Z" clip-path="url(#clipPath2)"/>
      <text x="293.403" y="564.7139" clip-path="url(#clipPath2)" font-family="sans-serif" stroke="none" font-weight="bold" stroke-width="1" xml:space="preserve">j = 0; j &lt; arr_size - i - 1; j++</text>
    </g>
    <g fill="url(#linearGradient9)" text-rendering="geometricPrecision" shape-rendering="geometricPrecision" transform="matrix(1,0,0,1,-172,-103)" stroke="url(#linearGradient9)">
      <path d="M368.1071 602.8 L425.3071 630.56 L368.1071 658.32 L310.9071 630.56 Z" stroke="none" clip-path="url(#clipPath2)"/>
    </g>
    <g text-rendering="geometricPrecision" stroke-miterlimit="1.45" stroke-width="2" shape-rendering="geometricPrecision" transform="matrix(1,0,0,1,-172,-103)" stroke-linecap="butt">
      <path fill="none" d="M368.1071 602.8 L425.3071 630.56 L368.1071 658.32 L310.9071 630.56 Z" clip-path="url(#clipPath2)"/>
      <text x="323.7546" y="635.2739" clip-path="url(#clipPath2)" font-family="sans-serif" stroke="none" font-weight="bold" stroke-width="1" xml:space="preserve">arr[j + 1] &gt; arr[j]</text>
    </g>
    <g fill="url(#linearGradient10)" text-rendering="geometricPrecision" shape-rendering="geometricPrecision" transform="matrix(1,0,0,1,-172,-103)" stroke="url(#linearGradient10)">
      <path d="M282.4841 933.5482 L349.6841 957.1028 L282.4841 980.6573 L215.2841 957.1028 Z" stroke="none" clip-path="url(#clipPath2)"/>
    </g>
    <g text-rendering="geometricPrecision" stroke-miterlimit="1.45" stroke-width="2" shape-rendering="geometricPrecision" transform="matrix(1,0,0,1,-172,-103)" stroke-linecap="butt">
      <path fill="none" d="M282.4841 933.5482 L349.6841 957.1028 L282.4841 980.6573 L215.2841 957.1028 Z" clip-path="url(#clipPath2)"/>
      <text x="240.1326" y="954.4661" clip-path="url(#clipPath2)" font-family="sans-serif" stroke="none" font-weight="bold" stroke-width="1" xml:space="preserve">current_swaps</text>
      <text x="270.4724" y="969.1672" clip-path="url(#clipPath2)" font-family="sans-serif" stroke="none" font-weight="bold" stroke-width="1" xml:space="preserve">== 0</text>
    </g>
    <g fill="url(#linearGradient11)" text-rendering="geometricPrecision" shape-rendering="geometricPrecision" transform="matrix(1,0,0,1,-172,-103)" stroke="url(#linearGradient11)">
      <path d="M488 274.89 L592 274.89 L592 314.89 L488 314.89 Z" stroke="none" clip-path="url(#clipPath2)"/>
    </g>
    <g text-rendering="geometricPrecision" stroke-miterlimit="1.45" stroke-width="2" shape-rendering="geometricPrecision" transform="matrix(1,0,0,1,-172,-103)" stroke-linecap="butt">
      <path fill="none" d="M488 274.89 L592 274.89 L592 314.89 L488 314.89 Z" clip-path="url(#clipPath2)"/>
      <text x="507.1494" y="292.2533" clip-path="url(#clipPath2)" font-family="sans-serif" stroke="none" font-weight="bold" stroke-width="1" xml:space="preserve">*swaps = 0;</text>
      <text x="488.1475" y="306.9545" clip-path="url(#clipPath2)" font-family="sans-serif" stroke="none" font-weight="bold" stroke-width="1" xml:space="preserve">*comparisons = 0;</text>
    </g>
    <g fill="url(#linearGradient12)" text-rendering="geometricPrecision" shape-rendering="geometricPrecision" transform="matrix(1,0,0,1,-172,-103)" stroke="url(#linearGradient12)">
      <path d="M312.5071 470 L423.7072 470 L423.7072 510 L312.5071 510 Z" stroke="none" clip-path="url(#clipPath2)"/>
    </g>
    <g text-rendering="geometricPrecision" stroke-miterlimit="1.45" stroke-width="2" shape-rendering="geometricPrecision" transform="matrix(1,0,0,1,-172,-103)" stroke-linecap="butt">
      <path fill="none" d="M312.5071 470 L423.7072 470 L423.7072 510 L312.5071 510 Z" clip-path="url(#clipPath2)"/>
      <text x="315.5808" y="494.7139" clip-path="url(#clipPath2)" font-family="sans-serif" stroke="none" font-weight="bold" stroke-width="1" xml:space="preserve">current_swaps = 0</text>
    </g>
    <g fill="url(#linearGradient13)" text-rendering="geometricPrecision" shape-rendering="geometricPrecision" transform="matrix(1,0,0,1,-172,-103)" stroke="url(#linearGradient13)">
      <path d="M305.4064 758.32 L430.8079 758.32 L430.8079 798.32 L305.4064 798.32 Z" stroke="none" clip-path="url(#clipPath2)"/>
    </g>
    <g text-rendering="geometricPrecision" stroke-miterlimit="1.45" stroke-width="2" shape-rendering="geometricPrecision" transform="matrix(1,0,0,1,-172,-103)" stroke-linecap="butt">
      <path fill="none" d="M305.4064 758.32 L430.8079 758.32 L430.8079 798.32 L305.4064 798.32 Z" clip-path="url(#clipPath2)"/>
      <text x="336.4255" y="775.6833" clip-path="url(#clipPath2)" font-family="sans-serif" stroke="none" font-weight="bold" stroke-width="1" xml:space="preserve">(*swaps)++</text>
      <text x="318.7478" y="790.3845" clip-path="url(#clipPath2)" font-family="sans-serif" stroke="none" font-weight="bold" stroke-width="1" xml:space="preserve">current_swaps++</text>
    </g>
    <g fill="url(#linearGradient14)" text-rendering="geometricPrecision" shape-rendering="geometricPrecision" transform="matrix(1,0,0,1,-172,-103)" stroke="url(#linearGradient14)">
      <path d="M306.304 828.32 L429.9102 828.32 L429.9102 868.32 L306.304 868.32 Z" stroke="none" clip-path="url(#clipPath2)"/>
    </g>
    <g text-rendering="geometricPrecision" stroke-miterlimit="1.45" stroke-width="2" shape-rendering="geometricPrecision" transform="matrix(1,0,0,1,-172,-103)" stroke-linecap="butt">
      <path fill="none" d="M306.304 828.32 L429.9102 828.32 L429.9102 868.32 L306.304 868.32 Z" clip-path="url(#clipPath2)"/>
      <text x="317.4236" y="853.0339" clip-path="url(#clipPath2)" font-family="sans-serif" stroke="none" font-weight="bold" stroke-width="1" xml:space="preserve">(*comparisons)++</text>
    </g>
    <g fill="url(#linearGradient15)" text-rendering="geometricPrecision" shape-rendering="geometricPrecision" transform="matrix(1,0,0,1,-172,-103)" stroke="url(#linearGradient15)">
      <rect x="300.3071" width="135.6" height="40" y="688.32" clip-path="url(#clipPath2)" stroke="none"/>
    </g>
    <g text-rendering="geometricPrecision" stroke-miterlimit="1.45" stroke-width="2" shape-rendering="geometricPrecision" transform="matrix(1,0,0,1,-172,-103)" stroke-linecap="butt">
      <rect fill="none" x="300.3071" width="135.6" height="40" y="688.32" clip-path="url(#clipPath2)"/>
      <path fill="none" d="M310.3071 688.32 L310.3071 728.32 M425.9071 688.32 L425.9071 728.32 M310.3071 688.32 Z" clip-path="url(#clipPath2)"/>
      <text x="308.2566" y="713.0339" clip-path="url(#clipPath2)" font-family="sans-serif" stroke="none" font-weight="bold" stroke-width="1" xml:space="preserve">swap(arr[j], arr[j + 1])</text>
    </g>
    <g fill="url(#linearGradient16)" text-rendering="geometricPrecision" shape-rendering="geometricPrecision" transform="matrix(1,0,0,1,-172,-103)" stroke="url(#linearGradient16)">
      <path d="M620 400 L760 400 L770 420 L760 440 L620 440 L610 420 Z" stroke="none" clip-path="url(#clipPath2)"/>
    </g>
    <g text-rendering="geometricPrecision" stroke-miterlimit="1.45" stroke-width="2" shape-rendering="geometricPrecision" transform="matrix(1,0,0,1,-172,-103)" stroke-linecap="butt">
      <path fill="none" d="M620 400 L760 400 L770 420 L760 440 L620 440 L610 420 Z" clip-path="url(#clipPath2)"/>
      <text x="622.2949" y="424.7139" clip-path="url(#clipPath2)" font-family="sans-serif" stroke="none" font-weight="bold" stroke-width="1" xml:space="preserve">i = 0; i &lt; arr_size - 1; i++</text>
    </g>
    <g fill="url(#linearGradient17)" text-rendering="geometricPrecision" shape-rendering="geometricPrecision" transform="matrix(1,0,0,1,-172,-103)" stroke="url(#linearGradient17)">
      <path d="M620 540 L760 540 L770 560 L760 580 L620 580 L610 560 Z" stroke="none" clip-path="url(#clipPath2)"/>
    </g>
    <g text-rendering="geometricPrecision" stroke-miterlimit="1.45" stroke-width="2" shape-rendering="geometricPrecision" transform="matrix(1,0,0,1,-172,-103)" stroke-linecap="butt">
      <path fill="none" d="M620 540 L760 540 L770 560 L760 580 L620 580 L610 560 Z" clip-path="url(#clipPath2)"/>
      <text x="615.2959" y="564.7139" clip-path="url(#clipPath2)" font-family="sans-serif" stroke="none" font-weight="bold" stroke-width="1" xml:space="preserve">j = 0; j &lt; arr_size - i - 1; j++</text>
    </g>
    <g fill="url(#linearGradient18)" text-rendering="geometricPrecision" shape-rendering="geometricPrecision" transform="matrix(1,0,0,1,-172,-103)" stroke="url(#linearGradient18)">
      <path d="M690 602.8 L747.2 630.56 L690 658.32 L632.8 630.56 Z" stroke="none" clip-path="url(#clipPath2)"/>
    </g>
    <g text-rendering="geometricPrecision" stroke-miterlimit="1.45" stroke-width="2" shape-rendering="geometricPrecision" transform="matrix(1,0,0,1,-172,-103)" stroke-linecap="butt">
      <path fill="none" d="M690 602.8 L747.2 630.56 L690 658.32 L632.8 630.56 Z" clip-path="url(#clipPath2)"/>
      <text x="645.6475" y="635.2739" clip-path="url(#clipPath2)" font-family="sans-serif" stroke="none" font-weight="bold" stroke-width="1" xml:space="preserve">arr[j + 1] &lt; arr[j]</text>
    </g>
    <g fill="url(#linearGradient19)" text-rendering="geometricPrecision" shape-rendering="geometricPrecision" transform="matrix(1,0,0,1,-172,-103)" stroke="url(#linearGradient19)">
      <path d="M634.4 470 L745.6 470 L745.6 510 L634.4 510 Z" stroke="none" clip-path="url(#clipPath2)"/>
    </g>
    <g text-rendering="geometricPrecision" stroke-miterlimit="1.45" stroke-width="2" shape-rendering="geometricPrecision" transform="matrix(1,0,0,1,-172,-103)" stroke-linecap="butt">
      <path fill="none" d="M634.4 470 L745.6 470 L745.6 510 L634.4 510 Z" clip-path="url(#clipPath2)"/>
      <text x="637.4736" y="494.7139" clip-path="url(#clipPath2)" font-family="sans-serif" stroke="none" font-weight="bold" stroke-width="1" xml:space="preserve">current_swaps = 0</text>
    </g>
    <g fill="url(#linearGradient20)" text-rendering="geometricPrecision" shape-rendering="geometricPrecision" transform="matrix(1,0,0,1,-172,-103)" stroke="url(#linearGradient20)">
      <path d="M627.2993 758.32 L752.7007 758.32 L752.7007 798.32 L627.2993 798.32 Z" stroke="none" clip-path="url(#clipPath2)"/>
    </g>
    <g text-rendering="geometricPrecision" stroke-miterlimit="1.45" stroke-width="2" shape-rendering="geometricPrecision" transform="matrix(1,0,0,1,-172,-103)" stroke-linecap="butt">
      <path fill="none" d="M627.2993 758.32 L752.7007 758.32 L752.7007 798.32 L627.2993 798.32 Z" clip-path="url(#clipPath2)"/>
      <text x="658.3184" y="775.6833" clip-path="url(#clipPath2)" font-family="sans-serif" stroke="none" font-weight="bold" stroke-width="1" xml:space="preserve">(*swaps)++</text>
      <text x="640.6406" y="790.3845" clip-path="url(#clipPath2)" font-family="sans-serif" stroke="none" font-weight="bold" stroke-width="1" xml:space="preserve">current_swaps++</text>
    </g>
    <g fill="url(#linearGradient21)" text-rendering="geometricPrecision" shape-rendering="geometricPrecision" transform="matrix(1,0,0,1,-172,-103)" stroke="url(#linearGradient21)">
      <path d="M628.1969 828.32 L751.8031 828.32 L751.8031 868.32 L628.1969 868.32 Z" stroke="none" clip-path="url(#clipPath2)"/>
    </g>
    <g text-rendering="geometricPrecision" stroke-miterlimit="1.45" stroke-width="2" shape-rendering="geometricPrecision" transform="matrix(1,0,0,1,-172,-103)" stroke-linecap="butt">
      <path fill="none" d="M628.1969 828.32 L751.8031 828.32 L751.8031 868.32 L628.1969 868.32 Z" clip-path="url(#clipPath2)"/>
      <text x="639.3164" y="853.0339" clip-path="url(#clipPath2)" font-family="sans-serif" stroke="none" font-weight="bold" stroke-width="1" xml:space="preserve">(*comparisons)++</text>
    </g>
    <g fill="url(#linearGradient22)" text-rendering="geometricPrecision" shape-rendering="geometricPrecision" transform="matrix(1,0,0,1,-172,-103)" stroke="url(#linearGradient22)">
      <rect x="622.2" width="135.6" height="40" y="688.32" clip-path="url(#clipPath2)" stroke="none"/>
    </g>
    <g text-rendering="geometricPrecision" stroke-miterlimit="1.45" stroke-width="2" shape-rendering="geometricPrecision" transform="matrix(1,0,0,1,-172,-103)" stroke-linecap="butt">
      <rect fill="none" x="622.2" width="135.6" height="40" y="688.32" clip-path="url(#clipPath2)"/>
      <path fill="none" d="M632.2 688.32 L632.2 728.32 M747.8 688.32 L747.8 728.32 M632.2 688.32 Z" clip-path="url(#clipPath2)"/>
      <text x="630.1494" y="713.0339" clip-path="url(#clipPath2)" font-family="sans-serif" stroke="none" font-weight="bold" stroke-width="1" xml:space="preserve">swap(arr[j], arr[j + 1])</text>
    </g>
    <g text-rendering="geometricPrecision" stroke-miterlimit="1.45" shape-rendering="geometricPrecision" transform="matrix(1,0,0,1,-172,-103)" stroke-linecap="butt">
      <path fill="none" d="M540 158.2746 L540 188.2764" clip-path="url(#clipPath2)"/>
    </g>
    <g text-rendering="geometricPrecision" stroke-miterlimit="1.45" stroke-dasharray="6,2" shape-rendering="geometricPrecision" transform="matrix(1,0,0,1,-172,-103)" stroke-linecap="butt">
      <path fill="none" d="M579.9902 138.25 L600 138.25 L600 138.2312 L613.1139 138.2312 L613.1139 240 L630.8378 240" clip-path="url(#clipPath2)"/>
      <path fill="none" stroke-dasharray="none" d="M745.2877 957.1028 L540 957.1028 L540 977.5428" clip-path="url(#clipPath2)"/>
      <path stroke-dasharray="none" d="M540 985.5428 L545 973.5428 L540 976.5428 L535 973.5428 Z" clip-path="url(#clipPath2)" stroke="none"/>
      <text x="700.7372" y="946.8798" clip-path="url(#clipPath2)" font-family="sans-serif" stroke-dasharray="none" stroke="none" font-weight="bold" xml:space="preserve">Да</text>
      <path fill="none" stroke-dasharray="none" d="M500.0064 364.89 L368.1071 364.89 L368.1071 391.9857" clip-path="url(#clipPath2)"/>
      <path stroke-dasharray="none" d="M368.1071 399.9857 L373.1071 387.9857 L368.1071 390.9857 L363.1071 387.9857 Z" clip-path="url(#clipPath2)" stroke="none"/>
      <text x="429.6774" y="351.6443" clip-path="url(#clipPath2)" font-family="sans-serif" stroke-dasharray="none" stroke="none" font-weight="bold" xml:space="preserve">Да</text>
      <path fill="none" stroke-dasharray="none" d="M368.1071 580.0173 L368.1071 602.7714" clip-path="url(#clipPath2)"/>
      <path fill="none" stroke-dasharray="none" d="M288.1282 560 L282.4841 560 L282.4841 925.5927" clip-path="url(#clipPath2)"/>
      <path stroke-dasharray="none" d="M282.4841 933.5927 L287.4841 921.5927 L282.4841 924.5927 L277.4841 921.5927 Z" clip-path="url(#clipPath2)" stroke="none"/>
      <path fill="none" stroke-dasharray="none" d="M349.6608 957.1028 L540 957.1028 L540 977.5345" clip-path="url(#clipPath2)"/>
      <path stroke-dasharray="none" d="M540 985.5345 L545 973.5345 L540 976.5345 L535 973.5345 Z" clip-path="url(#clipPath2)" stroke="none"/>
      <text x="407.395" y="946.8798" clip-path="url(#clipPath2)" font-family="sans-serif" stroke-dasharray="none" stroke="none" font-weight="bold" xml:space="preserve">Да</text>
      <path fill="none" stroke-dasharray="none" d="M282.4841 980.624 L282.4841 1000.6573 L187.9955 1000.6573 L187.9955 420 L280.121 420" clip-path="url(#clipPath2)"/>
      <path stroke-dasharray="none" d="M288.121 420 L276.121 415 L279.121 420 L276.121 425 Z" clip-path="url(#clipPath2)" stroke="none"/>
      <text x="215.0445" y="999.0336" clip-path="url(#clipPath2)" font-family="sans-serif" stroke-dasharray="none" stroke="none" font-weight="bold" xml:space="preserve">Нет</text>
      <path fill="none" stroke-dasharray="none" d="M540 236.5338 L540 274.9155" clip-path="url(#clipPath2)"/>
      <path fill="none" stroke-dasharray="none" d="M540 314.8873 L540 323.4496 L540.1114 323.4496 L540.1114 344.9529" clip-path="url(#clipPath2)"/>
      <path fill="none" stroke-dasharray="none" d="M368.1071 439.9951 L368.1071 470.0273" clip-path="url(#clipPath2)"/>
      <path fill="none" stroke-dasharray="none" d="M368.1071 509.9774 L368.1071 539.9746" clip-path="url(#clipPath2)"/>
      <path fill="none" stroke-dasharray="none" d="M368.1071 798.3151 L368.1071 828.3474" clip-path="url(#clipPath2)"/>
      <path fill="none" stroke-dasharray="none" d="M425.3162 630.56 L461.6141 630.56 L461.6141 813.32 L368.1071 813.32 L368.1071 820.3427" clip-path="url(#clipPath2)"/>
      <path stroke-dasharray="none" d="M368.1071 828.3427 L373.1071 816.3427 L368.1071 819.3427 L363.1071 816.3427 Z" clip-path="url(#clipPath2)" stroke="none"/>
      <text x="429.1336" y="623.4479" clip-path="url(#clipPath2)" font-family="sans-serif" stroke-dasharray="none" stroke="none" font-weight="bold" xml:space="preserve">Нет</text>
      <path fill="none" stroke-dasharray="none" d="M368.1071 868.3591 L368.1071 888.32 L481.6141 888.32 L481.6141 560 L456.1107 560" clip-path="url(#clipPath2)"/>
      <path stroke-dasharray="none" d="M448.1107 560 L460.1107 565 L457.1107 560 L460.1107 555 Z" clip-path="url(#clipPath2)" stroke="none"/>
      <path fill="none" stroke-dasharray="none" d="M368.1071 658.3152 L368.1071 680.3474" clip-path="url(#clipPath2)"/>
      <path stroke-dasharray="none" d="M368.1071 688.3474 L373.1071 676.3474 L368.1071 679.3474 L363.1071 676.3474 Z" clip-path="url(#clipPath2)" stroke="none"/>
      <text x="378.8403" y="671.9677" clip-path="url(#clipPath2)" font-family="sans-serif" stroke-dasharray="none" stroke="none" font-weight="bold" xml:space="preserve">Да</text>
      <path fill="none" stroke-dasharray="none" d="M368.1071 728.3151 L368.1071 758.3474" clip-path="url(#clipPath2)"/>
      <path fill="none" stroke-dasharray="none" d="M580.0269 364.89 L690 364.89 L690 392.0065" clip-path="url(#clipPath2)"/>
      <path stroke-dasharray="none" d="M690 400.0065 L695 388.0065 L690 391.0065 L685 388.0065 Z" clip-path="url(#clipPath2)" stroke="none"/>
      <path fill="none" stroke-dasharray="none" d="M812.5193 980.6214 L812.5193 1005.5596 L918.3778 1005.5596 L918.3778 420 L777.9824 420" clip-path="url(#clipPath2)"/>
      <path stroke-dasharray="none" d="M769.9824 420 L781.9824 425 L778.9824 420 L781.9824 415 Z" clip-path="url(#clipPath2)" stroke="none"/>
      <text x="871.3262" y="997.2687" clip-path="url(#clipPath2)" font-family="sans-serif" stroke-dasharray="none" stroke="none" font-weight="bold" xml:space="preserve">Нет</text>
      <path fill="none" stroke-dasharray="none" d="M770.0144 560 L812.5193 560 L812.5193 925.5927" clip-path="url(#clipPath2)"/>
      <path stroke-dasharray="none" d="M812.5193 933.5927 L817.5193 921.5927 L812.5193 924.5927 L807.5193 921.5927 Z" clip-path="url(#clipPath2)" stroke="none"/>
      <path fill="none" stroke-dasharray="none" d="M690 580.0173 L690 602.7714" clip-path="url(#clipPath2)"/>
      <path fill="none" stroke-dasharray="none" d="M690 439.9951 L690 470.0273" clip-path="url(#clipPath2)"/>
      <path fill="none" stroke-dasharray="none" d="M690 509.9774 L690 539.9746" clip-path="url(#clipPath2)"/>
      <path fill="none" stroke-dasharray="none" d="M690 798.3151 L690 828.3474" clip-path="url(#clipPath2)"/>
      <path fill="none" stroke-dasharray="none" d="M747.2091 630.56 L783.507 630.56 L783.507 813.32 L690 813.32 L690 820.3427" clip-path="url(#clipPath2)"/>
      <path stroke-dasharray="none" d="M690 828.3427 L695 816.3427 L690 819.3427 L685 816.3427 Z" clip-path="url(#clipPath2)" stroke="none"/>
      <text x="751.0264" y="623.4479" clip-path="url(#clipPath2)" font-family="sans-serif" stroke-dasharray="none" stroke="none" font-weight="bold" xml:space="preserve">Нет</text>
      <path fill="none" stroke-dasharray="none" d="M690 868.3591 L690 888.32 L570.6056 888.32 L570.6056 560 L601.9859 560" clip-path="url(#clipPath2)"/>
      <path stroke-dasharray="none" d="M609.9859 560 L597.9859 555 L600.9859 560 L597.9859 565 Z" clip-path="url(#clipPath2)" stroke="none"/>
      <path fill="none" stroke-dasharray="none" d="M690 658.3152 L690 680.3474" clip-path="url(#clipPath2)"/>
      <path stroke-dasharray="none" d="M690 688.3474 L695 676.3474 L690 679.3474 L685 676.3474 Z" clip-path="url(#clipPath2)" stroke="none"/>
      <text x="700.7332" y="671.9677" clip-path="url(#clipPath2)" font-family="sans-serif" stroke-dasharray="none" stroke="none" font-weight="bold" xml:space="preserve">Да</text>
      <path fill="none" stroke-dasharray="none" d="M690 728.3151 L690 758.3474" clip-path="url(#clipPath2)"/>
    </g>
  </g>
</svg>
