<?xml version="1.0" encoding="UTF-8"?><svg xmlns="http://www.w3.org/2000/svg" xmlns:xlink="http://www.w3.org/1999/xlink" fill-opacity="1" color-rendering="auto" color-interpolation="auto" text-rendering="auto" stroke="black" stroke-linecap="square" width="399" stroke-miterlimit="10" shape-rendering="auto" stroke-opacity="1" fill="black" stroke-dasharray="none" font-weight="normal" stroke-width="1" height="730" font-family="'Dialog'" font-style="normal" stroke-linejoin="miter" font-size="12px" stroke-dashoffset="0" image-rendering="auto">
  <!--Generated by ySVG 2.6-->
  <defs id="genericDefs"/>
  <g>
    <defs id="defs1">
      <linearGradient x1="500" gradientUnits="userSpaceOnUse" x2="580" y1="190" y2="230" id="linearGradient1" spreadMethod="reflect">
        <stop stop-opacity="1" stop-color="rgb(232,238,247)" offset="0%"/>
        <stop stop-opacity="1" stop-color="rgb(183,201,227)" offset="100%"/>
      </linearGradient>
      <linearGradient x1="500" gradientUnits="userSpaceOnUse" x2="580" y1="383.2" y2="423.2" id="linearGradient2" spreadMethod="reflect">
        <stop stop-opacity="1" stop-color="rgb(232,238,247)" offset="0%"/>
        <stop stop-opacity="1" stop-color="rgb(183,201,227)" offset="100%"/>
      </linearGradient>
      <linearGradient x1="500" gradientUnits="userSpaceOnUse" x2="580" y1="251.6" y2="291.6" id="linearGradient3" spreadMethod="reflect">
        <stop stop-opacity="1" stop-color="rgb(232,238,247)" offset="0%"/>
        <stop stop-opacity="1" stop-color="rgb(183,201,227)" offset="100%"/>
      </linearGradient>
      <linearGradient x1="650" gradientUnits="userSpaceOnUse" x2="730" y1="430" y2="470" id="linearGradient4" spreadMethod="reflect">
        <stop stop-opacity="1" stop-color="rgb(232,238,247)" offset="0%"/>
        <stop stop-opacity="1" stop-color="rgb(183,201,227)" offset="100%"/>
      </linearGradient>
      <linearGradient x1="380.5" gradientUnits="userSpaceOnUse" x2="460.5" y1="500" y2="540" id="linearGradient5" spreadMethod="reflect">
        <stop stop-opacity="1" stop-color="rgb(232,238,247)" offset="0%"/>
        <stop stop-opacity="1" stop-color="rgb(183,201,227)" offset="100%"/>
      </linearGradient>
      <linearGradient x1="371" gradientUnits="userSpaceOnUse" x2="460.5" y1="710" y2="750" id="linearGradient6" spreadMethod="reflect">
        <stop stop-opacity="1" stop-color="rgb(232,238,247)" offset="0%"/>
        <stop stop-opacity="1" stop-color="rgb(183,201,227)" offset="100%"/>
      </linearGradient>
      <linearGradient x1="510.5" gradientUnits="userSpaceOnUse" x2="590.5" y1="850" y2="890" id="linearGradient7" spreadMethod="reflect">
        <stop stop-opacity="1" stop-color="rgb(232,238,247)" offset="0%"/>
        <stop stop-opacity="1" stop-color="rgb(183,201,227)" offset="100%"/>
      </linearGradient>
      <linearGradient x1="640.5" gradientUnits="userSpaceOnUse" x2="739.5" y1="640" y2="680" id="linearGradient8" spreadMethod="reflect">
        <stop stop-opacity="1" stop-color="rgb(232,238,247)" offset="0%"/>
        <stop stop-opacity="1" stop-color="rgb(183,201,227)" offset="100%"/>
      </linearGradient>
      <linearGradient x1="500" gradientUnits="userSpaceOnUse" x2="580" y1="321.6" y2="361.6" id="linearGradient9" spreadMethod="reflect">
        <stop stop-opacity="1" stop-color="rgb(232,238,247)" offset="0%"/>
        <stop stop-opacity="1" stop-color="rgb(183,201,227)" offset="100%"/>
      </linearGradient>
      <linearGradient x1="375.75" gradientUnits="userSpaceOnUse" x2="465.25" y1="430" y2="470" id="linearGradient10" spreadMethod="reflect">
        <stop stop-opacity="1" stop-color="rgb(232,238,247)" offset="0%"/>
        <stop stop-opacity="1" stop-color="rgb(183,201,227)" offset="100%"/>
      </linearGradient>
      <linearGradient x1="650" gradientUnits="userSpaceOnUse" x2="730" y1="500" y2="540" id="linearGradient11" spreadMethod="reflect">
        <stop stop-opacity="1" stop-color="rgb(232,238,247)" offset="0%"/>
        <stop stop-opacity="1" stop-color="rgb(183,201,227)" offset="100%"/>
      </linearGradient>
      <linearGradient x1="650" gradientUnits="userSpaceOnUse" x2="730" y1="570" y2="610" id="linearGradient12" spreadMethod="reflect">
        <stop stop-opacity="1" stop-color="rgb(232,238,247)" offset="0%"/>
        <stop stop-opacity="1" stop-color="rgb(183,201,227)" offset="100%"/>
      </linearGradient>
      <linearGradient x1="650" gradientUnits="userSpaceOnUse" x2="730" y1="710" y2="750" id="linearGradient13" spreadMethod="reflect">
        <stop stop-opacity="1" stop-color="rgb(232,238,247)" offset="0%"/>
        <stop stop-opacity="1" stop-color="rgb(183,201,227)" offset="100%"/>
      </linearGradient>
      <linearGradient x1="650" gradientUnits="userSpaceOnUse" x2="730" y1="780" y2="820" id="linearGradient14" spreadMethod="reflect">
        <stop stop-opacity="1" stop-color="rgb(232,238,247)" offset="0%"/>
        <stop stop-opacity="1" stop-color="rgb(183,201,227)" offset="100%"/>
      </linearGradient>
      <linearGradient x1="375.75" gradientUnits="userSpaceOnUse" x2="465.25" y1="570" y2="610" id="linearGradient15" spreadMethod="reflect">
        <stop stop-opacity="1" stop-color="rgb(232,238,247)" offset="0%"/>
        <stop stop-opacity="1" stop-color="rgb(183,201,227)" offset="100%"/>
      </linearGradient>
      <linearGradient x1="375.75" gradientUnits="userSpaceOnUse" x2="455.75" y1="640" y2="680" id="linearGradient16" spreadMethod="reflect">
        <stop stop-opacity="1" stop-color="rgb(232,238,247)" offset="0%"/>
        <stop stop-opacity="1" stop-color="rgb(183,201,227)" offset="100%"/>
      </linearGradient>
      <linearGradient x1="371" gradientUnits="userSpaceOnUse" x2="451" y1="780" y2="820" id="linearGradient17" spreadMethod="reflect">
        <stop stop-opacity="1" stop-color="rgb(232,238,247)" offset="0%"/>
        <stop stop-opacity="1" stop-color="rgb(183,201,227)" offset="100%"/>
      </linearGradient>
      <clipPath clipPathUnits="userSpaceOnUse" id="clipPath1">
        <path d="M0 0 L399 0 L399 730 L0 730 L0 0 Z"/>
      </clipPath>
      <clipPath clipPathUnits="userSpaceOnUse" id="clipPath2">
        <path d="M356 175 L755 175 L755 905 L356 905 L356 175 Z"/>
      </clipPath>
    </defs>
    <g fill="url(#linearGradient1)" text-rendering="geometricPrecision" shape-rendering="geometricPrecision" transform="matrix(1,0,0,1,-356,-175)" stroke="url(#linearGradient1)">
      <rect x="500" y="190" clip-path="url(#clipPath2)" width="80" rx="20" ry="20" height="40" stroke="none"/>
    </g>
    <g text-rendering="geometricPrecision" stroke-miterlimit="1.45" stroke-width="2" shape-rendering="geometricPrecision" transform="matrix(1,0,0,1,-356,-175)" stroke-linecap="butt">
      <rect x="500" y="190" clip-path="url(#clipPath2)" fill="none" width="80" rx="20" ry="20" height="40"/>
      <text x="518.0332" y="214.7139" clip-path="url(#clipPath2)" font-family="sans-serif" stroke="none" font-weight="bold" stroke-width="1" xml:space="preserve">Начало</text>
    </g>
    <g fill="url(#linearGradient2)" text-rendering="geometricPrecision" shape-rendering="geometricPrecision" transform="matrix(1,0,0,1,-356,-175)" stroke="url(#linearGradient2)">
      <path d="M540 383.2 L580 403.2 L540 423.2 L500 403.2 Z" stroke="none" clip-path="url(#clipPath2)"/>
    </g>
    <g text-rendering="geometricPrecision" stroke-miterlimit="1.45" stroke-width="2" shape-rendering="geometricPrecision" transform="matrix(1,0,0,1,-356,-175)" stroke-linecap="butt">
      <path fill="none" d="M540 383.2 L580 403.2 L540 423.2 L500 403.2 Z" clip-path="url(#clipPath2)"/>
      <text x="522.9844" y="407.9139" clip-path="url(#clipPath2)" font-family="sans-serif" stroke="none" font-weight="bold" stroke-width="1" xml:space="preserve">a &gt;= 0</text>
    </g>
    <g fill="url(#linearGradient3)" text-rendering="geometricPrecision" shape-rendering="geometricPrecision" transform="matrix(1,0,0,1,-356,-175)" stroke="url(#linearGradient3)">
      <path d="M510.2 251.6 L580 251.6 L569.8 291.6 L500 291.6 Z" stroke="none" clip-path="url(#clipPath2)"/>
    </g>
    <g text-rendering="geometricPrecision" stroke-miterlimit="1.45" stroke-width="2" shape-rendering="geometricPrecision" transform="matrix(1,0,0,1,-356,-175)" stroke-linecap="butt">
      <path fill="none" d="M510.2 251.6 L580 251.6 L569.8 291.6 L500 291.6 Z" clip-path="url(#clipPath2)"/>
      <text x="536.6631" y="276.3139" clip-path="url(#clipPath2)" font-family="sans-serif" stroke="none" font-weight="bold" stroke-width="1" xml:space="preserve">a</text>
    </g>
    <g fill="url(#linearGradient4)" text-rendering="geometricPrecision" shape-rendering="geometricPrecision" transform="matrix(1,0,0,1,-356,-175)" stroke="url(#linearGradient4)">
      <path d="M660 430 L720 430 L730 440 L730 470 L650 470 L650 440 Z" stroke="none" clip-path="url(#clipPath2)"/>
    </g>
    <g text-rendering="geometricPrecision" stroke-miterlimit="1.45" stroke-width="2" shape-rendering="geometricPrecision" transform="matrix(1,0,0,1,-356,-175)" stroke-linecap="butt">
      <path fill="none" d="M660 430 L720 430 L730 440 L730 470 L650 470 L650 440 Z" clip-path="url(#clipPath2)"/>
      <text x="669.1143" y="454.7139" clip-path="url(#clipPath2)" font-family="sans-serif" stroke="none" font-weight="bold" stroke-width="1" xml:space="preserve">Цикл B</text>
    </g>
    <g fill="url(#linearGradient5)" text-rendering="geometricPrecision" shape-rendering="geometricPrecision" transform="matrix(1,0,0,1,-356,-175)" stroke="url(#linearGradient5)">
      <path d="M390.5 500 L450.5 500 L460.5 510 L460.5 540 L380.5 540 L380.5 510 Z" stroke="none" clip-path="url(#clipPath2)"/>
    </g>
    <g text-rendering="geometricPrecision" stroke-miterlimit="1.45" stroke-width="2" shape-rendering="geometricPrecision" transform="matrix(1,0,0,1,-356,-175)" stroke-linecap="butt">
      <path fill="none" d="M390.5 500 L450.5 500 L460.5 510 L460.5 540 L380.5 540 L380.5 510 Z" clip-path="url(#clipPath2)"/>
      <text x="399.6143" y="524.7139" clip-path="url(#clipPath2)" font-family="sans-serif" stroke="none" font-weight="bold" stroke-width="1" xml:space="preserve">Цикл A</text>
    </g>
    <g fill="url(#linearGradient6)" text-rendering="geometricPrecision" shape-rendering="geometricPrecision" transform="matrix(1,0,0,1,-356,-175)" stroke="url(#linearGradient6)">
      <path d="M371 710 L460.5 710 L460.5 740 L450.5 750 L381 750 L371 740 Z" stroke="none" clip-path="url(#clipPath2)"/>
    </g>
    <g text-rendering="geometricPrecision" stroke-miterlimit="1.45" stroke-width="2" shape-rendering="geometricPrecision" transform="matrix(1,0,0,1,-356,-175)" stroke-linecap="butt">
      <path fill="none" d="M371 710 L460.5 710 L460.5 740 L450.5 750 L381 750 L371 740 Z" clip-path="url(#clipPath2)"/>
      <text x="394.8643" y="727.3633" clip-path="url(#clipPath2)" font-family="sans-serif" stroke="none" font-weight="bold" stroke-width="1" xml:space="preserve">Цикл A</text>
      <text x="392.7432" y="742.0645" clip-path="url(#clipPath2)" font-family="sans-serif" stroke="none" font-weight="bold" stroke-width="1" xml:space="preserve">(i &lt;= 9)?</text>
    </g>
    <g fill="url(#linearGradient7)" text-rendering="geometricPrecision" shape-rendering="geometricPrecision" transform="matrix(1,0,0,1,-356,-175)" stroke="url(#linearGradient7)">
      <rect x="510.5" y="850" clip-path="url(#clipPath2)" width="80" rx="20" ry="20" height="40" stroke="none"/>
    </g>
    <g text-rendering="geometricPrecision" stroke-miterlimit="1.45" stroke-width="2" shape-rendering="geometricPrecision" transform="matrix(1,0,0,1,-356,-175)" stroke-linecap="butt">
      <rect x="510.5" y="850" clip-path="url(#clipPath2)" fill="none" width="80" rx="20" ry="20" height="40"/>
      <text x="532.5234" y="874.7139" clip-path="url(#clipPath2)" font-family="sans-serif" stroke="none" font-weight="bold" stroke-width="1" xml:space="preserve">Конец</text>
    </g>
    <g fill="url(#linearGradient8)" text-rendering="geometricPrecision" shape-rendering="geometricPrecision" transform="matrix(1,0,0,1,-356,-175)" stroke="url(#linearGradient8)">
      <path d="M640.5 640 L739.5 640 L739.5 670 L729.5 680 L650.5 680 L640.5 670 Z" stroke="none" clip-path="url(#clipPath2)"/>
    </g>
    <g text-rendering="geometricPrecision" stroke-miterlimit="1.45" stroke-width="2" shape-rendering="geometricPrecision" transform="matrix(1,0,0,1,-356,-175)" stroke-linecap="butt">
      <path fill="none" d="M640.5 640 L739.5 640 L739.5 670 L729.5 680 L650.5 680 L640.5 670 Z" clip-path="url(#clipPath2)"/>
      <text x="669.1143" y="657.3633" clip-path="url(#clipPath2)" font-family="sans-serif" stroke="none" font-weight="bold" stroke-width="1" xml:space="preserve">Цикл B</text>
      <text x="666.9932" y="672.0645" clip-path="url(#clipPath2)" font-family="sans-serif" stroke="none" font-weight="bold" stroke-width="1" xml:space="preserve">(i &lt;= 8)?</text>
    </g>
    <g fill="url(#linearGradient9)" text-rendering="geometricPrecision" shape-rendering="geometricPrecision" transform="matrix(1,0,0,1,-356,-175)" stroke="url(#linearGradient9)">
      <path d="M500 321.6 L580 321.6 L580 361.6 L500 361.6 Z" stroke="none" clip-path="url(#clipPath2)"/>
    </g>
    <g text-rendering="geometricPrecision" stroke-miterlimit="1.45" stroke-width="2" shape-rendering="geometricPrecision" transform="matrix(1,0,0,1,-356,-175)" stroke-linecap="butt">
      <path fill="none" d="M500 321.6 L580 321.6 L580 361.6 L500 361.6 Z" clip-path="url(#clipPath2)"/>
      <text x="513.4863" y="338.9633" clip-path="url(#clipPath2)" font-family="sans-serif" stroke="none" font-weight="bold" stroke-width="1" xml:space="preserve">result = 1</text>
      <text x="526.4912" y="353.6645" clip-path="url(#clipPath2)" font-family="sans-serif" stroke="none" font-weight="bold" stroke-width="1" xml:space="preserve"> i = 2</text>
    </g>
    <g fill="url(#linearGradient10)" text-rendering="geometricPrecision" shape-rendering="geometricPrecision" transform="matrix(1,0,0,1,-356,-175)" stroke="url(#linearGradient10)">
      <path d="M375.75 430 L465.25 430 L465.25 470 L375.75 470 Z" stroke="none" clip-path="url(#clipPath2)"/>
    </g>
    <g text-rendering="geometricPrecision" stroke-miterlimit="1.45" stroke-width="2" shape-rendering="geometricPrecision" transform="matrix(1,0,0,1,-356,-175)" stroke-linecap="butt">
      <path fill="none" d="M375.75 430 L465.25 430 L465.25 470 L375.75 470 Z" clip-path="url(#clipPath2)"/>
      <text x="406.6602" y="447.3633" clip-path="url(#clipPath2)" font-family="sans-serif" stroke="none" font-weight="bold" stroke-width="1" xml:space="preserve">i = 3;</text>
      <text x="380.9932" y="462.0645" clip-path="url(#clipPath2)" font-family="sans-serif" stroke="none" font-weight="bold" stroke-width="1" xml:space="preserve">result = (i - 2);</text>
    </g>
    <g fill="url(#linearGradient11)" text-rendering="geometricPrecision" shape-rendering="geometricPrecision" transform="matrix(1,0,0,1,-356,-175)" stroke="url(#linearGradient11)">
      <path d="M650 500 L730 500 L730 540 L650 540 Z" stroke="none" clip-path="url(#clipPath2)"/>
    </g>
    <g text-rendering="geometricPrecision" stroke-miterlimit="1.45" stroke-width="2" shape-rendering="geometricPrecision" transform="matrix(1,0,0,1,-356,-175)" stroke-linecap="butt">
      <path fill="none" d="M650 500 L730 500 L730 540 L650 540 Z" clip-path="url(#clipPath2)"/>
      <text x="655.4854" y="524.7139" clip-path="url(#clipPath2)" font-family="sans-serif" stroke="none" font-weight="bold" stroke-width="1" xml:space="preserve">result *= i * i</text>
    </g>
    <g fill="url(#linearGradient12)" text-rendering="geometricPrecision" shape-rendering="geometricPrecision" transform="matrix(1,0,0,1,-356,-175)" stroke="url(#linearGradient12)">
      <path d="M650 570 L730 570 L730 610 L650 610 Z" stroke="none" clip-path="url(#clipPath2)"/>
    </g>
    <g text-rendering="geometricPrecision" stroke-miterlimit="1.45" stroke-width="2" shape-rendering="geometricPrecision" transform="matrix(1,0,0,1,-356,-175)" stroke-linecap="butt">
      <path fill="none" d="M650 570 L730 570 L730 610 L650 610 Z" clip-path="url(#clipPath2)"/>
      <text x="674.6543" y="594.7139" clip-path="url(#clipPath2)" font-family="sans-serif" stroke="none" font-weight="bold" stroke-width="1" xml:space="preserve">i += 2</text>
    </g>
    <g fill="url(#linearGradient13)" text-rendering="geometricPrecision" shape-rendering="geometricPrecision" transform="matrix(1,0,0,1,-356,-175)" stroke="url(#linearGradient13)">
      <path d="M650 710 L730 710 L730 750 L650 750 Z" stroke="none" clip-path="url(#clipPath2)"/>
    </g>
    <g text-rendering="geometricPrecision" stroke-miterlimit="1.45" stroke-width="2" shape-rendering="geometricPrecision" transform="matrix(1,0,0,1,-356,-175)" stroke-linecap="butt">
      <path fill="none" d="M650 710 L730 710 L730 750 L650 750 Z" clip-path="url(#clipPath2)"/>
      <text x="661.4883" y="734.7139" clip-path="url(#clipPath2)" font-family="sans-serif" stroke="none" font-weight="bold" stroke-width="1" xml:space="preserve">result -= a</text>
    </g>
    <g fill="url(#linearGradient14)" text-rendering="geometricPrecision" shape-rendering="geometricPrecision" transform="matrix(1,0,0,1,-356,-175)" stroke="url(#linearGradient14)">
      <path d="M660.2 780 L730 780 L719.8 820 L650 820 Z" stroke="none" clip-path="url(#clipPath2)"/>
    </g>
    <g text-rendering="geometricPrecision" stroke-miterlimit="1.45" stroke-width="2" shape-rendering="geometricPrecision" transform="matrix(1,0,0,1,-356,-175)" stroke-linecap="butt">
      <path fill="none" d="M660.2 780 L730 780 L719.8 820 L650 820 Z" clip-path="url(#clipPath2)"/>
      <text x="673.6611" y="804.7139" clip-path="url(#clipPath2)" font-family="sans-serif" stroke="none" font-weight="bold" stroke-width="1" xml:space="preserve">result</text>
    </g>
    <g fill="url(#linearGradient15)" text-rendering="geometricPrecision" shape-rendering="geometricPrecision" transform="matrix(1,0,0,1,-356,-175)" stroke="url(#linearGradient15)">
      <path d="M375.75 570 L465.25 570 L465.25 610 L375.75 610 Z" stroke="none" clip-path="url(#clipPath2)"/>
    </g>
    <g text-rendering="geometricPrecision" stroke-miterlimit="1.45" stroke-width="2" shape-rendering="geometricPrecision" transform="matrix(1,0,0,1,-356,-175)" stroke-linecap="butt">
      <path fill="none" d="M375.75 570 L465.25 570 L465.25 610 L375.75 610 Z" clip-path="url(#clipPath2)"/>
      <text x="380.6562" y="594.7139" clip-path="url(#clipPath2)" font-family="sans-serif" stroke="none" font-weight="bold" stroke-width="1" xml:space="preserve">result *= (i - 2)</text>
    </g>
    <g fill="url(#linearGradient16)" text-rendering="geometricPrecision" shape-rendering="geometricPrecision" transform="matrix(1,0,0,1,-356,-175)" stroke="url(#linearGradient16)">
      <path d="M375.75 640 L455.75 640 L455.75 680 L375.75 680 Z" stroke="none" clip-path="url(#clipPath2)"/>
    </g>
    <g text-rendering="geometricPrecision" stroke-miterlimit="1.45" stroke-width="2" shape-rendering="geometricPrecision" transform="matrix(1,0,0,1,-356,-175)" stroke-linecap="butt">
      <path fill="none" d="M375.75 640 L455.75 640 L455.75 680 L375.75 680 Z" clip-path="url(#clipPath2)"/>
      <text x="400.4043" y="664.7139" clip-path="url(#clipPath2)" font-family="sans-serif" stroke="none" font-weight="bold" stroke-width="1" xml:space="preserve">i += 3</text>
    </g>
    <g fill="url(#linearGradient17)" text-rendering="geometricPrecision" shape-rendering="geometricPrecision" transform="matrix(1,0,0,1,-356,-175)" stroke="url(#linearGradient17)">
      <path d="M381.2 780 L451 780 L440.8 820 L371 820 Z" stroke="none" clip-path="url(#clipPath2)"/>
    </g>
    <g text-rendering="geometricPrecision" stroke-miterlimit="1.45" stroke-width="2" shape-rendering="geometricPrecision" transform="matrix(1,0,0,1,-356,-175)" stroke-linecap="butt">
      <path fill="none" d="M381.2 780 L451 780 L440.8 820 L371 820 Z" clip-path="url(#clipPath2)"/>
      <text x="394.6611" y="804.7139" clip-path="url(#clipPath2)" font-family="sans-serif" stroke="none" font-weight="bold" stroke-width="1" xml:space="preserve">result</text>
    </g>
    <g text-rendering="geometricPrecision" stroke-miterlimit="1.45" shape-rendering="geometricPrecision" transform="matrix(1,0,0,1,-356,-175)" stroke-linecap="butt">
      <path fill="none" d="M540 230.002 L540 251.5728" clip-path="url(#clipPath2)"/>
    </g>
    <g text-rendering="geometricPrecision" stroke-miterlimit="1.45" shape-rendering="geometricPrecision" transform="matrix(1,0,0,1,-356,-175)" stroke-linecap="butt">
      <path fill="none" d="M580.0269 403.2 L690 403.2 L690 422.0277" clip-path="url(#clipPath2)"/>
      <path d="M690 430.0277 L695 418.0277 L690 421.0277 L685 418.0277 Z" clip-path="url(#clipPath2)" stroke="none"/>
      <text x="633.5387" y="396.4139" clip-path="url(#clipPath2)" font-family="sans-serif" stroke="none" font-weight="bold" xml:space="preserve">Да</text>
      <path fill="none" d="M540 291.5951 L540 321.6273" clip-path="url(#clipPath2)"/>
      <path fill="none" d="M540 361.602 L540 383.1728" clip-path="url(#clipPath2)"/>
      <path fill="none" d="M500.0013 403.2 L420.5 403.2 L420.5 422.0277" clip-path="url(#clipPath2)"/>
      <path d="M420.5 430.0277 L425.5 418.0277 L420.5 421.0277 L415.5 418.0277 Z" clip-path="url(#clipPath2)" stroke="none"/>
      <text x="450.5416" y="397.4139" clip-path="url(#clipPath2)" font-family="sans-serif" stroke="none" font-weight="bold" xml:space="preserve">Нет</text>
      <path fill="none" d="M420.5 469.9951 L420.5 500.0273" clip-path="url(#clipPath2)"/>
      <path fill="none" d="M690 469.9951 L690 500.0273" clip-path="url(#clipPath2)"/>
      <path fill="none" d="M690 539.9951 L690 570.0273" clip-path="url(#clipPath2)"/>
      <path fill="none" d="M690 609.9951 L690 640.0273" clip-path="url(#clipPath2)"/>
      <path fill="none" d="M690 679.9951 L690 710.0273" clip-path="url(#clipPath2)"/>
      <path fill="none" d="M690 749.9951 L690 780.0273" clip-path="url(#clipPath2)"/>
      <path fill="none" d="M690 820.0391 L690 840 L549.25 840 L549.25 850.0208" clip-path="url(#clipPath2)"/>
      <path fill="none" d="M420.5 539.9951 L420.5 570.0273" clip-path="url(#clipPath2)"/>
      <path fill="none" d="M420.5 609.9951 L420.5 640.0273" clip-path="url(#clipPath2)"/>
      <path fill="none" d="M415.75 679.9951 L415.75 710.0273" clip-path="url(#clipPath2)"/>
      <path fill="none" d="M415.75 749.9951 L415.75 780.0273" clip-path="url(#clipPath2)"/>
      <path fill="none" d="M411 820.0391 L411 840 L550.5 840 L550.5 849.9902" clip-path="url(#clipPath2)"/>
    </g>
  </g>
</svg>
