<?xml version="1.0" encoding="UTF-8"?><svg xmlns="http://www.w3.org/2000/svg" xmlns:xlink="http://www.w3.org/1999/xlink" fill-opacity="1" color-rendering="auto" color-interpolation="auto" text-rendering="auto" stroke="black" stroke-linecap="square" width="440" stroke-miterlimit="10" shape-rendering="auto" stroke-opacity="1" fill="black" stroke-dasharray="none" font-weight="normal" stroke-width="1" height="560" font-family="'Dialog'" font-style="normal" stroke-linejoin="miter" font-size="12px" stroke-dashoffset="0" image-rendering="auto">
  <!--Generated by ySVG 2.6-->
  <defs id="genericDefs"/>
  <g>
    <defs id="defs1">
      <linearGradient x1="510" gradientUnits="userSpaceOnUse" x2="590" y1="190" y2="230" id="linearGradient1" spreadMethod="reflect">
        <stop stop-opacity="1" stop-color="rgb(232,238,247)" offset="0%"/>
        <stop stop-opacity="1" stop-color="rgb(183,201,227)" offset="100%"/>
      </linearGradient>
      <linearGradient x1="510" gradientUnits="userSpaceOnUse" x2="590" y1="260" y2="300" id="linearGradient2" spreadMethod="reflect">
        <stop stop-opacity="1" stop-color="rgb(232,238,247)" offset="0%"/>
        <stop stop-opacity="1" stop-color="rgb(183,201,227)" offset="100%"/>
      </linearGradient>
      <linearGradient x1="510" gradientUnits="userSpaceOnUse" x2="590" y1="330" y2="370" id="linearGradient3" spreadMethod="reflect">
        <stop stop-opacity="1" stop-color="rgb(232,238,247)" offset="0%"/>
        <stop stop-opacity="1" stop-color="rgb(183,201,227)" offset="100%"/>
      </linearGradient>
      <linearGradient x1="502" gradientUnits="userSpaceOnUse" x2="598" y1="400" y2="440" id="linearGradient4" spreadMethod="reflect">
        <stop stop-opacity="1" stop-color="rgb(232,238,247)" offset="0%"/>
        <stop stop-opacity="1" stop-color="rgb(183,201,227)" offset="100%"/>
      </linearGradient>
      <linearGradient x1="502" gradientUnits="userSpaceOnUse" x2="598" y1="470" y2="510" id="linearGradient5" spreadMethod="reflect">
        <stop stop-opacity="1" stop-color="rgb(232,238,247)" offset="0%"/>
        <stop stop-opacity="1" stop-color="rgb(183,201,227)" offset="100%"/>
      </linearGradient>
      <linearGradient x1="510" gradientUnits="userSpaceOnUse" x2="590" y1="540" y2="580" id="linearGradient6" spreadMethod="reflect">
        <stop stop-opacity="1" stop-color="rgb(232,238,247)" offset="0%"/>
        <stop stop-opacity="1" stop-color="rgb(183,201,227)" offset="100%"/>
      </linearGradient>
      <linearGradient x1="491.76" gradientUnits="userSpaceOnUse" x2="608.24" y1="610" y2="650" id="linearGradient7" spreadMethod="reflect">
        <stop stop-opacity="1" stop-color="rgb(232,238,247)" offset="0%"/>
        <stop stop-opacity="1" stop-color="rgb(183,201,227)" offset="100%"/>
      </linearGradient>
      <linearGradient x1="510" gradientUnits="userSpaceOnUse" x2="590" y1="680" y2="720" id="linearGradient8" spreadMethod="reflect">
        <stop stop-opacity="1" stop-color="rgb(232,238,247)" offset="0%"/>
        <stop stop-opacity="1" stop-color="rgb(183,201,227)" offset="100%"/>
      </linearGradient>
      <linearGradient x1="659.6" gradientUnits="userSpaceOnUse" x2="900.4" y1="210" y2="350" id="linearGradient9" spreadMethod="reflect">
        <stop stop-opacity="1" stop-color="rgb(232,238,247)" offset="0%"/>
        <stop stop-opacity="1" stop-color="rgb(183,201,227)" offset="100%"/>
      </linearGradient>
      <clipPath clipPathUnits="userSpaceOnUse" id="clipPath1">
        <path d="M0 0 L440 0 L440 560 L0 560 L0 0 Z"/>
      </clipPath>
      <clipPath clipPathUnits="userSpaceOnUse" id="clipPath2">
        <path d="M476 175 L916 175 L916 735 L476 735 L476 175 Z"/>
      </clipPath>
    </defs>
    <g fill="url(#linearGradient1)" text-rendering="geometricPrecision" shape-rendering="geometricPrecision" transform="matrix(1,0,0,1,-476,-175)" stroke="url(#linearGradient1)">
      <rect x="510" y="190" clip-path="url(#clipPath2)" width="80" rx="20" ry="20" height="40" stroke="none"/>
    </g>
    <g text-rendering="geometricPrecision" stroke-miterlimit="1.45" stroke-width="2" shape-rendering="geometricPrecision" transform="matrix(1,0,0,1,-476,-175)" stroke-linecap="butt">
      <rect x="510" y="190" clip-path="url(#clipPath2)" fill="none" width="80" rx="20" ry="20" height="40"/>
      <text x="528.0332" y="214.7139" clip-path="url(#clipPath2)" font-family="sans-serif" stroke="none" font-weight="bold" stroke-width="1" xml:space="preserve">Начало</text>
    </g>
    <g fill="url(#linearGradient2)" text-rendering="geometricPrecision" shape-rendering="geometricPrecision" transform="matrix(1,0,0,1,-476,-175)" stroke="url(#linearGradient2)">
      <path d="M520.2 260 L590 260 L579.8 300 L510 300 Z" stroke="none" clip-path="url(#clipPath2)"/>
    </g>
    <g text-rendering="geometricPrecision" stroke-miterlimit="1.45" stroke-width="2" shape-rendering="geometricPrecision" transform="matrix(1,0,0,1,-476,-175)" stroke-linecap="butt">
      <path fill="none" d="M520.2 260 L590 260 L579.8 300 L510 300 Z" clip-path="url(#clipPath2)"/>
      <text x="532.3281" y="284.7139" clip-path="url(#clipPath2)" font-family="sans-serif" stroke="none" font-weight="bold" stroke-width="1" xml:space="preserve">status</text>
    </g>
    <g fill="url(#linearGradient3)" text-rendering="geometricPrecision" shape-rendering="geometricPrecision" transform="matrix(1,0,0,1,-476,-175)" stroke="url(#linearGradient3)">
      <path d="M520 330 L580 330 L590 340 L590 370 L510 370 L510 340 Z" stroke="none" clip-path="url(#clipPath2)"/>
    </g>
    <g text-rendering="geometricPrecision" stroke-miterlimit="1.45" stroke-width="2" shape-rendering="geometricPrecision" transform="matrix(1,0,0,1,-476,-175)" stroke-linecap="butt">
      <path fill="none" d="M520 330 L580 330 L590 340 L590 370 L510 370 L510 340 Z" clip-path="url(#clipPath2)"/>
      <text x="529.1143" y="354.7139" clip-path="url(#clipPath2)" font-family="sans-serif" stroke="none" font-weight="bold" stroke-width="1" xml:space="preserve">Цикл A</text>
    </g>
    <g fill="url(#linearGradient4)" text-rendering="geometricPrecision" shape-rendering="geometricPrecision" transform="matrix(1,0,0,1,-476,-175)" stroke="url(#linearGradient4)">
      <rect x="502" width="96" height="40" y="400" clip-path="url(#clipPath2)" stroke="none"/>
    </g>
    <g text-rendering="geometricPrecision" stroke-miterlimit="1.45" stroke-width="2" shape-rendering="geometricPrecision" transform="matrix(1,0,0,1,-476,-175)" stroke-linecap="butt">
      <rect fill="none" x="502" width="96" height="40" y="400" clip-path="url(#clipPath2)"/>
      <path fill="none" d="M512 400 L512 440 M588 400 L588 440 M512 400 Z" clip-path="url(#clipPath2)"/>
      <text x="520.9932" y="424.7139" clip-path="url(#clipPath2)" font-family="sans-serif" stroke="none" font-weight="bold" stroke-width="1" xml:space="preserve">manager()</text>
    </g>
    <g fill="url(#linearGradient5)" text-rendering="geometricPrecision" shape-rendering="geometricPrecision" transform="matrix(1,0,0,1,-476,-175)" stroke="url(#linearGradient5)">
      <path d="M502 470 L598 470 L598 505 Q574 495 550 505 Q526 515 502 505 Z" stroke="none" clip-path="url(#clipPath2)"/>
    </g>
    <g text-rendering="geometricPrecision" stroke-miterlimit="1.45" stroke-width="2" shape-rendering="geometricPrecision" transform="matrix(1,0,0,1,-476,-175)" stroke-linecap="butt">
      <path fill="none" d="M502 470 L598 470 L598 505 Q574 495 550 505 Q526 515 502 505 Z" clip-path="url(#clipPath2)"/>
      <text x="506.0078" y="494.7139" clip-path="url(#clipPath2)" font-family="sans-serif" stroke="none" font-weight="bold" stroke-width="1" xml:space="preserve">Continue? (y/n)</text>
    </g>
    <g fill="url(#linearGradient6)" text-rendering="geometricPrecision" shape-rendering="geometricPrecision" transform="matrix(1,0,0,1,-476,-175)" stroke="url(#linearGradient6)">
      <path d="M520.2 540 L590 540 L579.8 580 L510 580 Z" stroke="none" clip-path="url(#clipPath2)"/>
    </g>
    <g text-rendering="geometricPrecision" stroke-miterlimit="1.45" stroke-width="2" shape-rendering="geometricPrecision" transform="matrix(1,0,0,1,-476,-175)" stroke-linecap="butt">
      <path fill="none" d="M520.2 540 L590 540 L579.8 580 L510 580 Z" clip-path="url(#clipPath2)"/>
      <text x="532.3281" y="564.7139" clip-path="url(#clipPath2)" font-family="sans-serif" stroke="none" font-weight="bold" stroke-width="1" xml:space="preserve">status</text>
    </g>
    <g fill="url(#linearGradient7)" text-rendering="geometricPrecision" shape-rendering="geometricPrecision" transform="matrix(1,0,0,1,-476,-175)" stroke="url(#linearGradient7)">
      <path d="M491.76 610 L608.24 610 L608.24 640 L598.24 650 L501.76 650 L491.76 640 Z" stroke="none" clip-path="url(#clipPath2)"/>
    </g>
    <g text-rendering="geometricPrecision" stroke-miterlimit="1.45" stroke-width="2" shape-rendering="geometricPrecision" transform="matrix(1,0,0,1,-476,-175)" stroke-linecap="butt">
      <path fill="none" d="M491.76 610 L608.24 610 L608.24 640 L598.24 650 L501.76 650 L491.76 640 Z" clip-path="url(#clipPath2)"/>
      <text x="529.1143" y="627.3633" clip-path="url(#clipPath2)" font-family="sans-serif" stroke="none" font-weight="bold" stroke-width="1" xml:space="preserve">Цикл A</text>
      <text x="508.1348" y="642.0645" clip-path="url(#clipPath2)" font-family="sans-serif" stroke="none" font-weight="bold" stroke-width="1" xml:space="preserve">(status == 'y')?</text>
    </g>
    <g fill="url(#linearGradient8)" text-rendering="geometricPrecision" shape-rendering="geometricPrecision" transform="matrix(1,0,0,1,-476,-175)" stroke="url(#linearGradient8)">
      <rect x="510" y="680" clip-path="url(#clipPath2)" width="80" rx="20" ry="20" height="40" stroke="none"/>
    </g>
    <g text-rendering="geometricPrecision" stroke-miterlimit="1.45" stroke-width="2" shape-rendering="geometricPrecision" transform="matrix(1,0,0,1,-476,-175)" stroke-linecap="butt">
      <rect x="510" y="680" clip-path="url(#clipPath2)" fill="none" width="80" rx="20" ry="20" height="40"/>
      <text x="532.0234" y="704.7139" clip-path="url(#clipPath2)" font-family="sans-serif" stroke="none" font-weight="bold" stroke-width="1" xml:space="preserve">Конец</text>
    </g>
    <g fill="url(#linearGradient9)" text-rendering="geometricPrecision" shape-rendering="geometricPrecision" transform="matrix(1,0,0,1,-476,-175)" stroke="url(#linearGradient9)">
      <rect x="659.6" width="240.8" height="140" y="210" clip-path="url(#clipPath2)" stroke="none"/>
    </g>
    <g text-rendering="geometricPrecision" stroke-miterlimit="1.45" shape-rendering="geometricPrecision" transform="matrix(1,0,0,1,-476,-175)" stroke-linecap="butt">
      <path fill="none" d="M689.7 210 L659.6 210 L659.6 350 L689.7 350" clip-path="url(#clipPath2)"/>
      <text x="701.5635" xml:space="preserve" y="233.2598" clip-path="url(#clipPath2)" font-family="sans-serif" stroke="none">Основной цикл программы. </text>
      <text x="677.5869" xml:space="preserve" y="247.9609" clip-path="url(#clipPath2)" font-family="sans-serif" stroke="none">На каждой итерации у пользователя</text>
      <text x="709.4326" xml:space="preserve" y="262.6621" clip-path="url(#clipPath2)" font-family="sans-serif" stroke="none">запрашивается значение</text>
      <text x="711.6152" xml:space="preserve" y="277.3633" clip-path="url(#clipPath2)" font-family="sans-serif" stroke="none">переменной char status. </text>
      <text x="704.0566" xml:space="preserve" y="292.0645" clip-path="url(#clipPath2)" font-family="sans-serif" stroke="none">Если значение равно 'y', то</text>
      <text x="667.7988" xml:space="preserve" y="306.7656" clip-path="url(#clipPath2)" font-family="sans-serif" stroke="none">выполнение программы продолжается, </text>
      <text x="680.4814" xml:space="preserve" y="321.4668" clip-path="url(#clipPath2)" font-family="sans-serif" stroke="none">если же значение отличается от 'y',</text>
      <text x="668.4082" xml:space="preserve" y="336.168" clip-path="url(#clipPath2)" font-family="sans-serif" stroke="none">то программа прекращает свою работу.</text>
    </g>
    <g text-rendering="geometricPrecision" stroke-miterlimit="1.45" shape-rendering="geometricPrecision" transform="matrix(1,0,0,1,-476,-175)" stroke-linecap="butt">
      <path fill="none" d="M550 229.9951 L550 260.0273" clip-path="url(#clipPath2)"/>
    </g>
    <g text-rendering="geometricPrecision" stroke-miterlimit="1.45" shape-rendering="geometricPrecision" transform="matrix(1,0,0,1,-476,-175)" stroke-linecap="butt">
      <path fill="none" d="M550 299.9951 L550 330.0273" clip-path="url(#clipPath2)"/>
      <path fill="none" d="M550 369.9951 L550 400.0273" clip-path="url(#clipPath2)"/>
      <path fill="none" d="M550 439.9951 L550 470.0273" clip-path="url(#clipPath2)"/>
      <path fill="none" d="M550 505.0049 L550 539.9944" clip-path="url(#clipPath2)"/>
      <path fill="none" d="M550 579.9951 L550 610.0273" clip-path="url(#clipPath2)"/>
      <path fill="none" d="M550 649.9951 L550 680.0273" clip-path="url(#clipPath2)"/>
      <path fill="none" stroke-dasharray="6,2" d="M589.9902 210 L610 210 L610 283.2 L659.5972 283.2" clip-path="url(#clipPath2)"/>
    </g>
  </g>
</svg>
