<?xml version="1.0" encoding="UTF-8"?><svg xmlns="http://www.w3.org/2000/svg" xmlns:xlink="http://www.w3.org/1999/xlink" fill-opacity="1" color-rendering="auto" color-interpolation="auto" text-rendering="auto" stroke="black" stroke-linecap="square" width="315" stroke-miterlimit="10" shape-rendering="auto" stroke-opacity="1" fill="black" stroke-dasharray="none" font-weight="normal" stroke-width="1" height="441" font-family="'Dialog'" font-style="normal" stroke-linejoin="miter" font-size="12px" stroke-dashoffset="0" image-rendering="auto">
  <!--Generated by ySVG 2.6-->
  <defs id="genericDefs"/>
  <g>
    <defs id="defs1">
      <linearGradient x1="500" gradientUnits="userSpaceOnUse" x2="580" y1="106.4" y2="146.4" id="linearGradient1" spreadMethod="reflect">
        <stop stop-opacity="1" stop-color="rgb(232,238,247)" offset="0%"/>
        <stop stop-opacity="1" stop-color="rgb(183,201,227)" offset="100%"/>
      </linearGradient>
      <linearGradient x1="500" gradientUnits="userSpaceOnUse" x2="580" y1="176.4" y2="216.4" id="linearGradient2" spreadMethod="reflect">
        <stop stop-opacity="1" stop-color="rgb(232,238,247)" offset="0%"/>
        <stop stop-opacity="1" stop-color="rgb(183,201,227)" offset="100%"/>
      </linearGradient>
      <linearGradient x1="482" gradientUnits="userSpaceOnUse" x2="598" y1="321.6" y2="361.6" id="linearGradient3" spreadMethod="reflect">
        <stop stop-opacity="1" stop-color="rgb(232,238,247)" offset="0%"/>
        <stop stop-opacity="1" stop-color="rgb(183,201,227)" offset="100%"/>
      </linearGradient>
      <linearGradient x1="491" gradientUnits="userSpaceOnUse" x2="589" y1="391.6" y2="431.6" id="linearGradient4" spreadMethod="reflect">
        <stop stop-opacity="1" stop-color="rgb(232,238,247)" offset="0%"/>
        <stop stop-opacity="1" stop-color="rgb(183,201,227)" offset="100%"/>
      </linearGradient>
      <linearGradient x1="656" gradientUnits="userSpaceOnUse" x2="736" y1="461.6" y2="501.6" id="linearGradient5" spreadMethod="reflect">
        <stop stop-opacity="1" stop-color="rgb(232,238,247)" offset="0%"/>
        <stop stop-opacity="1" stop-color="rgb(183,201,227)" offset="100%"/>
      </linearGradient>
      <linearGradient x1="500" gradientUnits="userSpaceOnUse" x2="580" y1="249" y2="289" id="linearGradient6" spreadMethod="reflect">
        <stop stop-opacity="1" stop-color="rgb(232,238,247)" offset="0%"/>
        <stop stop-opacity="1" stop-color="rgb(183,201,227)" offset="100%"/>
      </linearGradient>
      <linearGradient x1="500" gradientUnits="userSpaceOnUse" x2="580" y1="456.6" y2="496.6" id="linearGradient7" spreadMethod="reflect">
        <stop stop-opacity="1" stop-color="rgb(232,238,247)" offset="0%"/>
        <stop stop-opacity="1" stop-color="rgb(183,201,227)" offset="100%"/>
      </linearGradient>
      <linearGradient x1="656" gradientUnits="userSpaceOnUse" x2="736" y1="391.6" y2="431.6" id="linearGradient8" spreadMethod="reflect">
        <stop stop-opacity="1" stop-color="rgb(232,238,247)" offset="0%"/>
        <stop stop-opacity="1" stop-color="rgb(183,201,227)" offset="100%"/>
      </linearGradient>
      <clipPath clipPathUnits="userSpaceOnUse" id="clipPath1">
        <path d="M0 0 L315 0 L315 441 L0 441 L0 0 Z"/>
      </clipPath>
      <clipPath clipPathUnits="userSpaceOnUse" id="clipPath2">
        <path d="M436 91 L751 91 L751 532 L436 532 L436 91 Z"/>
      </clipPath>
    </defs>
    <g fill="url(#linearGradient1)" text-rendering="geometricPrecision" shape-rendering="geometricPrecision" transform="matrix(1,0,0,1,-436,-91)" stroke="url(#linearGradient1)">
      <rect x="500" y="106.4" clip-path="url(#clipPath2)" width="80" rx="20" ry="20" height="40" stroke="none"/>
    </g>
    <g text-rendering="geometricPrecision" stroke-miterlimit="1.45" stroke-width="2" shape-rendering="geometricPrecision" transform="matrix(1,0,0,1,-436,-91)" stroke-linecap="butt">
      <rect x="500" y="106.4" clip-path="url(#clipPath2)" fill="none" width="80" rx="20" ry="20" height="40"/>
      <text x="518.0332" y="131.1139" clip-path="url(#clipPath2)" font-family="sans-serif" stroke="none" font-weight="bold" stroke-width="1" xml:space="preserve">Начало</text>
    </g>
    <g fill="url(#linearGradient2)" text-rendering="geometricPrecision" shape-rendering="geometricPrecision" transform="matrix(1,0,0,1,-436,-91)" stroke="url(#linearGradient2)">
      <path d="M510.2 176.4 L580 176.4 L569.8 216.4 L500 216.4 Z" stroke="none" clip-path="url(#clipPath2)"/>
    </g>
    <g text-rendering="geometricPrecision" stroke-miterlimit="1.45" stroke-width="2" shape-rendering="geometricPrecision" transform="matrix(1,0,0,1,-436,-91)" stroke-linecap="butt">
      <path fill="none" d="M510.2 176.4 L580 176.4 L569.8 216.4 L500 216.4 Z" clip-path="url(#clipPath2)"/>
      <text x="527.666" y="201.1139" clip-path="url(#clipPath2)" font-family="sans-serif" stroke="none" font-weight="bold" stroke-width="1" xml:space="preserve">m, n</text>
    </g>
    <g fill="url(#linearGradient3)" text-rendering="geometricPrecision" shape-rendering="geometricPrecision" transform="matrix(1,0,0,1,-436,-91)" stroke="url(#linearGradient3)">
      <path d="M492 321.6 L588 321.6 L598 341.6 L588 361.6 L492 361.6 L482 341.6 Z" stroke="none" clip-path="url(#clipPath2)"/>
    </g>
    <g text-rendering="geometricPrecision" stroke-miterlimit="1.45" stroke-width="2" shape-rendering="geometricPrecision" transform="matrix(1,0,0,1,-436,-91)" stroke-linecap="butt">
      <path fill="none" d="M492 321.6 L588 321.6 L598 341.6 L588 361.6 L492 361.6 L482 341.6 Z" clip-path="url(#clipPath2)"/>
      <text x="489.8086" y="346.3139" clip-path="url(#clipPath2)" font-family="sans-serif" stroke="none" font-weight="bold" stroke-width="1" xml:space="preserve">i = 0; i &lt;= n; i += 5</text>
    </g>
    <g fill="url(#linearGradient4)" text-rendering="geometricPrecision" shape-rendering="geometricPrecision" transform="matrix(1,0,0,1,-436,-91)" stroke="url(#linearGradient4)">
      <path d="M540 391.6 L589 411.6 L540 431.6 L491 411.6 Z" stroke="none" clip-path="url(#clipPath2)"/>
    </g>
    <g text-rendering="geometricPrecision" stroke-miterlimit="1.45" stroke-width="2" shape-rendering="geometricPrecision" transform="matrix(1,0,0,1,-436,-91)" stroke-linecap="butt">
      <path fill="none" d="M540 391.6 L589 411.6 L540 431.6 L491 411.6 Z" clip-path="url(#clipPath2)"/>
      <text x="512.1562" y="416.3139" clip-path="url(#clipPath2)" font-family="sans-serif" stroke="none" font-weight="bold" stroke-width="1" xml:space="preserve">i % m != 0</text>
    </g>
    <g fill="url(#linearGradient5)" text-rendering="geometricPrecision" shape-rendering="geometricPrecision" transform="matrix(1,0,0,1,-436,-91)" stroke="url(#linearGradient5)">
      <rect x="656" y="461.6" clip-path="url(#clipPath2)" width="80" rx="20" ry="20" height="40" stroke="none"/>
    </g>
    <g text-rendering="geometricPrecision" stroke-miterlimit="1.45" stroke-width="2" shape-rendering="geometricPrecision" transform="matrix(1,0,0,1,-436,-91)" stroke-linecap="butt">
      <rect x="656" y="461.6" clip-path="url(#clipPath2)" fill="none" width="80" rx="20" ry="20" height="40"/>
      <text x="678.0234" y="486.3139" clip-path="url(#clipPath2)" font-family="sans-serif" stroke="none" font-weight="bold" stroke-width="1" xml:space="preserve">Конец</text>
    </g>
    <g fill="url(#linearGradient6)" text-rendering="geometricPrecision" shape-rendering="geometricPrecision" transform="matrix(1,0,0,1,-436,-91)" stroke="url(#linearGradient6)">
      <path d="M500 249 L580 249 L580 289 L500 289 Z" stroke="none" clip-path="url(#clipPath2)"/>
    </g>
    <g text-rendering="geometricPrecision" stroke-miterlimit="1.45" stroke-width="2" shape-rendering="geometricPrecision" transform="matrix(1,0,0,1,-436,-91)" stroke-linecap="butt">
      <path fill="none" d="M500 249 L580 249 L580 289 L500 289 Z" clip-path="url(#clipPath2)"/>
      <text x="513.4863" y="273.7139" clip-path="url(#clipPath2)" font-family="sans-serif" stroke="none" font-weight="bold" stroke-width="1" xml:space="preserve">result = 0</text>
    </g>
    <g fill="url(#linearGradient7)" text-rendering="geometricPrecision" shape-rendering="geometricPrecision" transform="matrix(1,0,0,1,-436,-91)" stroke="url(#linearGradient7)">
      <path d="M500 456.6 L580 456.6 L580 496.6 L500 496.6 Z" stroke="none" clip-path="url(#clipPath2)"/>
    </g>
    <g text-rendering="geometricPrecision" stroke-miterlimit="1.45" stroke-width="2" shape-rendering="geometricPrecision" transform="matrix(1,0,0,1,-436,-91)" stroke-linecap="butt">
      <path fill="none" d="M500 456.6 L580 456.6 L580 496.6 L500 496.6 Z" clip-path="url(#clipPath2)"/>
      <text x="511.6523" y="481.3139" clip-path="url(#clipPath2)" font-family="sans-serif" stroke="none" font-weight="bold" stroke-width="1" xml:space="preserve">result += i</text>
    </g>
    <g fill="url(#linearGradient8)" text-rendering="geometricPrecision" shape-rendering="geometricPrecision" transform="matrix(1,0,0,1,-436,-91)" stroke="url(#linearGradient8)">
      <path d="M666.2 391.6 L736 391.6 L725.8 431.6 L656 431.6 Z" stroke="none" clip-path="url(#clipPath2)"/>
    </g>
    <g text-rendering="geometricPrecision" stroke-miterlimit="1.45" stroke-width="2" shape-rendering="geometricPrecision" transform="matrix(1,0,0,1,-436,-91)" stroke-linecap="butt">
      <path fill="none" d="M666.2 391.6 L736 391.6 L725.8 431.6 L656 431.6 Z" clip-path="url(#clipPath2)"/>
      <text x="679.6611" y="416.3139" clip-path="url(#clipPath2)" font-family="sans-serif" stroke="none" font-weight="bold" stroke-width="1" xml:space="preserve">result</text>
    </g>
    <g text-rendering="geometricPrecision" stroke-miterlimit="1.45" shape-rendering="geometricPrecision" transform="matrix(1,0,0,1,-436,-91)" stroke-linecap="butt">
      <path fill="none" d="M540 146.3951 L540 176.4274" clip-path="url(#clipPath2)"/>
    </g>
    <g text-rendering="geometricPrecision" stroke-miterlimit="1.45" shape-rendering="geometricPrecision" transform="matrix(1,0,0,1,-436,-91)" stroke-linecap="butt">
      <path fill="none" d="M540 361.5951 L540 391.6273" clip-path="url(#clipPath2)"/>
      <path fill="none" d="M588.9854 411.6 L614.7 411.6 L614.7 516.6 L451.5 516.6 L451.5 341.6 L473.9651 341.6" clip-path="url(#clipPath2)"/>
      <path d="M481.9651 341.6 L469.9651 336.6 L472.9651 341.6 L469.9651 346.6 Z" clip-path="url(#clipPath2)" stroke="none"/>
      <text x="618.4916" y="467.2139" clip-path="url(#clipPath2)" font-family="sans-serif" stroke="none" font-weight="bold" xml:space="preserve">Нет</text>
      <path fill="none" d="M540 216.4288 L540 249.0034" clip-path="url(#clipPath2)"/>
      <path fill="none" d="M540 289.0288 L540 321.6034" clip-path="url(#clipPath2)"/>
      <path fill="none" d="M540 431.6269 L540 448.6168" clip-path="url(#clipPath2)"/>
      <path d="M540 456.6168 L545 444.6168 L540 447.6168 L535 444.6168 Z" clip-path="url(#clipPath2)" stroke="none"/>
      <text x="515.2887" y="443.4139" clip-path="url(#clipPath2)" font-family="sans-serif" stroke="none" font-weight="bold" xml:space="preserve">Да</text>
      <path fill="none" d="M540 496.6391 L540 516.6 L451.5 516.6 L451.5 341.6 L481.9906 341.6" clip-path="url(#clipPath2)"/>
      <path fill="none" d="M598.0049 341.6 L696 341.6 L696 383.6049" clip-path="url(#clipPath2)"/>
      <path d="M696 391.6049 L701 379.6049 L696 382.6049 L691 379.6049 Z" clip-path="url(#clipPath2)" stroke="none"/>
      <path fill="none" d="M696 431.5951 L696 461.6273" clip-path="url(#clipPath2)"/>
    </g>
  </g>
</svg>
