<?xml version="1.0" encoding="UTF-8"?><svg xmlns="http://www.w3.org/2000/svg" xmlns:xlink="http://www.w3.org/1999/xlink" fill-opacity="1" color-rendering="auto" color-interpolation="auto" text-rendering="auto" stroke="black" stroke-linecap="square" width="743" stroke-miterlimit="10" shape-rendering="auto" stroke-opacity="1" fill="black" stroke-dasharray="none" font-weight="normal" stroke-width="1" height="755" font-family="'Dialog'" font-style="normal" stroke-linejoin="miter" font-size="12px" stroke-dashoffset="0" image-rendering="auto">
  <!--Generated by ySVG 2.6-->
  <defs id="genericDefs"/>
  <g>
    <defs id="defs1">
      <linearGradient x1="469.525" gradientUnits="userSpaceOnUse" x2="549.525" y1="135.2" y2="175.2" id="linearGradient1" spreadMethod="reflect">
        <stop stop-opacity="1" stop-color="rgb(232,238,247)" offset="0%"/>
        <stop stop-opacity="1" stop-color="rgb(183,201,227)" offset="100%"/>
      </linearGradient>
      <linearGradient x1="421.6" gradientUnits="userSpaceOnUse" x2="597.45" y1="200" y2="255.2" id="linearGradient2" spreadMethod="reflect">
        <stop stop-opacity="1" stop-color="rgb(232,238,247)" offset="0%"/>
        <stop stop-opacity="1" stop-color="rgb(183,201,227)" offset="100%"/>
      </linearGradient>
      <linearGradient x1="469.525" gradientUnits="userSpaceOnUse" x2="549.525" y1="280" y2="320" id="linearGradient3" spreadMethod="reflect">
        <stop stop-opacity="1" stop-color="rgb(232,238,247)" offset="0%"/>
        <stop stop-opacity="1" stop-color="rgb(183,201,227)" offset="100%"/>
      </linearGradient>
      <linearGradient x1="451.125" gradientUnits="userSpaceOnUse" x2="567.925" y1="344.8" y2="400" id="linearGradient4" spreadMethod="reflect">
        <stop stop-opacity="1" stop-color="rgb(232,238,247)" offset="0%"/>
        <stop stop-opacity="1" stop-color="rgb(183,201,227)" offset="100%"/>
      </linearGradient>
      <linearGradient x1="547.35" gradientUnits="userSpaceOnUse" x2="712.95" y1="430" y2="470" id="linearGradient5" spreadMethod="reflect">
        <stop stop-opacity="1" stop-color="rgb(232,238,247)" offset="0%"/>
        <stop stop-opacity="1" stop-color="rgb(183,201,227)" offset="100%"/>
      </linearGradient>
      <linearGradient x1="190.625" gradientUnits="userSpaceOnUse" x2="289.375" y1="419.44" y2="474.64" id="linearGradient6" spreadMethod="reflect">
        <stop stop-opacity="1" stop-color="rgb(232,238,247)" offset="0%"/>
        <stop stop-opacity="1" stop-color="rgb(183,201,227)" offset="100%"/>
      </linearGradient>
      <linearGradient x1="310.7" gradientUnits="userSpaceOnUse" x2="427.5" y1="419.44" y2="459.44" id="linearGradient7" spreadMethod="reflect">
        <stop stop-opacity="1" stop-color="rgb(232,238,247)" offset="0%"/>
        <stop stop-opacity="1" stop-color="rgb(183,201,227)" offset="100%"/>
      </linearGradient>
      <linearGradient x1="749.9977" gradientUnits="userSpaceOnUse" x2="883.2477" y1="419.44" y2="459.44" id="linearGradient8" spreadMethod="reflect">
        <stop stop-opacity="1" stop-color="rgb(232,238,247)" offset="0%"/>
        <stop stop-opacity="1" stop-color="rgb(183,201,227)" offset="100%"/>
      </linearGradient>
      <linearGradient x1="200" gradientUnits="userSpaceOnUse" x2="280" y1="504.64" y2="544.64" id="linearGradient9" spreadMethod="reflect">
        <stop stop-opacity="1" stop-color="rgb(232,238,247)" offset="0%"/>
        <stop stop-opacity="1" stop-color="rgb(183,201,227)" offset="100%"/>
      </linearGradient>
      <linearGradient x1="329.1" gradientUnits="userSpaceOnUse" x2="409.1" y1="489.44" y2="529.44" id="linearGradient10" spreadMethod="reflect">
        <stop stop-opacity="1" stop-color="rgb(232,238,247)" offset="0%"/>
        <stop stop-opacity="1" stop-color="rgb(183,201,227)" offset="100%"/>
      </linearGradient>
      <linearGradient x1="776.6227" gradientUnits="userSpaceOnUse" x2="856.6227" y1="490" y2="530" id="linearGradient11" spreadMethod="reflect">
        <stop stop-opacity="1" stop-color="rgb(232,238,247)" offset="0%"/>
        <stop stop-opacity="1" stop-color="rgb(183,201,227)" offset="100%"/>
      </linearGradient>
      <linearGradient x1="190.9375" gradientUnits="userSpaceOnUse" x2="289.0625" y1="574.64" y2="614.64" id="linearGradient12" spreadMethod="reflect">
        <stop stop-opacity="1" stop-color="rgb(232,238,247)" offset="0%"/>
        <stop stop-opacity="1" stop-color="rgb(183,201,227)" offset="100%"/>
      </linearGradient>
      <linearGradient x1="187.5" gradientUnits="userSpaceOnUse" x2="292.5" y1="644.64" y2="699.84" id="linearGradient13" spreadMethod="reflect">
        <stop stop-opacity="1" stop-color="rgb(232,238,247)" offset="0%"/>
        <stop stop-opacity="1" stop-color="rgb(183,201,227)" offset="100%"/>
      </linearGradient>
      <linearGradient x1="322.85" gradientUnits="userSpaceOnUse" x2="415.35" y1="559.44" y2="599.44" id="linearGradient14" spreadMethod="reflect">
        <stop stop-opacity="1" stop-color="rgb(232,238,247)" offset="0%"/>
        <stop stop-opacity="1" stop-color="rgb(183,201,227)" offset="100%"/>
      </linearGradient>
      <linearGradient x1="316.6" gradientUnits="userSpaceOnUse" x2="421.6" y1="629.44" y2="684.64" id="linearGradient15" spreadMethod="reflect">
        <stop stop-opacity="1" stop-color="rgb(232,238,247)" offset="0%"/>
        <stop stop-opacity="1" stop-color="rgb(183,201,227)" offset="100%"/>
      </linearGradient>
      <linearGradient x1="577.5" gradientUnits="userSpaceOnUse" x2="682.5" y1="500" y2="555.2" id="linearGradient16" spreadMethod="reflect">
        <stop stop-opacity="1" stop-color="rgb(232,238,247)" offset="0%"/>
        <stop stop-opacity="1" stop-color="rgb(183,201,227)" offset="100%"/>
      </linearGradient>
      <linearGradient x1="733.8227" gradientUnits="userSpaceOnUse" x2="899.4227" y1="559.44" y2="599.44" id="linearGradient17" spreadMethod="reflect">
        <stop stop-opacity="1" stop-color="rgb(232,238,247)" offset="0%"/>
        <stop stop-opacity="1" stop-color="rgb(183,201,227)" offset="100%"/>
      </linearGradient>
      <linearGradient x1="764.1227" gradientUnits="userSpaceOnUse" x2="869.1227" y1="629.44" y2="684.64" id="linearGradient18" spreadMethod="reflect">
        <stop stop-opacity="1" stop-color="rgb(232,238,247)" offset="0%"/>
        <stop stop-opacity="1" stop-color="rgb(183,201,227)" offset="100%"/>
      </linearGradient>
      <linearGradient x1="446.025" gradientUnits="userSpaceOnUse" x2="573.025" y1="700" y2="764" id="linearGradient19" spreadMethod="reflect">
        <stop stop-opacity="1" stop-color="rgb(232,238,247)" offset="0%"/>
        <stop stop-opacity="1" stop-color="rgb(183,201,227)" offset="100%"/>
      </linearGradient>
      <linearGradient x1="469.525" gradientUnits="userSpaceOnUse" x2="549.525" y1="820" y2="860" id="linearGradient20" spreadMethod="reflect">
        <stop stop-opacity="1" stop-color="rgb(232,238,247)" offset="0%"/>
        <stop stop-opacity="1" stop-color="rgb(183,201,227)" offset="100%"/>
      </linearGradient>
      <clipPath clipPathUnits="userSpaceOnUse" id="clipPath1">
        <path d="M0 0 L743 0 L743 755 L0 755 L0 0 Z"/>
      </clipPath>
      <clipPath clipPathUnits="userSpaceOnUse" id="clipPath2">
        <path d="M172 120 L915 120 L915 875 L172 875 L172 120 Z"/>
      </clipPath>
    </defs>
    <g fill="url(#linearGradient1)" text-rendering="geometricPrecision" shape-rendering="geometricPrecision" transform="matrix(1,0,0,1,-172,-120)" stroke="url(#linearGradient1)">
      <rect x="469.525" y="135.2" clip-path="url(#clipPath2)" width="80" rx="20" ry="20" height="40" stroke="none"/>
    </g>
    <g text-rendering="geometricPrecision" stroke-miterlimit="1.45" stroke-width="2" shape-rendering="geometricPrecision" transform="matrix(1,0,0,1,-172,-120)" stroke-linecap="butt">
      <rect x="469.525" y="135.2" clip-path="url(#clipPath2)" fill="none" width="80" rx="20" ry="20" height="40"/>
      <text x="487.5582" y="159.9139" clip-path="url(#clipPath2)" font-family="sans-serif" stroke="none" font-weight="bold" stroke-width="1" xml:space="preserve">Начало</text>
    </g>
    <g fill="url(#linearGradient2)" text-rendering="geometricPrecision" shape-rendering="geometricPrecision" transform="matrix(1,0,0,1,-172,-120)" stroke="url(#linearGradient2)">
      <path d="M421.6 200 L597.45 200 L597.45 248.3 Q553.4875 234.5 509.525 248.3 Q465.5625 262.1 421.6 248.3 Z" stroke="none" clip-path="url(#clipPath2)"/>
    </g>
    <g text-rendering="geometricPrecision" stroke-miterlimit="1.45" stroke-width="2" shape-rendering="geometricPrecision" transform="matrix(1,0,0,1,-172,-120)" stroke-linecap="butt">
      <path fill="none" d="M421.6 200 L597.45 200 L597.45 248.3 Q553.4875 234.5 509.525 248.3 Q465.5625 262.1 421.6 248.3 Z" clip-path="url(#clipPath2)"/>
      <text x="440.0269" y="224.9633" clip-path="url(#clipPath2)" font-family="sans-serif" stroke="none" font-weight="bold" stroke-width="1" xml:space="preserve">Введите номер задачи,</text>
      <text x="429.0201" y="239.6645" clip-path="url(#clipPath2)" font-family="sans-serif" stroke="none" font-weight="bold" stroke-width="1" xml:space="preserve">которую хотите запустить:</text>
    </g>
    <g fill="url(#linearGradient3)" text-rendering="geometricPrecision" shape-rendering="geometricPrecision" transform="matrix(1,0,0,1,-172,-120)" stroke="url(#linearGradient3)">
      <path d="M479.725 280 L549.525 280 L539.325 320 L469.525 320 Z" stroke="none" clip-path="url(#clipPath2)"/>
    </g>
    <g text-rendering="geometricPrecision" stroke-miterlimit="1.45" stroke-width="2" shape-rendering="geometricPrecision" transform="matrix(1,0,0,1,-172,-120)" stroke-linecap="butt">
      <path fill="none" d="M479.725 280 L549.525 280 L539.325 320 L469.525 320 Z" clip-path="url(#clipPath2)"/>
      <text x="488.5191" y="304.7139" clip-path="url(#clipPath2)" font-family="sans-serif" stroke="none" font-weight="bold" stroke-width="1" xml:space="preserve">choose</text>
    </g>
    <g fill="url(#linearGradient4)" text-rendering="geometricPrecision" shape-rendering="geometricPrecision" transform="matrix(1,0,0,1,-172,-120)" stroke="url(#linearGradient4)">
      <path d="M509.525 344.8 L567.925 372.4 L509.525 400 L451.125 372.4 Z" stroke="none" clip-path="url(#clipPath2)"/>
    </g>
    <g text-rendering="geometricPrecision" stroke-miterlimit="1.45" stroke-width="2" shape-rendering="geometricPrecision" transform="matrix(1,0,0,1,-172,-120)" stroke-linecap="butt">
      <path fill="none" d="M509.525 344.8 L567.925 372.4 L509.525 400 L451.125 372.4 Z" clip-path="url(#clipPath2)"/>
      <text x="488.5191" y="377.1139" clip-path="url(#clipPath2)" font-family="sans-serif" stroke="none" font-weight="bold" stroke-width="1" xml:space="preserve">choose</text>
    </g>
    <g fill="url(#linearGradient5)" text-rendering="geometricPrecision" shape-rendering="geometricPrecision" transform="matrix(1,0,0,1,-172,-120)" stroke="url(#linearGradient5)">
      <rect x="547.35" width="165.6" height="40" y="430" clip-path="url(#clipPath2)" stroke="none"/>
    </g>
    <g text-rendering="geometricPrecision" stroke-miterlimit="1.45" stroke-width="2" shape-rendering="geometricPrecision" transform="matrix(1,0,0,1,-172,-120)" stroke-linecap="butt">
      <rect fill="none" x="547.35" width="165.6" height="40" y="430" clip-path="url(#clipPath2)"/>
      <path fill="none" d="M557.35 430 L557.35 470 M702.95 430 L702.95 470 M557.35 430 Z" clip-path="url(#clipPath2)"/>
      <text x="562.1198" y="454.7139" clip-path="url(#clipPath2)" font-family="sans-serif" stroke="none" font-weight="bold" stroke-width="1" xml:space="preserve">series_sum(EPS, STEP)</text>
    </g>
    <g fill="url(#linearGradient6)" text-rendering="geometricPrecision" shape-rendering="geometricPrecision" transform="matrix(1,0,0,1,-172,-120)" stroke="url(#linearGradient6)">
      <path d="M190.625 419.44 L289.375 419.44 L289.375 467.74 Q264.6875 453.94 240 467.74 Q215.3125 481.54 190.625 467.74 Z" stroke="none" clip-path="url(#clipPath2)"/>
    </g>
    <g text-rendering="geometricPrecision" stroke-miterlimit="1.45" stroke-width="2" shape-rendering="geometricPrecision" transform="matrix(1,0,0,1,-172,-120)" stroke-linecap="butt">
      <path fill="none" d="M190.625 419.44 L289.375 419.44 L289.375 467.74 Q264.6875 453.94 240 467.74 Q215.3125 481.54 190.625 467.74 Z" clip-path="url(#clipPath2)"/>
      <text x="195.5449" y="444.4033" clip-path="url(#clipPath2)" font-family="sans-serif" stroke="none" font-weight="bold" stroke-width="1" xml:space="preserve">Введите числа</text>
      <text x="221.9795" y="459.1045" clip-path="url(#clipPath2)" font-family="sans-serif" stroke="none" font-weight="bold" stroke-width="1" xml:space="preserve">n и m:</text>
    </g>
    <g fill="url(#linearGradient7)" text-rendering="geometricPrecision" shape-rendering="geometricPrecision" transform="matrix(1,0,0,1,-172,-120)" stroke="url(#linearGradient7)">
      <path d="M310.7 419.44 L427.5 419.44 L427.5 454.44 Q398.3 444.44 369.1 454.44 Q339.9 464.44 310.7 454.44 Z" stroke="none" clip-path="url(#clipPath2)"/>
    </g>
    <g text-rendering="geometricPrecision" stroke-miterlimit="1.45" stroke-width="2" shape-rendering="geometricPrecision" transform="matrix(1,0,0,1,-172,-120)" stroke-linecap="butt">
      <path fill="none" d="M310.7 419.44 L427.5 419.44 L427.5 454.44 Q398.3 444.44 369.1 454.44 Q339.9 464.44 310.7 454.44 Z" clip-path="url(#clipPath2)"/>
      <text x="317.3148" y="444.1539" clip-path="url(#clipPath2)" font-family="sans-serif" stroke="none" font-weight="bold" stroke-width="1" xml:space="preserve">Введите число a:</text>
    </g>
    <g fill="url(#linearGradient8)" text-rendering="geometricPrecision" shape-rendering="geometricPrecision" transform="matrix(1,0,0,1,-172,-120)" stroke="url(#linearGradient8)">
      <path d="M749.9977 419.44 L883.2477 419.44 L883.2477 454.44 Q849.9352 444.44 816.6227 454.44 Q783.3102 464.44 749.9977 454.44 Z" stroke="none" clip-path="url(#clipPath2)"/>
    </g>
    <g text-rendering="geometricPrecision" stroke-miterlimit="1.45" stroke-width="2" shape-rendering="geometricPrecision" transform="matrix(1,0,0,1,-172,-120)" stroke-linecap="butt">
      <path fill="none" d="M749.9977 419.44 L883.2477 419.44 L883.2477 454.44 Q849.9352 444.44 816.6227 454.44 Q783.3102 464.44 749.9977 454.44 Z" clip-path="url(#clipPath2)"/>
      <text x="755.4099" y="444.1539" clip-path="url(#clipPath2)" font-family="sans-serif" stroke="none" font-weight="bold" stroke-width="1" xml:space="preserve">Введите значениe x:</text>
    </g>
    <g fill="url(#linearGradient9)" text-rendering="geometricPrecision" shape-rendering="geometricPrecision" transform="matrix(1,0,0,1,-172,-120)" stroke="url(#linearGradient9)">
      <path d="M210.2 504.64 L280 504.64 L269.8 544.64 L200 544.64 Z" stroke="none" clip-path="url(#clipPath2)"/>
    </g>
    <g text-rendering="geometricPrecision" stroke-miterlimit="1.45" stroke-width="2" shape-rendering="geometricPrecision" transform="matrix(1,0,0,1,-172,-120)" stroke-linecap="butt">
      <path fill="none" d="M210.2 504.64 L280 504.64 L269.8 544.64 L200 544.64 Z" clip-path="url(#clipPath2)"/>
      <text x="227.666" y="529.3539" clip-path="url(#clipPath2)" font-family="sans-serif" stroke="none" font-weight="bold" stroke-width="1" xml:space="preserve">m, n</text>
    </g>
    <g fill="url(#linearGradient10)" text-rendering="geometricPrecision" shape-rendering="geometricPrecision" transform="matrix(1,0,0,1,-172,-120)" stroke="url(#linearGradient10)">
      <path d="M339.3 489.44 L409.1 489.44 L398.9 529.44 L329.1 529.44 Z" stroke="none" clip-path="url(#clipPath2)"/>
    </g>
    <g text-rendering="geometricPrecision" stroke-miterlimit="1.45" stroke-width="2" shape-rendering="geometricPrecision" transform="matrix(1,0,0,1,-172,-120)" stroke-linecap="butt">
      <path fill="none" d="M339.3 489.44 L409.1 489.44 L398.9 529.44 L329.1 529.44 Z" clip-path="url(#clipPath2)"/>
      <text x="365.7631" y="514.1539" clip-path="url(#clipPath2)" font-family="sans-serif" stroke="none" font-weight="bold" stroke-width="1" xml:space="preserve">a</text>
    </g>
    <g fill="url(#linearGradient11)" text-rendering="geometricPrecision" shape-rendering="geometricPrecision" transform="matrix(1,0,0,1,-172,-120)" stroke="url(#linearGradient11)">
      <path d="M786.8227 490 L856.6227 490 L846.4227 530 L776.6227 530 Z" stroke="none" clip-path="url(#clipPath2)"/>
    </g>
    <g text-rendering="geometricPrecision" stroke-miterlimit="1.45" stroke-width="2" shape-rendering="geometricPrecision" transform="matrix(1,0,0,1,-172,-120)" stroke-linecap="butt">
      <path fill="none" d="M786.8227 490 L856.6227 490 L846.4227 530 L776.6227 530 Z" clip-path="url(#clipPath2)"/>
      <text x="813.2858" y="514.7139" clip-path="url(#clipPath2)" font-family="sans-serif" stroke="none" font-weight="bold" stroke-width="1" xml:space="preserve">x</text>
    </g>
    <g fill="url(#linearGradient12)" text-rendering="geometricPrecision" shape-rendering="geometricPrecision" transform="matrix(1,0,0,1,-172,-120)" stroke="url(#linearGradient12)">
      <rect x="190.9375" width="98.125" height="40" y="574.64" clip-path="url(#clipPath2)" stroke="none"/>
    </g>
    <g text-rendering="geometricPrecision" stroke-miterlimit="1.45" stroke-width="2" shape-rendering="geometricPrecision" transform="matrix(1,0,0,1,-172,-120)" stroke-linecap="butt">
      <rect fill="none" x="190.9375" width="98.125" height="40" y="574.64" clip-path="url(#clipPath2)"/>
      <path fill="none" d="M200.9375 574.64 L200.9375 614.64 M279.0625 574.64 L279.0625 614.64 M200.9375 574.64 Z" clip-path="url(#clipPath2)"/>
      <text x="205.998" y="599.3539" clip-path="url(#clipPath2)" font-family="sans-serif" stroke="none" font-weight="bold" stroke-width="1" xml:space="preserve">summ(n, m)</text>
    </g>
    <g fill="url(#linearGradient13)" text-rendering="geometricPrecision" shape-rendering="geometricPrecision" transform="matrix(1,0,0,1,-172,-120)" stroke="url(#linearGradient13)">
      <path d="M187.5 644.64 L292.5 644.64 L292.5 692.94 Q266.25 679.14 240 692.94 Q213.75 706.74 187.5 692.94 Z" stroke="none" clip-path="url(#clipPath2)"/>
    </g>
    <g text-rendering="geometricPrecision" stroke-miterlimit="1.45" stroke-width="2" shape-rendering="geometricPrecision" transform="matrix(1,0,0,1,-172,-120)" stroke-linecap="butt">
      <path fill="none" d="M187.5 644.64 L292.5 644.64 L292.5 692.94 Q266.25 679.14 240 692.94 Q213.75 706.74 187.5 692.94 Z" clip-path="url(#clipPath2)"/>
      <text x="191.3467" y="669.6033" clip-path="url(#clipPath2)" font-family="sans-serif" stroke="none" font-weight="bold" stroke-width="1" xml:space="preserve">Задача успешно</text>
      <text x="215.7012" y="684.3044" clip-path="url(#clipPath2)" font-family="sans-serif" stroke="none" font-weight="bold" stroke-width="1" xml:space="preserve">решена!</text>
    </g>
    <g fill="url(#linearGradient14)" text-rendering="geometricPrecision" shape-rendering="geometricPrecision" transform="matrix(1,0,0,1,-172,-120)" stroke="url(#linearGradient14)">
      <rect x="322.85" width="92.5" height="40" y="559.44" clip-path="url(#clipPath2)" stroke="none"/>
    </g>
    <g text-rendering="geometricPrecision" stroke-miterlimit="1.45" stroke-width="2" shape-rendering="geometricPrecision" transform="matrix(1,0,0,1,-172,-120)" stroke-linecap="butt">
      <rect fill="none" x="322.85" width="92.5" height="40" y="559.44" clip-path="url(#clipPath2)"/>
      <path fill="none" d="M332.85 559.44 L332.85 599.44 M405.35 559.44 L405.35 599.44 M332.85 559.44 Z" clip-path="url(#clipPath2)"/>
      <text x="338.766" y="584.1539" clip-path="url(#clipPath2)" font-family="sans-serif" stroke="none" font-weight="bold" stroke-width="1" xml:space="preserve">multiply(a)</text>
    </g>
    <g fill="url(#linearGradient15)" text-rendering="geometricPrecision" shape-rendering="geometricPrecision" transform="matrix(1,0,0,1,-172,-120)" stroke="url(#linearGradient15)">
      <path d="M316.6 629.44 L421.6 629.44 L421.6 677.74 Q395.35 663.94 369.1 677.74 Q342.85 691.54 316.6 677.74 Z" stroke="none" clip-path="url(#clipPath2)"/>
    </g>
    <g text-rendering="geometricPrecision" stroke-miterlimit="1.45" stroke-width="2" shape-rendering="geometricPrecision" transform="matrix(1,0,0,1,-172,-120)" stroke-linecap="butt">
      <path fill="none" d="M316.6 629.44 L421.6 629.44 L421.6 677.74 Q395.35 663.94 369.1 677.74 Q342.85 691.54 316.6 677.74 Z" clip-path="url(#clipPath2)"/>
      <text x="320.4467" y="654.4033" clip-path="url(#clipPath2)" font-family="sans-serif" stroke="none" font-weight="bold" stroke-width="1" xml:space="preserve">Задача успешно</text>
      <text x="344.8012" y="669.1044" clip-path="url(#clipPath2)" font-family="sans-serif" stroke="none" font-weight="bold" stroke-width="1" xml:space="preserve">решена!</text>
    </g>
    <g fill="url(#linearGradient16)" text-rendering="geometricPrecision" shape-rendering="geometricPrecision" transform="matrix(1,0,0,1,-172,-120)" stroke="url(#linearGradient16)">
      <path d="M577.5 500 L682.5 500 L682.5 548.3 Q656.25 534.5 630 548.3 Q603.75 562.1 577.5 548.3 Z" stroke="none" clip-path="url(#clipPath2)"/>
    </g>
    <g text-rendering="geometricPrecision" stroke-miterlimit="1.45" stroke-width="2" shape-rendering="geometricPrecision" transform="matrix(1,0,0,1,-172,-120)" stroke-linecap="butt">
      <path fill="none" d="M577.5 500 L682.5 500 L682.5 548.3 Q656.25 534.5 630 548.3 Q603.75 562.1 577.5 548.3 Z" clip-path="url(#clipPath2)"/>
      <text x="581.3467" y="524.9633" clip-path="url(#clipPath2)" font-family="sans-serif" stroke="none" font-weight="bold" stroke-width="1" xml:space="preserve">Задача успешно</text>
      <text x="605.7012" y="539.6644" clip-path="url(#clipPath2)" font-family="sans-serif" stroke="none" font-weight="bold" stroke-width="1" xml:space="preserve">решена!</text>
    </g>
    <g fill="url(#linearGradient17)" text-rendering="geometricPrecision" shape-rendering="geometricPrecision" transform="matrix(1,0,0,1,-172,-120)" stroke="url(#linearGradient17)">
      <rect x="733.8227" width="165.6" height="40" y="559.44" clip-path="url(#clipPath2)" stroke="none"/>
    </g>
    <g text-rendering="geometricPrecision" stroke-miterlimit="1.45" stroke-width="2" shape-rendering="geometricPrecision" transform="matrix(1,0,0,1,-172,-120)" stroke-linecap="butt">
      <rect fill="none" x="733.8227" width="165.6" height="40" y="559.44" clip-path="url(#clipPath2)"/>
      <path fill="none" d="M743.8227 559.44 L743.8227 599.44 M889.4227 559.44 L889.4227 599.44 M743.8227 559.44 Z" clip-path="url(#clipPath2)"/>
      <text x="748.9382" y="584.1539" clip-path="url(#clipPath2)" font-family="sans-serif" stroke="none" font-weight="bold" stroke-width="1" xml:space="preserve">sum_count_manager(x)</text>
    </g>
    <g fill="url(#linearGradient18)" text-rendering="geometricPrecision" shape-rendering="geometricPrecision" transform="matrix(1,0,0,1,-172,-120)" stroke="url(#linearGradient18)">
      <path d="M764.1227 629.44 L869.1227 629.44 L869.1227 677.74 Q842.8727 663.94 816.6227 677.74 Q790.3727 691.54 764.1227 677.74 Z" stroke="none" clip-path="url(#clipPath2)"/>
    </g>
    <g text-rendering="geometricPrecision" stroke-miterlimit="1.45" stroke-width="2" shape-rendering="geometricPrecision" transform="matrix(1,0,0,1,-172,-120)" stroke-linecap="butt">
      <path fill="none" d="M764.1227 629.44 L869.1227 629.44 L869.1227 677.74 Q842.8727 663.94 816.6227 677.74 Q790.3727 691.54 764.1227 677.74 Z" clip-path="url(#clipPath2)"/>
      <text x="767.9694" y="654.4033" clip-path="url(#clipPath2)" font-family="sans-serif" stroke="none" font-weight="bold" stroke-width="1" xml:space="preserve">Задача успешно</text>
      <text x="792.3239" y="669.1044" clip-path="url(#clipPath2)" font-family="sans-serif" stroke="none" font-weight="bold" stroke-width="1" xml:space="preserve">решена!</text>
    </g>
    <g fill="url(#linearGradient19)" text-rendering="geometricPrecision" shape-rendering="geometricPrecision" transform="matrix(1,0,0,1,-172,-120)" stroke="url(#linearGradient19)">
      <path d="M446.025 700 L573.025 700 L573.025 756 Q541.275 740 509.525 756 Q477.775 772 446.025 756 Z" stroke="none" clip-path="url(#clipPath2)"/>
    </g>
    <g text-rendering="geometricPrecision" stroke-miterlimit="1.45" stroke-width="2" shape-rendering="geometricPrecision" transform="matrix(1,0,0,1,-172,-120)" stroke-linecap="butt">
      <path fill="none" d="M446.025 700 L573.025 700 L573.025 756 Q541.275 740 509.525 756 Q477.775 772 446.025 756 Z" clip-path="url(#clipPath2)"/>
      <text x="452.1002" y="722.0127" clip-path="url(#clipPath2)" font-family="sans-serif" stroke="none" font-weight="bold" stroke-width="1" xml:space="preserve">Неверный формат </text>
      <text x="488.0035" y="736.7139" clip-path="url(#clipPath2)" font-family="sans-serif" stroke="none" font-weight="bold" stroke-width="1" xml:space="preserve">ввода. </text>
      <text x="461.109" y="751.415" clip-path="url(#clipPath2)" font-family="sans-serif" stroke="none" font-weight="bold" stroke-width="1" xml:space="preserve">Повторите ввод</text>
    </g>
    <g fill="url(#linearGradient20)" text-rendering="geometricPrecision" shape-rendering="geometricPrecision" transform="matrix(1,0,0,1,-172,-120)" stroke="url(#linearGradient20)">
      <rect x="469.525" y="820" clip-path="url(#clipPath2)" width="80" rx="20" ry="20" height="40" stroke="none"/>
    </g>
    <g text-rendering="geometricPrecision" stroke-miterlimit="1.45" stroke-width="2" shape-rendering="geometricPrecision" transform="matrix(1,0,0,1,-172,-120)" stroke-linecap="butt">
      <rect x="469.525" y="820" clip-path="url(#clipPath2)" fill="none" width="80" rx="20" ry="20" height="40"/>
      <text x="491.5484" y="844.7139" clip-path="url(#clipPath2)" font-family="sans-serif" stroke="none" font-weight="bold" stroke-width="1" xml:space="preserve">Конец</text>
    </g>
    <g text-rendering="geometricPrecision" stroke-miterlimit="1.45" shape-rendering="geometricPrecision" transform="matrix(1,0,0,1,-172,-120)" stroke-linecap="butt">
      <path fill="none" d="M509.525 175.1736 L509.525 199.9789" clip-path="url(#clipPath2)"/>
    </g>
    <g text-rendering="geometricPrecision" stroke-miterlimit="1.45" shape-rendering="geometricPrecision" transform="matrix(1,0,0,1,-172,-120)" stroke-linecap="butt">
      <path fill="none" d="M509.525 248.2807 L509.525 280.0244" clip-path="url(#clipPath2)"/>
      <path fill="none" d="M509.525 319.9736 L509.525 336.2 L509.525 336.2 L509.525 344.7904" clip-path="url(#clipPath2)"/>
      <path fill="none" d="M567.9233 372.4 L630.15 372.4 L630.15 422.0316" clip-path="url(#clipPath2)"/>
      <path d="M630.15 430.0316 L635.15 418.0316 L630.15 421.0316 L625.15 418.0316 Z" clip-path="url(#clipPath2)" stroke="none"/>
      <text x="615.6204" y="403.7015" clip-path="url(#clipPath2)" font-family="sans-serif" stroke="none" font-weight="bold" xml:space="preserve">3</text>
      <path fill="none" d="M451.1257 372.4 L240 372.4 L240 411.4509" clip-path="url(#clipPath2)"/>
      <path d="M240 419.4509 L245 407.4509 L240 410.4509 L235 407.4509 Z" clip-path="url(#clipPath2)" stroke="none"/>
      <text x="249.9121" y="398.4771" clip-path="url(#clipPath2)" font-family="sans-serif" stroke="none" font-weight="bold" xml:space="preserve">1</text>
      <path fill="none" d="M451.1403 372.4 L369.1 372.4 L369.1 411.4393" clip-path="url(#clipPath2)"/>
      <path d="M369.1 419.4393 L374.1 407.4393 L369.1 410.4393 L364.1 407.4393 Z" clip-path="url(#clipPath2)" stroke="none"/>
      <text x="377.91" y="399.7832" clip-path="url(#clipPath2)" font-family="sans-serif" stroke="none" font-weight="bold" xml:space="preserve">2</text>
      <path fill="none" d="M567.8931 372.4 L816.6227 372.4 L816.6227 411.4393" clip-path="url(#clipPath2)"/>
      <path d="M816.6227 419.4393 L821.6227 407.4393 L816.6227 410.4393 L811.6227 407.4393 Z" clip-path="url(#clipPath2)" stroke="none"/>
      <text x="799.7806" y="399.7832" clip-path="url(#clipPath2)" font-family="sans-serif" stroke="none" font-weight="bold" xml:space="preserve">4</text>
      <path fill="none" d="M240 467.7662 L240 504.6175" clip-path="url(#clipPath2)"/>
      <path fill="none" d="M369.1 454.4449 L369.1 489.4344" clip-path="url(#clipPath2)"/>
      <path fill="none" d="M816.6227 454.4271 L816.6227 490.0013" clip-path="url(#clipPath2)"/>
      <path fill="none" d="M240 544.6351 L240 574.6674" clip-path="url(#clipPath2)"/>
      <path fill="none" d="M240 614.6083 L240 644.6342" clip-path="url(#clipPath2)"/>
      <path fill="none" d="M369.1 529.4351 L369.1 559.4673" clip-path="url(#clipPath2)"/>
      <path fill="none" d="M369.1 529.4351 L369.1 559.4673" clip-path="url(#clipPath2)"/>
      <path fill="none" d="M369.1 599.4084 L369.1 629.4342" clip-path="url(#clipPath2)"/>
      <path fill="none" d="M630.15 469.9684 L630.15 488.8 L630 488.8 L630 499.9777" clip-path="url(#clipPath2)"/>
      <path fill="none" d="M816.6227 529.9708 L816.6227 559.488" clip-path="url(#clipPath2)"/>
      <path fill="none" d="M816.6227 599.4084 L816.6227 629.4342" clip-path="url(#clipPath2)"/>
      <path fill="none" d="M509.525 400.0109 L509.525 552.2 L509.525 552.2 L509.525 691.9995" clip-path="url(#clipPath2)"/>
      <path d="M509.525 699.9995 L514.525 687.9995 L509.525 690.9995 L504.525 687.9995 Z" clip-path="url(#clipPath2)" stroke="none"/>
      <text x="463.4558" y="583.9435" clip-path="url(#clipPath2)" font-family="sans-serif" stroke="none" font-weight="bold" xml:space="preserve">default</text>
      <path fill="none" d="M509.525 756.0205 L509.525 820.0303" clip-path="url(#clipPath2)"/>
      <path fill="none" d="M240 692.9242 L240 810 L509.525 810 L509.525 819.9902" clip-path="url(#clipPath2)"/>
      <path fill="none" d="M369.1 677.7658 L369.1 810 L509.525 810 L509.525 819.9902" clip-path="url(#clipPath2)"/>
      <path fill="none" d="M816.6227 677.7658 L816.6227 810 L509.525 810 L509.525 819.9711" clip-path="url(#clipPath2)"/>
      <path fill="none" d="M630 548.3181 L630 810 L509.525 810 L509.525 819.9902" clip-path="url(#clipPath2)"/>
    </g>
  </g>
</svg>
