<?xml version="1.0" encoding="UTF-8"?><svg xmlns="http://www.w3.org/2000/svg" xmlns:xlink="http://www.w3.org/1999/xlink" fill-opacity="1" color-rendering="auto" color-interpolation="auto" text-rendering="auto" stroke="black" stroke-linecap="square" width="337" stroke-miterlimit="10" shape-rendering="auto" stroke-opacity="1" fill="black" stroke-dasharray="none" font-weight="normal" stroke-width="1" height="715" font-family="'Dialog'" font-style="normal" stroke-linejoin="miter" font-size="12px" stroke-dashoffset="0" image-rendering="auto">
  <!--Generated by ySVG 2.6-->
  <defs id="genericDefs"/>
  <g>
    <defs id="defs1">
      <linearGradient x1="500" gradientUnits="userSpaceOnUse" x2="580" y1="180" y2="220" id="linearGradient1" spreadMethod="reflect">
        <stop stop-opacity="1" stop-color="rgb(232,238,247)" offset="0%"/>
        <stop stop-opacity="1" stop-color="rgb(183,201,227)" offset="100%"/>
      </linearGradient>
      <linearGradient x1="476.75" gradientUnits="userSpaceOnUse" x2="603.25" y1="241.5" y2="298.5" id="linearGradient2" spreadMethod="reflect">
        <stop stop-opacity="1" stop-color="rgb(232,238,247)" offset="0%"/>
        <stop stop-opacity="1" stop-color="rgb(183,201,227)" offset="100%"/>
      </linearGradient>
      <linearGradient x1="471" gradientUnits="userSpaceOnUse" x2="609" y1="320" y2="360" id="linearGradient3" spreadMethod="reflect">
        <stop stop-opacity="1" stop-color="rgb(232,238,247)" offset="0%"/>
        <stop stop-opacity="1" stop-color="rgb(183,201,227)" offset="100%"/>
      </linearGradient>
      <linearGradient x1="500" gradientUnits="userSpaceOnUse" x2="580" y1="460" y2="500" id="linearGradient4" spreadMethod="reflect">
        <stop stop-opacity="1" stop-color="rgb(232,238,247)" offset="0%"/>
        <stop stop-opacity="1" stop-color="rgb(183,201,227)" offset="100%"/>
      </linearGradient>
      <linearGradient x1="471" gradientUnits="userSpaceOnUse" x2="609" y1="670" y2="710" id="linearGradient5" spreadMethod="reflect">
        <stop stop-opacity="1" stop-color="rgb(232,238,247)" offset="0%"/>
        <stop stop-opacity="1" stop-color="rgb(183,201,227)" offset="100%"/>
      </linearGradient>
      <linearGradient x1="500" gradientUnits="userSpaceOnUse" x2="580" y1="810" y2="850" id="linearGradient6" spreadMethod="reflect">
        <stop stop-opacity="1" stop-color="rgb(232,238,247)" offset="0%"/>
        <stop stop-opacity="1" stop-color="rgb(183,201,227)" offset="100%"/>
      </linearGradient>
      <linearGradient x1="361.4306" gradientUnits="userSpaceOnUse" x2="441.4306" y1="425" y2="465" id="linearGradient7" spreadMethod="reflect">
        <stop stop-opacity="1" stop-color="rgb(232,238,247)" offset="0%"/>
        <stop stop-opacity="1" stop-color="rgb(183,201,227)" offset="100%"/>
      </linearGradient>
      <linearGradient x1="480.8135" gradientUnits="userSpaceOnUse" x2="599.1865" y1="390" y2="430" id="linearGradient8" spreadMethod="reflect">
        <stop stop-opacity="1" stop-color="rgb(232,238,247)" offset="0%"/>
        <stop stop-opacity="1" stop-color="rgb(183,201,227)" offset="100%"/>
      </linearGradient>
      <linearGradient x1="500" gradientUnits="userSpaceOnUse" x2="580" y1="530" y2="570" id="linearGradient9" spreadMethod="reflect">
        <stop stop-opacity="1" stop-color="rgb(232,238,247)" offset="0%"/>
        <stop stop-opacity="1" stop-color="rgb(183,201,227)" offset="100%"/>
      </linearGradient>
      <linearGradient x1="466.0933" gradientUnits="userSpaceOnUse" x2="613.9067" y1="600" y2="640" id="linearGradient10" spreadMethod="reflect">
        <stop stop-opacity="1" stop-color="rgb(232,238,247)" offset="0%"/>
        <stop stop-opacity="1" stop-color="rgb(183,201,227)" offset="100%"/>
      </linearGradient>
      <linearGradient x1="483.0466" gradientUnits="userSpaceOnUse" x2="596.9534" y1="740" y2="780" id="linearGradient11" spreadMethod="reflect">
        <stop stop-opacity="1" stop-color="rgb(232,238,247)" offset="0%"/>
        <stop stop-opacity="1" stop-color="rgb(183,201,227)" offset="100%"/>
      </linearGradient>
      <clipPath clipPathUnits="userSpaceOnUse" id="clipPath1">
        <path d="M0 0 L337 0 L337 715 L0 715 L0 0 Z"/>
      </clipPath>
      <clipPath clipPathUnits="userSpaceOnUse" id="clipPath2">
        <path d="M346 165 L683 165 L683 880 L346 880 L346 165 Z"/>
      </clipPath>
    </defs>
    <g fill="url(#linearGradient1)" text-rendering="geometricPrecision" shape-rendering="geometricPrecision" transform="matrix(1,0,0,1,-346,-165)" stroke="url(#linearGradient1)">
      <rect x="500" y="180" clip-path="url(#clipPath2)" width="80" rx="20" ry="20" height="40" stroke="none"/>
    </g>
    <g text-rendering="geometricPrecision" stroke-miterlimit="1.45" stroke-width="2" shape-rendering="geometricPrecision" transform="matrix(1,0,0,1,-346,-165)" stroke-linecap="butt">
      <rect x="500" y="180" clip-path="url(#clipPath2)" fill="none" width="80" rx="20" ry="20" height="40"/>
      <text x="518.0332" y="204.7139" clip-path="url(#clipPath2)" font-family="sans-serif" stroke="none" font-weight="bold" stroke-width="1" xml:space="preserve">Начало</text>
    </g>
    <g fill="url(#linearGradient2)" text-rendering="geometricPrecision" shape-rendering="geometricPrecision" transform="matrix(1,0,0,1,-346,-165)" stroke="url(#linearGradient2)">
      <path d="M476.75 241.5 L603.25 241.5 L603.25 291.375 Q571.625 277.125 540 291.375 Q508.375 305.625 476.75 291.375 Z" stroke="none" clip-path="url(#clipPath2)"/>
    </g>
    <g text-rendering="geometricPrecision" stroke-miterlimit="1.45" stroke-width="2" shape-rendering="geometricPrecision" transform="matrix(1,0,0,1,-346,-165)" stroke-linecap="butt">
      <path fill="none" d="M476.75 241.5 L603.25 241.5 L603.25 291.375 Q571.625 277.125 540 291.375 Q508.375 305.625 476.75 291.375 Z" clip-path="url(#clipPath2)"/>
      <text x="519.3809" y="267.3633" clip-path="url(#clipPath2)" font-family="sans-serif" stroke="none" font-weight="bold" stroke-width="1" xml:space="preserve">Вывод</text>
      <text x="482.0508" y="282.0645" clip-path="url(#clipPath2)" font-family="sans-serif" stroke="none" font-weight="bold" stroke-width="1" xml:space="preserve">заголовка таблицы</text>
    </g>
    <g fill="url(#linearGradient3)" text-rendering="geometricPrecision" shape-rendering="geometricPrecision" transform="matrix(1,0,0,1,-346,-165)" stroke="url(#linearGradient3)">
      <path d="M481 320 L599 320 L609 340 L599 360 L481 360 L471 340 Z" stroke="none" clip-path="url(#clipPath2)"/>
    </g>
    <g text-rendering="geometricPrecision" stroke-miterlimit="1.45" stroke-width="2" shape-rendering="geometricPrecision" transform="matrix(1,0,0,1,-346,-165)" stroke-linecap="butt">
      <path fill="none" d="M481 320 L599 320 L609 340 L599 360 L481 360 L471 340 Z" clip-path="url(#clipPath2)"/>
      <text x="476.127" y="344.7139" clip-path="url(#clipPath2)" font-family="sans-serif" stroke="none" font-weight="bold" stroke-width="1" xml:space="preserve">x = 0; x &lt;=1; x += delta</text>
    </g>
    <g fill="url(#linearGradient4)" text-rendering="geometricPrecision" shape-rendering="geometricPrecision" transform="matrix(1,0,0,1,-346,-165)" stroke="url(#linearGradient4)">
      <path d="M510 460 L570 460 L580 470 L580 500 L500 500 L500 470 Z" stroke="none" clip-path="url(#clipPath2)"/>
    </g>
    <g text-rendering="geometricPrecision" stroke-miterlimit="1.45" stroke-width="2" shape-rendering="geometricPrecision" transform="matrix(1,0,0,1,-346,-165)" stroke-linecap="butt">
      <path fill="none" d="M510 460 L570 460 L580 470 L580 500 L500 500 L500 470 Z" clip-path="url(#clipPath2)"/>
      <text x="519.1143" y="484.7139" clip-path="url(#clipPath2)" font-family="sans-serif" stroke="none" font-weight="bold" stroke-width="1" xml:space="preserve">Цикл A</text>
    </g>
    <g fill="url(#linearGradient5)" text-rendering="geometricPrecision" shape-rendering="geometricPrecision" transform="matrix(1,0,0,1,-346,-165)" stroke="url(#linearGradient5)">
      <path d="M471 670 L609 670 L609 700 L599 710 L481 710 L471 700 Z" stroke="none" clip-path="url(#clipPath2)"/>
    </g>
    <g text-rendering="geometricPrecision" stroke-miterlimit="1.45" stroke-width="2" shape-rendering="geometricPrecision" transform="matrix(1,0,0,1,-346,-165)" stroke-linecap="butt">
      <path fill="none" d="M471 670 L609 670 L609 700 L599 710 L481 710 L471 700 Z" clip-path="url(#clipPath2)"/>
      <text x="519.1143" y="687.3633" clip-path="url(#clipPath2)" font-family="sans-serif" stroke="none" font-weight="bold" stroke-width="1" xml:space="preserve">Цикл A</text>
      <text x="488.1533" y="702.0645" clip-path="url(#clipPath2)" font-family="sans-serif" stroke="none" font-weight="bold" stroke-width="1" xml:space="preserve">(abs(prev) &gt; eps)?</text>
    </g>
    <g fill="url(#linearGradient6)" text-rendering="geometricPrecision" shape-rendering="geometricPrecision" transform="matrix(1,0,0,1,-346,-165)" stroke="url(#linearGradient6)">
      <path d="M500 810 L580 810 L580 845 Q560 835 540 845 Q520 855 500 845 Z" stroke="none" clip-path="url(#clipPath2)"/>
    </g>
    <g text-rendering="geometricPrecision" stroke-miterlimit="1.45" stroke-width="2" shape-rendering="geometricPrecision" transform="matrix(1,0,0,1,-346,-165)" stroke-linecap="butt">
      <path fill="none" d="M500 810 L580 810 L580 845 Q560 835 540 845 Q520 855 500 845 Z" clip-path="url(#clipPath2)"/>
      <text x="516.3223" y="834.7139" clip-path="url(#clipPath2)" font-family="sans-serif" stroke="none" font-weight="bold" stroke-width="1" xml:space="preserve">x, y, s, n</text>
    </g>
    <g fill="url(#linearGradient7)" text-rendering="geometricPrecision" shape-rendering="geometricPrecision" transform="matrix(1,0,0,1,-346,-165)" stroke="url(#linearGradient7)">
      <rect x="361.4306" y="425" clip-path="url(#clipPath2)" width="80" rx="20" ry="20" height="40" stroke="none"/>
    </g>
    <g text-rendering="geometricPrecision" stroke-miterlimit="1.45" stroke-width="2" shape-rendering="geometricPrecision" transform="matrix(1,0,0,1,-346,-165)" stroke-linecap="butt">
      <rect x="361.4306" y="425" clip-path="url(#clipPath2)" fill="none" width="80" rx="20" ry="20" height="40"/>
      <text x="383.454" y="449.7139" clip-path="url(#clipPath2)" font-family="sans-serif" stroke="none" font-weight="bold" stroke-width="1" xml:space="preserve">Конец</text>
    </g>
    <g fill="url(#linearGradient8)" text-rendering="geometricPrecision" shape-rendering="geometricPrecision" transform="matrix(1,0,0,1,-346,-165)" stroke="url(#linearGradient8)">
      <path d="M480.8135 390 L599.1865 390 L599.1865 430 L480.8135 430 Z" stroke="none" clip-path="url(#clipPath2)"/>
    </g>
    <g text-rendering="geometricPrecision" stroke-miterlimit="1.45" stroke-width="2" shape-rendering="geometricPrecision" transform="matrix(1,0,0,1,-346,-165)" stroke-linecap="butt">
      <path fill="none" d="M480.8135 390 L599.1865 390 L599.1865 430 L480.8135 430 Z" clip-path="url(#clipPath2)"/>
      <text x="505.9805" y="407.3633" clip-path="url(#clipPath2)" font-family="sans-serif" stroke="none" font-weight="bold" stroke-width="1" xml:space="preserve">n = 1, s = 0, </text>
      <text x="491.3057" y="422.0645" clip-path="url(#clipPath2)" font-family="sans-serif" stroke="none" font-weight="bold" stroke-width="1" xml:space="preserve">prev = 0, next = 1</text>
    </g>
    <g fill="url(#linearGradient9)" text-rendering="geometricPrecision" shape-rendering="geometricPrecision" transform="matrix(1,0,0,1,-346,-165)" stroke="url(#linearGradient9)">
      <path d="M500 530 L580 530 L580 570 L500 570 Z" stroke="none" clip-path="url(#clipPath2)"/>
    </g>
    <g text-rendering="geometricPrecision" stroke-miterlimit="1.45" stroke-width="2" shape-rendering="geometricPrecision" transform="matrix(1,0,0,1,-346,-165)" stroke-linecap="butt">
      <path fill="none" d="M500 530 L580 530 L580 570 L500 570 Z" clip-path="url(#clipPath2)"/>
      <text x="508.1514" y="547.3633" clip-path="url(#clipPath2)" font-family="sans-serif" stroke="none" font-weight="bold" stroke-width="1" xml:space="preserve">prev = next</text>
      <text x="513.6475" y="562.0645" clip-path="url(#clipPath2)" font-family="sans-serif" stroke="none" font-weight="bold" stroke-width="1" xml:space="preserve">s += prev</text>
    </g>
    <g fill="url(#linearGradient10)" text-rendering="geometricPrecision" shape-rendering="geometricPrecision" transform="matrix(1,0,0,1,-346,-165)" stroke="url(#linearGradient10)">
      <path d="M466.0933 600 L613.9067 600 L613.9067 640 L466.0933 640 Z" stroke="none" clip-path="url(#clipPath2)"/>
    </g>
    <g text-rendering="geometricPrecision" stroke-miterlimit="1.45" stroke-width="2" shape-rendering="geometricPrecision" transform="matrix(1,0,0,1,-346,-165)" stroke-linecap="butt">
      <path fill="none" d="M466.0933 600 L613.9067 600 L613.9067 640 L466.0933 640 Z" clip-path="url(#clipPath2)"/>
      <text x="475.4795" y="617.3633" clip-path="url(#clipPath2)" font-family="sans-serif" stroke="none" font-weight="bold" stroke-width="1" xml:space="preserve">next = prev * (2 * x / n);</text>
      <text x="527.3291" y="632.0645" clip-path="url(#clipPath2)" font-family="sans-serif" stroke="none" font-weight="bold" stroke-width="1" xml:space="preserve">n++;</text>
    </g>
    <g fill="url(#linearGradient11)" text-rendering="geometricPrecision" shape-rendering="geometricPrecision" transform="matrix(1,0,0,1,-346,-165)" stroke="url(#linearGradient11)">
      <path d="M483.0466 740 L596.9534 740 L596.9534 780 L483.0466 780 Z" stroke="none" clip-path="url(#clipPath2)"/>
    </g>
    <g text-rendering="geometricPrecision" stroke-miterlimit="1.45" stroke-width="2" shape-rendering="geometricPrecision" transform="matrix(1,0,0,1,-346,-165)" stroke-linecap="butt">
      <path fill="none" d="M483.0466 740 L596.9534 740 L596.9534 780 L483.0466 780 Z" clip-path="url(#clipPath2)"/>
      <text x="494.8184" y="764.7139" clip-path="url(#clipPath2)" font-family="sans-serif" stroke="none" font-weight="bold" stroke-width="1" xml:space="preserve">y = pow(e, 2 * x)</text>
    </g>
    <g text-rendering="geometricPrecision" stroke-miterlimit="1.45" shape-rendering="geometricPrecision" transform="matrix(1,0,0,1,-346,-165)" stroke-linecap="butt">
      <path fill="none" d="M540 219.9951 L540 241.5304" clip-path="url(#clipPath2)"/>
    </g>
    <g text-rendering="geometricPrecision" stroke-miterlimit="1.45" shape-rendering="geometricPrecision" transform="matrix(1,0,0,1,-346,-165)" stroke-linecap="butt">
      <path fill="none" d="M540 291.3623 L540 320.0034" clip-path="url(#clipPath2)"/>
      <path fill="none" d="M540 845.0049 L540 865 L667.3555 865 L667.3555 340 L616.9946 340" clip-path="url(#clipPath2)"/>
      <path d="M608.9946 340 L620.9946 345 L617.9946 340 L620.9946 335 Z" clip-path="url(#clipPath2)" stroke="none"/>
      <path fill="none" d="M471.0198 340 L401.4306 340 L401.4306 416.9792" clip-path="url(#clipPath2)"/>
      <path d="M401.4306 424.9792 L406.4306 412.9792 L401.4306 415.9792 L396.4306 412.9792 Z" clip-path="url(#clipPath2)" stroke="none"/>
      <path fill="none" d="M540 359.9951 L540 390.0273" clip-path="url(#clipPath2)"/>
      <path fill="none" d="M540 429.9951 L540 460.0273" clip-path="url(#clipPath2)"/>
      <path fill="none" d="M540 499.9951 L540 530.0273" clip-path="url(#clipPath2)"/>
      <path fill="none" d="M540 569.9951 L540 600.0273" clip-path="url(#clipPath2)"/>
      <path fill="none" d="M540 639.9951 L540 670.0273" clip-path="url(#clipPath2)"/>
      <path fill="none" d="M540 709.9951 L540 740.0273" clip-path="url(#clipPath2)"/>
      <path fill="none" d="M540 779.9951 L540 810.0273" clip-path="url(#clipPath2)"/>
    </g>
  </g>
</svg>
