<?xml version="1.0" encoding="UTF-8"?><svg xmlns="http://www.w3.org/2000/svg" xmlns:xlink="http://www.w3.org/1999/xlink" fill-opacity="1" color-rendering="auto" color-interpolation="auto" text-rendering="auto" stroke="black" stroke-linecap="square" width="501" stroke-miterlimit="10" shape-rendering="auto" stroke-opacity="1" fill="black" stroke-dasharray="none" font-weight="normal" stroke-width="1" height="549" font-family="'Dialog'" font-style="normal" stroke-linejoin="miter" font-size="12px" stroke-dashoffset="0" image-rendering="auto">
  <!--Generated by ySVG 2.6-->
  <defs id="genericDefs"/>
  <g>
    <defs id="defs1">
      <linearGradient x1="500" gradientUnits="userSpaceOnUse" x2="580" y1="101" y2="141" id="linearGradient1" spreadMethod="reflect">
        <stop stop-opacity="1" stop-color="rgb(232,238,247)" offset="0%"/>
        <stop stop-opacity="1" stop-color="rgb(183,201,227)" offset="100%"/>
      </linearGradient>
      <linearGradient x1="490.4" gradientUnits="userSpaceOnUse" x2="589.6" y1="241" y2="281" id="linearGradient2" spreadMethod="reflect">
        <stop stop-opacity="1" stop-color="rgb(232,238,247)" offset="0%"/>
        <stop stop-opacity="1" stop-color="rgb(183,201,227)" offset="100%"/>
      </linearGradient>
      <linearGradient x1="500" gradientUnits="userSpaceOnUse" x2="580" y1="450" y2="490" id="linearGradient3" spreadMethod="reflect">
        <stop stop-opacity="1" stop-color="rgb(232,238,247)" offset="0%"/>
        <stop stop-opacity="1" stop-color="rgb(183,201,227)" offset="100%"/>
      </linearGradient>
      <linearGradient x1="500" gradientUnits="userSpaceOnUse" x2="580" y1="520" y2="577.92" id="linearGradient4" spreadMethod="reflect">
        <stop stop-opacity="1" stop-color="rgb(232,238,247)" offset="0%"/>
        <stop stop-opacity="1" stop-color="rgb(183,201,227)" offset="100%"/>
      </linearGradient>
      <linearGradient x1="620" gradientUnits="userSpaceOnUse" x2="700" y1="520" y2="577.92" id="linearGradient5" spreadMethod="reflect">
        <stop stop-opacity="1" stop-color="rgb(232,238,247)" offset="0%"/>
        <stop stop-opacity="1" stop-color="rgb(183,201,227)" offset="100%"/>
      </linearGradient>
      <linearGradient x1="380" gradientUnits="userSpaceOnUse" x2="460" y1="520" y2="577.92" id="linearGradient6" spreadMethod="reflect">
        <stop stop-opacity="1" stop-color="rgb(232,238,247)" offset="0%"/>
        <stop stop-opacity="1" stop-color="rgb(183,201,227)" offset="100%"/>
      </linearGradient>
      <linearGradient x1="262.8" gradientUnits="userSpaceOnUse" x2="397.2" y1="331.04" y2="388.96" id="linearGradient7" spreadMethod="reflect">
        <stop stop-opacity="1" stop-color="rgb(232,238,247)" offset="0%"/>
        <stop stop-opacity="1" stop-color="rgb(183,201,227)" offset="100%"/>
      </linearGradient>
      <linearGradient x1="290" gradientUnits="userSpaceOnUse" x2="370" y1="418.96" y2="458.96" id="linearGradient8" spreadMethod="reflect">
        <stop stop-opacity="1" stop-color="rgb(232,238,247)" offset="0%"/>
        <stop stop-opacity="1" stop-color="rgb(183,201,227)" offset="100%"/>
      </linearGradient>
      <linearGradient x1="500" gradientUnits="userSpaceOnUse" x2="580" y1="171" y2="211" id="linearGradient9" spreadMethod="reflect">
        <stop stop-opacity="1" stop-color="rgb(232,238,247)" offset="0%"/>
        <stop stop-opacity="1" stop-color="rgb(183,201,227)" offset="100%"/>
      </linearGradient>
      <linearGradient x1="455" gradientUnits="userSpaceOnUse" x2="625" y1="310" y2="350" id="linearGradient10" spreadMethod="reflect">
        <stop stop-opacity="1" stop-color="rgb(232,238,247)" offset="0%"/>
        <stop stop-opacity="1" stop-color="rgb(183,201,227)" offset="100%"/>
      </linearGradient>
      <linearGradient x1="452.5" gradientUnits="userSpaceOnUse" x2="627.5" y1="380" y2="420" id="linearGradient11" spreadMethod="reflect">
        <stop stop-opacity="1" stop-color="rgb(232,238,247)" offset="0%"/>
        <stop stop-opacity="1" stop-color="rgb(183,201,227)" offset="100%"/>
      </linearGradient>
      <clipPath clipPathUnits="userSpaceOnUse" id="clipPath1">
        <path d="M0 0 L501 0 L501 549 L0 549 L0 0 Z"/>
      </clipPath>
      <clipPath clipPathUnits="userSpaceOnUse" id="clipPath2">
        <path d="M247 86 L748 86 L748 635 L247 635 L247 86 Z"/>
      </clipPath>
    </defs>
    <g fill="url(#linearGradient1)" text-rendering="geometricPrecision" shape-rendering="geometricPrecision" transform="matrix(1,0,0,1,-247,-86)" stroke="url(#linearGradient1)">
      <rect x="500" y="101" clip-path="url(#clipPath2)" width="80" rx="20" ry="20" height="40" stroke="none"/>
    </g>
    <g text-rendering="geometricPrecision" stroke-miterlimit="1.45" stroke-width="2" shape-rendering="geometricPrecision" transform="matrix(1,0,0,1,-247,-86)" stroke-linecap="butt">
      <rect x="500" y="101" clip-path="url(#clipPath2)" fill="none" width="80" rx="20" ry="20" height="40"/>
      <text x="518.0332" y="125.7139" clip-path="url(#clipPath2)" font-family="sans-serif" stroke="none" font-weight="bold" stroke-width="1" xml:space="preserve">Начало</text>
    </g>
    <g fill="url(#linearGradient2)" text-rendering="geometricPrecision" shape-rendering="geometricPrecision" transform="matrix(1,0,0,1,-247,-86)" stroke="url(#linearGradient2)">
      <path d="M500.4 241 L579.6 241 L589.6 261 L579.6 281 L500.4 281 L490.4 261 Z" stroke="none" clip-path="url(#clipPath2)"/>
    </g>
    <g text-rendering="geometricPrecision" stroke-miterlimit="1.45" stroke-width="2" shape-rendering="geometricPrecision" transform="matrix(1,0,0,1,-247,-86)" stroke-linecap="butt">
      <path fill="none" d="M500.4 241 L579.6 241 L589.6 261 L579.6 281 L500.4 281 L490.4 261 Z" clip-path="url(#clipPath2)"/>
      <text x="496.4795" y="265.7139" clip-path="url(#clipPath2)" font-family="sans-serif" stroke="none" font-weight="bold" stroke-width="1" xml:space="preserve">i = 2; i &lt;= n; ++i</text>
    </g>
    <g fill="url(#linearGradient3)" text-rendering="geometricPrecision" shape-rendering="geometricPrecision" transform="matrix(1,0,0,1,-247,-86)" stroke="url(#linearGradient3)">
      <path d="M540 450 L580 470 L540 490 L500 470 Z" stroke="none" clip-path="url(#clipPath2)"/>
    </g>
    <g text-rendering="geometricPrecision" stroke-miterlimit="1.45" stroke-width="2" shape-rendering="geometricPrecision" transform="matrix(1,0,0,1,-247,-86)" stroke-linecap="butt">
      <path fill="none" d="M540 450 L580 470 L540 490 L500 470 Z" clip-path="url(#clipPath2)"/>
      <text x="538.333" y="474.7139" clip-path="url(#clipPath2)" font-family="sans-serif" stroke="none" font-weight="bold" stroke-width="1" xml:space="preserve">i</text>
    </g>
    <g fill="url(#linearGradient4)" text-rendering="geometricPrecision" shape-rendering="geometricPrecision" transform="matrix(1,0,0,1,-247,-86)" stroke="url(#linearGradient4)">
      <path d="M500 520 L580 520 L580 570.68 Q560 556.2 540 570.68 Q520 585.16 500 570.68 Z" stroke="none" clip-path="url(#clipPath2)"/>
    </g>
    <g text-rendering="geometricPrecision" stroke-miterlimit="1.45" stroke-width="2" shape-rendering="geometricPrecision" transform="matrix(1,0,0,1,-247,-86)" stroke-linecap="butt">
      <path fill="none" d="M500 520 L580 520 L580 570.68 Q560 556.2 540 570.68 Q520 585.16 500 570.68 Z" clip-path="url(#clipPath2)"/>
      <text x="504.9961" y="546.3233" clip-path="url(#clipPath2)" font-family="sans-serif" stroke="none" font-weight="bold" stroke-width="1" xml:space="preserve">Result for 5:</text>
      <text x="523.6611" y="561.0245" clip-path="url(#clipPath2)" font-family="sans-serif" stroke="none" font-weight="bold" stroke-width="1" xml:space="preserve">result</text>
    </g>
    <g fill="url(#linearGradient5)" text-rendering="geometricPrecision" shape-rendering="geometricPrecision" transform="matrix(1,0,0,1,-247,-86)" stroke="url(#linearGradient5)">
      <path d="M620 520 L700 520 L700 570.68 Q680 556.2 660 570.68 Q640 585.16 620 570.68 Z" stroke="none" clip-path="url(#clipPath2)"/>
    </g>
    <g text-rendering="geometricPrecision" stroke-miterlimit="1.45" stroke-width="2" shape-rendering="geometricPrecision" transform="matrix(1,0,0,1,-247,-86)" stroke-linecap="butt">
      <path fill="none" d="M620 520 L700 520 L700 570.68 Q680 556.2 660 570.68 Q640 585.16 620 570.68 Z" clip-path="url(#clipPath2)"/>
      <text x="621.6592" y="546.3233" clip-path="url(#clipPath2)" font-family="sans-serif" stroke="none" font-weight="bold" stroke-width="1" xml:space="preserve">Result for 10:</text>
      <text x="643.6611" y="561.0245" clip-path="url(#clipPath2)" font-family="sans-serif" stroke="none" font-weight="bold" stroke-width="1" xml:space="preserve">result</text>
    </g>
    <g fill="url(#linearGradient6)" text-rendering="geometricPrecision" shape-rendering="geometricPrecision" transform="matrix(1,0,0,1,-247,-86)" stroke="url(#linearGradient6)">
      <path d="M380 520 L460 520 L460 570.68 Q440 556.2 420 570.68 Q400 585.16 380 570.68 Z" stroke="none" clip-path="url(#clipPath2)"/>
    </g>
    <g text-rendering="geometricPrecision" stroke-miterlimit="1.45" stroke-width="2" shape-rendering="geometricPrecision" transform="matrix(1,0,0,1,-247,-86)" stroke-linecap="butt">
      <path fill="none" d="M380 520 L460 520 L460 570.68 Q440 556.2 420 570.68 Q400 585.16 380 570.68 Z" clip-path="url(#clipPath2)"/>
      <text x="384.9961" y="546.3233" clip-path="url(#clipPath2)" font-family="sans-serif" stroke="none" font-weight="bold" stroke-width="1" xml:space="preserve">Result for 3:</text>
      <text x="403.6611" y="561.0245" clip-path="url(#clipPath2)" font-family="sans-serif" stroke="none" font-weight="bold" stroke-width="1" xml:space="preserve">result</text>
    </g>
    <g fill="url(#linearGradient7)" text-rendering="geometricPrecision" shape-rendering="geometricPrecision" transform="matrix(1,0,0,1,-247,-86)" stroke="url(#linearGradient7)">
      <path d="M262.8 331.04 L397.2 331.04 L397.2 381.72 Q363.6 367.24 330 381.72 Q296.4 396.2 262.8 381.72 Z" stroke="none" clip-path="url(#clipPath2)"/>
    </g>
    <g text-rendering="geometricPrecision" stroke-miterlimit="1.45" stroke-width="2" shape-rendering="geometricPrecision" transform="matrix(1,0,0,1,-247,-86)" stroke-linecap="butt">
      <path fill="none" d="M262.8 331.04 L397.2 331.04 L397.2 381.72 Q363.6 367.24 330 381.72 Q296.4 396.2 262.8 381.72 Z" clip-path="url(#clipPath2)"/>
      <text x="266.4844" y="357.3633" clip-path="url(#clipPath2)" font-family="sans-serif" stroke="none" font-weight="bold" stroke-width="1" xml:space="preserve">Result for n + 1 terms:</text>
      <text x="313.6611" y="372.0645" clip-path="url(#clipPath2)" font-family="sans-serif" stroke="none" font-weight="bold" stroke-width="1" xml:space="preserve">result</text>
    </g>
    <g fill="url(#linearGradient8)" text-rendering="geometricPrecision" shape-rendering="geometricPrecision" transform="matrix(1,0,0,1,-247,-86)" stroke="url(#linearGradient8)">
      <rect x="290" y="418.96" clip-path="url(#clipPath2)" width="80" rx="20" ry="20" height="40" stroke="none"/>
    </g>
    <g text-rendering="geometricPrecision" stroke-miterlimit="1.45" stroke-width="2" shape-rendering="geometricPrecision" transform="matrix(1,0,0,1,-247,-86)" stroke-linecap="butt">
      <rect x="290" y="418.96" clip-path="url(#clipPath2)" fill="none" width="80" rx="20" ry="20" height="40"/>
      <text x="312.0234" y="443.6739" clip-path="url(#clipPath2)" font-family="sans-serif" stroke="none" font-weight="bold" stroke-width="1" xml:space="preserve">Конец</text>
    </g>
    <g fill="url(#linearGradient9)" text-rendering="geometricPrecision" shape-rendering="geometricPrecision" transform="matrix(1,0,0,1,-247,-86)" stroke="url(#linearGradient9)">
      <path d="M500 171 L580 171 L580 211 L500 211 Z" stroke="none" clip-path="url(#clipPath2)"/>
    </g>
    <g text-rendering="geometricPrecision" stroke-miterlimit="1.45" stroke-width="2" shape-rendering="geometricPrecision" transform="matrix(1,0,0,1,-247,-86)" stroke-linecap="butt">
      <path fill="none" d="M500 171 L580 171 L580 211 L500 211 Z" clip-path="url(#clipPath2)"/>
      <text x="513.4863" y="188.3633" clip-path="url(#clipPath2)" font-family="sans-serif" stroke="none" font-weight="bold" stroke-width="1" xml:space="preserve">result = 1</text>
      <text x="501.8174" y="203.0645" clip-path="url(#clipPath2)" font-family="sans-serif" stroke="none" font-weight="bold" stroke-width="1" xml:space="preserve">even_odd = 0</text>
    </g>
    <g fill="url(#linearGradient10)" text-rendering="geometricPrecision" shape-rendering="geometricPrecision" transform="matrix(1,0,0,1,-247,-86)" stroke="url(#linearGradient10)">
      <path d="M455 310 L625 310 L625 350 L455 350 Z" stroke="none" clip-path="url(#clipPath2)"/>
    </g>
    <g text-rendering="geometricPrecision" stroke-miterlimit="1.45" stroke-width="2" shape-rendering="geometricPrecision" transform="matrix(1,0,0,1,-247,-86)" stroke-linecap="butt">
      <path fill="none" d="M455 310 L625 310 L625 350 L455 350 Z" clip-path="url(#clipPath2)"/>
      <text x="468.6504" y="334.7139" clip-path="url(#clipPath2)" font-family="sans-serif" stroke="none" font-weight="bold" stroke-width="1" xml:space="preserve">even_odd = pow(-1, i + 1)</text>
    </g>
    <g fill="url(#linearGradient11)" text-rendering="geometricPrecision" shape-rendering="geometricPrecision" transform="matrix(1,0,0,1,-247,-86)" stroke="url(#linearGradient11)">
      <path d="M452.5 380 L627.5 380 L627.5 420 L452.5 420 Z" stroke="none" clip-path="url(#clipPath2)"/>
    </g>
    <g text-rendering="geometricPrecision" stroke-miterlimit="1.45" stroke-width="2" shape-rendering="geometricPrecision" transform="matrix(1,0,0,1,-247,-86)" stroke-linecap="butt">
      <path fill="none" d="M452.5 380 L627.5 380 L627.5 420 L452.5 420 Z" clip-path="url(#clipPath2)"/>
      <text x="464.8096" y="397.3633" clip-path="url(#clipPath2)" font-family="sans-serif" stroke="none" font-weight="bold" stroke-width="1" xml:space="preserve">result += ((2 * i + 1) / (2 * i))</text>
      <text x="469.3213" y="412.0645" clip-path="url(#clipPath2)" font-family="sans-serif" stroke="none" font-weight="bold" stroke-width="1" xml:space="preserve">* pow(x, i - 1) * even_odd</text>
    </g>
    <g text-rendering="geometricPrecision" stroke-miterlimit="1.45" shape-rendering="geometricPrecision" transform="matrix(1,0,0,1,-247,-86)" stroke-linecap="butt">
      <path fill="none" d="M540 490.0099 L540 511.9743" clip-path="url(#clipPath2)"/>
    </g>
    <g text-rendering="geometricPrecision" stroke-miterlimit="1.45" shape-rendering="geometricPrecision" transform="matrix(1,0,0,1,-247,-86)" stroke-linecap="butt">
      <path d="M540 519.9742 L545 507.9742 L540 510.9742 L535 507.9742 Z" stroke="none" clip-path="url(#clipPath2)"/>
      <text x="547.6454" y="505.022" clip-path="url(#clipPath2)" font-family="sans-serif" stroke="none" font-weight="bold" xml:space="preserve">5</text>
      <path fill="none" d="M540 570.709 L540 620 L733 620 L733 261 L597.6248 261" clip-path="url(#clipPath2)"/>
      <path d="M589.6248 261 L601.6248 266 L598.6248 261 L601.6248 256 Z" clip-path="url(#clipPath2)" stroke="none"/>
      <path fill="none" d="M579.9902 470 L660 470 L660 512.0054" clip-path="url(#clipPath2)"/>
      <path d="M660 520.0054 L665 508.0054 L660 511.0054 L655 508.0054 Z" clip-path="url(#clipPath2)" stroke="none"/>
      <text x="612.3085" y="464.022" clip-path="url(#clipPath2)" font-family="sans-serif" stroke="none" font-weight="bold" xml:space="preserve">10</text>
      <path fill="none" d="M664.3273 567.8647 L664.3273 620 L733 620 L733 261 L597.593 261" clip-path="url(#clipPath2)"/>
      <path d="M589.593 261 L601.593 266 L598.593 261 L601.593 256 Z" clip-path="url(#clipPath2)" stroke="none"/>
      <path fill="none" d="M500.0098 470 L420 470 L420 512.0054" clip-path="url(#clipPath2)"/>
      <path d="M420 520.0054 L425 508.0054 L420 511.0054 L415 508.0054 Z" clip-path="url(#clipPath2)" stroke="none"/>
      <text x="458.6454" y="464.022" clip-path="url(#clipPath2)" font-family="sans-serif" stroke="none" font-weight="bold" xml:space="preserve">3</text>
      <path fill="none" d="M420 570.709 L420 620 L733 620 L733 261 L597.6165 261" clip-path="url(#clipPath2)"/>
      <path d="M589.6165 261 L601.6165 266 L598.6165 261 L601.6165 256 Z" clip-path="url(#clipPath2)" stroke="none"/>
      <path fill="none" d="M490.3967 261 L330 261 L330 323.0444" clip-path="url(#clipPath2)"/>
      <path d="M330 331.0444 L335 319.0444 L330 322.0444 L325 319.0444 Z" clip-path="url(#clipPath2)" stroke="none"/>
      <path fill="none" d="M330 381.7063 L330 399.48 L330 399.48 L330 418.9501" clip-path="url(#clipPath2)"/>
      <path fill="none" d="M540 140.9951 L540 171.0273" clip-path="url(#clipPath2)"/>
      <path fill="none" d="M540 211.0015 L540 240.967" clip-path="url(#clipPath2)"/>
      <path fill="none" d="M540 280.979 L540 310.0374" clip-path="url(#clipPath2)"/>
      <path fill="none" d="M540 349.9951 L540 380.0273" clip-path="url(#clipPath2)"/>
      <path fill="none" d="M540 419.9951 L540 450.0273" clip-path="url(#clipPath2)"/>
    </g>
  </g>
</svg>
