<?xml version="1.0" encoding="UTF-8"?><svg xmlns="http://www.w3.org/2000/svg" xmlns:xlink="http://www.w3.org/1999/xlink" fill-opacity="1" color-rendering="auto" color-interpolation="auto" text-rendering="auto" stroke="black" stroke-linecap="square" width="160" stroke-miterlimit="10" shape-rendering="auto" stroke-opacity="1" fill="black" stroke-dasharray="none" font-weight="normal" stroke-width="1" height="727" font-family="'Dialog'" font-style="normal" stroke-linejoin="miter" font-size="12px" stroke-dashoffset="0" image-rendering="auto">
  <!--Generated by ySVG 2.6-->
  <defs id="genericDefs"/>
  <g>
    <defs id="defs1">
      <linearGradient x1="470" gradientUnits="userSpaceOnUse" x2="550" y1="160" y2="200" id="linearGradient1" spreadMethod="reflect">
        <stop stop-opacity="1" stop-color="rgb(232,238,247)" offset="0%"/>
        <stop stop-opacity="1" stop-color="rgb(183,201,227)" offset="100%"/>
      </linearGradient>
      <linearGradient x1="470" gradientUnits="userSpaceOnUse" x2="550" y1="300" y2="340" id="linearGradient2" spreadMethod="reflect">
        <stop stop-opacity="1" stop-color="rgb(232,238,247)" offset="0%"/>
        <stop stop-opacity="1" stop-color="rgb(183,201,227)" offset="100%"/>
      </linearGradient>
      <linearGradient x1="445.5" gradientUnits="userSpaceOnUse" x2="574.5" y1="370" y2="410" id="linearGradient3" spreadMethod="reflect">
        <stop stop-opacity="1" stop-color="rgb(232,238,247)" offset="0%"/>
        <stop stop-opacity="1" stop-color="rgb(183,201,227)" offset="100%"/>
      </linearGradient>
      <linearGradient x1="470" gradientUnits="userSpaceOnUse" x2="550" y1="440" y2="480" id="linearGradient4" spreadMethod="reflect">
        <stop stop-opacity="1" stop-color="rgb(232,238,247)" offset="0%"/>
        <stop stop-opacity="1" stop-color="rgb(183,201,227)" offset="100%"/>
      </linearGradient>
      <linearGradient x1="445.5" gradientUnits="userSpaceOnUse" x2="574.5" y1="510" y2="550" id="linearGradient5" spreadMethod="reflect">
        <stop stop-opacity="1" stop-color="rgb(232,238,247)" offset="0%"/>
        <stop stop-opacity="1" stop-color="rgb(183,201,227)" offset="100%"/>
      </linearGradient>
      <linearGradient x1="445.5" gradientUnits="userSpaceOnUse" x2="574.5" y1="580" y2="647" id="linearGradient6" spreadMethod="reflect">
        <stop stop-opacity="1" stop-color="rgb(232,238,247)" offset="0%"/>
        <stop stop-opacity="1" stop-color="rgb(183,201,227)" offset="100%"/>
      </linearGradient>
      <linearGradient x1="470" gradientUnits="userSpaceOnUse" x2="550" y1="677" y2="717" id="linearGradient7" spreadMethod="reflect">
        <stop stop-opacity="1" stop-color="rgb(232,238,247)" offset="0%"/>
        <stop stop-opacity="1" stop-color="rgb(183,201,227)" offset="100%"/>
      </linearGradient>
      <linearGradient x1="450" gradientUnits="userSpaceOnUse" x2="570" y1="747" y2="787" id="linearGradient8" spreadMethod="reflect">
        <stop stop-opacity="1" stop-color="rgb(232,238,247)" offset="0%"/>
        <stop stop-opacity="1" stop-color="rgb(183,201,227)" offset="100%"/>
      </linearGradient>
      <linearGradient x1="470" gradientUnits="userSpaceOnUse" x2="550" y1="817" y2="857" id="linearGradient9" spreadMethod="reflect">
        <stop stop-opacity="1" stop-color="rgb(232,238,247)" offset="0%"/>
        <stop stop-opacity="1" stop-color="rgb(183,201,227)" offset="100%"/>
      </linearGradient>
      <linearGradient x1="470" gradientUnits="userSpaceOnUse" x2="550" y1="230" y2="270" id="linearGradient10" spreadMethod="reflect">
        <stop stop-opacity="1" stop-color="rgb(232,238,247)" offset="0%"/>
        <stop stop-opacity="1" stop-color="rgb(183,201,227)" offset="100%"/>
      </linearGradient>
      <clipPath clipPathUnits="userSpaceOnUse" id="clipPath1">
        <path d="M0 0 L160 0 L160 727 L0 727 L0 0 Z"/>
      </clipPath>
      <clipPath clipPathUnits="userSpaceOnUse" id="clipPath2">
        <path d="M430 145 L590 145 L590 872 L430 872 L430 145 Z"/>
      </clipPath>
    </defs>
    <g fill="url(#linearGradient1)" text-rendering="geometricPrecision" shape-rendering="geometricPrecision" transform="matrix(1,0,0,1,-430,-145)" stroke="url(#linearGradient1)">
      <rect x="470" y="160" clip-path="url(#clipPath2)" width="80" rx="20" ry="20" height="40" stroke="none"/>
    </g>
    <g text-rendering="geometricPrecision" stroke-miterlimit="1.45" stroke-width="2" shape-rendering="geometricPrecision" transform="matrix(1,0,0,1,-430,-145)" stroke-linecap="butt">
      <rect x="470" y="160" clip-path="url(#clipPath2)" fill="none" width="80" rx="20" ry="20" height="40"/>
      <text x="488.0332" y="184.7139" clip-path="url(#clipPath2)" font-family="sans-serif" stroke="none" font-weight="bold" stroke-width="1" xml:space="preserve">Начало</text>
    </g>
    <g fill="url(#linearGradient2)" text-rendering="geometricPrecision" shape-rendering="geometricPrecision" transform="matrix(1,0,0,1,-430,-145)" stroke="url(#linearGradient2)">
      <path d="M480 300 L540 300 L550 310 L550 340 L470 340 L470 310 Z" stroke="none" clip-path="url(#clipPath2)"/>
    </g>
    <g text-rendering="geometricPrecision" stroke-miterlimit="1.45" stroke-width="2" shape-rendering="geometricPrecision" transform="matrix(1,0,0,1,-430,-145)" stroke-linecap="butt">
      <path fill="none" d="M480 300 L540 300 L550 310 L550 340 L470 340 L470 310 Z" clip-path="url(#clipPath2)"/>
      <text x="489.1143" y="324.7139" clip-path="url(#clipPath2)" font-family="sans-serif" stroke="none" font-weight="bold" stroke-width="1" xml:space="preserve">Цикл A</text>
    </g>
    <g fill="url(#linearGradient3)" text-rendering="geometricPrecision" shape-rendering="geometricPrecision" transform="matrix(1,0,0,1,-430,-145)" stroke="url(#linearGradient3)">
      <path d="M445.5 370 L574.5 370 L574.5 405 Q542.25 395 510 405 Q477.75 415 445.5 405 Z" stroke="none" clip-path="url(#clipPath2)"/>
    </g>
    <g text-rendering="geometricPrecision" stroke-miterlimit="1.45" stroke-width="2" shape-rendering="geometricPrecision" transform="matrix(1,0,0,1,-430,-145)" stroke-linecap="butt">
      <path fill="none" d="M445.5 370 L574.5 370 L574.5 405 Q542.25 395 510 405 Q477.75 415 445.5 405 Z" clip-path="url(#clipPath2)"/>
      <text x="448.459" y="394.7139" clip-path="url(#clipPath2)" font-family="sans-serif" stroke="none" font-weight="bold" stroke-width="1" xml:space="preserve">Введите значениe n:</text>
    </g>
    <g fill="url(#linearGradient4)" text-rendering="geometricPrecision" shape-rendering="geometricPrecision" transform="matrix(1,0,0,1,-430,-145)" stroke="url(#linearGradient4)">
      <path d="M480.2 440 L550 440 L539.8 480 L470 480 Z" stroke="none" clip-path="url(#clipPath2)"/>
    </g>
    <g text-rendering="geometricPrecision" stroke-miterlimit="1.45" stroke-width="2" shape-rendering="geometricPrecision" transform="matrix(1,0,0,1,-430,-145)" stroke-linecap="butt">
      <path fill="none" d="M480.2 440 L550 440 L539.8 480 L470 480 Z" clip-path="url(#clipPath2)"/>
      <text x="506.335" y="464.7139" clip-path="url(#clipPath2)" font-family="sans-serif" stroke="none" font-weight="bold" stroke-width="1" xml:space="preserve">n</text>
    </g>
    <g fill="url(#linearGradient5)" text-rendering="geometricPrecision" shape-rendering="geometricPrecision" transform="matrix(1,0,0,1,-430,-145)" stroke="url(#linearGradient5)">
      <rect x="445.5" width="129" height="40" y="510" clip-path="url(#clipPath2)" stroke="none"/>
    </g>
    <g text-rendering="geometricPrecision" stroke-miterlimit="1.45" stroke-width="2" shape-rendering="geometricPrecision" transform="matrix(1,0,0,1,-430,-145)" stroke-linecap="butt">
      <rect fill="none" x="445.5" width="129" height="40" y="510" clip-path="url(#clipPath2)"/>
      <path fill="none" d="M455.5 510 L455.5 550 M564.5 510 L564.5 550 M455.5 510 Z" clip-path="url(#clipPath2)"/>
      <text x="463.6641" y="534.7139" clip-path="url(#clipPath2)" font-family="sans-serif" stroke="none" font-weight="bold" stroke-width="1" xml:space="preserve">sum_count(x, n)</text>
    </g>
    <g fill="url(#linearGradient6)" text-rendering="geometricPrecision" shape-rendering="geometricPrecision" transform="matrix(1,0,0,1,-430,-145)" stroke="url(#linearGradient6)">
      <path d="M445.5 580 L574.5 580 L574.5 638.625 Q542.25 621.875 510 638.625 Q477.75 655.375 445.5 638.625 Z" stroke="none" clip-path="url(#clipPath2)"/>
    </g>
    <g text-rendering="geometricPrecision" stroke-miterlimit="1.45" stroke-width="2" shape-rendering="geometricPrecision" transform="matrix(1,0,0,1,-430,-145)" stroke-linecap="butt">
      <path fill="none" d="M445.5 580 L574.5 580 L574.5 638.625 Q542.25 621.875 510 638.625 Q477.75 655.375 445.5 638.625 Z" clip-path="url(#clipPath2)"/>
      <text x="465.3164" y="610.8633" clip-path="url(#clipPath2)" font-family="sans-serif" stroke="none" font-weight="bold" stroke-width="1" xml:space="preserve">Recalculate for </text>
      <text x="459.665" y="625.5645" clip-path="url(#clipPath2)" font-family="sans-serif" stroke="none" font-weight="bold" stroke-width="1" xml:space="preserve">a another n? (y/n)</text>
    </g>
    <g fill="url(#linearGradient7)" text-rendering="geometricPrecision" shape-rendering="geometricPrecision" transform="matrix(1,0,0,1,-430,-145)" stroke="url(#linearGradient7)">
      <path d="M480.2 677 L550 677 L539.8 717 L470 717 Z" stroke="none" clip-path="url(#clipPath2)"/>
    </g>
    <g text-rendering="geometricPrecision" stroke-miterlimit="1.45" stroke-width="2" shape-rendering="geometricPrecision" transform="matrix(1,0,0,1,-430,-145)" stroke-linecap="butt">
      <path fill="none" d="M480.2 677 L550 677 L539.8 717 L470 717 Z" clip-path="url(#clipPath2)"/>
      <text x="492.3281" y="701.7139" clip-path="url(#clipPath2)" font-family="sans-serif" stroke="none" font-weight="bold" stroke-width="1" xml:space="preserve">status</text>
    </g>
    <g fill="url(#linearGradient8)" text-rendering="geometricPrecision" shape-rendering="geometricPrecision" transform="matrix(1,0,0,1,-430,-145)" stroke="url(#linearGradient8)">
      <path d="M450 747 L570 747 L570 777 L560 787 L460 787 L450 777 Z" stroke="none" clip-path="url(#clipPath2)"/>
    </g>
    <g text-rendering="geometricPrecision" stroke-miterlimit="1.45" stroke-width="2" shape-rendering="geometricPrecision" transform="matrix(1,0,0,1,-430,-145)" stroke-linecap="butt">
      <path fill="none" d="M450 747 L570 747 L570 777 L560 787 L460 787 L450 777 Z" clip-path="url(#clipPath2)"/>
      <text x="489.1143" y="764.3633" clip-path="url(#clipPath2)" font-family="sans-serif" stroke="none" font-weight="bold" stroke-width="1" xml:space="preserve">Цикл A</text>
      <text x="469.3125" y="779.0645" clip-path="url(#clipPath2)" font-family="sans-serif" stroke="none" font-weight="bold" stroke-width="1" xml:space="preserve">(status != 'n')?</text>
    </g>
    <g fill="url(#linearGradient9)" text-rendering="geometricPrecision" shape-rendering="geometricPrecision" transform="matrix(1,0,0,1,-430,-145)" stroke="url(#linearGradient9)">
      <rect x="470" y="817" clip-path="url(#clipPath2)" width="80" rx="20" ry="20" height="40" stroke="none"/>
    </g>
    <g text-rendering="geometricPrecision" stroke-miterlimit="1.45" stroke-width="2" shape-rendering="geometricPrecision" transform="matrix(1,0,0,1,-430,-145)" stroke-linecap="butt">
      <rect x="470" y="817" clip-path="url(#clipPath2)" fill="none" width="80" rx="20" ry="20" height="40"/>
      <text x="492.0234" y="841.7139" clip-path="url(#clipPath2)" font-family="sans-serif" stroke="none" font-weight="bold" stroke-width="1" xml:space="preserve">Конец</text>
    </g>
    <g fill="url(#linearGradient10)" text-rendering="geometricPrecision" shape-rendering="geometricPrecision" transform="matrix(1,0,0,1,-430,-145)" stroke="url(#linearGradient10)">
      <path d="M470 230 L550 230 L550 270 L470 270 Z" stroke="none" clip-path="url(#clipPath2)"/>
    </g>
    <g text-rendering="geometricPrecision" stroke-miterlimit="1.45" stroke-width="2" shape-rendering="geometricPrecision" transform="matrix(1,0,0,1,-430,-145)" stroke-linecap="butt">
      <path fill="none" d="M470 230 L550 230 L550 270 L470 270 Z" clip-path="url(#clipPath2)"/>
      <text x="479.2998" y="254.7139" clip-path="url(#clipPath2)" font-family="sans-serif" stroke="none" font-weight="bold" stroke-width="1" xml:space="preserve">status = 'y'</text>
    </g>
    <g text-rendering="geometricPrecision" stroke-miterlimit="1.45" shape-rendering="geometricPrecision" transform="matrix(1,0,0,1,-430,-145)" stroke-linecap="butt">
      <path fill="none" d="M510 339.9951 L510 370.0273" clip-path="url(#clipPath2)"/>
    </g>
    <g text-rendering="geometricPrecision" stroke-miterlimit="1.45" shape-rendering="geometricPrecision" transform="matrix(1,0,0,1,-430,-145)" stroke-linecap="butt">
      <path fill="none" d="M510 405.0049 L510 439.9944" clip-path="url(#clipPath2)"/>
      <path fill="none" d="M510 479.9951 L510 510.0273" clip-path="url(#clipPath2)"/>
      <path fill="none" d="M510 550.0188 L510 579.9926" clip-path="url(#clipPath2)"/>
      <path fill="none" d="M510 638.656 L510 676.9727" clip-path="url(#clipPath2)"/>
      <path fill="none" d="M510 716.9951 L510 747.0273" clip-path="url(#clipPath2)"/>
      <path fill="none" d="M510 786.9951 L510 817.0273" clip-path="url(#clipPath2)"/>
      <path fill="none" d="M510 199.9951 L510 230.0273" clip-path="url(#clipPath2)"/>
      <path fill="none" d="M510 269.9951 L510 300.0273" clip-path="url(#clipPath2)"/>
    </g>
  </g>
</svg>
