<?xml version="1.0" encoding="UTF-8"?><svg xmlns="http://www.w3.org/2000/svg" xmlns:xlink="http://www.w3.org/1999/xlink" fill-opacity="1" color-rendering="auto" color-interpolation="auto" text-rendering="auto" stroke="black" stroke-linecap="square" width="271" stroke-miterlimit="10" shape-rendering="auto" stroke-opacity="1" fill="black" stroke-dasharray="none" font-weight="normal" stroke-width="1" height="950" font-family="'Dialog'" font-style="normal" stroke-linejoin="miter" font-size="12px" stroke-dashoffset="0" image-rendering="auto">
  <!--Generated by ySVG 2.6-->
  <defs id="genericDefs"/>
  <g>
    <defs id="defs1">
      <linearGradient x1="584.375" gradientUnits="userSpaceOnUse" x2="664.375" y1="190" y2="230" id="linearGradient1" spreadMethod="reflect">
        <stop stop-opacity="1" stop-color="rgb(232,238,247)" offset="0%"/>
        <stop stop-opacity="1" stop-color="rgb(183,201,227)" offset="100%"/>
      </linearGradient>
      <linearGradient x1="574.375" gradientUnits="userSpaceOnUse" x2="674.375" y1="260" y2="300" id="linearGradient2" spreadMethod="reflect">
        <stop stop-opacity="1" stop-color="rgb(232,238,247)" offset="0%"/>
        <stop stop-opacity="1" stop-color="rgb(183,201,227)" offset="100%"/>
      </linearGradient>
      <linearGradient x1="569.875" gradientUnits="userSpaceOnUse" x2="678.875" y1="330" y2="370" id="linearGradient3" spreadMethod="reflect">
        <stop stop-opacity="1" stop-color="rgb(232,238,247)" offset="0%"/>
        <stop stop-opacity="1" stop-color="rgb(183,201,227)" offset="100%"/>
      </linearGradient>
      <linearGradient x1="584.375" gradientUnits="userSpaceOnUse" x2="664.375" y1="400" y2="440" id="linearGradient4" spreadMethod="reflect">
        <stop stop-opacity="1" stop-color="rgb(232,238,247)" offset="0%"/>
        <stop stop-opacity="1" stop-color="rgb(183,201,227)" offset="100%"/>
      </linearGradient>
      <linearGradient x1="555.375" gradientUnits="userSpaceOnUse" x2="693.375" y1="470" y2="510" id="linearGradient5" spreadMethod="reflect">
        <stop stop-opacity="1" stop-color="rgb(232,238,247)" offset="0%"/>
        <stop stop-opacity="1" stop-color="rgb(183,201,227)" offset="100%"/>
      </linearGradient>
      <linearGradient x1="555.375" gradientUnits="userSpaceOnUse" x2="693.375" y1="540" y2="580" id="linearGradient6" spreadMethod="reflect">
        <stop stop-opacity="1" stop-color="rgb(232,238,247)" offset="0%"/>
        <stop stop-opacity="1" stop-color="rgb(183,201,227)" offset="100%"/>
      </linearGradient>
      <linearGradient x1="569.875" gradientUnits="userSpaceOnUse" x2="678.875" y1="610" y2="650" id="linearGradient7" spreadMethod="reflect">
        <stop stop-opacity="1" stop-color="rgb(232,238,247)" offset="0%"/>
        <stop stop-opacity="1" stop-color="rgb(183,201,227)" offset="100%"/>
      </linearGradient>
      <linearGradient x1="525.875" gradientUnits="userSpaceOnUse" x2="722.875" y1="680" y2="720" id="linearGradient8" spreadMethod="reflect">
        <stop stop-opacity="1" stop-color="rgb(232,238,247)" offset="0%"/>
        <stop stop-opacity="1" stop-color="rgb(183,201,227)" offset="100%"/>
      </linearGradient>
      <linearGradient x1="577.125" gradientUnits="userSpaceOnUse" x2="671.625" y1="790" y2="830" id="linearGradient9" spreadMethod="reflect">
        <stop stop-opacity="1" stop-color="rgb(232,238,247)" offset="0%"/>
        <stop stop-opacity="1" stop-color="rgb(183,201,227)" offset="100%"/>
      </linearGradient>
      <linearGradient x1="528.75" gradientUnits="userSpaceOnUse" x2="720" y1="860" y2="900" id="linearGradient10" spreadMethod="reflect">
        <stop stop-opacity="1" stop-color="rgb(232,238,247)" offset="0%"/>
        <stop stop-opacity="1" stop-color="rgb(183,201,227)" offset="100%"/>
      </linearGradient>
      <linearGradient x1="584.375" gradientUnits="userSpaceOnUse" x2="664.375" y1="930" y2="970" id="linearGradient11" spreadMethod="reflect">
        <stop stop-opacity="1" stop-color="rgb(232,238,247)" offset="0%"/>
        <stop stop-opacity="1" stop-color="rgb(183,201,227)" offset="100%"/>
      </linearGradient>
      <linearGradient x1="580.75" gradientUnits="userSpaceOnUse" x2="668" y1="1000" y2="1040" id="linearGradient12" spreadMethod="reflect">
        <stop stop-opacity="1" stop-color="rgb(232,238,247)" offset="0%"/>
        <stop stop-opacity="1" stop-color="rgb(183,201,227)" offset="100%"/>
      </linearGradient>
      <linearGradient x1="584.375" gradientUnits="userSpaceOnUse" x2="664.375" y1="1070" y2="1110" id="linearGradient13" spreadMethod="reflect">
        <stop stop-opacity="1" stop-color="rgb(232,238,247)" offset="0%"/>
        <stop stop-opacity="1" stop-color="rgb(183,201,227)" offset="100%"/>
      </linearGradient>
      <clipPath clipPathUnits="userSpaceOnUse" id="clipPath1">
        <path d="M0 0 L271 0 L271 950 L0 950 L0 0 Z"/>
      </clipPath>
      <clipPath clipPathUnits="userSpaceOnUse" id="clipPath2">
        <path d="M489 175 L760 175 L760 1125 L489 1125 L489 175 Z"/>
      </clipPath>
    </defs>
    <g fill="url(#linearGradient1)" text-rendering="geometricPrecision" shape-rendering="geometricPrecision" transform="matrix(1,0,0,1,-489,-175)" stroke="url(#linearGradient1)">
      <rect x="584.375" y="190" clip-path="url(#clipPath2)" width="80" rx="20" ry="20" height="40" stroke="none"/>
    </g>
    <g text-rendering="geometricPrecision" stroke-miterlimit="1.45" stroke-width="2" shape-rendering="geometricPrecision" transform="matrix(1,0,0,1,-489,-175)" stroke-linecap="butt">
      <rect x="584.375" y="190" clip-path="url(#clipPath2)" fill="none" width="80" rx="20" ry="20" height="40"/>
      <text x="602.4082" y="214.7139" clip-path="url(#clipPath2)" font-family="sans-serif" stroke="none" font-weight="bold" stroke-width="1" xml:space="preserve">Начало</text>
    </g>
    <g fill="url(#linearGradient2)" text-rendering="geometricPrecision" shape-rendering="geometricPrecision" transform="matrix(1,0,0,1,-489,-175)" stroke="url(#linearGradient2)">
      <path d="M584.575 260 L674.375 260 L664.175 300 L574.375 300 Z" stroke="none" clip-path="url(#clipPath2)"/>
    </g>
    <g text-rendering="geometricPrecision" stroke-miterlimit="1.45" stroke-width="2" shape-rendering="geometricPrecision" transform="matrix(1,0,0,1,-489,-175)" stroke-linecap="butt">
      <path fill="none" d="M584.575 260 L674.375 260 L664.175 300 L574.375 300 Z" clip-path="url(#clipPath2)"/>
      <text x="588.0352" y="284.7139" clip-path="url(#clipPath2)" font-family="sans-serif" stroke="none" font-weight="bold" stroke-width="1" xml:space="preserve">f, a, b, eps, n</text>
    </g>
    <g fill="url(#linearGradient3)" text-rendering="geometricPrecision" shape-rendering="geometricPrecision" transform="matrix(1,0,0,1,-489,-175)" stroke="url(#linearGradient3)">
      <path d="M569.875 330 L678.875 330 L678.875 370 L569.875 370 Z" stroke="none" clip-path="url(#clipPath2)"/>
    </g>
    <g text-rendering="geometricPrecision" stroke-miterlimit="1.45" stroke-width="2" shape-rendering="geometricPrecision" transform="matrix(1,0,0,1,-489,-175)" stroke-linecap="butt">
      <path fill="none" d="M569.875 330 L678.875 330 L678.875 370 L569.875 370 Z" clip-path="url(#clipPath2)"/>
      <text x="579.0205" y="347.3633" clip-path="url(#clipPath2)" font-family="sans-serif" stroke="none" font-weight="bold" stroke-width="1" xml:space="preserve">x, dx, prev_sum</text>
      <text x="586.1895" y="362.0645" clip-path="url(#clipPath2)" font-family="sans-serif" stroke="none" font-weight="bold" stroke-width="1" xml:space="preserve">next_sum = 4</text>
    </g>
    <g fill="url(#linearGradient4)" text-rendering="geometricPrecision" shape-rendering="geometricPrecision" transform="matrix(1,0,0,1,-489,-175)" stroke="url(#linearGradient4)">
      <path d="M594.375 400 L654.375 400 L664.375 410 L664.375 440 L584.375 440 L584.375 410 Z" stroke="none" clip-path="url(#clipPath2)"/>
    </g>
    <g text-rendering="geometricPrecision" stroke-miterlimit="1.45" stroke-width="2" shape-rendering="geometricPrecision" transform="matrix(1,0,0,1,-489,-175)" stroke-linecap="butt">
      <path fill="none" d="M594.375 400 L654.375 400 L664.375 410 L664.375 440 L584.375 440 L584.375 410 Z" clip-path="url(#clipPath2)"/>
      <text x="603.4893" y="424.7139" clip-path="url(#clipPath2)" font-family="sans-serif" stroke="none" font-weight="bold" stroke-width="1" xml:space="preserve">Цикл A</text>
    </g>
    <g fill="url(#linearGradient5)" text-rendering="geometricPrecision" shape-rendering="geometricPrecision" transform="matrix(1,0,0,1,-489,-175)" stroke="url(#linearGradient5)">
      <path d="M555.375 470 L693.375 470 L693.375 510 L555.375 510 Z" stroke="none" clip-path="url(#clipPath2)"/>
    </g>
    <g text-rendering="geometricPrecision" stroke-miterlimit="1.45" stroke-width="2" shape-rendering="geometricPrecision" transform="matrix(1,0,0,1,-489,-175)" stroke-linecap="butt">
      <path fill="none" d="M555.375 470 L693.375 470 L693.375 510 L555.375 510 Z" clip-path="url(#clipPath2)"/>
      <text x="610.8633" y="487.3633" clip-path="url(#clipPath2)" font-family="sans-serif" stroke="none" font-weight="bold" stroke-width="1" xml:space="preserve">x = a</text>
      <text x="561.8467" y="502.0645" clip-path="url(#clipPath2)" font-family="sans-serif" stroke="none" font-weight="bold" stroke-width="1" xml:space="preserve">prev_sum = new_sum</text>
    </g>
    <g fill="url(#linearGradient6)" text-rendering="geometricPrecision" shape-rendering="geometricPrecision" transform="matrix(1,0,0,1,-489,-175)" stroke="url(#linearGradient6)">
      <path d="M555.375 540 L693.375 540 L693.375 580 L555.375 580 Z" stroke="none" clip-path="url(#clipPath2)"/>
    </g>
    <g text-rendering="geometricPrecision" stroke-miterlimit="1.45" stroke-width="2" shape-rendering="geometricPrecision" transform="matrix(1,0,0,1,-489,-175)" stroke-linecap="butt">
      <path fill="none" d="M555.375 540 L693.375 540 L693.375 580 L555.375 580 Z" clip-path="url(#clipPath2)"/>
      <text x="586.8574" y="557.3633" clip-path="url(#clipPath2)" font-family="sans-serif" stroke="none" font-weight="bold" stroke-width="1" xml:space="preserve">new_sum = 0</text>
      <text x="585.5391" y="572.0645" clip-path="url(#clipPath2)" font-family="sans-serif" stroke="none" font-weight="bold" stroke-width="1" xml:space="preserve">dx = (b - a) / n</text>
    </g>
    <g fill="url(#linearGradient7)" text-rendering="geometricPrecision" shape-rendering="geometricPrecision" transform="matrix(1,0,0,1,-489,-175)" stroke="url(#linearGradient7)">
      <path d="M579.875 610 L668.875 610 L678.875 630 L668.875 650 L579.875 650 L569.875 630 Z" stroke="none" clip-path="url(#clipPath2)"/>
    </g>
    <g text-rendering="geometricPrecision" stroke-miterlimit="1.45" stroke-width="2" shape-rendering="geometricPrecision" transform="matrix(1,0,0,1,-489,-175)" stroke-linecap="butt">
      <path fill="none" d="M579.875 610 L668.875 610 L678.875 630 L668.875 650 L579.875 650 L569.875 630 Z" clip-path="url(#clipPath2)"/>
      <text x="579.1875" y="634.7139" clip-path="url(#clipPath2)" font-family="sans-serif" stroke="none" font-weight="bold" stroke-width="1" xml:space="preserve">x; x &lt; b; x += dx</text>
    </g>
    <g fill="url(#linearGradient8)" text-rendering="geometricPrecision" shape-rendering="geometricPrecision" transform="matrix(1,0,0,1,-489,-175)" stroke="url(#linearGradient8)">
      <path d="M525.875 680 L722.875 680 L722.875 720 L525.875 720 Z" stroke="none" clip-path="url(#clipPath2)"/>
    </g>
    <g text-rendering="geometricPrecision" stroke-miterlimit="1.45" stroke-width="2" shape-rendering="geometricPrecision" transform="matrix(1,0,0,1,-489,-175)" stroke-linecap="butt">
      <path fill="none" d="M525.875 680 L722.875 680 L722.875 720 L525.875 720 Z" clip-path="url(#clipPath2)"/>
      <text x="535.0166" y="704.7139" clip-path="url(#clipPath2)" font-family="sans-serif" stroke="none" font-weight="bold" stroke-width="1" xml:space="preserve">new_sum += (f(x) + f(x + dx)) / 2</text>
    </g>
    <g fill="url(#linearGradient9)" text-rendering="geometricPrecision" shape-rendering="geometricPrecision" transform="matrix(1,0,0,1,-489,-175)" stroke="url(#linearGradient9)">
      <path d="M577.125 790 L671.625 790 L671.625 830 L577.125 830 Z" stroke="none" clip-path="url(#clipPath2)"/>
    </g>
    <g text-rendering="geometricPrecision" stroke-miterlimit="1.45" stroke-width="2" shape-rendering="geometricPrecision" transform="matrix(1,0,0,1,-489,-175)" stroke-linecap="butt">
      <path fill="none" d="M577.125 790 L671.625 790 L671.625 830 L577.125 830 Z" clip-path="url(#clipPath2)"/>
      <text x="580.8574" y="807.3633" clip-path="url(#clipPath2)" font-family="sans-serif" stroke="none" font-weight="bold" stroke-width="1" xml:space="preserve">new_sum *= dx</text>
      <text x="608.2002" y="822.0645" clip-path="url(#clipPath2)" font-family="sans-serif" stroke="none" font-weight="bold" stroke-width="1" xml:space="preserve">n *= 2</text>
    </g>
    <g fill="url(#linearGradient10)" text-rendering="geometricPrecision" shape-rendering="geometricPrecision" transform="matrix(1,0,0,1,-489,-175)" stroke="url(#linearGradient10)">
      <path d="M528.75 860 L720 860 L720 890 L710 900 L538.75 900 L528.75 890 Z" stroke="none" clip-path="url(#clipPath2)"/>
    </g>
    <g text-rendering="geometricPrecision" stroke-miterlimit="1.45" stroke-width="2" shape-rendering="geometricPrecision" transform="matrix(1,0,0,1,-489,-175)" stroke-linecap="butt">
      <path fill="none" d="M528.75 860 L720 860 L720 890 L710 900 L538.75 900 L528.75 890 Z" clip-path="url(#clipPath2)"/>
      <text x="603.4893" y="877.3633" clip-path="url(#clipPath2)" font-family="sans-serif" stroke="none" font-weight="bold" stroke-width="1" xml:space="preserve">Цикл A</text>
      <text x="531.8408" y="892.0645" clip-path="url(#clipPath2)" font-family="sans-serif" stroke="none" font-weight="bold" stroke-width="1" xml:space="preserve">abs(prev_sum - new_sum) &gt; eps</text>
    </g>
    <g fill="url(#linearGradient11)" text-rendering="geometricPrecision" shape-rendering="geometricPrecision" transform="matrix(1,0,0,1,-489,-175)" stroke="url(#linearGradient11)">
      <path d="M584.375 930 L664.375 930 L664.375 970 L584.375 970 Z" stroke="none" clip-path="url(#clipPath2)"/>
    </g>
    <g text-rendering="geometricPrecision" stroke-miterlimit="1.45" stroke-width="2" shape-rendering="geometricPrecision" transform="matrix(1,0,0,1,-489,-175)" stroke-linecap="butt">
      <path fill="none" d="M584.375 930 L664.375 930 L664.375 970 L584.375 970 Z" clip-path="url(#clipPath2)"/>
      <text x="608.8682" y="954.7139" clip-path="url(#clipPath2)" font-family="sans-serif" stroke="none" font-weight="bold" stroke-width="1" xml:space="preserve">n /= 2</text>
    </g>
    <g fill="url(#linearGradient12)" text-rendering="geometricPrecision" shape-rendering="geometricPrecision" transform="matrix(1,0,0,1,-489,-175)" stroke="url(#linearGradient12)">
      <path d="M590.95 1000 L668 1000 L657.8 1040 L580.75 1040 Z" stroke="none" clip-path="url(#clipPath2)"/>
    </g>
    <g text-rendering="geometricPrecision" stroke-miterlimit="1.45" stroke-width="2" shape-rendering="geometricPrecision" transform="matrix(1,0,0,1,-489,-175)" stroke-linecap="butt">
      <path fill="none" d="M590.95 1000 L668 1000 L657.8 1040 L580.75 1040 Z" clip-path="url(#clipPath2)"/>
      <text x="590.0332" y="1024.7139" clip-path="url(#clipPath2)" font-family="sans-serif" stroke="none" font-weight="bold" stroke-width="1" xml:space="preserve">new_sum, n</text>
    </g>
    <g fill="url(#linearGradient13)" text-rendering="geometricPrecision" shape-rendering="geometricPrecision" transform="matrix(1,0,0,1,-489,-175)" stroke="url(#linearGradient13)">
      <rect x="584.375" y="1070" clip-path="url(#clipPath2)" width="80" rx="20" ry="20" height="40" stroke="none"/>
    </g>
    <g text-rendering="geometricPrecision" stroke-miterlimit="1.45" stroke-width="2" shape-rendering="geometricPrecision" transform="matrix(1,0,0,1,-489,-175)" stroke-linecap="butt">
      <rect x="584.375" y="1070" clip-path="url(#clipPath2)" fill="none" width="80" rx="20" ry="20" height="40"/>
      <text x="606.3984" y="1094.7139" clip-path="url(#clipPath2)" font-family="sans-serif" stroke="none" font-weight="bold" stroke-width="1" xml:space="preserve">Конец</text>
    </g>
    <g text-rendering="geometricPrecision" stroke-miterlimit="1.45" shape-rendering="geometricPrecision" transform="matrix(1,0,0,1,-489,-175)" stroke-linecap="butt">
      <path fill="none" d="M624.375 229.9951 L624.375 260.0273" clip-path="url(#clipPath2)"/>
    </g>
    <g text-rendering="geometricPrecision" stroke-miterlimit="1.45" shape-rendering="geometricPrecision" transform="matrix(1,0,0,1,-489,-175)" stroke-linecap="butt">
      <path fill="none" d="M624.375 299.9951 L624.375 330.0273" clip-path="url(#clipPath2)"/>
      <path fill="none" d="M624.375 369.9951 L624.375 400.0273" clip-path="url(#clipPath2)"/>
      <path fill="none" d="M624.375 439.9951 L624.375 470.0273" clip-path="url(#clipPath2)"/>
      <path fill="none" d="M624.375 509.9951 L624.375 540.0273" clip-path="url(#clipPath2)"/>
      <path fill="none" d="M624.375 579.9951 L624.375 610.0273" clip-path="url(#clipPath2)"/>
      <path fill="none" d="M624.375 649.9951 L624.375 680.0273" clip-path="url(#clipPath2)"/>
      <path fill="none" d="M624.375 719.9707 L624.375 750 L744.375 750 L744.375 630 L686.8965 630" clip-path="url(#clipPath2)"/>
      <path d="M678.8965 630 L690.8965 635 L687.8965 630 L690.8965 625 Z" clip-path="url(#clipPath2)" stroke="none"/>
      <path fill="none" d="M569.8535 630 L504.375 630 L504.375 780 L624.375 780 L624.375 781.9902" clip-path="url(#clipPath2)"/>
      <path d="M624.375 789.9902 L629.375 777.9902 L624.375 780.9902 L619.375 777.9902 Z" clip-path="url(#clipPath2)" stroke="none"/>
      <path fill="none" d="M624.375 829.9951 L624.375 860.0273" clip-path="url(#clipPath2)"/>
      <path fill="none" d="M624.375 899.9951 L624.375 930.0273" clip-path="url(#clipPath2)"/>
      <path fill="none" d="M624.375 969.9951 L624.375 1000.0273" clip-path="url(#clipPath2)"/>
      <path fill="none" d="M624.375 1039.9951 L624.375 1070.0273" clip-path="url(#clipPath2)"/>
    </g>
  </g>
</svg>
