<?xml version="1.0" encoding="UTF-8"?><svg xmlns="http://www.w3.org/2000/svg" xmlns:xlink="http://www.w3.org/1999/xlink" fill-opacity="1" color-rendering="auto" color-interpolation="auto" text-rendering="auto" stroke="black" stroke-linecap="square" width="270" stroke-miterlimit="10" shape-rendering="auto" stroke-opacity="1" fill="black" stroke-dasharray="none" font-weight="normal" stroke-width="1" height="950" font-family="'Dialog'" font-style="normal" stroke-linejoin="miter" font-size="12px" stroke-dashoffset="0" image-rendering="auto">
  <!--Generated by ySVG 2.6-->
  <defs id="genericDefs"/>
  <g>
    <defs id="defs1">
      <linearGradient x1="530" gradientUnits="userSpaceOnUse" x2="610" y1="160" y2="200" id="linearGradient1" spreadMethod="reflect">
        <stop stop-opacity="1" stop-color="rgb(232,238,247)" offset="0%"/>
        <stop stop-opacity="1" stop-color="rgb(183,201,227)" offset="100%"/>
      </linearGradient>
      <linearGradient x1="520" gradientUnits="userSpaceOnUse" x2="620" y1="230" y2="270" id="linearGradient2" spreadMethod="reflect">
        <stop stop-opacity="1" stop-color="rgb(232,238,247)" offset="0%"/>
        <stop stop-opacity="1" stop-color="rgb(183,201,227)" offset="100%"/>
      </linearGradient>
      <linearGradient x1="515.5" gradientUnits="userSpaceOnUse" x2="624.5" y1="300" y2="340" id="linearGradient3" spreadMethod="reflect">
        <stop stop-opacity="1" stop-color="rgb(232,238,247)" offset="0%"/>
        <stop stop-opacity="1" stop-color="rgb(183,201,227)" offset="100%"/>
      </linearGradient>
      <linearGradient x1="530" gradientUnits="userSpaceOnUse" x2="610" y1="370" y2="410" id="linearGradient4" spreadMethod="reflect">
        <stop stop-opacity="1" stop-color="rgb(232,238,247)" offset="0%"/>
        <stop stop-opacity="1" stop-color="rgb(183,201,227)" offset="100%"/>
      </linearGradient>
      <linearGradient x1="501" gradientUnits="userSpaceOnUse" x2="639" y1="440" y2="480" id="linearGradient5" spreadMethod="reflect">
        <stop stop-opacity="1" stop-color="rgb(232,238,247)" offset="0%"/>
        <stop stop-opacity="1" stop-color="rgb(183,201,227)" offset="100%"/>
      </linearGradient>
      <linearGradient x1="501" gradientUnits="userSpaceOnUse" x2="639" y1="510" y2="550" id="linearGradient6" spreadMethod="reflect">
        <stop stop-opacity="1" stop-color="rgb(232,238,247)" offset="0%"/>
        <stop stop-opacity="1" stop-color="rgb(183,201,227)" offset="100%"/>
      </linearGradient>
      <linearGradient x1="515.5" gradientUnits="userSpaceOnUse" x2="624.5" y1="580" y2="620" id="linearGradient7" spreadMethod="reflect">
        <stop stop-opacity="1" stop-color="rgb(232,238,247)" offset="0%"/>
        <stop stop-opacity="1" stop-color="rgb(183,201,227)" offset="100%"/>
      </linearGradient>
      <linearGradient x1="489.5" gradientUnits="userSpaceOnUse" x2="650.5" y1="650" y2="690" id="linearGradient8" spreadMethod="reflect">
        <stop stop-opacity="1" stop-color="rgb(232,238,247)" offset="0%"/>
        <stop stop-opacity="1" stop-color="rgb(183,201,227)" offset="100%"/>
      </linearGradient>
      <linearGradient x1="522.75" gradientUnits="userSpaceOnUse" x2="617.25" y1="760" y2="800" id="linearGradient9" spreadMethod="reflect">
        <stop stop-opacity="1" stop-color="rgb(232,238,247)" offset="0%"/>
        <stop stop-opacity="1" stop-color="rgb(183,201,227)" offset="100%"/>
      </linearGradient>
      <linearGradient x1="474.375" gradientUnits="userSpaceOnUse" x2="665.625" y1="830" y2="870" id="linearGradient10" spreadMethod="reflect">
        <stop stop-opacity="1" stop-color="rgb(232,238,247)" offset="0%"/>
        <stop stop-opacity="1" stop-color="rgb(183,201,227)" offset="100%"/>
      </linearGradient>
      <linearGradient x1="530" gradientUnits="userSpaceOnUse" x2="610" y1="900" y2="940" id="linearGradient11" spreadMethod="reflect">
        <stop stop-opacity="1" stop-color="rgb(232,238,247)" offset="0%"/>
        <stop stop-opacity="1" stop-color="rgb(183,201,227)" offset="100%"/>
      </linearGradient>
      <linearGradient x1="526.375" gradientUnits="userSpaceOnUse" x2="613.625" y1="970" y2="1010" id="linearGradient12" spreadMethod="reflect">
        <stop stop-opacity="1" stop-color="rgb(232,238,247)" offset="0%"/>
        <stop stop-opacity="1" stop-color="rgb(183,201,227)" offset="100%"/>
      </linearGradient>
      <linearGradient x1="530" gradientUnits="userSpaceOnUse" x2="610" y1="1040" y2="1080" id="linearGradient13" spreadMethod="reflect">
        <stop stop-opacity="1" stop-color="rgb(232,238,247)" offset="0%"/>
        <stop stop-opacity="1" stop-color="rgb(183,201,227)" offset="100%"/>
      </linearGradient>
      <clipPath clipPathUnits="userSpaceOnUse" id="clipPath1">
        <path d="M0 0 L270 0 L270 950 L0 950 L0 0 Z"/>
      </clipPath>
      <clipPath clipPathUnits="userSpaceOnUse" id="clipPath2">
        <path d="M435 145 L705 145 L705 1095 L435 1095 L435 145 Z"/>
      </clipPath>
    </defs>
    <g fill="url(#linearGradient1)" text-rendering="geometricPrecision" shape-rendering="geometricPrecision" transform="matrix(1,0,0,1,-435,-145)" stroke="url(#linearGradient1)">
      <rect x="530" y="160" clip-path="url(#clipPath2)" width="80" rx="20" ry="20" height="40" stroke="none"/>
    </g>
    <g text-rendering="geometricPrecision" stroke-miterlimit="1.45" stroke-width="2" shape-rendering="geometricPrecision" transform="matrix(1,0,0,1,-435,-145)" stroke-linecap="butt">
      <rect x="530" y="160" clip-path="url(#clipPath2)" fill="none" width="80" rx="20" ry="20" height="40"/>
      <text x="548.0332" y="184.7139" clip-path="url(#clipPath2)" font-family="sans-serif" stroke="none" font-weight="bold" stroke-width="1" xml:space="preserve">Начало</text>
    </g>
    <g fill="url(#linearGradient2)" text-rendering="geometricPrecision" shape-rendering="geometricPrecision" transform="matrix(1,0,0,1,-435,-145)" stroke="url(#linearGradient2)">
      <path d="M530.2 230 L620 230 L609.8 270 L520 270 Z" stroke="none" clip-path="url(#clipPath2)"/>
    </g>
    <g text-rendering="geometricPrecision" stroke-miterlimit="1.45" stroke-width="2" shape-rendering="geometricPrecision" transform="matrix(1,0,0,1,-435,-145)" stroke-linecap="butt">
      <path fill="none" d="M530.2 230 L620 230 L609.8 270 L520 270 Z" clip-path="url(#clipPath2)"/>
      <text x="533.6602" y="254.7139" clip-path="url(#clipPath2)" font-family="sans-serif" stroke="none" font-weight="bold" stroke-width="1" xml:space="preserve">f, a, b, eps, n</text>
    </g>
    <g fill="url(#linearGradient3)" text-rendering="geometricPrecision" shape-rendering="geometricPrecision" transform="matrix(1,0,0,1,-435,-145)" stroke="url(#linearGradient3)">
      <path d="M515.5 300 L624.5 300 L624.5 340 L515.5 340 Z" stroke="none" clip-path="url(#clipPath2)"/>
    </g>
    <g text-rendering="geometricPrecision" stroke-miterlimit="1.45" stroke-width="2" shape-rendering="geometricPrecision" transform="matrix(1,0,0,1,-435,-145)" stroke-linecap="butt">
      <path fill="none" d="M515.5 300 L624.5 300 L624.5 340 L515.5 340 Z" clip-path="url(#clipPath2)"/>
      <text x="524.6455" y="317.3633" clip-path="url(#clipPath2)" font-family="sans-serif" stroke="none" font-weight="bold" stroke-width="1" xml:space="preserve">x, dx, prev_sum</text>
      <text x="531.8145" y="332.0645" clip-path="url(#clipPath2)" font-family="sans-serif" stroke="none" font-weight="bold" stroke-width="1" xml:space="preserve">next_sum = 4</text>
    </g>
    <g fill="url(#linearGradient4)" text-rendering="geometricPrecision" shape-rendering="geometricPrecision" transform="matrix(1,0,0,1,-435,-145)" stroke="url(#linearGradient4)">
      <path d="M540 370 L600 370 L610 380 L610 410 L530 410 L530 380 Z" stroke="none" clip-path="url(#clipPath2)"/>
    </g>
    <g text-rendering="geometricPrecision" stroke-miterlimit="1.45" stroke-width="2" shape-rendering="geometricPrecision" transform="matrix(1,0,0,1,-435,-145)" stroke-linecap="butt">
      <path fill="none" d="M540 370 L600 370 L610 380 L610 410 L530 410 L530 380 Z" clip-path="url(#clipPath2)"/>
      <text x="549.1143" y="394.7139" clip-path="url(#clipPath2)" font-family="sans-serif" stroke="none" font-weight="bold" stroke-width="1" xml:space="preserve">Цикл A</text>
    </g>
    <g fill="url(#linearGradient5)" text-rendering="geometricPrecision" shape-rendering="geometricPrecision" transform="matrix(1,0,0,1,-435,-145)" stroke="url(#linearGradient5)">
      <path d="M501 440 L639 440 L639 480 L501 480 Z" stroke="none" clip-path="url(#clipPath2)"/>
    </g>
    <g text-rendering="geometricPrecision" stroke-miterlimit="1.45" stroke-width="2" shape-rendering="geometricPrecision" transform="matrix(1,0,0,1,-435,-145)" stroke-linecap="butt">
      <path fill="none" d="M501 440 L639 440 L639 480 L501 480 Z" clip-path="url(#clipPath2)"/>
      <text x="556.4883" y="457.3633" clip-path="url(#clipPath2)" font-family="sans-serif" stroke="none" font-weight="bold" stroke-width="1" xml:space="preserve">x = a</text>
      <text x="507.4717" y="472.0645" clip-path="url(#clipPath2)" font-family="sans-serif" stroke="none" font-weight="bold" stroke-width="1" xml:space="preserve">prev_sum = new_sum</text>
    </g>
    <g fill="url(#linearGradient6)" text-rendering="geometricPrecision" shape-rendering="geometricPrecision" transform="matrix(1,0,0,1,-435,-145)" stroke="url(#linearGradient6)">
      <path d="M501 510 L639 510 L639 550 L501 550 Z" stroke="none" clip-path="url(#clipPath2)"/>
    </g>
    <g text-rendering="geometricPrecision" stroke-miterlimit="1.45" stroke-width="2" shape-rendering="geometricPrecision" transform="matrix(1,0,0,1,-435,-145)" stroke-linecap="butt">
      <path fill="none" d="M501 510 L639 510 L639 550 L501 550 Z" clip-path="url(#clipPath2)"/>
      <text x="532.4824" y="527.3633" clip-path="url(#clipPath2)" font-family="sans-serif" stroke="none" font-weight="bold" stroke-width="1" xml:space="preserve">new_sum = 0</text>
      <text x="531.1641" y="542.0645" clip-path="url(#clipPath2)" font-family="sans-serif" stroke="none" font-weight="bold" stroke-width="1" xml:space="preserve">dx = (b - a) / n</text>
    </g>
    <g fill="url(#linearGradient7)" text-rendering="geometricPrecision" shape-rendering="geometricPrecision" transform="matrix(1,0,0,1,-435,-145)" stroke="url(#linearGradient7)">
      <path d="M525.5 580 L614.5 580 L624.5 600 L614.5 620 L525.5 620 L515.5 600 Z" stroke="none" clip-path="url(#clipPath2)"/>
    </g>
    <g text-rendering="geometricPrecision" stroke-miterlimit="1.45" stroke-width="2" shape-rendering="geometricPrecision" transform="matrix(1,0,0,1,-435,-145)" stroke-linecap="butt">
      <path fill="none" d="M525.5 580 L614.5 580 L624.5 600 L614.5 620 L525.5 620 L515.5 600 Z" clip-path="url(#clipPath2)"/>
      <text x="524.8125" y="604.7139" clip-path="url(#clipPath2)" font-family="sans-serif" stroke="none" font-weight="bold" stroke-width="1" xml:space="preserve">x; x &lt; b; x += dx</text>
    </g>
    <g fill="url(#linearGradient8)" text-rendering="geometricPrecision" shape-rendering="geometricPrecision" transform="matrix(1,0,0,1,-435,-145)" stroke="url(#linearGradient8)">
      <path d="M489.5 650 L650.5 650 L650.5 690 L489.5 690 Z" stroke="none" clip-path="url(#clipPath2)"/>
    </g>
    <g text-rendering="geometricPrecision" stroke-miterlimit="1.45" stroke-width="2" shape-rendering="geometricPrecision" transform="matrix(1,0,0,1,-435,-145)" stroke-linecap="butt">
      <path fill="none" d="M489.5 650 L650.5 650 L650.5 690 L489.5 690 Z" clip-path="url(#clipPath2)"/>
      <text x="496.8105" y="674.7139" clip-path="url(#clipPath2)" font-family="sans-serif" stroke="none" font-weight="bold" stroke-width="1" xml:space="preserve">new_sum += f(x + (dx / 2))</text>
    </g>
    <g fill="url(#linearGradient9)" text-rendering="geometricPrecision" shape-rendering="geometricPrecision" transform="matrix(1,0,0,1,-435,-145)" stroke="url(#linearGradient9)">
      <path d="M522.75 760 L617.25 760 L617.25 800 L522.75 800 Z" stroke="none" clip-path="url(#clipPath2)"/>
    </g>
    <g text-rendering="geometricPrecision" stroke-miterlimit="1.45" stroke-width="2" shape-rendering="geometricPrecision" transform="matrix(1,0,0,1,-435,-145)" stroke-linecap="butt">
      <path fill="none" d="M522.75 760 L617.25 760 L617.25 800 L522.75 800 Z" clip-path="url(#clipPath2)"/>
      <text x="526.4824" y="777.3633" clip-path="url(#clipPath2)" font-family="sans-serif" stroke="none" font-weight="bold" stroke-width="1" xml:space="preserve">new_sum *= dx</text>
      <text x="553.8252" y="792.0645" clip-path="url(#clipPath2)" font-family="sans-serif" stroke="none" font-weight="bold" stroke-width="1" xml:space="preserve">n *= 2</text>
    </g>
    <g fill="url(#linearGradient10)" text-rendering="geometricPrecision" shape-rendering="geometricPrecision" transform="matrix(1,0,0,1,-435,-145)" stroke="url(#linearGradient10)">
      <path d="M474.375 830 L665.625 830 L665.625 860 L655.625 870 L484.375 870 L474.375 860 Z" stroke="none" clip-path="url(#clipPath2)"/>
    </g>
    <g text-rendering="geometricPrecision" stroke-miterlimit="1.45" stroke-width="2" shape-rendering="geometricPrecision" transform="matrix(1,0,0,1,-435,-145)" stroke-linecap="butt">
      <path fill="none" d="M474.375 830 L665.625 830 L665.625 860 L655.625 870 L484.375 870 L474.375 860 Z" clip-path="url(#clipPath2)"/>
      <text x="549.1143" y="847.3633" clip-path="url(#clipPath2)" font-family="sans-serif" stroke="none" font-weight="bold" stroke-width="1" xml:space="preserve">Цикл A</text>
      <text x="477.4658" y="862.0645" clip-path="url(#clipPath2)" font-family="sans-serif" stroke="none" font-weight="bold" stroke-width="1" xml:space="preserve">abs(prev_sum - new_sum) &gt; eps</text>
    </g>
    <g fill="url(#linearGradient11)" text-rendering="geometricPrecision" shape-rendering="geometricPrecision" transform="matrix(1,0,0,1,-435,-145)" stroke="url(#linearGradient11)">
      <path d="M530 900 L610 900 L610 940 L530 940 Z" stroke="none" clip-path="url(#clipPath2)"/>
    </g>
    <g text-rendering="geometricPrecision" stroke-miterlimit="1.45" stroke-width="2" shape-rendering="geometricPrecision" transform="matrix(1,0,0,1,-435,-145)" stroke-linecap="butt">
      <path fill="none" d="M530 900 L610 900 L610 940 L530 940 Z" clip-path="url(#clipPath2)"/>
      <text x="554.4932" y="924.7139" clip-path="url(#clipPath2)" font-family="sans-serif" stroke="none" font-weight="bold" stroke-width="1" xml:space="preserve">n /= 2</text>
    </g>
    <g fill="url(#linearGradient12)" text-rendering="geometricPrecision" shape-rendering="geometricPrecision" transform="matrix(1,0,0,1,-435,-145)" stroke="url(#linearGradient12)">
      <path d="M536.575 970 L613.625 970 L603.425 1010 L526.375 1010 Z" stroke="none" clip-path="url(#clipPath2)"/>
    </g>
    <g text-rendering="geometricPrecision" stroke-miterlimit="1.45" stroke-width="2" shape-rendering="geometricPrecision" transform="matrix(1,0,0,1,-435,-145)" stroke-linecap="butt">
      <path fill="none" d="M536.575 970 L613.625 970 L603.425 1010 L526.375 1010 Z" clip-path="url(#clipPath2)"/>
      <text x="535.6582" y="994.7139" clip-path="url(#clipPath2)" font-family="sans-serif" stroke="none" font-weight="bold" stroke-width="1" xml:space="preserve">new_sum, n</text>
    </g>
    <g fill="url(#linearGradient13)" text-rendering="geometricPrecision" shape-rendering="geometricPrecision" transform="matrix(1,0,0,1,-435,-145)" stroke="url(#linearGradient13)">
      <rect x="530" y="1040" clip-path="url(#clipPath2)" width="80" rx="20" ry="20" height="40" stroke="none"/>
    </g>
    <g text-rendering="geometricPrecision" stroke-miterlimit="1.45" stroke-width="2" shape-rendering="geometricPrecision" transform="matrix(1,0,0,1,-435,-145)" stroke-linecap="butt">
      <rect x="530" y="1040" clip-path="url(#clipPath2)" fill="none" width="80" rx="20" ry="20" height="40"/>
      <text x="552.0234" y="1064.7139" clip-path="url(#clipPath2)" font-family="sans-serif" stroke="none" font-weight="bold" stroke-width="1" xml:space="preserve">Конец</text>
    </g>
    <g text-rendering="geometricPrecision" stroke-miterlimit="1.45" shape-rendering="geometricPrecision" transform="matrix(1,0,0,1,-435,-145)" stroke-linecap="butt">
      <path fill="none" d="M570 199.9951 L570 230.0273" clip-path="url(#clipPath2)"/>
    </g>
    <g text-rendering="geometricPrecision" stroke-miterlimit="1.45" shape-rendering="geometricPrecision" transform="matrix(1,0,0,1,-435,-145)" stroke-linecap="butt">
      <path fill="none" d="M570 269.9951 L570 300.0273" clip-path="url(#clipPath2)"/>
      <path fill="none" d="M570 339.9951 L570 370.0273" clip-path="url(#clipPath2)"/>
      <path fill="none" d="M570 409.9951 L570 440.0273" clip-path="url(#clipPath2)"/>
      <path fill="none" d="M570 479.9951 L570 510.0273" clip-path="url(#clipPath2)"/>
      <path fill="none" d="M570 549.9951 L570 580.0273" clip-path="url(#clipPath2)"/>
      <path fill="none" d="M570 619.9951 L570 650.0273" clip-path="url(#clipPath2)"/>
      <path fill="none" d="M570 689.9707 L570 720 L690 720 L690 600 L632.5215 600" clip-path="url(#clipPath2)"/>
      <path d="M624.5215 600 L636.5215 605 L633.5215 600 L636.5215 595 Z" clip-path="url(#clipPath2)" stroke="none"/>
      <path fill="none" d="M515.4785 600 L450 600 L450 750 L570 750 L570 751.9902" clip-path="url(#clipPath2)"/>
      <path d="M570 759.9902 L575 747.9902 L570 750.9902 L565 747.9902 Z" clip-path="url(#clipPath2)" stroke="none"/>
      <path fill="none" d="M570 799.9951 L570 830.0273" clip-path="url(#clipPath2)"/>
      <path fill="none" d="M570 869.9951 L570 900.0273" clip-path="url(#clipPath2)"/>
      <path fill="none" d="M570 939.9951 L570 970.0273" clip-path="url(#clipPath2)"/>
      <path fill="none" d="M570 1009.9951 L570 1040.0273" clip-path="url(#clipPath2)"/>
    </g>
  </g>
</svg>
