<?xml version="1.0" encoding="UTF-8"?><svg xmlns="http://www.w3.org/2000/svg" xmlns:xlink="http://www.w3.org/1999/xlink" fill-opacity="1" color-rendering="auto" color-interpolation="auto" text-rendering="auto" stroke="black" stroke-linecap="square" width="242" stroke-miterlimit="10" shape-rendering="auto" stroke-opacity="1" fill="black" stroke-dasharray="none" font-weight="normal" stroke-width="1" height="761" font-family="'Dialog'" font-style="normal" stroke-linejoin="miter" font-size="12px" stroke-dashoffset="0" image-rendering="auto">
  <!--Generated by ySVG 2.6-->
  <defs id="genericDefs"/>
  <g>
    <defs id="defs1">
      <linearGradient x1="551.6" gradientUnits="userSpaceOnUse" x2="631.6" y1="141" y2="181" id="linearGradient1" spreadMethod="reflect">
        <stop stop-opacity="1" stop-color="rgb(232,238,247)" offset="0%"/>
        <stop stop-opacity="1" stop-color="rgb(183,201,227)" offset="100%"/>
      </linearGradient>
      <linearGradient x1="525.6" gradientUnits="userSpaceOnUse" x2="657.6" y1="211" y2="251" id="linearGradient2" spreadMethod="reflect">
        <stop stop-opacity="1" stop-color="rgb(232,238,247)" offset="0%"/>
        <stop stop-opacity="1" stop-color="rgb(183,201,227)" offset="100%"/>
      </linearGradient>
      <linearGradient x1="551.6" gradientUnits="userSpaceOnUse" x2="631.6" y1="420" y2="460" id="linearGradient3" spreadMethod="reflect">
        <stop stop-opacity="1" stop-color="rgb(232,238,247)" offset="0%"/>
        <stop stop-opacity="1" stop-color="rgb(183,201,227)" offset="100%"/>
      </linearGradient>
      <linearGradient x1="491.2" gradientUnits="userSpaceOnUse" x2="692" y1="560" y2="600" id="linearGradient4" spreadMethod="reflect">
        <stop stop-opacity="1" stop-color="rgb(232,238,247)" offset="0%"/>
        <stop stop-opacity="1" stop-color="rgb(183,201,227)" offset="100%"/>
      </linearGradient>
      <linearGradient x1="486.1442" gradientUnits="userSpaceOnUse" x2="697.0558" y1="687.8732" y2="744.0518" id="linearGradient5" spreadMethod="reflect">
        <stop stop-opacity="1" stop-color="rgb(232,238,247)" offset="0%"/>
        <stop stop-opacity="1" stop-color="rgb(183,201,227)" offset="100%"/>
      </linearGradient>
      <linearGradient x1="551.6" gradientUnits="userSpaceOnUse" x2="631.6" y1="831.925" y2="871.925" id="linearGradient6" spreadMethod="reflect">
        <stop stop-opacity="1" stop-color="rgb(232,238,247)" offset="0%"/>
        <stop stop-opacity="1" stop-color="rgb(183,201,227)" offset="100%"/>
      </linearGradient>
      <linearGradient x1="545.1" gradientUnits="userSpaceOnUse" x2="638.1" y1="767.9884" y2="807.9884" id="linearGradient7" spreadMethod="reflect">
        <stop stop-opacity="1" stop-color="rgb(232,238,247)" offset="0%"/>
        <stop stop-opacity="1" stop-color="rgb(183,201,227)" offset="100%"/>
      </linearGradient>
      <linearGradient x1="525.6" gradientUnits="userSpaceOnUse" x2="657.6" y1="280.5" y2="320.5" id="linearGradient8" spreadMethod="reflect">
        <stop stop-opacity="1" stop-color="rgb(232,238,247)" offset="0%"/>
        <stop stop-opacity="1" stop-color="rgb(183,201,227)" offset="100%"/>
      </linearGradient>
      <linearGradient x1="525.6" gradientUnits="userSpaceOnUse" x2="657.6" y1="350.25" y2="390.25" id="linearGradient9" spreadMethod="reflect">
        <stop stop-opacity="1" stop-color="rgb(232,238,247)" offset="0%"/>
        <stop stop-opacity="1" stop-color="rgb(183,201,227)" offset="100%"/>
      </linearGradient>
      <linearGradient x1="538.6" gradientUnits="userSpaceOnUse" x2="644.6" y1="490" y2="530" id="linearGradient10" spreadMethod="reflect">
        <stop stop-opacity="1" stop-color="rgb(232,238,247)" offset="0%"/>
        <stop stop-opacity="1" stop-color="rgb(183,201,227)" offset="100%"/>
      </linearGradient>
      <linearGradient x1="525.6" gradientUnits="userSpaceOnUse" x2="657.6" y1="623.9366" y2="663.9366" id="linearGradient11" spreadMethod="reflect">
        <stop stop-opacity="1" stop-color="rgb(232,238,247)" offset="0%"/>
        <stop stop-opacity="1" stop-color="rgb(183,201,227)" offset="100%"/>
      </linearGradient>
      <clipPath clipPathUnits="userSpaceOnUse" id="clipPath1">
        <path d="M0 0 L242 0 L242 761 L0 761 L0 0 Z"/>
      </clipPath>
      <clipPath clipPathUnits="userSpaceOnUse" id="clipPath2">
        <path d="M471 126 L713 126 L713 887 L471 887 L471 126 Z"/>
      </clipPath>
    </defs>
    <g fill="url(#linearGradient1)" text-rendering="geometricPrecision" shape-rendering="geometricPrecision" transform="matrix(1,0,0,1,-471,-126)" stroke="url(#linearGradient1)">
      <rect x="551.6" y="141" clip-path="url(#clipPath2)" width="80" rx="20" ry="20" height="40" stroke="none"/>
    </g>
    <g text-rendering="geometricPrecision" stroke-miterlimit="1.45" stroke-width="2" shape-rendering="geometricPrecision" transform="matrix(1,0,0,1,-471,-126)" stroke-linecap="butt">
      <rect x="551.6" y="141" clip-path="url(#clipPath2)" fill="none" width="80" rx="20" ry="20" height="40"/>
      <text x="569.6332" y="165.7139" clip-path="url(#clipPath2)" font-family="sans-serif" stroke="none" font-weight="bold" stroke-width="1" xml:space="preserve">Начало</text>
    </g>
    <g fill="url(#linearGradient2)" text-rendering="geometricPrecision" shape-rendering="geometricPrecision" transform="matrix(1,0,0,1,-471,-126)" stroke="url(#linearGradient2)">
      <path d="M535.8 211 L657.6 211 L647.4 251 L525.6 251 Z" stroke="none" clip-path="url(#clipPath2)"/>
    </g>
    <g text-rendering="geometricPrecision" stroke-miterlimit="1.45" stroke-width="2" shape-rendering="geometricPrecision" transform="matrix(1,0,0,1,-471,-126)" stroke-linecap="butt">
      <path fill="none" d="M535.8 211 L657.6 211 L647.4 251 L525.6 251 Z" clip-path="url(#clipPath2)"/>
      <text x="539.5746" y="227.6621" clip-path="url(#clipPath2)" font-family="sans-serif" stroke="none" font-weight="bold" stroke-width="1" xml:space="preserve">k, f, derivative eps</text>
      <text x="550.2621" y="242.3633" clip-path="url(#clipPath2)" font-family="sans-serif" stroke="none" font-weight="bold" stroke-width="1" xml:space="preserve">approximation</text>
    </g>
    <g fill="url(#linearGradient3)" text-rendering="geometricPrecision" shape-rendering="geometricPrecision" transform="matrix(1,0,0,1,-471,-126)" stroke="url(#linearGradient3)">
      <path d="M561.6 420 L621.6 420 L631.6 430 L631.6 460 L551.6 460 L551.6 430 Z" stroke="none" clip-path="url(#clipPath2)"/>
    </g>
    <g text-rendering="geometricPrecision" stroke-miterlimit="1.45" stroke-width="2" shape-rendering="geometricPrecision" transform="matrix(1,0,0,1,-471,-126)" stroke-linecap="butt">
      <path fill="none" d="M561.6 420 L621.6 420 L631.6 430 L631.6 460 L551.6 460 L551.6 430 Z" clip-path="url(#clipPath2)"/>
      <text x="570.7142" y="444.7139" clip-path="url(#clipPath2)" font-family="sans-serif" stroke="none" font-weight="bold" stroke-width="1" xml:space="preserve">Цикл C</text>
    </g>
    <g fill="url(#linearGradient4)" text-rendering="geometricPrecision" shape-rendering="geometricPrecision" transform="matrix(1,0,0,1,-471,-126)" stroke="url(#linearGradient4)">
      <rect x="491.2" width="200.8" height="40" y="560" clip-path="url(#clipPath2)" stroke="none"/>
    </g>
    <g text-rendering="geometricPrecision" stroke-miterlimit="1.45" stroke-width="2" shape-rendering="geometricPrecision" transform="matrix(1,0,0,1,-471,-126)" stroke-linecap="butt">
      <rect fill="none" x="491.2" width="200.8" height="40" y="560" clip-path="url(#clipPath2)"/>
      <path fill="none" d="M501.2 560 L501.2 600 M682 560 L682 600 M501.2 560 Z" clip-path="url(#clipPath2)"/>
      <text x="504.058" y="577.3633" clip-path="url(#clipPath2)" font-family="sans-serif" stroke="none" font-weight="bold" stroke-width="1" xml:space="preserve">next_x = prev_x -  f(prev_x, k) /</text>
      <text x="531.5707" y="592.0645" clip-path="url(#clipPath2)" font-family="sans-serif" stroke="none" font-weight="bold" stroke-width="1" xml:space="preserve">derivative(prev_x, k);</text>
    </g>
    <g fill="url(#linearGradient5)" text-rendering="geometricPrecision" shape-rendering="geometricPrecision" transform="matrix(1,0,0,1,-471,-126)" stroke="url(#linearGradient5)">
      <path d="M486.1442 687.8732 L697.0558 687.8732 L697.0558 734.0518 L687.0558 744.0518 L496.1442 744.0518 L486.1442 734.0518 Z" stroke="none" clip-path="url(#clipPath2)"/>
    </g>
    <g text-rendering="geometricPrecision" stroke-miterlimit="1.45" stroke-width="2" shape-rendering="geometricPrecision" transform="matrix(1,0,0,1,-471,-126)" stroke-linecap="butt">
      <path fill="none" d="M486.1442 687.8732 L697.0558 687.8732 L697.0558 734.0518 L687.0558 744.0518 L496.1442 744.0518 L486.1442 734.0518 Z" clip-path="url(#clipPath2)"/>
      <text x="570.7142" y="705.9752" clip-path="url(#clipPath2)" font-family="sans-serif" stroke="none" font-weight="bold" stroke-width="1" xml:space="preserve">Цикл C</text>
      <text x="510.7348" y="720.6764" clip-path="url(#clipPath2)" font-family="sans-serif" stroke="none" font-weight="bold" stroke-width="1" xml:space="preserve">(abs(next_x - prev_x) &gt; eps) </text>
      <text x="499.4027" y="735.3776" clip-path="url(#clipPath2)" font-family="sans-serif" stroke="none" font-weight="bold" stroke-width="1" xml:space="preserve">and (*iterations_count &lt; 100000)</text>
    </g>
    <g fill="url(#linearGradient6)" text-rendering="geometricPrecision" shape-rendering="geometricPrecision" transform="matrix(1,0,0,1,-471,-126)" stroke="url(#linearGradient6)">
      <rect x="551.6" y="831.925" clip-path="url(#clipPath2)" width="80" rx="20" ry="20" height="40" stroke="none"/>
    </g>
    <g text-rendering="geometricPrecision" stroke-miterlimit="1.45" stroke-width="2" shape-rendering="geometricPrecision" transform="matrix(1,0,0,1,-471,-126)" stroke-linecap="butt">
      <rect x="551.6" y="831.925" clip-path="url(#clipPath2)" fill="none" width="80" rx="20" ry="20" height="40"/>
      <text x="573.6234" y="856.6389" clip-path="url(#clipPath2)" font-family="sans-serif" stroke="none" font-weight="bold" stroke-width="1" xml:space="preserve">Конец</text>
    </g>
    <g fill="url(#linearGradient7)" text-rendering="geometricPrecision" shape-rendering="geometricPrecision" transform="matrix(1,0,0,1,-471,-126)" stroke="url(#linearGradient7)">
      <path d="M555.3 767.9884 L638.1 767.9884 L627.9 807.9884 L545.1 807.9884 Z" stroke="none" clip-path="url(#clipPath2)"/>
    </g>
    <g text-rendering="geometricPrecision" stroke-miterlimit="1.45" stroke-width="2" shape-rendering="geometricPrecision" transform="matrix(1,0,0,1,-471,-126)" stroke-linecap="butt">
      <path fill="none" d="M555.3 767.9884 L638.1 767.9884 L627.9 807.9884 L545.1 807.9884 Z" clip-path="url(#clipPath2)"/>
      <text x="553.5873" y="792.7023" clip-path="url(#clipPath2)" font-family="sans-serif" stroke="none" font-weight="bold" stroke-width="1" xml:space="preserve">return next_x</text>
    </g>
    <g fill="url(#linearGradient8)" text-rendering="geometricPrecision" shape-rendering="geometricPrecision" transform="matrix(1,0,0,1,-471,-126)" stroke="url(#linearGradient8)">
      <path d="M525.6 280.5 L657.6 280.5 L657.6 320.5 L525.6 320.5 Z" stroke="none" clip-path="url(#clipPath2)"/>
    </g>
    <g text-rendering="geometricPrecision" stroke-miterlimit="1.45" stroke-width="2" shape-rendering="geometricPrecision" transform="matrix(1,0,0,1,-471,-126)" stroke-linecap="butt">
      <path fill="none" d="M525.6 280.5 L657.6 280.5 L657.6 320.5 L525.6 320.5 Z" clip-path="url(#clipPath2)"/>
      <text x="524.4135" y="297.8633" clip-path="url(#clipPath2)" font-family="sans-serif" stroke="none" font-weight="bold" stroke-width="1" xml:space="preserve">next_x = approximation</text>
      <text x="546.4037" y="312.5645" clip-path="url(#clipPath2)" font-family="sans-serif" stroke="none" font-weight="bold" stroke-width="1" xml:space="preserve">prev_x = next_x</text>
    </g>
    <g fill="url(#linearGradient9)" text-rendering="geometricPrecision" shape-rendering="geometricPrecision" transform="matrix(1,0,0,1,-471,-126)" stroke="url(#linearGradient9)">
      <path d="M525.6 350.25 L657.6 350.25 L657.6 390.25 L525.6 390.25 Z" stroke="none" clip-path="url(#clipPath2)"/>
    </g>
    <g text-rendering="geometricPrecision" stroke-miterlimit="1.45" stroke-width="2" shape-rendering="geometricPrecision" transform="matrix(1,0,0,1,-471,-126)" stroke-linecap="butt">
      <path fill="none" d="M525.6 350.25 L657.6 350.25 L657.6 390.25 L525.6 390.25 Z" clip-path="url(#clipPath2)"/>
      <text x="532.4174" y="374.9639" clip-path="url(#clipPath2)" font-family="sans-serif" stroke="none" font-weight="bold" stroke-width="1" xml:space="preserve">*iterations_count = 0</text>
    </g>
    <g fill="url(#linearGradient10)" text-rendering="geometricPrecision" shape-rendering="geometricPrecision" transform="matrix(1,0,0,1,-471,-126)" stroke="url(#linearGradient10)">
      <path d="M538.6 490 L644.6 490 L644.6 530 L538.6 530 Z" stroke="none" clip-path="url(#clipPath2)"/>
    </g>
    <g text-rendering="geometricPrecision" stroke-miterlimit="1.45" stroke-width="2" shape-rendering="geometricPrecision" transform="matrix(1,0,0,1,-471,-126)" stroke-linecap="butt">
      <path fill="none" d="M538.6 490 L644.6 490 L644.6 530 L538.6 530 Z" clip-path="url(#clipPath2)"/>
      <text x="546.4037" y="514.7139" clip-path="url(#clipPath2)" font-family="sans-serif" stroke="none" font-weight="bold" stroke-width="1" xml:space="preserve">prev_x = next_x</text>
    </g>
    <g fill="url(#linearGradient11)" text-rendering="geometricPrecision" shape-rendering="geometricPrecision" transform="matrix(1,0,0,1,-471,-126)" stroke="url(#linearGradient11)">
      <path d="M525.6 623.9366 L657.6 623.9366 L657.6 663.9366 L525.6 663.9366 Z" stroke="none" clip-path="url(#clipPath2)"/>
    </g>
    <g text-rendering="geometricPrecision" stroke-miterlimit="1.45" stroke-width="2" shape-rendering="geometricPrecision" transform="matrix(1,0,0,1,-471,-126)" stroke-linecap="butt">
      <path fill="none" d="M525.6 623.9366 L657.6 623.9366 L657.6 663.9366 L525.6 663.9366 Z" clip-path="url(#clipPath2)"/>
      <text x="531.5883" y="648.6505" clip-path="url(#clipPath2)" font-family="sans-serif" stroke="none" font-weight="bold" stroke-width="1" xml:space="preserve">++(*iterations_count)</text>
    </g>
    <g text-rendering="geometricPrecision" stroke-miterlimit="1.45" shape-rendering="geometricPrecision" transform="matrix(1,0,0,1,-471,-126)" stroke-linecap="butt">
      <path fill="none" d="M591.6 180.9951 L591.6 211.0273" clip-path="url(#clipPath2)"/>
    </g>
    <g text-rendering="geometricPrecision" stroke-miterlimit="1.45" shape-rendering="geometricPrecision" transform="matrix(1,0,0,1,-471,-126)" stroke-linecap="butt">
      <path fill="none" d="M591.6 744.0624 L591.6 751.9755 L591.6 751.9755 L591.6 767.9773" clip-path="url(#clipPath2)"/>
      <path fill="none" d="M591.6 807.9998 L591.6 831.8927" clip-path="url(#clipPath2)"/>
      <path fill="none" d="M591.6 250.988 L591.6 280.5308" clip-path="url(#clipPath2)"/>
      <path fill="none" d="M591.6 320.4918 L591.6 350.2787" clip-path="url(#clipPath2)"/>
      <path fill="none" d="M591.6 390.2418 L591.6 420.0287" clip-path="url(#clipPath2)"/>
      <path fill="none" d="M591.6 459.9951 L591.6 475 L591.6 475 L591.6 490.0049" clip-path="url(#clipPath2)"/>
      <path fill="none" d="M591.6 529.9951 L591.6 545 L591.6 545 L591.6 560.0049" clip-path="url(#clipPath2)"/>
      <path fill="none" d="M591.6 600.0114 L591.6 623.9043" clip-path="url(#clipPath2)"/>
      <path fill="none" d="M591.6 663.9477 L591.6 687.8979" clip-path="url(#clipPath2)"/>
    </g>
  </g>
</svg>
