<?xml version="1.0" encoding="UTF-8"?><svg xmlns="http://www.w3.org/2000/svg" xmlns:xlink="http://www.w3.org/1999/xlink" fill-opacity="1" color-rendering="auto" color-interpolation="auto" text-rendering="auto" stroke="black" stroke-linecap="square" width="248" stroke-miterlimit="10" shape-rendering="auto" stroke-opacity="1" fill="black" stroke-dasharray="none" font-weight="normal" stroke-width="1" height="761" font-family="'Dialog'" font-style="normal" stroke-linejoin="miter" font-size="12px" stroke-dashoffset="0" image-rendering="auto">
  <!--Generated by ySVG 2.6-->
  <defs id="genericDefs"/>
  <g>
    <defs id="defs1">
      <linearGradient x1="520" gradientUnits="userSpaceOnUse" x2="600" y1="111" y2="151" id="linearGradient1" spreadMethod="reflect">
        <stop stop-opacity="1" stop-color="rgb(232,238,247)" offset="0%"/>
        <stop stop-opacity="1" stop-color="rgb(183,201,227)" offset="100%"/>
      </linearGradient>
      <linearGradient x1="510.4" gradientUnits="userSpaceOnUse" x2="609.6" y1="181" y2="221" id="linearGradient2" spreadMethod="reflect">
        <stop stop-opacity="1" stop-color="rgb(232,238,247)" offset="0%"/>
        <stop stop-opacity="1" stop-color="rgb(183,201,227)" offset="100%"/>
      </linearGradient>
      <linearGradient x1="520" gradientUnits="userSpaceOnUse" x2="600" y1="390" y2="430" id="linearGradient3" spreadMethod="reflect">
        <stop stop-opacity="1" stop-color="rgb(232,238,247)" offset="0%"/>
        <stop stop-opacity="1" stop-color="rgb(183,201,227)" offset="100%"/>
      </linearGradient>
      <linearGradient x1="483.2" gradientUnits="userSpaceOnUse" x2="636.8" y1="530" y2="570" id="linearGradient4" spreadMethod="reflect">
        <stop stop-opacity="1" stop-color="rgb(232,238,247)" offset="0%"/>
        <stop stop-opacity="1" stop-color="rgb(183,201,227)" offset="100%"/>
      </linearGradient>
      <linearGradient x1="451.7003" gradientUnits="userSpaceOnUse" x2="668.2997" y1="661.925" y2="718.7777" id="linearGradient5" spreadMethod="reflect">
        <stop stop-opacity="1" stop-color="rgb(232,238,247)" offset="0%"/>
        <stop stop-opacity="1" stop-color="rgb(183,201,227)" offset="100%"/>
      </linearGradient>
      <linearGradient x1="520" gradientUnits="userSpaceOnUse" x2="600" y1="801.925" y2="841.925" id="linearGradient6" spreadMethod="reflect">
        <stop stop-opacity="1" stop-color="rgb(232,238,247)" offset="0%"/>
        <stop stop-opacity="1" stop-color="rgb(183,201,227)" offset="100%"/>
      </linearGradient>
      <linearGradient x1="513.5" gradientUnits="userSpaceOnUse" x2="606.5" y1="740.3514" y2="780.3514" id="linearGradient7" spreadMethod="reflect">
        <stop stop-opacity="1" stop-color="rgb(232,238,247)" offset="0%"/>
        <stop stop-opacity="1" stop-color="rgb(183,201,227)" offset="100%"/>
      </linearGradient>
      <linearGradient x1="507" gradientUnits="userSpaceOnUse" x2="613" y1="460" y2="500" id="linearGradient8" spreadMethod="reflect">
        <stop stop-opacity="1" stop-color="rgb(232,238,247)" offset="0%"/>
        <stop stop-opacity="1" stop-color="rgb(183,201,227)" offset="100%"/>
      </linearGradient>
      <linearGradient x1="494" gradientUnits="userSpaceOnUse" x2="626" y1="250" y2="290" id="linearGradient9" spreadMethod="reflect">
        <stop stop-opacity="1" stop-color="rgb(232,238,247)" offset="0%"/>
        <stop stop-opacity="1" stop-color="rgb(183,201,227)" offset="100%"/>
      </linearGradient>
      <linearGradient x1="501.6" gradientUnits="userSpaceOnUse" x2="618.4" y1="320" y2="360" id="linearGradient10" spreadMethod="reflect">
        <stop stop-opacity="1" stop-color="rgb(232,238,247)" offset="0%"/>
        <stop stop-opacity="1" stop-color="rgb(183,201,227)" offset="100%"/>
      </linearGradient>
      <linearGradient x1="493.4569" gradientUnits="userSpaceOnUse" x2="626.543" y1="595.9625" y2="635.9625" id="linearGradient11" spreadMethod="reflect">
        <stop stop-opacity="1" stop-color="rgb(232,238,247)" offset="0%"/>
        <stop stop-opacity="1" stop-color="rgb(183,201,227)" offset="100%"/>
      </linearGradient>
      <clipPath clipPathUnits="userSpaceOnUse" id="clipPath1">
        <path d="M0 0 L248 0 L248 761 L0 761 L0 0 Z"/>
      </clipPath>
      <clipPath clipPathUnits="userSpaceOnUse" id="clipPath2">
        <path d="M436 96 L684 96 L684 857 L436 857 L436 96 Z"/>
      </clipPath>
    </defs>
    <g fill="url(#linearGradient1)" text-rendering="geometricPrecision" shape-rendering="geometricPrecision" transform="matrix(1,0,0,1,-436,-96)" stroke="url(#linearGradient1)">
      <rect x="520" y="111" clip-path="url(#clipPath2)" width="80" rx="20" ry="20" height="40" stroke="none"/>
    </g>
    <g text-rendering="geometricPrecision" stroke-miterlimit="1.45" stroke-width="2" shape-rendering="geometricPrecision" transform="matrix(1,0,0,1,-436,-96)" stroke-linecap="butt">
      <rect x="520" y="111" clip-path="url(#clipPath2)" fill="none" width="80" rx="20" ry="20" height="40"/>
      <text x="538.0332" y="135.7139" clip-path="url(#clipPath2)" font-family="sans-serif" stroke="none" font-weight="bold" stroke-width="1" xml:space="preserve">Начало</text>
    </g>
    <g fill="url(#linearGradient2)" text-rendering="geometricPrecision" shape-rendering="geometricPrecision" transform="matrix(1,0,0,1,-436,-96)" stroke="url(#linearGradient2)">
      <path d="M520.6 181 L609.6 181 L599.4 221 L510.4 221 Z" stroke="none" clip-path="url(#clipPath2)"/>
    </g>
    <g text-rendering="geometricPrecision" stroke-miterlimit="1.45" stroke-width="2" shape-rendering="geometricPrecision" transform="matrix(1,0,0,1,-436,-96)" stroke-linecap="butt">
      <path fill="none" d="M520.6 181 L609.6 181 L599.4 221 L510.4 221 Z" clip-path="url(#clipPath2)"/>
      <text x="535.9912" y="198.3633" clip-path="url(#clipPath2)" font-family="sans-serif" stroke="none" font-weight="bold" stroke-width="1" xml:space="preserve">k, g, eps</text>
      <text x="518.6621" y="213.0645" clip-path="url(#clipPath2)" font-family="sans-serif" stroke="none" font-weight="bold" stroke-width="1" xml:space="preserve">approximation</text>
    </g>
    <g fill="url(#linearGradient3)" text-rendering="geometricPrecision" shape-rendering="geometricPrecision" transform="matrix(1,0,0,1,-436,-96)" stroke="url(#linearGradient3)">
      <path d="M530 390 L590 390 L600 400 L600 430 L520 430 L520 400 Z" stroke="none" clip-path="url(#clipPath2)"/>
    </g>
    <g text-rendering="geometricPrecision" stroke-miterlimit="1.45" stroke-width="2" shape-rendering="geometricPrecision" transform="matrix(1,0,0,1,-436,-96)" stroke-linecap="butt">
      <path fill="none" d="M530 390 L590 390 L600 400 L600 430 L520 430 L520 400 Z" clip-path="url(#clipPath2)"/>
      <text x="539.1143" y="414.7139" clip-path="url(#clipPath2)" font-family="sans-serif" stroke="none" font-weight="bold" stroke-width="1" xml:space="preserve">Цикл A</text>
    </g>
    <g fill="url(#linearGradient4)" text-rendering="geometricPrecision" shape-rendering="geometricPrecision" transform="matrix(1,0,0,1,-436,-96)" stroke="url(#linearGradient4)">
      <rect x="483.2" width="153.6" height="40" y="530" clip-path="url(#clipPath2)" stroke="none"/>
    </g>
    <g text-rendering="geometricPrecision" stroke-miterlimit="1.45" stroke-width="2" shape-rendering="geometricPrecision" transform="matrix(1,0,0,1,-436,-96)" stroke-linecap="butt">
      <rect fill="none" x="483.2" width="153.6" height="40" y="530" clip-path="url(#clipPath2)"/>
      <path fill="none" d="M493.2 530 L493.2 570 M626.8 530 L626.8 570 M493.2 530 Z" clip-path="url(#clipPath2)"/>
      <text x="500.4717" y="554.7139" clip-path="url(#clipPath2)" font-family="sans-serif" stroke="none" font-weight="bold" stroke-width="1" xml:space="preserve">next_x = g(prev_x, k)</text>
    </g>
    <g fill="url(#linearGradient5)" text-rendering="geometricPrecision" shape-rendering="geometricPrecision" transform="matrix(1,0,0,1,-436,-96)" stroke="url(#linearGradient5)">
      <path d="M451.7003 661.925 L668.2997 661.925 L668.2997 708.7777 L658.2997 718.7777 L461.7003 718.7777 L451.7003 708.7777 Z" stroke="none" clip-path="url(#clipPath2)"/>
    </g>
    <g text-rendering="geometricPrecision" stroke-miterlimit="1.45" stroke-width="2" shape-rendering="geometricPrecision" transform="matrix(1,0,0,1,-436,-96)" stroke-linecap="butt">
      <path fill="none" d="M451.7003 661.925 L668.2997 661.925 L668.2997 708.7777 L658.2997 718.7777 L461.7003 718.7777 L451.7003 708.7777 Z" clip-path="url(#clipPath2)"/>
      <text x="539.1143" y="680.3641" clip-path="url(#clipPath2)" font-family="sans-serif" stroke="none" font-weight="bold" stroke-width="1" xml:space="preserve">Цикл A</text>
      <text x="479.1348" y="695.0652" clip-path="url(#clipPath2)" font-family="sans-serif" stroke="none" font-weight="bold" stroke-width="1" xml:space="preserve">(abs(next_x - prev_x) &gt; eps) </text>
      <text x="467.8027" y="709.7664" clip-path="url(#clipPath2)" font-family="sans-serif" stroke="none" font-weight="bold" stroke-width="1" xml:space="preserve">and (*iterations_count &lt; 100000)</text>
    </g>
    <g fill="url(#linearGradient6)" text-rendering="geometricPrecision" shape-rendering="geometricPrecision" transform="matrix(1,0,0,1,-436,-96)" stroke="url(#linearGradient6)">
      <rect x="520" y="801.925" clip-path="url(#clipPath2)" width="80" rx="20" ry="20" height="40" stroke="none"/>
    </g>
    <g text-rendering="geometricPrecision" stroke-miterlimit="1.45" stroke-width="2" shape-rendering="geometricPrecision" transform="matrix(1,0,0,1,-436,-96)" stroke-linecap="butt">
      <rect x="520" y="801.925" clip-path="url(#clipPath2)" fill="none" width="80" rx="20" ry="20" height="40"/>
      <text x="542.0234" y="826.6389" clip-path="url(#clipPath2)" font-family="sans-serif" stroke="none" font-weight="bold" stroke-width="1" xml:space="preserve">Конец</text>
    </g>
    <g fill="url(#linearGradient7)" text-rendering="geometricPrecision" shape-rendering="geometricPrecision" transform="matrix(1,0,0,1,-436,-96)" stroke="url(#linearGradient7)">
      <path d="M523.7 740.3514 L606.5 740.3514 L596.3 780.3514 L513.5 780.3514 Z" stroke="none" clip-path="url(#clipPath2)"/>
    </g>
    <g text-rendering="geometricPrecision" stroke-miterlimit="1.45" stroke-width="2" shape-rendering="geometricPrecision" transform="matrix(1,0,0,1,-436,-96)" stroke-linecap="butt">
      <path fill="none" d="M523.7 740.3514 L606.5 740.3514 L596.3 780.3514 L513.5 780.3514 Z" clip-path="url(#clipPath2)"/>
      <text x="521.9873" y="765.0652" clip-path="url(#clipPath2)" font-family="sans-serif" stroke="none" font-weight="bold" stroke-width="1" xml:space="preserve">return next_x</text>
    </g>
    <g fill="url(#linearGradient8)" text-rendering="geometricPrecision" shape-rendering="geometricPrecision" transform="matrix(1,0,0,1,-436,-96)" stroke="url(#linearGradient8)">
      <path d="M507 460 L613 460 L613 500 L507 500 Z" stroke="none" clip-path="url(#clipPath2)"/>
    </g>
    <g text-rendering="geometricPrecision" stroke-miterlimit="1.45" stroke-width="2" shape-rendering="geometricPrecision" transform="matrix(1,0,0,1,-436,-96)" stroke-linecap="butt">
      <path fill="none" d="M507 460 L613 460 L613 500 L507 500 Z" clip-path="url(#clipPath2)"/>
      <text x="514.8037" y="484.7139" clip-path="url(#clipPath2)" font-family="sans-serif" stroke="none" font-weight="bold" stroke-width="1" xml:space="preserve">prev_x = next_x</text>
    </g>
    <g fill="url(#linearGradient9)" text-rendering="geometricPrecision" shape-rendering="geometricPrecision" transform="matrix(1,0,0,1,-436,-96)" stroke="url(#linearGradient9)">
      <path d="M494 250 L626 250 L626 290 L494 290 Z" stroke="none" clip-path="url(#clipPath2)"/>
    </g>
    <g text-rendering="geometricPrecision" stroke-miterlimit="1.45" stroke-width="2" shape-rendering="geometricPrecision" transform="matrix(1,0,0,1,-436,-96)" stroke-linecap="butt">
      <path fill="none" d="M494 250 L626 250 L626 290 L494 290 Z" clip-path="url(#clipPath2)"/>
      <text x="492.8135" y="267.3633" clip-path="url(#clipPath2)" font-family="sans-serif" stroke="none" font-weight="bold" stroke-width="1" xml:space="preserve">next_x = approximation</text>
      <text x="514.8037" y="282.0645" clip-path="url(#clipPath2)" font-family="sans-serif" stroke="none" font-weight="bold" stroke-width="1" xml:space="preserve">prev_x = next_x</text>
    </g>
    <g fill="url(#linearGradient10)" text-rendering="geometricPrecision" shape-rendering="geometricPrecision" transform="matrix(1,0,0,1,-436,-96)" stroke="url(#linearGradient10)">
      <path d="M501.6 320 L618.4 320 L618.4 360 L501.6 360 Z" stroke="none" clip-path="url(#clipPath2)"/>
    </g>
    <g text-rendering="geometricPrecision" stroke-miterlimit="1.45" stroke-width="2" shape-rendering="geometricPrecision" transform="matrix(1,0,0,1,-436,-96)" stroke-linecap="butt">
      <path fill="none" d="M501.6 320 L618.4 320 L618.4 360 L501.6 360 Z" clip-path="url(#clipPath2)"/>
      <text x="500.8174" y="344.7139" clip-path="url(#clipPath2)" font-family="sans-serif" stroke="none" font-weight="bold" stroke-width="1" xml:space="preserve">*iterations_count = 0</text>
    </g>
    <g fill="url(#linearGradient11)" text-rendering="geometricPrecision" shape-rendering="geometricPrecision" transform="matrix(1,0,0,1,-436,-96)" stroke="url(#linearGradient11)">
      <path d="M493.4569 595.9625 L626.543 595.9625 L626.543 635.9625 L493.4569 635.9625 Z" stroke="none" clip-path="url(#clipPath2)"/>
    </g>
    <g text-rendering="geometricPrecision" stroke-miterlimit="1.45" stroke-width="2" shape-rendering="geometricPrecision" transform="matrix(1,0,0,1,-436,-96)" stroke-linecap="butt">
      <path fill="none" d="M493.4569 595.9625 L626.543 595.9625 L626.543 635.9625 L493.4569 635.9625 Z" clip-path="url(#clipPath2)"/>
      <text x="499.9883" y="620.6764" clip-path="url(#clipPath2)" font-family="sans-serif" stroke="none" font-weight="bold" stroke-width="1" xml:space="preserve">++(*iterations_count)</text>
    </g>
    <g text-rendering="geometricPrecision" stroke-miterlimit="1.45" shape-rendering="geometricPrecision" transform="matrix(1,0,0,1,-436,-96)" stroke-linecap="butt">
      <path fill="none" d="M560 150.9951 L560 181.0273" clip-path="url(#clipPath2)"/>
    </g>
    <g text-rendering="geometricPrecision" stroke-miterlimit="1.45" shape-rendering="geometricPrecision" transform="matrix(1,0,0,1,-436,-96)" stroke-linecap="butt">
      <path fill="none" d="M560 718.7547 L560 740.3248" clip-path="url(#clipPath2)"/>
      <path fill="none" d="M560 780.3448 L560 791.1382 L560 791.1382 L560 801.9316" clip-path="url(#clipPath2)"/>
      <path fill="none" d="M560 429.9951 L560 460.0273" clip-path="url(#clipPath2)"/>
      <path fill="none" d="M560 499.9951 L560 530.0273" clip-path="url(#clipPath2)"/>
      <path fill="none" d="M560 220.979 L560 250.0374" clip-path="url(#clipPath2)"/>
      <path fill="none" d="M560 289.9951 L560 320.0273" clip-path="url(#clipPath2)"/>
      <path fill="none" d="M560 359.9951 L560 390.0273" clip-path="url(#clipPath2)"/>
      <path fill="none" d="M560 570.0013 L560 595.9891" clip-path="url(#clipPath2)"/>
      <path fill="none" d="M560 635.9763 L560 661.916" clip-path="url(#clipPath2)"/>
    </g>
  </g>
</svg>
