<?xml version="1.0" encoding="UTF-8"?><svg xmlns="http://www.w3.org/2000/svg" xmlns:xlink="http://www.w3.org/1999/xlink" fill-opacity="1" color-rendering="auto" color-interpolation="auto" text-rendering="auto" stroke="black" stroke-linecap="square" width="351" stroke-miterlimit="10" shape-rendering="auto" stroke-opacity="1" fill="black" stroke-dasharray="none" font-weight="normal" stroke-width="1" height="833" font-family="'Dialog'" font-style="normal" stroke-linejoin="miter" font-size="12px" stroke-dashoffset="0" image-rendering="auto">
  <!--Generated by ySVG 2.6-->
  <defs id="genericDefs"/>
  <g>
    <defs id="defs1">
      <linearGradient x1="551.6" gradientUnits="userSpaceOnUse" x2="631.6" y1="141" y2="181" id="linearGradient1" spreadMethod="reflect">
        <stop stop-opacity="1" stop-color="rgb(232,238,247)" offset="0%"/>
        <stop stop-opacity="1" stop-color="rgb(183,201,227)" offset="100%"/>
      </linearGradient>
      <linearGradient x1="542" gradientUnits="userSpaceOnUse" x2="641.2" y1="211" y2="251" id="linearGradient2" spreadMethod="reflect">
        <stop stop-opacity="1" stop-color="rgb(232,238,247)" offset="0%"/>
        <stop stop-opacity="1" stop-color="rgb(183,201,227)" offset="100%"/>
      </linearGradient>
      <linearGradient x1="551.6" gradientUnits="userSpaceOnUse" x2="631.6" y1="420" y2="460" id="linearGradient3" spreadMethod="reflect">
        <stop stop-opacity="1" stop-color="rgb(232,238,247)" offset="0%"/>
        <stop stop-opacity="1" stop-color="rgb(183,201,227)" offset="100%"/>
      </linearGradient>
      <linearGradient x1="491.2" gradientUnits="userSpaceOnUse" x2="692" y1="766.3589" y2="825.5661" id="linearGradient4" spreadMethod="reflect">
        <stop stop-opacity="1" stop-color="rgb(232,238,247)" offset="0%"/>
        <stop stop-opacity="1" stop-color="rgb(183,201,227)" offset="100%"/>
      </linearGradient>
      <linearGradient x1="520.6" gradientUnits="userSpaceOnUse" x2="662.6" y1="549" y2="625" id="linearGradient5" spreadMethod="reflect">
        <stop stop-opacity="1" stop-color="rgb(232,238,247)" offset="0%"/>
        <stop stop-opacity="1" stop-color="rgb(183,201,227)" offset="100%"/>
      </linearGradient>
      <linearGradient x1="551.6" gradientUnits="userSpaceOnUse" x2="631.6" y1="903.85" y2="943.85" id="linearGradient6" spreadMethod="reflect">
        <stop stop-opacity="1" stop-color="rgb(232,238,247)" offset="0%"/>
        <stop stop-opacity="1" stop-color="rgb(183,201,227)" offset="100%"/>
      </linearGradient>
      <linearGradient x1="543.1" gradientUnits="userSpaceOnUse" x2="640.1" y1="844.7081" y2="884.7081" id="linearGradient7" spreadMethod="reflect">
        <stop stop-opacity="1" stop-color="rgb(232,238,247)" offset="0%"/>
        <stop stop-opacity="1" stop-color="rgb(183,201,227)" offset="100%"/>
      </linearGradient>
      <linearGradient x1="530.2458" gradientUnits="userSpaceOnUse" x2="652.9542" y1="270.7658" y2="320" id="linearGradient8" spreadMethod="reflect">
        <stop stop-opacity="1" stop-color="rgb(232,238,247)" offset="0%"/>
        <stop stop-opacity="1" stop-color="rgb(183,201,227)" offset="100%"/>
      </linearGradient>
      <linearGradient x1="530.2458" gradientUnits="userSpaceOnUse" x2="652.9542" y1="350" y2="390" id="linearGradient9" spreadMethod="reflect">
        <stop stop-opacity="1" stop-color="rgb(232,238,247)" offset="0%"/>
        <stop stop-opacity="1" stop-color="rgb(183,201,227)" offset="100%"/>
      </linearGradient>
      <linearGradient x1="536.1" gradientUnits="userSpaceOnUse" x2="647.1" y1="484.5" y2="524.5" id="linearGradient10" spreadMethod="reflect">
        <stop stop-opacity="1" stop-color="rgb(232,238,247)" offset="0%"/>
        <stop stop-opacity="1" stop-color="rgb(183,201,227)" offset="100%"/>
      </linearGradient>
      <linearGradient x1="680" gradientUnits="userSpaceOnUse" x2="760" y1="625" y2="665" id="linearGradient11" spreadMethod="reflect">
        <stop stop-opacity="1" stop-color="rgb(232,238,247)" offset="0%"/>
        <stop stop-opacity="1" stop-color="rgb(183,201,227)" offset="100%"/>
      </linearGradient>
      <linearGradient x1="440" gradientUnits="userSpaceOnUse" x2="520" y1="625" y2="665" id="linearGradient12" spreadMethod="reflect">
        <stop stop-opacity="1" stop-color="rgb(232,238,247)" offset="0%"/>
        <stop stop-opacity="1" stop-color="rgb(183,201,227)" offset="100%"/>
      </linearGradient>
      <linearGradient x1="525.7442" gradientUnits="userSpaceOnUse" x2="657.4558" y1="695" y2="735" id="linearGradient13" spreadMethod="reflect">
        <stop stop-opacity="1" stop-color="rgb(232,238,247)" offset="0%"/>
        <stop stop-opacity="1" stop-color="rgb(183,201,227)" offset="100%"/>
      </linearGradient>
      <clipPath clipPathUnits="userSpaceOnUse" id="clipPath1">
        <path d="M0 0 L351 0 L351 833 L0 833 L0 0 Z"/>
      </clipPath>
      <clipPath clipPathUnits="userSpaceOnUse" id="clipPath2">
        <path d="M424 126 L775 126 L775 959 L424 959 L424 126 Z"/>
      </clipPath>
    </defs>
    <g fill="url(#linearGradient1)" text-rendering="geometricPrecision" shape-rendering="geometricPrecision" transform="matrix(1,0,0,1,-424,-126)" stroke="url(#linearGradient1)">
      <rect x="551.6" y="141" clip-path="url(#clipPath2)" width="80" rx="20" ry="20" height="40" stroke="none"/>
    </g>
    <g text-rendering="geometricPrecision" stroke-miterlimit="1.45" stroke-width="2" shape-rendering="geometricPrecision" transform="matrix(1,0,0,1,-424,-126)" stroke-linecap="butt">
      <rect x="551.6" y="141" clip-path="url(#clipPath2)" fill="none" width="80" rx="20" ry="20" height="40"/>
      <text x="569.6332" y="165.7139" clip-path="url(#clipPath2)" font-family="sans-serif" stroke="none" font-weight="bold" stroke-width="1" xml:space="preserve">Начало</text>
    </g>
    <g fill="url(#linearGradient2)" text-rendering="geometricPrecision" shape-rendering="geometricPrecision" transform="matrix(1,0,0,1,-424,-126)" stroke="url(#linearGradient2)">
      <path d="M552.2 211 L641.2 211 L631 251 L542 251 Z" stroke="none" clip-path="url(#clipPath2)"/>
    </g>
    <g text-rendering="geometricPrecision" stroke-miterlimit="1.45" stroke-width="2" shape-rendering="geometricPrecision" transform="matrix(1,0,0,1,-424,-126)" stroke-linecap="butt">
      <path fill="none" d="M552.2 211 L641.2 211 L631 251 L542 251 Z" clip-path="url(#clipPath2)"/>
      <text x="569.2582" y="228.3633" clip-path="url(#clipPath2)" font-family="sans-serif" stroke="none" font-weight="bold" stroke-width="1" xml:space="preserve">k, f, eps</text>
      <text x="550.2621" y="243.0645" clip-path="url(#clipPath2)" font-family="sans-serif" stroke="none" font-weight="bold" stroke-width="1" xml:space="preserve">approximation</text>
    </g>
    <g fill="url(#linearGradient3)" text-rendering="geometricPrecision" shape-rendering="geometricPrecision" transform="matrix(1,0,0,1,-424,-126)" stroke="url(#linearGradient3)">
      <path d="M561.6 420 L621.6 420 L631.6 430 L631.6 460 L551.6 460 L551.6 430 Z" stroke="none" clip-path="url(#clipPath2)"/>
    </g>
    <g text-rendering="geometricPrecision" stroke-miterlimit="1.45" stroke-width="2" shape-rendering="geometricPrecision" transform="matrix(1,0,0,1,-424,-126)" stroke-linecap="butt">
      <path fill="none" d="M561.6 420 L621.6 420 L631.6 430 L631.6 460 L551.6 460 L551.6 430 Z" clip-path="url(#clipPath2)"/>
      <text x="570.7142" y="444.7139" clip-path="url(#clipPath2)" font-family="sans-serif" stroke="none" font-weight="bold" stroke-width="1" xml:space="preserve">Цикл B</text>
    </g>
    <g fill="url(#linearGradient4)" text-rendering="geometricPrecision" shape-rendering="geometricPrecision" transform="matrix(1,0,0,1,-424,-126)" stroke="url(#linearGradient4)">
      <path d="M491.2 766.3589 L692 766.3589 L692 815.5661 L682 825.5661 L501.2 825.5661 L491.2 815.5661 Z" stroke="none" clip-path="url(#clipPath2)"/>
    </g>
    <g text-rendering="geometricPrecision" stroke-miterlimit="1.45" stroke-width="2" shape-rendering="geometricPrecision" transform="matrix(1,0,0,1,-424,-126)" stroke-linecap="butt">
      <path fill="none" d="M491.2 766.3589 L692 766.3589 L692 815.5661 L682 825.5661 L501.2 825.5661 L491.2 815.5661 Z" clip-path="url(#clipPath2)"/>
      <text x="570.7142" y="785.9752" clip-path="url(#clipPath2)" font-family="sans-serif" stroke="none" font-weight="bold" stroke-width="1" xml:space="preserve">Цикл B</text>
      <text x="520.4261" y="800.6764" clip-path="url(#clipPath2)" font-family="sans-serif" stroke="none" font-weight="bold" stroke-width="1" xml:space="preserve">(abs(f(half, k)) &gt; eps) and</text>
      <text x="511.7367" y="815.3776" clip-path="url(#clipPath2)" font-family="sans-serif" stroke="none" font-weight="bold" stroke-width="1" xml:space="preserve">(*iterations_count &lt; 100000)</text>
    </g>
    <g fill="url(#linearGradient5)" text-rendering="geometricPrecision" shape-rendering="geometricPrecision" transform="matrix(1,0,0,1,-424,-126)" stroke="url(#linearGradient5)">
      <path d="M591.6 549 L662.6 587 L591.6 625 L520.6 587 Z" stroke="none" clip-path="url(#clipPath2)"/>
    </g>
    <g text-rendering="geometricPrecision" stroke-miterlimit="1.45" stroke-width="2" shape-rendering="geometricPrecision" transform="matrix(1,0,0,1,-424,-126)" stroke-linecap="butt">
      <path fill="none" d="M591.6 549 L662.6 587 L591.6 625 L520.6 587 Z" clip-path="url(#clipPath2)"/>
      <text x="536.4222" y="591.7139" clip-path="url(#clipPath2)" font-family="sans-serif" stroke="none" font-weight="bold" stroke-width="1" xml:space="preserve">f(half, k) * f(a, k) &lt; 0</text>
    </g>
    <g fill="url(#linearGradient6)" text-rendering="geometricPrecision" shape-rendering="geometricPrecision" transform="matrix(1,0,0,1,-424,-126)" stroke="url(#linearGradient6)">
      <rect x="551.6" y="903.85" clip-path="url(#clipPath2)" width="80" rx="20" ry="20" height="40" stroke="none"/>
    </g>
    <g text-rendering="geometricPrecision" stroke-miterlimit="1.45" stroke-width="2" shape-rendering="geometricPrecision" transform="matrix(1,0,0,1,-424,-126)" stroke-linecap="butt">
      <rect x="551.6" y="903.85" clip-path="url(#clipPath2)" fill="none" width="80" rx="20" ry="20" height="40"/>
      <text x="573.6234" y="928.5638" clip-path="url(#clipPath2)" font-family="sans-serif" stroke="none" font-weight="bold" stroke-width="1" xml:space="preserve">Конец</text>
    </g>
    <g fill="url(#linearGradient7)" text-rendering="geometricPrecision" shape-rendering="geometricPrecision" transform="matrix(1,0,0,1,-424,-126)" stroke="url(#linearGradient7)">
      <path d="M553.3 844.7081 L640.1 844.7081 L629.9 884.7081 L543.1 884.7081 Z" stroke="none" clip-path="url(#clipPath2)"/>
    </g>
    <g text-rendering="geometricPrecision" stroke-miterlimit="1.45" stroke-width="2" shape-rendering="geometricPrecision" transform="matrix(1,0,0,1,-424,-126)" stroke-linecap="butt">
      <path fill="none" d="M553.3 844.7081 L640.1 844.7081 L629.9 884.7081 L543.1 884.7081 Z" clip-path="url(#clipPath2)"/>
      <text x="553.5873" y="869.4219" clip-path="url(#clipPath2)" font-family="sans-serif" stroke="none" font-weight="bold" stroke-width="1" xml:space="preserve">return next_x</text>
    </g>
    <g fill="url(#linearGradient8)" text-rendering="geometricPrecision" shape-rendering="geometricPrecision" transform="matrix(1,0,0,1,-424,-126)" stroke="url(#linearGradient8)">
      <path d="M530.2458 270.7658 L652.9542 270.7658 L652.9542 320 L530.2458 320 Z" stroke="none" clip-path="url(#clipPath2)"/>
    </g>
    <g text-rendering="geometricPrecision" stroke-miterlimit="1.45" stroke-width="2" shape-rendering="geometricPrecision" transform="matrix(1,0,0,1,-424,-126)" stroke-linecap="butt">
      <path fill="none" d="M530.2458 270.7658 L652.9542 270.7658 L652.9542 320 L530.2458 320 Z" clip-path="url(#clipPath2)"/>
      <text x="538.4203" y="285.3956" clip-path="url(#clipPath2)" font-family="sans-serif" stroke="none" font-weight="bold" stroke-width="1" xml:space="preserve">a = approximation </text>
      <text x="565.9183" y="300.0968" clip-path="url(#clipPath2)" font-family="sans-serif" stroke="none" font-weight="bold" stroke-width="1" xml:space="preserve">b = a + a </text>
      <text x="570.7582" y="314.7979" clip-path="url(#clipPath2)" font-family="sans-serif" stroke="none" font-weight="bold" stroke-width="1" xml:space="preserve">half = 0</text>
    </g>
    <g fill="url(#linearGradient9)" text-rendering="geometricPrecision" shape-rendering="geometricPrecision" transform="matrix(1,0,0,1,-424,-126)" stroke="url(#linearGradient9)">
      <path d="M530.2458 350 L652.9542 350 L652.9542 390 L530.2458 390 Z" stroke="none" clip-path="url(#clipPath2)"/>
    </g>
    <g text-rendering="geometricPrecision" stroke-miterlimit="1.45" stroke-width="2" shape-rendering="geometricPrecision" transform="matrix(1,0,0,1,-424,-126)" stroke-linecap="butt">
      <path fill="none" d="M530.2458 350 L652.9542 350 L652.9542 390 L530.2458 390 Z" clip-path="url(#clipPath2)"/>
      <text x="532.4174" y="374.7139" clip-path="url(#clipPath2)" font-family="sans-serif" stroke="none" font-weight="bold" stroke-width="1" xml:space="preserve">*iterations_count = 0</text>
    </g>
    <g fill="url(#linearGradient10)" text-rendering="geometricPrecision" shape-rendering="geometricPrecision" transform="matrix(1,0,0,1,-424,-126)" stroke="url(#linearGradient10)">
      <path d="M536.1 484.5 L647.1 484.5 L647.1 524.5 L536.1 524.5 Z" stroke="none" clip-path="url(#clipPath2)"/>
    </g>
    <g text-rendering="geometricPrecision" stroke-miterlimit="1.45" stroke-width="2" shape-rendering="geometricPrecision" transform="matrix(1,0,0,1,-424,-126)" stroke-linecap="butt">
      <path fill="none" d="M536.1 484.5 L647.1 484.5 L647.1 524.5 L536.1 524.5 Z" clip-path="url(#clipPath2)"/>
      <text x="547.9213" y="509.2139" clip-path="url(#clipPath2)" font-family="sans-serif" stroke="none" font-weight="bold" stroke-width="1" xml:space="preserve">half = (b + a) / 2</text>
    </g>
    <g fill="url(#linearGradient11)" text-rendering="geometricPrecision" shape-rendering="geometricPrecision" transform="matrix(1,0,0,1,-424,-126)" stroke="url(#linearGradient11)">
      <path d="M680 625 L760 625 L760 665 L680 665 Z" stroke="none" clip-path="url(#clipPath2)"/>
    </g>
    <g text-rendering="geometricPrecision" stroke-miterlimit="1.45" stroke-width="2" shape-rendering="geometricPrecision" transform="matrix(1,0,0,1,-424,-126)" stroke-linecap="butt">
      <path fill="none" d="M680 625 L760 625 L760 665 L680 665 Z" clip-path="url(#clipPath2)"/>
      <text x="698.8301" y="649.7139" clip-path="url(#clipPath2)" font-family="sans-serif" stroke="none" font-weight="bold" stroke-width="1" xml:space="preserve">b = half</text>
    </g>
    <g fill="url(#linearGradient12)" text-rendering="geometricPrecision" shape-rendering="geometricPrecision" transform="matrix(1,0,0,1,-424,-126)" stroke="url(#linearGradient12)">
      <path d="M440 625 L520 625 L520 665 L440 665 Z" stroke="none" clip-path="url(#clipPath2)"/>
    </g>
    <g text-rendering="geometricPrecision" stroke-miterlimit="1.45" stroke-width="2" shape-rendering="geometricPrecision" transform="matrix(1,0,0,1,-424,-126)" stroke-linecap="butt">
      <path fill="none" d="M440 625 L520 625 L520 665 L440 665 Z" clip-path="url(#clipPath2)"/>
      <text x="458.8301" y="649.7139" clip-path="url(#clipPath2)" font-family="sans-serif" stroke="none" font-weight="bold" stroke-width="1" xml:space="preserve">b = half</text>
    </g>
    <g fill="url(#linearGradient13)" text-rendering="geometricPrecision" shape-rendering="geometricPrecision" transform="matrix(1,0,0,1,-424,-126)" stroke="url(#linearGradient13)">
      <path d="M525.7442 695 L657.4558 695 L657.4558 735 L525.7442 735 Z" stroke="none" clip-path="url(#clipPath2)"/>
    </g>
    <g text-rendering="geometricPrecision" stroke-miterlimit="1.45" stroke-width="2" shape-rendering="geometricPrecision" transform="matrix(1,0,0,1,-424,-126)" stroke-linecap="butt">
      <path fill="none" d="M525.7442 695 L657.4558 695 L657.4558 735 L525.7442 735 Z" clip-path="url(#clipPath2)"/>
      <text x="531.5883" y="719.7139" clip-path="url(#clipPath2)" font-family="sans-serif" stroke="none" font-weight="bold" stroke-width="1" xml:space="preserve">++(*iterations_count)</text>
    </g>
    <g text-rendering="geometricPrecision" stroke-miterlimit="1.45" shape-rendering="geometricPrecision" transform="matrix(1,0,0,1,-424,-126)" stroke-linecap="butt">
      <path fill="none" d="M591.6 180.9951 L591.6 211.0273" clip-path="url(#clipPath2)"/>
    </g>
    <g text-rendering="geometricPrecision" stroke-miterlimit="1.45" shape-rendering="geometricPrecision" transform="matrix(1,0,0,1,-424,-126)" stroke-linecap="butt">
      <path fill="none" d="M591.6 825.5352 L591.6 844.7008" clip-path="url(#clipPath2)"/>
      <path fill="none" d="M591.6 884.7205 L591.6 903.8649" clip-path="url(#clipPath2)"/>
      <path fill="none" d="M591.6 251.0253 L591.6 270.735" clip-path="url(#clipPath2)"/>
      <path fill="none" d="M591.6 319.9759 L591.6 350.0197" clip-path="url(#clipPath2)"/>
      <path fill="none" d="M591.6 389.9951 L591.6 405 L591.6 405 L591.6 420.0049" clip-path="url(#clipPath2)"/>
      <path fill="none" d="M591.6 459.9988 L591.6 472.25 L591.6 472.25 L591.6 484.5012" clip-path="url(#clipPath2)"/>
      <path fill="none" d="M591.6 524.5208 L591.6 549.0182" clip-path="url(#clipPath2)"/>
      <path fill="none" d="M662.6024 587 L720 587 L720 616.9775" clip-path="url(#clipPath2)"/>
      <path d="M720 624.9775 L725 612.9775 L720 615.9775 L715 612.9775 Z" clip-path="url(#clipPath2)" stroke="none"/>
      <text x="683.2496" y="577.5997" clip-path="url(#clipPath2)" font-family="sans-serif" stroke="none" font-weight="bold" xml:space="preserve">Да</text>
      <path fill="none" d="M520.6239 587 L480 587 L480 616.9775" clip-path="url(#clipPath2)"/>
      <path d="M480 624.9775 L485 612.9775 L480 615.9775 L475 612.9775 Z" clip-path="url(#clipPath2)" stroke="none"/>
      <text x="485.2258" y="576.861" clip-path="url(#clipPath2)" font-family="sans-serif" stroke="none" font-weight="bold" xml:space="preserve">Нет</text>
      <path fill="none" d="M720 664.9951 L720 690 L591.6 690 L591.6 695.0293" clip-path="url(#clipPath2)"/>
      <path fill="none" d="M480 664.9951 L480 690 L600 690" clip-path="url(#clipPath2)"/>
      <path fill="none" d="M591.6 734.9639 L591.6 766.3865" clip-path="url(#clipPath2)"/>
    </g>
  </g>
</svg>
